<?xml version="1.0" standalone="no"?>
<!DOCTYPE svg PUBLIC "-//W3C//DTD SVG 20010904//EN"
 "http://www.w3.org/TR/2001/REC-SVG-20010904/DTD/svg10.dtd">
<svg version="1.0" xmlns="http://www.w3.org/2000/svg"
 width="1000.000000pt" height="1000.000000pt" viewBox="0 0 1000.000000 1000.000000"
 preserveAspectRatio="xMidYMid meet">

<g transform="translate(0.000000,1000.000000) scale(0.100000,-0.100000)"
fill="#000000" stroke="none">
<path d="M6630 8183 c-63 -13 -470 -96 -905 -184 -1049 -212 -1189 -240 -1197
-246 -5 -2 -8 -24 -8 -49 0 -32 -4 -44 -14 -44 -8 0 -18 5 -21 10 -4 6 -11 8
-16 4 -5 -3 -8 0 -7 6 2 7 -8 20 -22 31 -25 19 -26 19 -258 -29 -128 -26 -229
-52 -225 -56 4 -5 -1 -6 -12 -3 -25 8 -249 -36 -238 -46 4 -5 1 -5 -8 -2 -19
7 -213 -33 -217 -45 -2 -6 -8 -7 -13 -4 -14 8 -106 -26 -129 -48 -11 -10 -22
-18 -26 -18 -4 0 -14 -8 -23 -18 -9 -9 -25 -24 -36 -32 -11 -8 -8 -1 8 16 32
35 38 89 10 80 -10 -3 -128 -28 -263 -55 -135 -28 -468 -96 -740 -151 -272
-56 -628 -128 -790 -161 -162 -32 -305 -63 -318 -69 -16 -7 -21 -16 -18 -32 3
-13 8 -98 11 -189 l7 -166 -64 -13 c-285 -56 -277 -50 -266 -206 5 -60 10
-118 13 -129 3 -11 50 -69 104 -129 l99 -109 6 -91 c3 -50 10 -194 16 -321 6
-126 15 -318 20 -425 6 -107 12 -247 15 -310 3 -63 7 -151 10 -195 3 -44 7
-138 10 -210 19 -465 48 -953 60 -1025 19 -112 58 -770 50 -839 -4 -29 -4 -96
0 -148 l7 -95 127 -161 c151 -192 279 -356 414 -527 54 -69 181 -231 282 -360
101 -129 253 -323 337 -429 l153 -195 60 2 c33 2 78 5 100 8 l40 6 128 -162
c70 -88 134 -163 141 -166 12 -5 213 47 646 166 101 28 573 155 1115 301 143
39 366 99 495 134 129 35 728 197 1330 360 602 163 1262 341 1465 396 204 55
410 111 458 124 49 13 95 29 101 35 8 6 15 48 19 108 l6 97 -60 107 -59 107
15 212 c9 122 24 245 35 288 13 55 22 145 29 326 57 1282 111 2448 114 2451 1
1 38 9 82 19 90 19 130 37 143 63 5 9 12 67 15 128 5 88 3 115 -8 131 -8 12
-124 108 -258 214 -816 650 -774 614 -780 656 -4 21 -7 53 -7 71 0 22 -6 35
-17 39 -10 3 -31 15 -47 26 l-29 20 7 173 7 173 -65 48 c-73 54 -86 83 -86
180 l0 61 -57 43 -57 42 -68 -11 c-113 -20 -112 -20 -248 86 -365 285 -477
370 -495 374 -11 3 -72 -6 -135 -19z m387 -193 c18 -13 31 -25 29 -27 -2 -2
-162 -37 -356 -77 l-352 -72 -59 45 c-50 38 -57 47 -42 53 10 4 155 35 323 69
168 34 319 65 335 69 23 5 37 2 60 -15 17 -12 45 -32 62 -45z m122 -92 c31
-23 60 -45 64 -49 10 -8 -34 -18 -426 -98 l-287 -59 -61 49 -61 48 29 7 c15 3
43 10 61 14 21 6 32 5 32 -2 0 -6 6 -6 15 2 8 7 140 38 292 70 153 32 280 58
282 59 2 1 29 -18 60 -41z m-1169 -51 c-41 -22 -70 -41 -70 -47 0 -4 23 -14
51 -24 49 -18 50 -18 64 0 13 18 10 19 -38 24 l-52 5 65 8 c75 9 103 22 81 36
-9 6 -5 9 13 9 l27 0 -32 -29 -33 -29 35 -1 34 -1 -35 -7 c-45 -9 -62 -19 -54
-33 10 -15 -66 -2 -111 19 -29 14 -33 19 -22 31 17 21 69 52 87 52 8 0 4 -6
-10 -13z m73 6 c-7 -2 -21 -2 -30 0 -10 3 -4 5 12 5 17 0 24 -2 18 -5z m114
-25 c11 -25 7 -48 -8 -48 -4 0 -6 6 -3 14 3 8 1 24 -6 35 -6 12 -7 21 -2 21 5
0 13 -10 19 -22z m-425 -47 c-21 -13 41 -61 69 -54 15 4 20 3 15 -5 -13 -21
-57 -12 -96 19 -43 35 -43 49 -2 49 18 0 23 -3 14 -9z m-37 -46 c34 -30 37
-35 19 -35 -12 0 -27 7 -34 15 -7 8 -16 12 -22 9 -5 -4 -5 -11 1 -18 19 -22
-1 -26 -28 -6 -67 51 -67 50 -51 60 31 20 74 10 115 -25z m398 28 c-7 -2 -19
-2 -25 0 -7 3 -2 5 12 5 14 0 19 -2 13 -5z m-562 -22 c-15 -10 7 -21 42 -21
18 0 19 -2 7 -10 -13 -9 -13 -11 -1 -19 8 -5 21 -7 29 -3 10 3 13 1 8 -6 -12
-21 -47 -13 -87 19 -45 35 -48 46 -16 51 27 5 36 0 18 -11z m-681 -65 c0 -3
-4 -8 -10 -11 -5 -3 -10 -1 -10 4 0 6 5 11 10 11 6 0 10 -2 10 -4z m-190 -46
c0 -5 -2 -10 -4 -10 -3 0 -8 5 -11 10 -3 6 -1 10 4 10 6 0 11 -4 11 -10z m-95
-10 c3 -5 1 -10 -4 -10 -6 0 -11 5 -11 10 0 6 2 10 4 10 3 0 8 -4 11 -10z
m1481 -17 c-3 -3 -16 -1 -28 5 l-23 12 23 -6 c14 -3 22 -1 23 8 0 11 2 11 6 0
3 -7 2 -16 -1 -19z m44 17 c13 -8 13 -10 -2 -10 -9 0 -20 5 -23 10 -8 13 5 13
25 0z m-884 -38 c-4 -3 -14 2 -24 12 -16 18 -16 18 6 6 13 -6 21 -14 18 -18z
m779 17 c4 -5 5 -9 3 -10 -43 -8 -88 -8 -88 1 0 7 8 9 20 5 11 -3 20 -3 20 2
0 12 38 14 45 2z m-820 -9 c3 -5 1 -10 -4 -10 -6 0 -11 5 -11 10 0 6 2 10 4
10 3 0 8 -4 11 -10z m-61 -9 c3 -5 -1 -14 -9 -21 -12 -10 -18 -10 -30 0 -9 7
-13 15 -10 18 2 3 11 -1 20 -8 13 -11 14 -10 9 4 -6 17 11 23 20 7z m36 -1 c0
-5 -2 -10 -4 -10 -3 0 -8 5 -11 10 -3 6 -1 10 4 10 6 0 11 -4 11 -10z m228
-75 c28 -22 51 -43 52 -46 0 -3 -43 -14 -95 -24 -86 -17 -100 -18 -137 -5 -22
8 -47 25 -55 37 -14 21 -13 23 19 43 20 12 50 20 77 20 l44 0 -22 24 c-21 22
-21 24 -4 28 10 2 30 -5 44 -16 15 -12 49 -39 77 -61z m186 79 c34 -13 14 -24
-31 -19 -87 12 -135 -28 -73 -60 42 -22 106 -19 130 5 21 21 45 26 54 11 10
-15 -17 -28 -86 -41 -76 -15 -134 -4 -169 31 -20 20 -20 22 -4 39 26 29 138
50 179 34z m296 -9 c7 -8 8 -15 2 -15 -5 0 -15 7 -22 15 -7 8 -8 15 -2 15 5 0
15 -7 22 -15z m-53 -2 c-9 -2 -15 -8 -12 -13 8 -13 -47 -22 -59 -9 -8 9 -7 10
7 6 11 -4 25 -1 33 8 9 8 23 14 32 14 15 -1 15 -2 -1 -6z m-779 -12 c11 -7 11
-9 -1 -14 -16 -6 -27 0 -27 15 0 10 11 10 28 -1z m-50 -16 c-2 -5 -11 -10 -20
-10 -19 -2 -23 7 -11 19 10 10 35 3 31 -9z m-62 -17 c-10 -5 -25 -6 -34 -2
-14 6 -13 8 8 14 31 9 48 0 26 -12z m-67 -12 c-11 -11 -79 -17 -79 -8 0 6 14
10 30 10 17 -1 33 2 37 5 3 4 9 5 11 2 3 -3 3 -7 1 -9z m-1322 -12 c-3 -3 -12
-4 -19 -1 -8 3 -5 6 6 6 11 1 17 -2 13 -5z m1198 -13 c-8 -15 -32 -14 -41 1
-5 8 -2 9 9 5 9 -3 19 -2 23 4 3 6 8 8 11 5 3 -2 2 -9 -2 -15z m35 9 c0 -5 -4
-10 -10 -10 -5 0 -10 5 -10 10 0 6 5 10 10 10 6 0 10 -4 10 -10z m365 -51 c16
-48 14 -74 -4 -53 -15 17 -41 95 -35 105 10 16 22 0 39 -52z m-470 31 c3 -5
-3 -10 -14 -10 -12 0 -21 5 -21 10 0 6 6 10 14 10 8 0 18 -4 21 -10z m-95 -15
c11 -13 10 -14 -4 -9 -9 3 -16 10 -16 15 0 13 6 11 20 -6z m50 3 c0 -11 -12
-10 -30 2 -12 7 -10 9 8 7 12 0 22 -5 22 -9z m426 -9 c4 -8 -9 -10 -42 -8 -79
4 -104 0 -111 -18 -18 -47 131 -78 159 -33 14 22 62 28 56 8 -8 -23 -61 -41
-133 -45 -58 -4 -76 -1 -102 16 -71 45 -22 90 99 91 38 0 70 -5 74 -11z
m-1715 -46 c13 -16 12 -17 -3 -4 -10 7 -18 15 -18 17 0 8 8 3 21 -13z m1518
-29 l52 -39 -38 -7 c-21 -3 -65 -13 -97 -22 -59 -15 -60 -15 -88 9 l-29 25 23
9 c13 5 43 14 67 21 37 10 42 14 27 22 -22 12 -96 0 -119 -20 -13 -12 -20 -13
-29 -4 -16 16 -8 21 49 37 75 22 122 14 182 -31z m-1579 -4 c0 -5 -4 -10 -10
-10 -5 0 -10 5 -10 10 0 6 5 10 10 10 6 0 10 -4 10 -10z m155 -19 c-3 -5 1
-25 9 -43 8 -18 17 -45 21 -61 3 -16 19 -36 39 -49 18 -12 46 -42 62 -67 16
-25 56 -84 90 -131 34 -47 64 -95 68 -107 4 -12 33 -44 64 -70 31 -27 60 -53
65 -60 4 -7 42 -42 85 -79 42 -37 83 -79 90 -93 13 -26 13 -26 -9 2 -17 23
-24 25 -36 15 -12 -10 -14 -9 -12 3 6 25 -43 67 -73 63 -15 -1 -30 2 -33 7 -3
5 0 6 8 3 25 -9 30 16 8 37 -21 20 -31 13 -11 -7 7 -7 6 -11 -5 -11 -8 0 -15
9 -15 19 0 10 -5 18 -11 18 -5 0 -7 5 -3 11 4 7 0 9 -13 5 -11 -3 -28 1 -39 9
-19 15 -19 15 1 8 17 -6 18 -4 8 9 -7 8 -10 18 -6 21 3 4 -1 7 -9 7 -9 0 -25
15 -37 32 -17 27 -20 29 -18 11 0 -12 5 -19 9 -17 4 3 8 -2 8 -10 0 -9 -2 -16
-5 -16 -12 0 -48 40 -42 47 4 3 7 1 7 -5 0 -7 5 -12 10 -12 7 0 7 6 0 19 -5
11 -8 26 -5 33 3 7 -2 22 -11 33 -10 13 -14 15 -11 5 5 -17 -28 -25 -38 -9 -3
5 1 6 9 3 9 -3 16 -1 16 5 0 6 -4 11 -9 11 -5 0 -7 10 -4 23 4 18 3 19 -7 7
-9 -12 -10 -10 -5 10 6 24 5 24 -9 6 -9 -11 -16 -14 -16 -7 0 7 -5 9 -12 5
-10 -6 -10 -4 0 7 19 20 14 43 -14 69 -19 19 -27 21 -33 11 -6 -10 -10 -9 -14
4 -4 9 -3 13 3 10 6 -3 10 -4 10 -1 0 2 3 13 6 23 4 14 4 15 -4 4 -8 -11 -12
-9 -22 9 -8 15 -8 20 -1 16 27 -17 8 14 -24 38 -19 15 -35 23 -35 17 0 -5 10
-17 22 -25 12 -9 17 -16 11 -16 -6 0 -16 7 -23 15 -7 8 -20 15 -28 15 -12 0
-13 3 -4 12 13 13 17 32 5 25 -5 -3 -9 10 -10 28 -2 18 -10 45 -18 61 -18 34
-19 54 -4 54 5 0 8 -4 4 -9z m186 -434 c-10 -9 -11 -8 -5 6 3 10 9 15 12 12 3
-3 0 -11 -7 -18z m76 -113 c-3 -3 -12 -4 -19 -1 -8 3 -5 6 6 6 11 1 17 -2 13
-5z m13 -54 c-8 -5 -19 -10 -25 -10 -5 0 -3 5 5 10 8 5 20 10 25 10 6 0 3 -5
-5 -10z m50 -31 c0 -6 -4 -7 -10 -4 -5 3 -10 11 -10 16 0 6 5 7 10 4 6 -3 10
-11 10 -16z m175 -72 c8 -9 10 -19 4 -28 -5 -8 -9 -9 -9 -3 0 17 -72 26 -83
11 -6 -9 -7 -8 -5 3 4 13 34 27 66 29 7 1 19 -5 27 -12z m35 -21 c0 -2 -8 -10
-17 -17 -16 -13 -17 -12 -4 4 13 16 21 21 21 13z m-36 -24 c6 -10 36 -9 53 1
6 4 18 -4 27 -18 9 -14 21 -23 26 -20 9 5 31 -7 155 -89 46 -30 72 -53 68 -60
-11 -17 -12 -37 -2 -30 5 3 7 9 4 14 -3 5 -1 11 5 15 8 5 141 -76 174 -106 6
-5 -5 -15 -25 -23 -19 -9 -27 -15 -19 -16 9 0 26 7 38 16 21 14 25 14 46 0 13
-8 33 -28 45 -45 19 -27 20 -29 3 -37 -9 -4 -20 -6 -24 -6 -5 1 -8 -2 -8 -8 0
-14 7 -13 34 5 21 14 27 14 52 1 93 -49 206 -97 249 -106 80 -18 239 -14 340
8 322 70 883 194 896 198 27 8 107 -71 120 -119 22 -81 27 -146 12 -151 -8 -3
-12 -2 -9 2 3 5 1 22 -4 38 -10 29 -10 29 -5 -5 4 -26 2 -32 -10 -27 -8 3 -15
1 -15 -4 0 -6 4 -10 10 -10 16 0 1 -25 -23 -35 -15 -7 -22 -20 -24 -45 -2 -19
-7 -38 -12 -43 -6 -6 -8 -2 -4 12 7 28 -5 27 -16 -1 -5 -14 -5 -28 2 -36 7 -9
6 -11 -8 -6 -14 6 -16 4 -10 -6 6 -10 4 -12 -8 -7 -10 4 -14 2 -11 -6 2 -7 -8
-24 -23 -37 -20 -19 -24 -20 -13 -5 8 11 -2 4 -22 -16 -61 -60 -166 -75 -214
-31 -11 10 -25 17 -32 14 -8 -2 -10 2 -5 15 6 16 5 16 -10 5 -17 -15 -37 -9
-37 11 0 7 4 6 10 -3 5 -8 10 -10 10 -4 0 6 -9 18 -21 25 -23 16 -34 91 -17
122 9 17 6 18 -39 12 -26 -4 -93 -17 -148 -30 -99 -23 -245 -54 -288 -60 -112
-17 -123 -17 -140 -1 -9 10 -21 14 -27 11 -5 -3 -10 3 -10 14 0 12 -4 21 -9
21 -5 0 -14 13 -19 29 -9 26 -17 30 -59 36 -26 3 -61 10 -78 14 -16 5 -46 12
-65 16 -104 19 -257 83 -305 128 -11 10 -35 25 -52 34 -18 8 -33 20 -33 25 0
5 -5 6 -10 3 -6 -3 -13 1 -16 9 -3 9 -12 16 -19 16 -6 0 -20 9 -30 20 -11 12
-34 28 -53 37 -20 10 -31 21 -28 29 3 9 -2 14 -14 14 -11 0 -20 4 -20 10 0 5
-6 7 -13 4 -8 -3 -20 2 -27 11 -7 8 -19 15 -26 15 -20 0 -17 18 4 23 9 3 0 5
-20 6 -20 0 -39 5 -42 10 -4 5 3 7 14 4 11 -3 20 0 20 6 0 6 -7 11 -15 11 -18
0 -20 21 -3 38 14 14 0 16 -21 3 -8 -5 -11 -16 -7 -26 4 -11 2 -15 -6 -13 -7
3 -16 20 -19 39 -6 31 -10 32 -13 4 -1 -5 -6 -10 -11 -10 -6 0 -9 6 -9 13 1 7
-9 15 -22 18 -29 7 -32 34 -4 34 11 0 20 4 20 8 0 4 9 8 20 9 11 1 18 -2 15
-7 -3 -5 4 -8 15 -7 20 1 20 2 3 14 -9 8 -23 11 -30 9 -7 -3 -15 -1 -18 3 -3
5 -14 7 -25 4 -12 -3 -26 1 -33 9 -17 22 -47 31 -40 12 3 -7 0 -14 -6 -14 -7
0 -14 7 -17 15 -8 21 -24 19 -24 -2 0 -15 -2 -16 -10 -3 -15 23 -12 28 18 33
15 2 30 5 34 6 4 0 9 -3 12 -7z m26 -62 c0 -5 -7 -10 -15 -10 -8 0 -15 5 -15
10 0 6 7 10 15 10 8 0 15 -4 15 -10z m-2537 -387 c-7 -2 -21 -2 -30 0 -10 3
-4 5 12 5 17 0 24 -2 18 -5z m4797 -143 c0 -5 -5 -10 -11 -10 -5 0 -7 5 -4 10
3 6 8 10 11 10 2 0 4 -4 4 -10z m1851 -907 c-18 -4 -7 -10 48 -29 40 -13 83
-32 97 -41 13 -8 27 -13 30 -10 3 3 -16 17 -43 31 -26 14 -44 25 -40 26 12 0
66 -29 114 -62 43 -29 76 -71 52 -66 -8 2 -16 -16 -21 -47 -11 -66 -45 -168
-74 -227 -27 -54 -29 -62 -11 -53 6 4 -1 -5 -16 -19 -15 -14 -33 -26 -40 -26
-7 1 0 8 16 16 40 22 33 27 -10 8 -62 -27 -212 -64 -260 -64 -27 0 -42 -4 -38
-10 3 -5 2 -10 -4 -10 -12 0 -68 114 -76 155 -3 17 3 7 14 -21 23 -62 51 -117
57 -112 2 3 -10 35 -26 72 -18 39 -36 102 -43 149 -11 77 -12 79 -18 42 l-7
-40 2 40 c1 27 6 40 15 40 8 0 16 6 19 14 3 9 0 11 -9 6 -8 -5 -3 4 10 18 14
15 27 25 29 22 7 -7 42 25 42 38 0 6 -9 2 -20 -8 -41 -37 -18 -7 27 35 26 25
37 33 24 18 -14 -16 -20 -28 -14 -28 12 0 55 45 48 52 -3 2 7 15 22 29 14 13
23 18 18 10 -5 -9 -3 -12 6 -9 8 3 13 10 12 16 -1 5 5 16 14 24 14 11 16 11 9
-1 -6 -9 -4 -12 5 -9 8 3 15 10 15 16 2 21 4 22 27 21 21 -2 21 -2 -2 -6z m69
-13 c18 -12 2 -12 -25 0 -13 6 -15 9 -5 9 8 0 22 -4 30 -9z m121 -397 c-12
-20 -14 -14 -5 12 4 9 9 14 11 11 3 -2 0 -13 -6 -23z m-1001 -170 c-7 -415
-50 -1767 -56 -1773 -10 -9 -163 -50 -186 -50 -14 0 -16 9 -12 53 l5 52 -28
-35 c-87 -109 -72 -102 -360 -173 l-261 -64 -49 24 c-72 36 -139 108 -178 188
-50 107 -60 161 -59 330 1 128 5 165 28 250 48 185 140 339 260 436 77 62 192
122 276 144 129 34 272 7 347 -64 12 -12 25 -21 28 -21 3 0 6 89 6 198 1 108
4 258 8 332 l6 134 105 27 c58 15 108 27 113 28 4 0 7 -7 7 -16z m757 11 c-3
-3 -12 -4 -19 -1 -8 3 -5 6 6 6 11 1 17 -2 13 -5z m-69 -11 c-10 -2 -28 -2
-40 0 -13 2 -5 4 17 4 22 1 32 -1 23 -4z m314 -286 c61 -30 132 -102 123 -125
-3 -7 -5 -51 -5 -96 l0 -83 -76 -32 c-42 -18 -77 -31 -78 -29 -1 2 -8 21 -14
44 -29 102 -100 155 -205 155 -195 0 -378 -164 -442 -396 -22 -82 -31 -316
-15 -397 36 -187 156 -268 329 -224 168 43 289 168 334 345 16 62 24 68 92 72
l50 3 -3 -124 c-4 -114 -6 -128 -30 -165 -32 -51 -147 -170 -187 -195 -31 -19
-456 -130 -499 -130 -47 0 -135 41 -185 86 -63 57 -115 157 -131 255 -18 105
-8 341 19 449 63 250 215 437 446 547 115 54 201 73 320 70 86 -2 108 -6 157
-30z m-4422 -162 c-3 -5 -17 -9 -31 -7 -53 6 -83 -79 -30 -86 13 -2 28 1 34 7
13 13 37 15 37 3 0 -12 -56 -42 -78 -42 -53 0 -70 73 -27 116 20 20 34 25 63
22 20 -2 35 -7 32 -13z m120 -36 c0 -34 -4 -49 -12 -48 -7 1 -21 -1 -30 -5
-38 -17 -65 14 -54 59 7 27 27 39 70 41 25 2 26 -1 26 -47z m621 -4 c-11 -20
-22 -53 -23 -73 l-1 -37 -4 34 c-3 19 -13 46 -24 59 -25 32 -24 54 0 25 25
-30 27 -29 46 8 9 17 19 28 22 25 3 -3 -4 -21 -16 -41z m-95 -6 c4 -7 -4 -10
-22 -9 -46 3 -53 1 -74 -20 -24 -24 -26 -53 -4 -74 22 -22 38 -20 71 9 28 24
28 24 5 25 -13 0 -20 4 -17 10 8 13 55 13 55 -1 0 -6 -13 -24 -29 -40 -38 -37
-84 -39 -107 -4 -19 29 -12 59 24 92 26 24 85 32 98 12z m-985 -20 c24 -12 15
-32 -12 -24 -28 9 -55 -2 -66 -28 -22 -47 28 -77 68 -41 10 9 19 11 23 5 8
-13 -42 -51 -67 -51 -70 0 -76 98 -9 134 33 18 38 19 63 5z m127 -47 c-2 -26
-7 -47 -13 -48 -5 0 -18 -4 -29 -9 -44 -19 -75 46 -38 83 10 10 33 19 51 20
l32 1 -3 -47z m702 19 c17 -33 11 -61 -19 -92 -33 -33 -66 -37 -93 -12 -44 40
2 123 68 123 23 0 37 -6 44 -19z m-630 0 c0 -9 -41 -23 -48 -16 -2 2 -1 8 3
14 8 13 45 15 45 2z m440 -76 c0 -54 1 -55 25 -49 14 3 25 2 25 -4 0 -15 -54
-22 -62 -9 -11 18 -9 117 2 117 6 0 10 -25 10 -55z m-54 20 c31 -31 26 -57
-17 -97 -35 -33 -62 -35 -89 -8 -29 29 -25 57 14 96 41 41 59 42 92 9z m-139
-132 c-3 -3 -27 12 -53 33 l-47 39 6 -47 c4 -27 2 -50 -3 -53 -6 -4 -10 20
-10 61 l0 66 45 -36 45 -37 1 53 2 53 9 -63 c6 -35 7 -66 5 -69z m-139 25 c0
-40 -3 -58 -5 -40 -4 33 -11 36 -50 26 -18 -5 -23 -14 -24 -43 -1 -24 -4 -15
-10 29 -5 40 -5 68 1 74 7 7 10 0 10 -17 0 -21 5 -27 23 -27 31 0 49 14 47 36
-3 24 -1 34 5 34 3 0 4 -33 3 -72z m-120 14 c3 -11 0 -12 -16 -3 -44 23 -100
-25 -88 -74 9 -35 42 -41 77 -16 32 24 38 18 12 -11 -25 -28 -79 -24 -99 7
-14 21 -14 30 -4 55 7 17 22 38 34 46 25 17 78 15 84 -4z m-148 -22 c-8 -5
-23 -10 -32 -10 -12 0 -18 -8 -18 -21 0 -18 4 -20 30 -14 18 4 30 3 30 -4 0
-5 -12 -11 -27 -13 -21 -2 -29 -9 -31 -27 -3 -21 -1 -23 28 -19 44 7 48 -8 4
-17 -20 -3 -37 -5 -39 -3 -1 2 -5 27 -7 56 -6 61 7 82 50 82 21 0 24 -2 12
-10z m-92 -24 c-14 -11 -17 -23 -13 -64 3 -29 1 -53 -5 -57 -6 -4 -10 17 -10
55 0 51 -3 61 -15 56 -8 -3 -15 -1 -15 4 0 9 23 17 55 19 19 0 19 0 3 -13z
m2666 -73 c-13 -49 -99 -365 -191 -703 -91 -338 -169 -619 -173 -623 -8 -10
-120 -40 -126 -34 -2 2 30 129 72 283 41 153 120 446 175 649 55 204 107 396
116 427 l15 56 57 15 c31 8 61 15 68 16 7 1 3 -28 -13 -86z m-754 -138 c106
-14 208 -93 254 -195 48 -106 48 -106 -79 -156 -60 -24 -111 -44 -112 -44 -2
0 -3 7 -3 15 0 22 -38 95 -64 123 -100 110 -321 74 -471 -76 -116 -117 -161
-266 -152 -502 10 -276 94 -393 281 -391 201 1 373 145 417 349 7 31 15 61 19
65 12 14 220 35 220 23 0 -6 -9 -45 -21 -86 -29 -106 -93 -223 -162 -297 -110
-117 -110 -117 -374 -184 -264 -68 -284 -69 -378 -23 -162 80 -245 259 -245
529 0 417 206 710 580 827 64 20 186 37 225 32 11 -1 40 -5 65 -9z m-1126
-299 c107 -32 161 -111 177 -255 5 -47 9 -174 9 -281 1 -391 16 -543 64 -661
6 -14 -11 -21 -98 -43 -58 -14 -112 -26 -120 -26 -16 0 -46 69 -46 107 0 25
-4 22 -67 -38 -143 -137 -148 -140 -428 -210 -246 -61 -292 -67 -331 -41 -7 4
-15 105 -22 287 l-11 280 57 53 c67 63 190 126 397 203 77 28 191 76 254 105
l114 54 -5 79 c-6 97 -27 138 -88 169 -57 28 -135 29 -249 2 -197 -47 -297
-135 -340 -297 -13 -46 -15 -47 -103 -57 l-47 -5 -3 120 -3 120 42 54 c95 121
301 227 543 279 86 19 244 20 304 2z m535 -2001 c0 -5 -6 1 -14 15 -8 14 -14
30 -14 35 0 6 6 -1 14 -15 8 -14 14 -29 14 -35z"/>
<path d="M6935 8005 c17 -14 35 -25 40 -25 6 0 -3 11 -20 25 -16 13 -34 24
-40 24 -5 0 4 -11 20 -24z"/>
<path d="M6820 8010 c-13 -8 -12 -12 5 -27 19 -17 64 -27 66 -14 0 3 2 14 4
23 2 10 -2 21 -7 25 -6 3 -8 1 -4 -5 11 -18 -14 -25 -32 -8 -12 10 -22 12 -32
6z"/>
<path d="M6785 7975 c16 -13 32 -22 35 -19 7 7 -39 44 -54 44 -6 -1 2 -12 19
-25z"/>
<path d="M6716 7971 c22 -20 64 -37 64 -26 0 13 -45 44 -64 45 -19 0 -19 0 0
-19z"/>
<path d="M6633 7944 c15 -14 32 -22 38 -18 14 8 -28 43 -51 44 -10 0 -5 -9 13
-26z"/>
<path d="M6680 7966 c0 -2 8 -10 18 -17 15 -13 16 -12 3 4 -13 16 -21 21 -21
13z"/>
<path d="M6584 7939 c14 -11 23 -25 20 -31 -4 -5 4 -4 17 2 23 13 23 13 2 21
-11 4 -24 12 -28 18 -3 6 -13 11 -22 11 -11 0 -8 -6 11 -21z"/>
<path d="M6490 7942 c1 -16 52 -43 71 -37 19 6 19 7 -3 24 -23 17 -68 26 -68
13z m66 -30 c-4 -3 -14 2 -24 12 -16 18 -16 18 6 6 13 -6 21 -14 18 -18z"/>
<path d="M6470 7924 c8 -8 23 -20 34 -26 19 -10 18 -8 -3 16 -26 27 -53 37
-31 10z"/>
<path d="M6435 7905 c40 -33 70 -33 32 0 -15 14 -36 25 -45 25 -13 -1 -9 -7
13 -25z"/>
<path d="M6317 7905 l-38 -11 24 -22 c24 -23 47 -29 47 -12 0 5 -6 7 -14 4 -7
-3 -16 1 -19 9 -7 17 14 17 35 0 13 -11 58 -14 58 -4 0 2 -8 14 -17 25 -16 18
-14 17 15 -3 17 -12 32 -19 32 -14 0 12 -42 37 -65 38 -11 0 -37 -4 -58 -10z"/>
<path d="M6990 7880 c-9 -6 -10 -10 -3 -10 6 0 15 5 18 10 8 12 4 12 -15 0z"/>
<path d="M6821 7861 c-9 -6 -5 -8 13 -8 14 0 26 3 26 8 0 11 -21 11 -39 0z"/>
<path d="M6990 7840 c0 -5 7 -10 16 -10 8 0 12 5 9 10 -3 6 -10 10 -16 10 -5
0 -9 -4 -9 -10z"/>
<path d="M7053 7840 c-13 -5 -23 -11 -23 -13 0 -8 50 5 56 14 6 11 -4 11 -33
-1z"/>
<path d="M6650 7820 c0 -5 7 -10 15 -10 8 0 15 5 15 10 0 6 -7 10 -15 10 -8 0
-15 -4 -15 -10z"/>
<path d="M6864 7815 c-11 -27 1 -30 56 -18 l55 13 -52 -5 c-44 -5 -52 -3 -47
10 3 8 3 15 0 15 -4 0 -9 -7 -12 -15z"/>
<path d="M6706 7784 c-9 -23 -7 -34 5 -34 5 0 8 4 4 9 -3 5 -1 12 5 16 5 3 10
1 10 -6 0 -8 5 -7 17 2 9 8 14 9 10 3 -4 -7 5 -9 26 -6 26 4 28 6 12 12 -50
18 -83 19 -89 4z"/>
<path d="M5610 7751 c0 -14 18 -23 31 -15 8 4 7 9 -2 15 -18 11 -29 11 -29 0z"/>
<path d="M4723 7362 c-30 -8 -53 -21 -53 -28 0 -19 51 -18 97 1 30 13 33 17
23 30 -7 8 -13 14 -14 14 0 -1 -25 -8 -53 -17z"/>
<path d="M3769 6802 c7 -5 10 -15 7 -21 -4 -6 -2 -11 4 -11 17 0 8 33 -10 37
-12 4 -13 3 -1 -5z"/>
<path d="M3990 6520 c0 -5 7 -10 16 -10 8 0 12 5 9 10 -3 6 -10 10 -16 10 -5
0 -9 -4 -9 -10z"/>
<path d="M4133 6479 c14 -8 16 -14 6 -25 -7 -9 -8 -14 -1 -14 6 0 12 6 15 13
2 8 8 9 18 2 8 -5 3 0 -11 12 -14 13 -29 23 -35 23 -5 0 -2 -5 8 -11z"/>
<path d="M4098 6453 c7 -3 16 -2 19 1 4 3 -2 6 -13 5 -11 0 -14 -3 -6 -6z"/>
<path d="M4246 6392 c-3 -5 2 -13 12 -18 24 -10 62 -12 55 -2 -2 5 -13 6 -23
3 -12 -4 -22 0 -28 11 -5 10 -12 12 -16 6z"/>
<path d="M4322 6314 c10 -10 20 -15 24 -12 3 4 -5 12 -18 18 -22 12 -22 12 -6
-6z"/>
<path d="M6064 6239 c-3 -6 -2 -15 3 -20 5 -5 9 -1 9 11 0 23 -2 24 -12 9z"/>
<path d="M6096 6242 c-3 -5 1 -9 9 -9 8 0 12 4 9 9 -3 4 -7 8 -9 8 -2 0 -6 -4
-9 -8z"/>
<path d="M4616 6148 c3 -5 10 -6 15 -3 13 9 11 12 -6 12 -8 0 -12 -4 -9 -9z"/>
<path d="M5497 6149 c7 -7 15 -10 18 -7 3 3 -2 9 -12 12 -14 6 -15 5 -6 -5z"/>
<path d="M5980 6123 c0 -5 -22 -6 -50 -5 -79 6 -162 -45 -217 -134 -10 -15
-12 -16 -12 -3 -1 9 11 29 26 45 15 16 26 30 25 32 -7 9 0 20 11 16 7 -2 21 3
30 14 15 16 15 18 -2 18 -12 0 -17 -5 -13 -15 4 -10 1 -13 -9 -9 -8 3 -28 0
-44 -7 -25 -11 -27 -14 -10 -16 11 -1 4 -5 -16 -8 l-36 -6 20 -45 c13 -30 19
-64 18 -101 -2 -51 1 -59 32 -93 31 -32 40 -36 85 -36 70 0 99 13 159 72 40
39 54 62 63 100 12 49 6 143 -9 133 -12 -7 -44 32 -36 44 3 6 1 11 -4 11 -6 0
-11 -3 -11 -7z m-276 -98 c-4 -8 -7 -15 -9 -15 -2 0 -5 7 -9 15 -3 9 0 15 9
15 9 0 12 -6 9 -15z m94 -5 c-7 -11 -17 -20 -22 -20 -5 0 -1 9 9 20 10 11 20
20 22 20 2 0 -2 -9 -9 -20z"/>
<path d="M6010 6110 c0 -5 5 -10 11 -10 5 0 7 5 4 10 -3 6 -8 10 -11 10 -2 0
-4 -4 -4 -10z"/>
<path d="M6088 6008 c-22 -19 -29 -45 -13 -52 9 -3 12 0 9 8 -3 8 5 23 17 35
24 22 13 30 -13 9z"/>
<path d="M5660 5994 c0 -6 7 -19 16 -30 14 -18 14 -18 3 6 -14 31 -19 36 -19
24z"/>
<path d="M5388 5933 c7 -3 16 -2 19 1 4 3 -2 6 -13 5 -11 0 -14 -3 -6 -6z"/>
<path d="M7951 5017 c-41 -34 -97 -88 -124 -119 l-50 -58 12 -72 c6 -40 25
-101 41 -135 33 -72 35 -73 153 -48 131 27 169 46 199 101 27 49 59 143 77
222 10 48 1 62 -69 107 -32 20 -141 65 -158 65 -4 0 -40 -28 -81 -63z m221
-45 c33 12 41 8 32 -16 -7 -19 -34 -22 -34 -3 0 7 -7 4 -15 -7 -9 -12 -15 -15
-15 -7 0 11 -3 11 -17 0 -14 -12 -16 -12 -9 1 4 8 1 6 -8 -4 -17 -20 -79 -31
-70 -12 3 6 -1 3 -9 -7 -11 -14 -16 -15 -20 -5 -3 8 -6 5 -6 -6 -1 -11 -4 -16
-8 -13 -3 4 -13 1 -21 -6 -12 -10 -16 -9 -20 2 -3 10 -6 10 -12 2 -4 -7 -19
-13 -33 -15 -15 -1 -30 -6 -34 -9 -13 -14 -34 -7 -31 10 3 19 58 38 58 21 0
-6 9 -1 20 12 11 13 20 17 20 10 0 -10 3 -10 15 0 9 7 18 10 22 7 3 -4 12 -2
20 4 7 6 22 9 33 6 11 -3 23 -1 26 4 3 5 14 9 25 9 10 0 19 4 19 10 0 5 7 6
17 3 12 -5 14 -3 8 8 -6 11 -5 11 5 2 9 -8 20 -8 42 -1z m-49 -110 l-101 -67
63 -70 c35 -39 62 -71 60 -73 -2 -2 -31 11 -65 28 l-62 31 -76 -68 c-84 -75
-84 -75 5 51 35 49 63 92 63 96 0 4 -33 13 -72 20 -116 20 -118 25 -16 39 51
6 136 27 188 45 52 19 100 34 105 35 6 0 -36 -29 -92 -67z"/>
<path d="M7850 4879 c0 -5 5 -7 10 -4 6 3 10 8 10 11 0 2 -4 4 -10 4 -5 0 -10
-5 -10 -11z"/>
<path d="M7929 5033 c-13 -16 -12 -17 4 -4 9 7 17 15 17 17 0 8 -8 3 -21 -13z"/>
<path d="M8220 5026 c0 -2 17 -16 38 -31 l37 -28 -29 31 c-26 28 -46 40 -46
28z"/>
<path d="M7789 4893 c-13 -16 -12 -17 4 -4 16 13 21 21 13 21 -2 0 -10 -8 -17
-17z"/>
<path d="M6830 3285 c0 -70 4 -115 10 -115 6 0 10 27 10 60 0 52 4 65 25 86
16 16 34 24 48 22 20 -3 22 -9 25 -70 2 -38 7 -68 12 -68 15 0 12 134 -2 148
-18 18 -52 14 -82 -9 l-26 -20 0 40 c0 23 -4 41 -10 41 -6 0 -10 -45 -10 -115z"/>
<path d="M6635 3243 c-61 -138 -59 -133 -48 -133 5 0 19 20 30 44 18 36 28 45
58 50 20 4 42 9 49 12 7 3 20 -11 29 -31 9 -20 22 -33 27 -30 9 6 -79 195 -91
195 -3 0 -28 -48 -54 -107z m70 37 c8 -16 15 -33 15 -38 0 -9 -60 -26 -67 -19
-3 3 30 87 34 87 1 0 9 -13 18 -30z"/>
<path d="M6473 3305 c-43 -18 -63 -61 -63 -135 0 -47 4 -64 20 -80 26 -26 65
-18 102 20 47 50 50 164 5 195 -26 18 -24 18 -64 0z m43 -47 c16 -25 7 -109
-13 -130 -19 -18 -21 -18 -37 -3 -18 18 -21 79 -6 119 10 27 43 35 56 14z"/>
<path d="M6281 3181 c-45 -95 -47 -122 -10 -142 37 -19 101 19 114 68 7 30
-16 70 -44 75 -19 3 -19 4 -1 40 10 20 15 39 12 42 -16 17 -33 -3 -71 -83z
m58 -55 c9 -10 7 -19 -7 -36 -20 -25 -42 -20 -42 9 0 17 18 41 31 41 4 0 12
-6 18 -14z"/>
<path d="M3860 4055 c-11 -13 -11 -19 2 -31 14 -14 17 -14 32 1 9 10 15 22 13
29 -6 18 -33 18 -47 1z"/>
<path d="M3536 3981 c-19 -21 -14 -41 8 -41 8 0 19 7 26 16 11 12 11 18 -2 30
-13 13 -16 12 -32 -5z"/>
<path d="M4224 3990 c-26 -10 -45 -60 -32 -83 12 -23 61 -22 81 1 20 22 22 63
5 80 -14 14 -24 14 -54 2z"/>
<path d="M3970 3918 c-35 -38 -21 -88 25 -88 26 0 65 39 65 66 0 46 -55 59
-90 22z"/>
<path d="M4035 2581 c-61 -31 -160 -76 -220 -100 -279 -111 -355 -179 -355
-315 0 -64 28 -112 80 -139 75 -39 269 -1 384 76 131 88 206 201 225 340 13
91 14 198 4 196 -5 -1 -58 -27 -118 -58z"/>
</g>
</svg>
