<?xml version="1.0" encoding="utf-8"?>
<!-- Generator: Adobe Illustrator 27.2.0, SVG Export Plug-In . SVG Version: 6.00 Build 0)  -->
<svg version="1.1" id="Слой_1" xmlns="http://www.w3.org/2000/svg" xmlns:xlink="http://www.w3.org/1999/xlink" x="0px" y="0px"
	 viewBox="0 0 1000 1000" style="enable-background:new 0 0 1000 1000;" xml:space="preserve">
<g transform="translate(0.000000,1000.000000) scale(0.100000,-0.100000)">
	<path d="M1698,9143c-16-2-28-8-28-13c0-4-17-11-37-14c-114-18-123-18-123-7c0,17-45,6-109-25c-30-14-49-29-46-36
		c7-17-113-93-140-90c-25,3-93-52-106-86c-6-16-6-29,1-37c7-9,5-19-8-36c-10-13-26-41-37-61c-11-21-26-38-33-38s-10,5-6,12
		c4,6,3,8-4,4c-6-3-23-43-37-88c-24-74-25-83-11-94c23-16,23-136,0-155c-13-10-15-28-12-83c2-42,9-71,16-74c19-6,16-148-3-156
		c-22-8-22-151,0-160c22-8,21-148-1-167c-13-10-15-27-12-78c2-38,9-66,16-69c19-6,16-149-3-168c-20-20-20-123,0-150
		c19-25,21-160,3-166c-9-3-13-28-13-78s4-75,13-77c19-7,16-138-4-169c-13-19-15-39-11-87c3-34,10-63,16-65c18-6,14-150-4-168
		c-21-21-21-132,0-140c21-9,21-149,0-170s-21-137,0-154c24-20,20-133-6-187c-19-40-20-49-9-89c7-24,17-44,21-44c5,0,9-36,9-79
		c0-61-3-80-15-85c-21-8-21-128,0-146s21-165,0-174c-22-8-22-134,0-142c21-8,21-151,0-178c-20-27-20-130,0-150c21-20,21-142,0-162
		c-21-21-21-137,0-154s21-145,0-166s-21-127,0-148s21-151,0-172s-21-140,0-148s21-148,0-166c-10-9-15-32-15-76c0-42,5-67,15-78
		c20-20,20-143,0-170c-21-28-21-142,0-150s21-148,0-166c-21-17-21-133,0-150c21-18,21-152,0-170c-10-9-15-32-15-77c0-47,4-65,15-69
		c19-8,22-160,3-166c-7-3-14-31-16-69c-3-51,0-69,12-82c19-19,23-146,5-164c-6-6-13-65-16-140l-5-128l54-1c29-1,67-9,83-18
		c17-9,38-16,48-16s32-13,50-30c18-16,39-30,47-30s31,17,52,37s41,34,44,30c4-4-9-22-29-41c-21-19-37-42-37-51s16-35,35-58
		c19-22,35-50,35-62c0-24,45-52,118-75c23-7,42-17,42-22c0-11-33-10-62,1c-26,11-49,18-62,20c-6,1-11-10-13-24c-5-38,32-48,171-46
		c88,2,122,6,133,17c22,22,150,19,176-4c24-21,143-25,156-4s164,17,196-4c20-13,38-15,78-11c28,4,53,11,55,17c5,15,179,13,184-2
		c6-16,123-15,143,2c18,15,175,16,185,1c7-12,148-12,156,0c9,14,172,11,177-3c5-16,140-13,145,2c2,6,45,10,100,10c66,0,92-3,82-10
		s10-10,65-10c47,0,86,5,92,11c14,14,173,13,187-1c13-13,146-13,146,0c0,6,36,10,89,10c50,0,93-4,96-10c8-13,132-13,140,0
		c8,14,182,13,187-1c2-6,38-11,86-12c59-2,81,1,78,10c-7,17,17,23,89,23c43,0,68-5,79-15c20-20,134-20,160,0c30,23,162,21,175-2
		c8-15,21-17,77-14c40,2,73,9,81,17c10,9,38,14,88,14c60,0,76-3,84-17c8-15,21-17,78-15c41,2,74,9,84,18c22,20,152,19,169-1
		c18-21,155-21,164,0c9,23,147,21,169-3c20-22,126-21,159,2c31,22,166,22,174,1c9-21,139-21,160,0c23,22,160,21,172-2
		c7-12,28-17,91-19c72-3,81-1,79,14c-3,15,8,17,73,20c59,2,79-1,89-13c16-20,125-20,160,0c36,21,149,19,179-2c34-23,132-24,155,0
		c24,24,151,24,177,1c24-22,120-22,151,0c32,23,145,22,178-1c32-23,126-23,160,0c25,16,154,27,167,14c12-12,68-7,87,8
		c11,8,30,15,42,15c13,0,24,8,27,19c2,10,22,27,43,37c22,10,50,25,63,33c14,9,34,14,45,13c30-4,105,69,117,113c6,19,18,43,27,53
		c10,9,24,29,31,44c7,14,24,29,36,32c32,8,70,113,54,149c-8,18-8,30,0,45c6,11,8,34,5,51c-6,29,13,91,28,91c4,0,10,21,14,46
		c5,38,3,49-15,68c-30,32-31,162-1,196c27,31,26,89-2,125c-30,38-34,146-7,171c26,23,27,126,2,154c-14,14-18,35-18,87
		c0,61,3,69,23,78c19,8,22,17,22,66c0,40-5,63-19,80c-22,29-33,155-15,167c37,24,47,120,15,149c-26,24-32,150-9,185
		c27,42,30,74,8,116c-14,26-22,63-24,108c-2,60,0,70,21,90c18,16,23,32,23,67c0,25-6,52-13,59c-25,25-33,53-32,111c1,41,8,65,22,82
		c25,32,24,130-2,149c-12,8-17,30-19,80c-2,58,1,71,19,88c17,16,21,30,18,74c-1,33-9,61-18,70c-17,17-17,17-16,98c0,33,4,62,9,65
		c28,18,30,148,3,167c-25,18-22,138,4,158c13,9,19,29,21,72c2,49-1,62-18,75c-28,22-32,141-5,170c24,26,35,149,13,149s-28,15-28,83
		c-1,64,6,92,29,115c20,21,16,98-6,119c-15,14-20,33-21,83c-1,69,6,110,21,110c14,0,10,84-5,116c-8,16-16,59-18,96c-2,58,1,70,20,91
		c17,18,22,35,22,75c0,38-4,52-14,52c-18,0-26,31-28,106c-1,51,2,65,21,85s21,31,16,69c-4,25-11,46-16,48c-10,4-17,43-23,121
		c-3,45-1,54,14,58c13,4,19,19,24,70c6,57,4,69-13,87c-28,30-32,141-6,179c28,44,31,107,4,139c-31,38-34,153-5,173
		c26,19,29,124,3,152c-27,31-30,140-4,177c28,39,32,163,5,158c-13-2-17,9-20,60c-5,84-1,102,20,86c14-12,15-7,9,36c-4,27-7,59-7,72
		s-8,31-18,41s-29,45-42,78s-27,65-32,72s-5,14,2,18c17,10,11,39-10,53c-11,7-20,19-20,27c0,19-39,55-54,49c-11-4-131,109-131,124
		c1,25-116,87-132,71c-6-6-19-6-34-1c-13,6-44,16-69,23s-49,18-55,24c-31,36-130,49-159,20c-20-21-163-20-190,0c-26,20-120,20-140,0
		c-20-21-163-20-190,0c-30,23-132,20-152-4c-14-15-26-17-88-13c-39,2-75,8-81,12c-5,4-38,11-73,15c-49,6-67,4-80-8
		c-10-9-46-16-89-19c-70-5-96,0-94,18c1,5-36,9-81,9c-61,0-82-3-81-12c2-7,0-13-5-14c-4,0-40-1-81-2c-64-2-75,0-79,16s-14,17-86,15
		c-58-2-80-7-79-15c3-14,0-15-87-15c-81,0-80,0-80,17c0,23-142,21-165-1c-25-25-153-26-166-2c-14,26-154,26-168,1c-8-15-21-18-90-15
		c-55,2-80,7-78,15c1,8-25,13-87,15c-76,2-88,1-83-13c7-17,9-17-78-17s-85,0-85,17c0,12-16,15-85,15s-85-3-85-15c0-11-13-15-54-15
		c-30,0-61-3-70-6c-8-3-22,3-33,15c-14,17-29,21-85,21c-44,0-71-5-81-14c-9-10-38-15-83-16c-93-2-94-2-92,13c2,9-19,12-82,12
		s-84-3-82-12c4-21-164-18-172,2c-5,13-21,15-83,13c-56-2-77-7-75-15c2-15-2-16-92-13c-44,1-75,7-83,16c-20,20-163,20-163,0
		c0-11-18-15-72-18c-61-3-76,0-92,15c-16,16-30,18-88,15c-38-2-72-9-76-15c-11-18-147-19-168-2c-23,19-139,22-158,4
		c-18-19-172-21-178-3c-7,20-124,23-153,4c-33-22-167-23-185-1c-9,10-32,15-76,15c-42,0-67-5-78-15c-10-11-36-15-89-15
		c-54,0-78,4-87,15c-17,20-119,20-146,0c-27-21-180-21-188,0c-4,11-20,15-54,15c-63,0-113-10-106-21c3-5-31-9-76-9c-59,0-86,4-96,15
		C1819,9150,1763,9153,1698,9143z M7663,9038c10-30-5-49-37-46c-24,2-32,8-34,27C7585,9065,7648,9081,7663,9038z M2388,8932
		c-2-22-8-27-32-27c-17,0-33,7-40,18c-9,15-7,22,12,37C2360,8986,2393,8971,2388,8932z M7538,8928c19-19,14-44-12-61
		c-22-15-25-14-45,7c-25,27-26,30-5,50C7494,8943,7521,8945,7538,8928z M2790,8900c34-34,25-82-19-105c-54-27-119,33-91,85
		C2703,8922,2758,8932,2790,8900z M8195,8765v-140h-258h-259l1,138c0,75,0,139,1,141c0,2,116,3,258,2l257-1V8765z M2252,8845
		c10-21,8-28-8-40c-26-19-38-19-58,4c-14,15-15,24-6,40C2196,8879,2237,8877,2252,8845z M3260,8700c0-5-22-10-49-10
		c-41,0-51-3-56-21c-10-29,0-34,40-21c31,9,38,8,55-11c23-24,27-89,7-106c-37-30-117-20-117,16c0,14,2,14,24,0c24-16,65-13,78,7
		c14,21,8,55-12,66c-16,9-28,7-52-4c-17-9-34-13-39-10c-10,6-12,87-2,97C3147,8714,3260,8711,3260,8700z M3330,8658c0-59,8-82,32-97
		c17-11,23-9,44,10c20,18,24,32,24,76c0,29,5,53,10,53c6,0,10-27,10-62c0-54-4-66-27-90c-33-35-49-35-85-1c-25,24-28,34-28,90
		c0,35,4,63,10,63S3330,8681,3330,8658z M6730,8686c0-8-6-16-13-19c-18-7-17-129,1-135c28-9,11-32-23-32c-35,0-49,20-24,36
		c6,4,10,35,9,78c-1,39-2,74-1,79C6681,8707,6730,8700,6730,8686z M6930,8683c25-22,37-78,20-98c-7-8-24-15-39-15c-26,0-51-16-51-32
		c0-4,15-8,34-8s38-4,41-10c4-6-18-10-59-10c-39,0-66,4-66,10s16,24,35,41s35,38,35,47c0,8,8,24,17,34c26,29,3,46-40,30
		c-45-16-49-15-37,8C6834,8706,6901,8708,6930,8683z M7103,8683c28-26,20-35-14-17c-49,25-76,8-81-53c-3-26-1-56,4-65
		c10-21,67-25,86-6c14,14,24,6,17-14c-8-21-98-23-115-3c-20,24-20,137-1,156C7019,8702,7080,8703,7103,8683z M7289,8681
		c16-12,20-20,12-25c-7-4-19-2-28,6c-21,17-70,19-77,3c-2-7-2-23,1-35c5-18,11-21,37-16c22,4,38,0,54-13c29-25,28-52-2-80
		c-20-19-32-22-59-17c-43,8-72,29-63,45c6,9,12,8,26-4c25-22,84-17,88,9c5,22-13,36-48,36c-37,1-73,32-68,60
		C7168,8696,7245,8715,7289,8681z M7469,8681c31-24,12-35-27-15c-24,11-36,13-52,4c-17-9-20-21-20-69c0-44,4-60,16-65
		c25-10,59-7,72,6c17,17,25,3,11-20c-17-27-90-29-113-3c-25,27-19,140,9,163C7391,8705,7439,8704,7469,8681z M7550,8610v-80h50
		c28,0,50-4,50-9c0-7-110-23-118-16c-5,4-8,176-3,180C7544,8701,7550,8681,7550,8610z M8570,8668c17-22,17-23-3-44l-21-22l-28,21
		l-27,20l22,23C8541,8694,8548,8695,8570,8668z M3030,8645c7-18,17-25,35-25c15,0,24-4,20-10c-3-5-15-10-27-10c-11,0-22-8-25-20
		c-3-11-9-20-14-20s-9,9-9,20c0,15-7,20-24,20c-35,0-42,18-9,22c20,2,29,9,31,26C3012,8677,3018,8676,3030,8645z M3985,8620
		c18-20,18-21-3-42c-18-19-25-20-47-10c-27,12-33,40-13,60C3940,8646,3965,8643,3985,8620z M8915,8571c6-1,10-131,10-371v-370l-60-1
		c-254-6-315-7-347-2l-38,6v368v368l28,3C8529,8574,8869,8573,8915,8571z M1588,8168c1-186-1-338-5-338c-84-4-363-5-375-2
		c-17,4-18,29-18,343v339l198-2l197-3L1588,8168z M8224,8454c19-19,20-25,3-49c-10-13-21-16-40-11c-22,5-27,12-27,35
		c0,27,7,34,42,40C8206,8469,8216,8463,8224,8454z M7044,8254c20-19,20-38,1-54c-23-19-65-4-65,23C6980,8266,7015,8283,7044,8254z
		 M6847,8104c12-12,13-20,5-40c-14-30-57-33-72-5c-13,25-13,27,6,45C6806,8124,6827,8124,6847,8104z M3014,8028c15-25,3-31-29-14
		c-44,23-69,8-73-44c-2-24-1-54,3-67c5-21,11-24,43-21c31,3,37,7,40,29c2,18-3,29-20,37l-23,11l23,2c12,1,28,2,35,3c19,2,18-76-2-91
		c-23-18-96-16-111,3c-19,22-13,134,8,157S2998,8053,3014,8028z M3132,7977c21-31,42-57,48-57s10,26,10,60c0,33,4,60,10,60
		s10-37,10-91c0-106-6-108-64-31c-21,29-44,52-50,52s-11-19-11-45c0-78-20-55-21,25c-2,69,11,113,25,93
		C3092,8038,3112,8009,3132,7977z M3368,8031c18-16,22-29,22-83c0-55-3-65-22-77c-30-19-116-21-123-3c-7,19-6,147,1,166
		C3255,8057,3338,8055,3368,8031z M5368,7960c32-30,14-62-31-58c-25,2-33,8-35,27c-3,15,3,30,14,38C5339,7984,5342,7984,5368,7960z
		 M3768,7961c8-4,12-19,10-32c-2-20-9-24-38-24c-36,0-49,18-36,51C3710,7971,3747,7975,3768,7961z M6944,7934c23-23,20-43-10-56
		c-43-20-83,22-54,57C6896,7954,6925,7954,6944,7934z M4895,7887c13-10,16-21,11-40c-8-34-41-44-67-21c-23,21-24,32-2,56
		C4856,7903,4870,7905,4895,7887z M8495,7720c10-11,24-20,32-20c7,0,21,9,30,20c33,38,41,25,39-62c-1-91-20-121-21-34
		c0,63-6,72-34,54c-16-10-23-10-33,0c-22,22-28,12-28-52c0-36-4-68-10-71c-6-4-10,28-10,89c0,53,4,96,8,96
		C8473,7740,8485,7731,8495,7720z M8760,7725c18-22,7-28-23-14c-14,6-37,9-51,5c-24-6-26-10-26-65c0-74,15-90,66-72
		c40,14,55,8,33-13c-19-19-83-23-103-7c-20,17-23,150-4,169C8669,7745,8745,7743,8760,7725z M8960,7658c0-86-14-108-72-108
		c-60,0-74,21-70,108c2,39,7,72,12,72s7-28,6-62c-2-54,1-66,20-85c27-27,32-27,58-8c16,12,19,26,17,80c-1,36,1,70,4,76
		C8950,7754,8960,7724,8960,7658z M6995,7679c4-5,4-21,1-35c-5-18-13-24-35-24c-31,0-45,20-36,51C6932,7692,6984,7698,6995,7679z
		 M4858,7527c4-31-14-43-53-33c-18,5-25,13-25,30c0,31,9,37,45,34C4849,7556,4856,7550,4858,7527z M8094,7494c19-19,20-26,4-42
		c-17-17-65-15-72,4C8010,7497,8062,7527,8094,7494z M3095,7215v-250h-145h-145l-3,240c-1,132,0,245,2,252c4,8,45,11,148,10l143-2
		V7215z M4810,7255c0-99-4-183-9-188c-8-8-687-11-701-2c-11,7-14,358-3,368c4,4,166,6,361,5l354-3L4810,7255z M6184,7414
		c31-31,17-84-23-84c-19,0-30,8-39,28c-8,17-9,28-2,30c5,2,10,10,10,17c0,12,13,22,32,24C6166,7430,6176,7423,6184,7414z M3854,7354
		c19-19,20-36,4-52c-24-24-78-8-78,24c0,17,28,44,45,44C3832,7370,3846,7363,3854,7354z M7458,7123l-3-248h-145h-145l-3,248l-2,247
		h150h150L7458,7123z M2022,7200h263l83-76c45-43,82-81,82-86c0-16-19-8-47,20c-15,16-52,49-81,75l-53,47h-260h-261l-77-75
		c-77-74-91-85-91-65c0,14,163,169,172,164C1756,7201,1878,7199,2022,7200z M3848,6863l2-343h-199h-200l-1,339c0,316,1,340,17,344
		c10,3,99,4,198,4l180-2L3848,6863z M6474,7134c26-10,20-53-9-66c-41-19-75,28-43,60C6435,7141,6450,7143,6474,7134z M5115,7107
		c13-10,16-21,11-40c-8-35-53-48-73-22c-17,25-17,31,7,55S5090,7124,5115,7107z M1810,6896c6-8,10-25,8-38c-6-42-78-32-78,11
		C1740,6906,1786,6924,1810,6896z M5624,6864c26-10,20-53-9-66c-41-19-75,28-43,60C5585,6871,5600,6873,5624,6864z M6330,6817
		c0-43-44-63-70-32c-16,19-5,62,18,68C6305,6859,6330,6842,6330,6817z M6794,6523c0-204-4-337-10-343c-5-5-70-9-149-9
		c-194,1-219,3-227,14c-10,13-10,659-1,669c4,3,92,5,197,4l190-3V6523z M9010,6029v-779l-47-1c-81-2-218,3-222,7
		c-11,10,13,13,124,16l120,4v754v755l-130,5c-71,3-125,8-120,11c6,4,63,7,128,7c66,0,121,3,124,6s10,3,14,0
		C9006,6811,9010,6458,9010,6029z M8240,6800c0-6-42-10-106-10c-67,0-103,4-99,10c3,6,50,10,106,10C8200,6810,8240,6806,8240,6800z
		 M4604,6780c50-18,16-81-34-65c-22,7-27,44-8,63C4576,6792,4573,6792,4604,6780z M4100,6696c6-8,10-25,8-38c-6-42-78-32-78,11
		C4030,6706,4076,6724,4100,6696z M7119,6671c29-22,33-71,8-95c-20-21-75-20-99,1c-39,35-8,113,45,113
		C7085,6690,7106,6681,7119,6671z M3345,6606c17-12,18-17,7-41c-16-35-65-33-70,3C3275,6618,3305,6636,3345,6606z M7000,6471
		c14-27,13-28-14-46c-43-29-89,18-54,53C6950,6496,6988,6492,7000,6471z M2418,6433c-18-21-59-62-89-90l-56-53h-274l-274,1l-74,73
		c-100,100-87,119,16,22l81-76h256h257l82,80C2426,6471,2482,6502,2418,6433z M3528,6198l2-187l-277-3c-153-2-314-1-358,2l-80,5
		l-3,175c-1,96,0,180,2,187c4,11,76,13,358,11l353-3L3528,6198z M5978,6281c2-51-1-81-8-81c-6,0-10,28-10,70v70h-64
		c-85,0-119,13-51,20c28,3,68,4,90,4l40-1L5978,6281z M4335,6350c-3-5-39-10-80-10h-73v-47c0-88-2-104-12-98c-5,3-10,42-10,86v79h91
		C4308,6360,4339,6356,4335,6350z M4554,6281c34-38-26-85-62-49c-16,16-15,33,4,52C4517,6305,4533,6304,4554,6281z M4934,6244
		c19-19,20-25,3-49c-20-26-67-13-67,18C4870,6256,4905,6273,4934,6244z M5201,6250c37-20,17-70-28-70c-16,0-27,9-35,26
		c-11,22-10,28,7,40C5168,6263,5175,6263,5201,6250z M2595,6195c30-29,31-45,4-79c-25-32-70-35-99-6c-26,26-25,60,0,88
		C2527,6227,2565,6226,2595,6195z M5744,6194c29-29,12-64-31-64c-27,0-42,42-23,65C5706,6214,5725,6214,5744,6194z M1770,6160
		c29-16,43-46,30-69c-7-14-7-28,0-47c8-20,7-32-5-50c-13-21-24-24-74-24h-58l1,93c1,50,6,95,11,99C1690,6173,1748,6172,1770,6160z
		 M1964,6149c23-18,26-28,26-78c0-76-18-101-72-101c-62,0-78,20-78,96c0,56,3,65,26,83c15,12,37,21,49,21S1949,6161,1964,6149z
		 M2148,6147c31-28,32-134,2-160c-25-21-78-22-108-1c-19,13-22,24-22,78c0,47,4,67,18,78C2074,6174,2115,6176,2148,6147z M2331,6155
		c0-5-9-11-21-13c-21-4-21-5-25-97c-3-72-4-77-15-70c-5,3-10,42-10,86c0,72-2,79-19,79c-22,0-34,13-24,24
		C2228,6175,2330,6166,2331,6155z M3801,6159c25-13,16-29-17-29c-23,0-32,18-17,33C3775,6172,3778,6172,3801,6159z M1275,6150
		c-3-5-35-10-69-10c-40,0-67-5-72-12s-9-110-9-228v-215h125h125l3,205c1,113,0,215-3,228c-4,18-12,22-45,22c-22,0-40,5-40,10
		c0,6,25,10,55,10h55l-2-252l-3-251l-145,1l-145,1l-3,250l-2,251h90C1248,6160,1279,6156,1275,6150z M7418,6118c4-36-26-53-56-32
		c-38,26-19,67,28,62C7409,6146,7416,6138,7418,6118z M3763,6072c25-22,22-77-5-96c-74-52-152,42-83,101
		C3704,6102,3730,6101,3763,6072z M3488,5982c8-6,12-34,11-88c0-43,0-93,0-111c1-18-4-35-9-38c-6-4-11,15-12,47c-3,129-4,154-6,166
		c-2,10-54,12-239,10l-238-3l-3-241c-3-199-1-243,11-253c11-8,78-11,243-9l229,3l2,95c1,52,2,112,2,133c1,20,6,37,11,37
		c6,0,10-55,10-145v-145h-265h-264l-3,218c-2,119-2,243,0,275l3,57h252C3362,5990,3481,5986,3488,5982z M3598,5856c2-10-1-23-7-29
		c-15-15-40,9-34,34C3564,5885,3593,5882,3598,5856z M2393,5839l122-1l-2-131c0-73-2-135-2-139c-1-5-118-8-261-8h-260v140v139l128,3
		c70,2,133,2,140,1S2325,5840,2393,5839z M6570,5740c0-20-6-31-20-35c-45-14-83,25-56,58C6523,5800,6570,5786,6570,5740z M8075,5757
		c13-10,16-21,11-41c-6-24-11-27-39-24c-25,2-33,8-35,27c-3,15,3,30,14,38C8048,5773,8052,5773,8075,5757z M7198,5509l-3-251h-145
		l-145,1l-3,238c-1,131,0,243,2,250c4,10,42,13,151,13h145L7198,5509z M4584,5687c11-8,17-23,14-38c-2-20-8-24-38-24s-36,4-38,24
		c-4,22,18,51,38,51C4563,5700,4574,5694,4584,5687z M5375,5667c26-20,13-67-18-67c-29,0-47,18-47,46c0,20,8,26,41,33
		C5354,5679,5364,5674,5375,5667z M5242,5653c23-21,23-36-3-59c-15-13-24-16-36-8c-32,20-38,41-19,63C5207,5674,5218,5675,5242,5653
		z M4947,5590c10-20,9-27-4-43c-23-25-56-18-67,15C4857,5616,4921,5642,4947,5590z M4434,5564c31-30,13-67-30-62c-21,2-30,9-32,26
		C4365,5572,4404,5595,4434,5564z M1388,5561l72-1v-340v-340l-37-1c-21,0-60,0-88-1c-27,0-101,0-162,1l-113,1v338c0,186,2,341,4,343
		C1068,5565,1136,5565,1388,5561z M3762,5533c18-16,24-68,10-89s-71-27-97-10c-25,16-30,40-19,83C3665,5551,3731,5561,3762,5533z
		 M2541,5490c10-6,19-21,19-34c0-32-44-44-71-20c-23,21-24,28-3,48C2504,5503,2514,5504,2541,5490z M5834,5471c15-16,15-22,4-40
		c-22-35-78-22-78,19C5760,5489,5806,5502,5834,5471z M2248,5257l2-187l-357,2l-358,3l-1,170c-1,94,3,178,8,188c8,16,34,17,356,15
		l347-3L2248,5257z M4584,5418c14-22-2-52-31-56c-27-4-54,28-46,56c4,19,12,22,36,20C4559,5436,4578,5427,4584,5418z M3310,5230
		v-190h-349c-193,0-352,4-355,9c-9,14-18,281-11,327l6,44h355h354V5230z M2390,5391c13-25,4-48-23-55s-47,10-47,39
		C2320,5412,2372,5423,2390,5391z M7490,5395c15-18,5-35-20-35c-10,0-22,5-25,10c-7,11,12,40,25,40C7474,5410,7483,5403,7490,5395z
		 M3778,5376c2-3,4-154,4-338v-333l-196-3l-196-2v338c0,186,2,341,4,343C3399,5386,3772,5381,3778,5376z M5758,5367
		c20-21,21-25,6-45c-8-12-23-22-33-22c-39,0-56,52-23,76C5731,5394,5733,5394,5758,5367z M6760,5375c19-23,3-55-29-55
		c-38,0-56,22-41,49C6703,5393,6742,5397,6760,5375z M8253,5265c2-11-206-20-230-10c-8,2-11,10-8,15C8024,5284,8249,5279,8253,5265z
		 M5533,5239c8-29-1-47-26-55c-29-9-61,30-47,57C5475,5268,5526,5267,5533,5239z M5811,5240c24-13,26-65,3-74c-40-15-82,46-48,71
		C5787,5253,5786,5253,5811,5240z M6764,5214c9-8,16-22,16-29c0-13-26-45-36-45c-39,0-59,60-26,79C6741,5233,6746,5233,6764,5214z
		 M5334,5149c21-31,1-61-39-57c-23,2-31,9-33,27c-3,15,3,30,14,38C5301,5175,5317,5173,5334,5149z M7352,5124c11-22,10-28-7-40
		c-23-17-47-18-63-2s-15,33,4,52C7309,5158,7339,5153,7352,5124z M8554,5115c9-34-27-75-51-59c-32,20-39,41-19,63
		C8511,5149,8546,5146,8554,5115z M5736,5095c8-31-10-55-42-55c-28,0-43,42-24,65C5691,5130,5729,5124,5736,5095z M2370,5075
		c13-16,6-51-13-58c-21-8-57,12-57,31C2300,5086,2346,5104,2370,5075z M4592,5073c23-21,23-36-3-59c-22-19-43-13-63,19
		c-8,12-5,21,8,36C4557,5094,4568,5095,4592,5073z M6431,5028c10-18,8-24-11-40c-27-22-34-22-54-2c-16,16-21,46-9,57
		C6372,5059,6420,5049,6431,5028z M2254,4852c1-175,0-183-19-188c-11-2-171-3-355-2l-335,3l-3,175c-1,96,0,180,2,187
		c4,11,76,13,357,11l352-3L2254,4852z M7528,5028c30-30,1-73-42-62c-20,5-26,12-26,34C7460,5037,7502,5054,7528,5028z M5365,4965
		c0-26-3-30-29-30c-36,0-56,26-36,50c8,9,24,15,39,13C5361,4996,5365,4990,5365,4965z M3328,4978c17-17,15-58-4-65s-64,12-64,28
		s30,49,45,49C3311,4990,3321,4985,3328,4978z M8930,4961c0-3,3-16,6-28c5-18,1-25-21-33s-31-7-46,6c-24,21-24,29,0,53
		C8887,4977,8930,4978,8930,4961z M5504,4867c24-17,14-53-17-61c-30-8-51,16-43,48C5451,4883,5475,4888,5504,4867z M5690,4865
		c14-17,5-51-16-59c-20-8-50,8-58,31C5603,4871,5665,4895,5690,4865z M7218,4867c14-17,5-54-15-62c-24-9-50,4-57,27
		c-7,28,10,48,39,48C7197,4880,7212,4874,7218,4867z M6690,4825c17-20-5-55-33-55c-43,0-62,42-30,65C6646,4849,6674,4844,6690,4825z
		 M6349,4808c7-17,4-28-10-42c-15-17-22-18-44-8c-29,13-33,46-7,61C6316,4836,6340,4831,6349,4808z M4186,4722c1-31,2-60,3-64
		c1-5,32-8,70-8c39,0,73-4,76-10c4-6-26-10-84-10h-90l4,78c4,92,3,87,12,78C4181,4783,4185,4754,4186,4722z M5978,4708l-3-82l-90,2
		c-49,0-92,1-95,2c-3,0,2,5,10,10s48,10,88,10h72v70c0,42,4,70,10,70C5977,4790,5980,4760,5978,4708z M7608,4488l2-248h-150h-150
		v250v251l148-3l147-3L7608,4488z M3960,4650c0-40-32-58-66-35c-29,19-29,19-7,45c10,11,30,20,45,20C3956,4680,3960,4676,3960,4650z
		 M2650,4636c0-22-6-36-16-40c-25-10-51,2-57,25c-9,34,3,49,39,49C2648,4670,2650,4668,2650,4636z M8692,4582c45-45,79-84,75-88
		s-43,27-86,69l-79,77h-257h-257l-89-82c-49-44-92-78-95-75c-4,3,35,46,85,94l92,88h265l265-1L8692,4582z M1408,4631
		c4-25-11-41-40-41c-25,0-47,27-41,50c5,17,12,20,42,18C1398,4656,1406,4651,1408,4631z M2356,4599c22-25,10-52-26-57
		c-41-6-60,47-26,70C2322,4625,2336,4621,2356,4599z M1988,4578c7-7,12-18,12-26c0-16-24-42-40-42c-28,0-53,54-33,73
		C1938,4594,1975,4591,1988,4578z M8498,4578c18-18,14-56-7-68c-26-14-50-3-57,26C8423,4578,8468,4608,8498,4578z M3210,4520
		c8-5,15-21,16-37l1-28l174-5l174-5v-340v-340l-184-3c-127-2-188,1-197,9c-12,10-14,70-13,340c2,294,0,331-14,347
		c-17,19-22,53-10,65C3166,4533,3192,4531,3210,4520z M6988,4498c18-18,14-38-13-64c-25-23-25-25-25-184c0-88-3-160-7-161
		c-5-1-162-2-351-3c-220-1-346,3-351,9c-12,16-6,354,7,367c12,12,309,17,516,9c134-6,139-5,163,17C6954,4513,6970,4516,6988,4498z
		 M8028,4448c4-20-24-48-49-48c-11,0-24,11-31,25c-10,22-8,28,12,45c21,18,26,19,44,6C8016,4469,8026,4456,8028,4448z M7125,4370
		c11-18-6-50-31-56c-49-12-74,41-32,70C7083,4399,7111,4393,7125,4370z M4388,4163l-3-188h-353h-353v183c0,100,0,184,1,187
		c0,3,160,5,355,5h355L4388,4163z M1269,3840c-1-351-6-436-22-367c-7,32-9,735-2,747C1267,4256,1271,4205,1269,3840z M3024,3853
		c1-380,0-417-15-407c-10,6-12,767-2,777c3,4,9,5,11,2C3021,4222,3024,4055,3024,3853z M5724,4207c29-21,17-61-18-65
		c-43-5-61,32-30,62C5695,4223,5701,4224,5724,4207z M7655,3755v-340h-195h-195l-3,330c-1,181,0,336,3,343c3,10,48,12,197,10l193-3
		V3755z M4890,4060c0-13-16-15-65-12c-25,2-43,8-40,12C4791,4070,4890,4070,4890,4060z M5330,4060c11-7-3-10-45-10s-56,3-45,10
		c8,5,29,10,45,10C5302,4070,5322,4065,5330,4060z M2894,4041c27-30,13-63-26-59c-43,4-58,31-34,57S2872,4065,2894,4041z M1450,4011
		c21-17,23-22,12-45c-13-30-37-33-64-9c-22,20-23,31-1,55C1417,4034,1419,4034,1450,4011z M4725,3980c0-38-39-35-43,3
		c-3,25,0,28,20,25C4719,4006,4725,3999,4725,3980z M2845,3927c39-29-6-89-49-65c-29,16-14,78,19,78C2821,3940,2834,3934,2845,3927z
		 M6215,3899c4-13,1-27-9-38c-9-10-13-21-9-24c3-4,55-7,115-7h108l1-287c1-287-1-386-5-390s-388-4-392,0c-2,2-4,154-4,338l-1,334
		l58,3c81,4,90,8,69,31c-15,16-15,22-4,40C6159,3927,6206,3927,6215,3899z M7990,3845l75-75h268h268l75,73c42,39,80,74,85,75
		c25,9,2-21-70-92l-79-77h-278l-278,1l-78,77c-73,72-89,93-70,93C7912,3920,7949,3886,7990,3845z M5475,3860c0-29-4-36-23-38
		c-43-6-69,37-40,66c7,7,24,12,38,10C5471,3895,5475,3890,5475,3860z M6859,3846c5-6,12-23,16-38c6-22,1-32-20-53c-34-30-64-32-93-5
		c-48,45-9,122,57,112C6836,3860,6854,3853,6859,3846z M5793,3832l107-2l-2-337l-3-338l-90-3c-114-3-116-4-105-41c6-23,5-31-8-38
		c-10-5,35-10,112-13l129-5l-2-135c-2-90-6-137-14-142c-16-10-478-10-494,0c-8,5-12,50-14,142l-1,135l122,5c100,4,120,7,108,17
		c-9,8-13,24-10,42l4,30l-63,3l-64,3l-1,335c-1,204,2,337,8,341c5,3,46,5,91,4S5733,3832,5793,3832z M4706,3785c22-33,4-57-40-53
		c-24,2-32,8-34,26c-5,36,5,52,32,52C4680,3810,4696,3801,4706,3785z M3965,3718c2-13,4-167,2-343l-2-320l-189-3c-104-1-193,1-197,5
		c-4,5-9,156-10,336c-2,274,0,330,12,338c8,5,96,9,196,9C3958,3740,3960,3740,3965,3718z M4890,3630c0-5-22-10-50-10
		c-27,0-50,5-50,10c0,6,23,10,50,10C4868,3640,4890,3636,4890,3630z M5340,3630c0-5-22-10-49-10c-28,0-53,5-56,10c-4,6,15,10,49,10
		C5315,3640,5340,3636,5340,3630z M7044,3621c31-35,3-76-43-64c-38,10-21,81,20,83C7024,3640,7035,3631,7044,3621z M8425,3601
		c3-5,1-12-4-15c-5-4-12-2-16,4c-8,13-72,13-80,0c-13-22,6-50,34-50c32,0,81-34,81-55c0-26-42-55-80-55c-37,0-60,14-60,37
		c0,11,6,10,30-2c34-18,65-13,74,12c9,23-12,43-47,43c-34,0-67,24-67,50C8290,3619,8398,3644,8425,3601z M8605,3615c0-5-12-11-27-13
		c-28-3-28-4-28-83c0-46-4-79-10-79s-10,33-10,80c0,78-1,80-24,80c-41,0-39,18,1,23C8565,3629,8605,3626,8605,3615z M3506,3363
		c-3-142-5-266-5-275c-1-16-15-18-146-18h-144l-3,193c-2,105-2,229,0,275l4,82h149h149L3506,3363z M8238,3608c17-17,15-84-4-103
		c-15-15-15-17,0-34c34-38,8-43-32-6c-35,33-58,32-67-2c-11-47-25-5-25,80v77h58C8200,3620,8231,3615,8238,3608z M5253,3533l27-5
		l-2-184l-2-184h-258h-258l-14-34c-8-18-19-37-25-40c-18-12-48,12-54,44c-6,29-8,30-63,30h-57l6,122c4,66,7,149,7,184
		c0,57,2,63,23,66C4618,3538,5222,3539,5253,3533z M6658,3524c28-19,28-35,1-58c-18-15-25-16-45-5c-28,14-31,41-8,63
		C6625,3544,6630,3544,6658,3524z M8984,3118c14-23-3-52-33-56c-42-6-67,38-39,66C8929,3145,8970,3139,8984,3118z M1324,3101
		c9-14-4-41-19-41c-17,0-38,27-30,40C1283,3112,1317,3113,1324,3101z M8544,3037c17-17,22-31,19-54c-7-42-29-61-78-65
		c-33-2-41-7-43-25c-2-13-8-23-13-23c-10,0-13,173-2,183c3,4,26,7,50,7C8510,3060,8527,3054,8544,3037z M8904,3035c20-31,21-79,1-95
		c-19-16-19-29,2-52c27-30-7-21-46,12c-38,33-38,32,4,46c65,21,29,100-42,92c-26-3-28-6-25-43c2-22,8-48,13-58c7-12,6-19-4-23
		c-9-3-13-13-10-25c3-10,0-19-6-19c-12,0-16,171-4,183c3,4,28,7,54,7C8880,3060,8890,3056,8904,3035z M8621,3023c1-16,0-45-1-65
		c-1-36,11-50,25-28c10,16,42,12,49-6c12-32,26-1,23,51c-3,51,5,88,15,69c3-5,5-48,6-97c1-89-5-98-36-55c-18,25-35,23-65-8
		c-14-14-30-24-34-21c-11,7-4,187,8,187C8616,3050,8620,3038,8621,3023z M5179,3012c6-11,7-31,3-45c-4-15-5-66-1-114
		c3-48,3-93,1-100c-3-11-138-12-474-4l-58,1v140v140h260C5152,3030,5170,3029,5179,3012z M3264,2974c29-28,12-64-30-64
		c-44,0-58,62-16,73C3247,2991,3248,2990,3264,2974z M7314,2984c19-7,21-45,4-62c-30-30-76,6-63,48C7261,2990,7284,2995,7314,2984z
		 M1540,2670v-270h-265h-265v270v270h265h265V2670z M3719,2916c16-19,3-45-26-52c-32-8-54,13-47,44C3653,2934,3700,2939,3719,2916z
		 M6632,2865c-13-29-37-32-64-8c-25,23-23,40,10,57c25,13,29,13,46-4C6641,2894,6642,2887,6632,2865z M4441,2890c25-14,24-45-2-64
		c-17-11-25-12-40-3c-28,17-31,35-9,57C4413,2903,4415,2903,4441,2890z M7550,2860c0-5-5-10-11-10c-5,0-7,5-4,10c3,6,8,10,11,10
		C7548,2870,7550,2866,7550,2860z M1640,2815c10-12,10-18,0-30c-16-20-36-19-44,1c-6,16,9,44,24,44C1624,2830,1633,2823,1640,2815z
		 M4015,2770c0-32-3-35-30-38c-46-4-57,8-44,47c10,28,15,32,43,29S4015,2802,4015,2770z M8940,2435v-375h-220h-220l-2,371
		c-2,204-1,373,1,375s103,4,223,4h218V2435z M4848,2540c-3-21-9-25-40-28c-29-3-38,1-43,17c-8,25,0,40,28,50
		C4824,2591,4851,2571,4848,2540z M2860,2346c20-26,8-61-22-64c-22-3-30,2-40,23c-11,24-10,29,7,41C2829,2364,2844,2364,2860,2346z
		 M3431,2250c29-16,25-58-7-72c-22-11-28-10-40,7c-19,26-18,52,4,64C3409,2262,3408,2262,3431,2250z M2305,2174c0-26-3-29-35-29
		c-29,0-36,4-38,23c-4,30,24,53,53,42C2299,2205,2305,2194,2305,2174z M1374,2204c21-8,21-58,0-75c-17-14-40-5-58,24
		c-8,12-5,21,8,36C1345,2212,1350,2213,1374,2204z M5076,2175c8-20-14-55-34-55c-39,0-55,45-26,74C5033,2212,5066,2201,5076,2175z
		 M2078,2168c30-30,0-75-43-64c-19,5-25,13-25,35C2010,2177,2051,2195,2078,2168z M4014,2125c3-8,12-15,20-15c23,0,8-28-22-44
		s-72-3-72,21C3940,2131,4000,2162,4014,2125z M1628,2104c16-29,3-54-28-54c-37,0-55,22-40,49C1573,2124,1615,2127,1628,2104z
		 M6196,2106c3-8,0-24-6-36c-22-40-93-9-77,34C6121,2125,6188,2126,6196,2106z M2394,2064c23-9,20-51-4-64c-40-22-80,26-48,58
		C2355,2071,2370,2073,2394,2064z M2652,2033c24-21,23-40-3-54c-46-24-96,34-51,60C2622,2053,2631,2052,2652,2033z M7598,2024
		c27-18,30-69,5-96c-20-22-70-23-95-1c-39,35-8,113,45,113C7565,2040,7586,2033,7598,2024z M8909,2010l23-20l-26-26l-26-26l-24,23
		l-25,24l21,22C8878,2035,8879,2035,8909,2010z M1013,1928c4-18,9-48,13-67c5-25,3-32-7-29c-13,4-41,116-32,131
		C995,1977,1008,1960,1013,1928z M2084,1848c14-20,14-24-1-40c-27-30-73-17-73,22C2010,1871,2060,1883,2084,1848z M8345,1720v-135
		l-254-3c-180-2-257,1-262,9c-9,15-12,189-3,234l6,35l257-2l256-3V1720z M3720,1729c9-16,8-25-6-40c-28-31-74-18-74,21
		C3640,1751,3701,1765,3720,1729z"/>
	<path d="M7610,9025c0-8,7-15,15-15s15,7,15,15s-7,15-15,15S7610,9033,7610,9025z"/>
	<path d="M2337,8944c-9-10,2-24,19-24c8,0,14,7,14,15C2370,8950,2349,8956,2337,8944z"/>
	<path d="M7492,8903c5-25,28-28,28-4c0,12-6,21-16,21C7495,8920,7490,8913,7492,8903z"/>
	<path d="M2717,8873c-15-14-6-42,15-49c27-8,54,22,37,43C2757,8881,2728,8885,2717,8873z"/>
	<path d="M7718,8883c-16-4-18-18-18-124v-119l238,2l237,3l3,114c2,81-1,117-9,122C8156,8889,7748,8891,7718,8883z"/>
	<path d="M2200,8836c0-8,4-17,8-20c13-8,35,11,28,23C2226,8855,2200,8853,2200,8836z"/>
	<path d="M6907,8624c-14-14-7-35,11-32c9,2,17,10,17,17C6935,8625,6917,8634,6907,8624z"/>
	<path d="M3934,8609c-8-14,11-33,25-25c16,10,13,36-3,36C3948,8620,3938,8615,3934,8609z"/>
	<path d="M8517,8543c-9-9-9-665,1-679c8-13,371-20,374-7c0,4,2,158,3,341c1,309,0,334-16,343C8859,8551,8527,8554,8517,8543z"/>
	<path d="M1227,8474c-4-4-7-141-7-304c0-226,3-300,13-307c14-12,261-17,301-7l26,6l-2,307l-3,306l-161,3
		C1306,8479,1231,8477,1227,8474z"/>
	<path d="M8186,8443c-11-12-6-33,8-33c19,0,28,27,11,33C8198,8446,8189,8446,8186,8443z"/>
	<path d="M7006,8243c-12-12-6-33,9-33c8,0,15,6,15,14C7030,8241,7016,8252,7006,8243z"/>
	<path d="M6803,8085c-3-9-3-19,1-22c8-9,37,18,30,28C6826,8105,6810,8102,6803,8085z"/>
	<path d="M3283,8024c-9-4-13-29-13-75v-69h40c35,0,42,4,51,28c10,24,7,97-3,108C3350,8023,3295,8029,3283,8024z"/>
	<path d="M5320,7935c0-8,9-15,20-15s20,7,20,15s-9,15-20,15S5320,7943,5320,7935z"/>
	<path d="M3720,7935c0-8,9-15,20-15s20,7,20,15s-9,15-20,15S3720,7943,3720,7935z"/>
	<path d="M6895,7921c-8-15,3-31,21-31c9,0,14,7,12,17C6924,7927,6904,7935,6895,7921z"/>
	<path d="M4853,7865c-7-20,2-29,21-22c9,4,13,13,10,22C4876,7884,4861,7884,4853,7865z"/>
	<path d="M6940,7654c0-9,7-14,17-12c25,5,28,28,4,28C6949,7670,6940,7664,6940,7654z"/>
	<path d="M4800,7525c0-8,9-15,20-15s20,7,20,15s-9,15-20,15S4800,7533,4800,7525z"/>
	<path d="M8046,7481c-7-11,18-33,27-24c4,3,7,12,7,20C8080,7492,8054,7495,8046,7481z"/>
	<path d="M2831,7435c-9-13-7-427,3-443c10-17,217-17,234,0c16,16,17,434,1,444C3051,7447,2839,7446,2831,7435z"/>
	<path d="M4263,7403l-133-4l-1-47c-2-115,1-244,6-253c4-5,141-9,326-9h320l-3,158l-3,157h-190C4481,7406,4335,7404,4263,7403z"/>
	<path d="M6146,7393c-13-14-5-33,14-33c11,0,20,6,20,14C6180,7389,6156,7402,6146,7393z"/>
	<path d="M3810,7340c-11-7-11-11-1-24c11-12,17-14,27-5c8,6,14,15,14,19C3850,7343,3824,7349,3810,7340z"/>
	<path d="M7182,7123l3-228h120h120l3,228l2,227h-125h-125L7182,7123z"/>
	<path d="M3487,7163c-4-7-2-550,1-596c2-16,15-17,165-15l162,3l3,308l2,307h-164C3565,7170,3489,7167,3487,7163z"/>
	<path d="M6437,7113c-13-12-7-23,13-23c11,0,20,7,20,15C6470,7120,6449,7126,6437,7113z"/>
	<path d="M5071,7081c-13-23-1-34,24-25c18,7,17,35-2,41C5087,7099,5077,7092,5071,7081z"/>
	<path d="M1765,6880c-8-14,3-30,21-30c8,0,14,9,14,20C1800,6891,1776,6898,1765,6880z"/>
	<path d="M5587,6844c-13-13-7-24,14-24c11,0,19,5,17,12C5613,6846,5596,6853,5587,6844z"/>
	<path d="M6270,6823c0-17,19-35,29-29c18,12,12,36-9,36C6279,6830,6270,6827,6270,6823z"/>
	<path d="M6430,6521c0-240,3-310,13-314c28-11,306-7,313,4c9,14,8,595-1,609c-4,6-69,10-166,10h-159V6521z M6624,6704
		c19-18,19-20,6-45c-12-21-50-25-68-7c-17,17-15,45,6,57C6592,6724,6606,6722,6624,6704z"/>
	<path d="M6577,6694c-14-15-6-34,14-34c14,0,19,5,17,17C6605,6695,6588,6704,6577,6694z"/>
	<path d="M4577,6763c-4-3-7-12-7-20c0-15,26-18,34-4C4611,6750,4586,6772,4577,6763z"/>
	<path d="M4055,6680c-8-14,3-30,21-30c8,0,14,9,14,20C4090,6691,4066,6698,4055,6680z"/>
	<path d="M7051,6632c-11-20,2-42,25-42c18,0,35,26,28,44C7096,6656,7063,6654,7051,6632z"/>
	<path d="M3303,6585c-7-20,2-29,21-22c9,4,13,13,10,22C3326,6604,3311,6604,3303,6585z"/>
	<path d="M6944,6459c-11-19,13-34,31-19c13,11,13,15,3,21C6960,6473,6952,6472,6944,6459z"/>
	<path d="M2844,6347c-2-7-3-78-2-157l3-145l328-3l328-2l-3,157l-3,158l-323,3C2914,6360,2848,6358,2844,6347z"/>
	<path d="M4508,6274c-11-10,3-34,19-34c8,0,13,7,11,17C4535,6275,4518,6284,4508,6274z"/>
	<path d="M4890,6220c0-15,5-20,18-18c9,2,17,10,17,18s-8,16-17,18C4895,6240,4890,6235,4890,6220z"/>
	<path d="M5161,6231c-9-6-8-11,3-20c15-13,36-7,36,9C5200,6232,5175,6239,5161,6231z"/>
	<path d="M2517,6166c-4-9,1-22,9-31c19-19,57-2,52,23C2574,6180,2525,6186,2517,6166z"/>
	<path d="M5707,6184c-14-14-7-35,11-32c9,2,17,10,17,17C5735,6185,5717,6194,5707,6184z"/>
	<path d="M1697,6143c-4-3-7-19-7-35c0-28,2-29,42-26c33,2,44,7,47,22C1784,6136,1720,6167,1697,6143z"/>
	<path d="M1694,6051c-2-2-4-17-4-33c0-24,4-28,29-28c16,0,36,3,45,6c19,7,21,37,4,52C1756,6058,1703,6060,1694,6051z"/>
	<path d="M1878,6123c-19-21-17-95,2-118c32-39,90-1,90,60C1970,6128,1914,6163,1878,6123z"/>
	<path d="M2062,6128c-16-16-16-110,0-126s53-15,67,2c14,16,17,81,6,114C2128,6143,2083,6149,2062,6128z"/>
	<path d="M7370,6115c0-8,7-15,15-15s15,7,15,15s-7,15-15,15S7370,6123,7370,6115z"/>
	<path d="M3691,6047c-17-21-3-47,26-47c21,0,24,4,21,27C3735,6058,3709,6068,3691,6047z"/>
	<path d="M2430,5823c-8-2-105-4-215-5l-200-3v-115v-115l237-2l237-2l3,97c2,53,0,107-4,118C2481,5817,2458,5829,2430,5823z"/>
	<path d="M6510,5746c0-15,24-28,34-19c13,14,5,33-14,33C6519,5760,6510,5754,6510,5746z"/>
	<path d="M8037,5744c-14-15-6-34,14-34c14,0,19,5,17,17C8065,5745,8048,5754,8037,5744z"/>
	<path d="M6926,5718c-3-13-4-115-3-228l2-205h125h125v225v225l-122,3C6933,5741,6930,5740,6926,5718z"/>
	<path d="M4547,5674c-14-15-6-34,14-34c14,0,19,5,17,17C4575,5675,4558,5684,4547,5674z"/>
	<path d="M5343,5653c-21-7-15-33,7-33c11,0,20,6,20,14C5370,5652,5359,5659,5343,5653z"/>
	<path d="M5200,5640c-13-8-13-11,0-24c10-10,20-12,30-6c13,8,13,11,0,24C5220,5644,5210,5646,5200,5640z"/>
	<path d="M4895,5590c-4-6-1-17,5-26c10-11,16-12,26-3c11,9,11,15,3,25C4915,5603,4904,5604,4895,5590z"/>
	<path d="M4403,5553c-18-6-16-33,1-33c8,0,17,4,20,8C4431,5540,4417,5558,4403,5553z"/>
	<path d="M1100,5220v-310h165h165v310v310h-165h-165V5220z"/>
	<path d="M3695,5507c-22-17-9-47,21-47c19,0,24,5,24,24C3740,5512,3718,5523,3695,5507z"/>
	<path d="M2504,5469c-10-17,13-36,27-22c12,12,4,33-11,33C2515,5480,2508,5475,2504,5469z"/>
	<path d="M5785,5460c-4-7-3-16,3-22c14-14,45-2,40,15C5822,5469,5794,5474,5785,5460z"/>
	<path d="M1569,5408c-6-65-8-232-4-266l6-42l322,2l322,3v155v155l-322,3C1638,5420,1570,5418,1569,5408z"/>
	<path d="M4526,5406c7-18,32-28,39-16c9,15-4,30-25,30C4527,5420,4523,5415,4526,5406z"/>
	<path d="M2626,5368c-3-13-4-84-3-158l2-135l328-3l328-2l-3,157l-3,158l-322,3l-323,2L2626,5368z"/>
	<path d="M2340,5376c0-21,21-31,30-15c5,7,6,17,4,21C2365,5396,2340,5391,2340,5376z"/>
	<path d="M3420,5041v-310l138-3c75-2,151-1,168,0l32,4l-1,309l-1,309h-168h-168V5041z"/>
	<path d="M5710,5339c0-25,33-22,38,4c2,12-3,17-17,17C5716,5360,5710,5354,5710,5339z"/>
	<path d="M6707,5355c-5-11,0-15,19-15c16,0,24,5,22,13C6741,5371,6713,5373,6707,5355z"/>
	<path d="M5480,5220c0-11,7-20,15-20s15,9,15,20s-7,20-15,20S5480,5231,5480,5220z"/>
	<path d="M5777,5224c-3-4-2-16,4-26c13-24,35-9,26,16C5800,5231,5788,5235,5777,5224z"/>
	<path d="M6727,5203c-10-9-9-43,1-43c15,0,30,22,25,36C6747,5211,6737,5214,6727,5203z"/>
	<path d="M5287,5144c-14-15-6-34,14-34c14,0,19,5,17,17C5315,5145,5298,5154,5287,5144z"/>
	<path d="M7295,5121c-8-15,3-31,21-31c9,0,14,7,12,17C7324,5127,7304,5135,7295,5121z"/>
	<path d="M8500,5100c0-11,7-20,15-20s15,9,15,20s-7,20-15,20S8500,5111,8500,5100z"/>
	<path d="M5683,5085c-3-9-3-18,0-22c10-10,37,6,37,22C5720,5105,5691,5105,5683,5085z"/>
	<path d="M2325,5060c-3-5-4-14,0-20c8-13,35-1,35,16C2360,5072,2334,5075,2325,5060z"/>
	<path d="M4552,5057c-7-8-7-18-2-27c8-13,11-13,25,1c14,13,14,17,2,27C4566,5068,4560,5067,4552,5057z"/>
	<path d="M6370,5015c0-8,9-15,20-15s20,7,20,15s-9,15-20,15S6370,5023,6370,5015z"/>
	<path d="M1570,4856c0-131,2-155,16-160c9-3,154-6,324-6c238,0,309,3,312,13c2,6,2,78,0,160l-3,147h-325h-324V4856z"/>
	<path d="M7480,5000c0-15,5-20,18-18c9,2,17,10,17,18s-8,16-17,18C7485,5020,7480,5015,7480,5000z"/>
	<path d="M5312,4968c7-19,38-22,38-4c0,10-9,16-21,16S5310,4975,5312,4968z"/>
	<path d="M3296,4963c-12-12-6-33,9-33c8,0,15,6,15,14C3320,4961,3306,4972,3296,4963z"/>
	<path d="M8880,4935c0-8,7-15,15-15s15,7,15,15s-7,15-15,15S8880,4943,8880,4935z"/>
	<path d="M5465,4850c-11-17,5-32,21-19c7,6,11,15,8,20C5487,4863,5473,4862,5465,4850z"/>
	<path d="M5632,4848c7-20,48-23,48-4c0,11-9,16-26,16C5638,4860,5630,4855,5632,4848z"/>
	<path d="M7170,4845c0-8,7-15,15-15s15,7,15,15s-7,15-15,15S7170,4853,7170,4845z"/>
	<path d="M6630,4804c0-10,7-14,22-12c32,5,35,28,4,28C6639,4820,6630,4815,6630,4804z"/>
	<path d="M6295,4801c-8-15,3-31,21-31c9,0,14,7,12,17C6324,4807,6304,4815,6295,4801z"/>
	<path d="M7337,4713c-4-3-7-41-7-84c0-80,12-109,46-109c11,0,14-9,12-32c-2-25-9-34-28-38c-24-6-25-8-25-95v-90h124h124l-1,225
		l-2,225l-118,2C7396,4719,7340,4717,7337,4713z"/>
	<path d="M7335,4501c-8-15,3-31,21-31c9,0,14,7,12,17C7364,4507,7344,4515,7335,4501z"/>
	<path d="M3904,4649c-3-6-2-15,4-21c13-13,32-2,32,18C3940,4662,3914,4665,3904,4649z"/>
	<path d="M2596,4642c-8-13,11-35,23-28c16,10,14,36-3,36C2608,4650,2599,4646,2596,4642z"/>
	<path d="M1350,4624c0-9,7-14,17-12c25,5,28,28,4,28C1359,4640,1350,4634,1350,4624z"/>
	<path d="M2310,4575c0-8,7-15,15-15s15,7,15,15s-7,15-15,15S2310,4583,2310,4575z"/>
	<path d="M1940,4557c0-19,10-27,26-20c21,8,17,33-6,33C1949,4570,1940,4564,1940,4557z"/>
	<path d="M8457,4564c-14-15-6-34,14-34c14,0,19,5,17,17C8485,4565,8468,4574,8457,4564z"/>
	<path d="M3177,4504c-14-14-7-35,11-32c9,2,17,10,17,17C3205,4505,3187,4514,3177,4504z"/>
	<path d="M3217,4414c-3-4-6-141-7-305c0-284,1-299,20-309c22-12,289-13,308-2c9,7,12,76,10,313l-3,304l-161,3
		C3296,4419,3221,4417,3217,4414z M3445,3960c0-29-4-36-23-38c-43-6-69,37-40,66c7,7,24,12,38,10C3441,3995,3445,3990,3445,3960z"/>
	<path d="M3396,3965c-3-9,1-18,10-22c19-7,28,2,21,22C3419,3984,3404,3984,3396,3965z"/>
	<path d="M6945,4480c-11-17,5-32,21-19c7,6,11,15,8,20C6967,4493,6953,4492,6945,4480z"/>
	<path d="M6350,4430l-85-5l-1-135c0-74,2-143,4-152c4-16,21-18,181-18c173,0,176,0,186,23c8,17,18,22,45,22c29,0,36-4,38-22
		c3-22,7-23,103-23h99v155v154l-242,3C6544,4434,6397,4433,6350,4430z"/>
	<path d="M6664,4139c-8-14,11-33,25-25c6,4,11,14,11,22C6700,4152,6674,4155,6664,4139z"/>
	<path d="M7972,4443c5-25,28-28,28-4c0,12-6,21-16,21C7975,4460,7970,4453,7972,4443z"/>
	<path d="M7064,4359c-8-14,11-33,25-25c6,4,11,14,11,22C7100,4372,7074,4375,7064,4359z"/>
	<path d="M3710,4160v-160l323,2l322,3l3,158l3,157h-326h-325V4160z M3976,4244c12-48-37-72-71-34c-15,17-16,22-4,37
		c8,10,18,21,23,24C3940,4283,3970,4267,3976,4244z"/>
	<path d="M3914,4234c3-9,6-18,6-20s9-4,20-4c13,0,20,7,20,20c0,15-7,20-26,20C3914,4250,3909,4246,3914,4234z"/>
	<path d="M5686,4185c-9-24-8-25,15-25c14,0,19,5,17,17C5714,4200,5694,4204,5686,4185z"/>
	<path d="M7297,4063c-12-11-7-596,5-610c8-10,48-13,153-13c79,0,150,3,159,6c14,5,16,42,16,309s-2,304-16,309
		C7593,4072,7305,4072,7297,4063z"/>
	<path d="M2846,4025c-9-25-8-27,17-23c12,2,22,10,22,18C2885,4041,2854,4044,2846,4025z"/>
	<path d="M1405,3989c-4-6-2-15,5-19c17-10,42-1,37,14C1442,4000,1413,4003,1405,3989z"/>
	<path d="M2803,3905c-7-20,2-29,21-22c9,4,13,13,10,22C2826,3924,2811,3924,2803,3905z"/>
	<path d="M6160,3885c0-10,7-15,18-13c21,4,19,22-2,26C6166,3900,6160,3895,6160,3885z"/>
	<path d="M6055,3787c-3-7-4-145-3-307l3-295h164h165l1,280c1,154-1,292-3,308l-4,27h-160C6100,3800,6058,3797,6055,3787z"/>
	<path d="M5424,3869c-8-14,11-33,25-25c6,4,11,14,11,22C5460,3882,5434,3885,5424,3869z"/>
	<path d="M6787,3823c-4-3-7-17-7-30c0-18,5-23,25-23c14,0,28,7,31,15C6847,3812,6806,3843,6787,3823z"/>
	<path d="M5539,3687c0-67,0-160-1-207c0-47,0-133,1-193l1-107l163,2l162,3v310v310l-162,2l-163,1L5539,3687z M5735,3320
		c0-27-4-36-20-38c-11-1-29,4-40,12c-17,12-18,17-7,41c10,21,18,26,40,23C5732,3355,5735,3351,5735,3320z"/>
	<path d="M5690,3320c0-11,7-20,15-20s15,9,15,20s-7,20-15,20S5690,3331,5690,3320z"/>
	<path d="M5654,3116c-4-10-2-22,4-28c8-8,13-7,18,6c4,10,2,22-4,28C5664,3130,5659,3129,5654,3116z"/>
	<path d="M5434,3027c-2-7-3-62-2-122l3-109h235l235-1v120v120l-233,3C5486,3040,5438,3038,5434,3027z"/>
	<path d="M4650,3771c0-15,6-21,21-21c14,0,19,5,17,17C4683,3793,4650,3796,4650,3771z"/>
	<path d="M3600,3395v-316l163,3l162,3v310v310l-162,3l-163,2V3395z"/>
	<path d="M7013,3613c-7-3-13-11-13-18c0-18,27-27,33-11C7040,3601,7028,3618,7013,3613z"/>
	<path d="M3234,3585c-7-17,3-475,10-482c3-3,57-6,121-7l116-1l2,240c2,132,1,246-1,253C3476,3606,3241,3604,3234,3585z M3375,3363
		c9-36-26-68-56-53c-22,12-26,65-6,73C3346,3397,3368,3389,3375,3363z"/>
	<path d="M3320,3349c0-14,5-19,17-17c26,5,29,38,4,38C3326,3370,3320,3364,3320,3349z"/>
	<path d="M8140,3561c0-47,10-55,56-46c33,6,35,8,32,43c-3,36-4,37-45,40l-43,3V3561z"/>
	<path d="M4607,3502c-15-3-17-22-17-158c0-151,0-154,23-159c12-3,157-4,322-2l300,3l3,157l3,157h-213c-117,1-256,2-309,3
		C4667,3504,4616,3504,4607,3502z M5004,3448c23-37-35-76-70-48c-18,16-18,35,2,55S4989,3471,5004,3448z"/>
	<path d="M4950,3430c0-11,7-20,15-20s15,9,15,20s-7,20-15,20S4950,3441,4950,3430z"/>
	<path d="M4690,3130c0-11,7-20,15-20s15,9,15,20s-7,20-15,20S4690,3141,4690,3130z"/>
	<path d="M6617,3503c-13-12-7-23,13-23c11,0,20,7,20,15C6650,3510,6629,3516,6617,3503z"/>
	<path d="M8925,3111c-9-16,3-31,26-31c14,0,19,6,17,17C8964,3117,8935,3126,8925,3111z"/>
	<path d="M8444,3026c-3-8-4-29-2-48c3-29,7-33,34-36c33-3,64,18,64,44C8540,3025,8457,3060,8444,3026z"/>
	<path d="M4745,3002l-70-3l-2-96c-2-52,2-104,8-114c9-18,25-19,238-19c199,0,230,2,235,16c9,23,7,187-2,202
		C5144,3000,4906,3009,4745,3002z M4794,2904c29-28,12-64-29-64c-42,0-62,49-27,69C4762,2924,4776,2922,4794,2904z"/>
	<path d="M4750,2880c0-11,6-20,14-20c21,0,31,21,15,31C4757,2905,4750,2902,4750,2880z"/>
	<path d="M3213,2948c2-7,12-13,22-13s20,6,23,13c2,7-6,12-23,12S3210,2955,3213,2948z"/>
	<path d="M7274,2959c-8-14,11-33,25-25c6,4,11,14,11,22C7310,2972,7284,2975,7274,2959z"/>
	<path d="M1047,2913c-16-4-17-22-15-246l3-242h240h240l1,240c1,169-2,242-10,247C1494,2920,1077,2921,1047,2913z"/>
	<path d="M3670,2895c0-8,7-15,15-15s15,7,15,15s-7,15-15,15S3670,2903,3670,2895z"/>
	<path d="M6582,2883c2-10,10-18,18-18c22,0,18,29-3,33C6583,2901,6579,2897,6582,2883z"/>
	<path d="M4400,2854c0-9,7-14,17-12c25,5,28,28,4,28C4409,2870,4400,2864,4400,2854z"/>
	<path d="M3960,2776c0-15,24-28,34-19c13,14,5,33-14,33C3969,2790,3960,2784,3960,2776z"/>
	<path d="M8530,2435v-345h190c105,0,190,3,190,8c1,24,2,240,1,445l-1,237h-190h-190V2435z"/>
	<path d="M4787,2553c-14-13-6-23,18-23c16,0,25,6,25,15C4830,2560,4799,2566,4787,2553z"/>
	<path d="M2815,2331c-8-15,3-31,21-31c9,0,14,7,12,17C2844,2337,2824,2345,2815,2331z"/>
	<path d="M3403,2233c-21-7-15-33,7-33c11,0,20,3,20,8C3430,2223,3415,2237,3403,2233z"/>
	<path d="M2250,2175c0-8,9-15,20-15s20,7,20,15s-9,15-20,15S2250,2183,2250,2175z"/>
	<path d="M1337,2174c-9-10,2-24,19-24c8,0,14,7,14,15C1370,2180,1349,2186,1337,2174z"/>
	<path d="M5022,2163c4-21,33-25,33-3c0,8-8,16-18,18C5023,2181,5019,2177,5022,2163z"/>
	<path d="M2030,2140c0-11,7-20,15-20s15,9,15,20s-7,20-15,20S2030,2151,2030,2140z"/>
	<path d="M3970,2100c0-11,7-20,15-20s15,9,15,20s-7,20-15,20S3970,2111,3970,2100z"/>
	<path d="M1580,2085c0-8,7-15,15-15s15,7,15,15s-7,15-15,15S1580,2093,1580,2085z"/>
	<path d="M6132,2088c7-19,35-21,41-3c5,11,0,15-19,15C6138,2100,6130,2095,6132,2088z"/>
	<path d="M2354,2039c-3-6-2-15,4-21c13-13,32-2,32,18C2390,2052,2364,2055,2354,2039z"/>
	<path d="M2604,2019c-8-14,11-33,25-25c6,4,11,14,11,22C2640,2032,2614,2035,2604,2019z"/>
	<path d="M7542,1998c-15-15-16-45-2-53c14-9,50,13,50,30C7590,1996,7556,2012,7542,1998z"/>
	<path d="M2037,1843c-14-13-6-33,13-33c13,0,20,7,20,20C2070,1849,2050,1857,2037,1843z"/>
	<path d="M7850,1720v-120l238,3l237,2l-1,115v115l-237,3l-237,2V1720z"/>
	<path d="M3665,1720c-8-14,3-30,21-30c8,0,14,9,14,20C3700,1731,3676,1738,3665,1720z"/>
	<path d="M271,5591c-13-24-14-1941-1-1961c5-8,10-10,10-5c1,6,1,435,0,955c0,932,0,945,20,975c25,37,25,41,0,48
		C287,5606,276,5602,271,5591z"/>
	<path d="M375,5600c8-12,531-12,560,0c12,5-100,9-273,9C469,5610,371,5607,375,5600z"/>
	<path d="M385,3620c11-5,135-9,275-9s264,4,275,9c12,5-102,9-275,9S373,3625,385,3620z"/>
	<path d="M910,1720c-8-5-25-10-37-10c-13,0-23-4-23-10c0-5-9-10-20-10s-20-4-20-10c0-5-8-10-17-10s-25-8-35-17c-19-17-15-21,102-133
		l121-115l96,92l97,93l-20,22c-10,13-21,25-24,28c-27,27-32,41-20,55c10,13,9,15-8,15c-12,0-23,4-26,8C1069,1730,928,1732,910,1720z
		"/>
	<path d="M1151,1650c34-42,47-48,66-29c16,16-41,69-74,69h-24L1151,1650z"/>
	<path d="M700,1595c-11-12-20-27-20-33c0-7-4-12-9-12c-17,0-32-75-33-165c0-95,14-147,46-174c9-7,16-19,16-26s6-18,14-24
		c11-10,16-8,21,8c3,12,10,21,14,21s53,44,109,99l103,98l-121,115l-120,115L700,1595z"/>
	<path d="M1222,1608c-7-7-12-18-12-25s-5-13-10-13c-6,0-53-41-105-92l-95-91l85-81c46-45,100-96,119-115c29-28,38-32,50-22
		c19,16,66,110,66,132c0,10,4,20,8,23c17,10-1,216-19,216c-5,0-9,6-9,13c0,12-50,67-61,67C1236,1620,1229,1615,1222,1608z"/>
	<path d="M939,1332c-20-21-65-64-100-98c-92-88-93-88-77-113c7-12,21-21,30-21c10,0,18-4,18-10c0-5,9-10,19-10c11,0,23-5,26-10
		c4-6,16-8,26-5c11,4,26,1,34-5c25-21,235,7,235,32c0,4,6,8,13,8c6,0,23,9,35,18l24,19l-45,44c-92,90-196,189-199,188
		C976,1368,959,1352,939,1332z"/>
</g>
</svg>
