<?xml version="1.0" standalone="no"?>
<!DOCTYPE svg PUBLIC "-//W3C//DTD SVG 20010904//EN"
 "http://www.w3.org/TR/2001/REC-SVG-20010904/DTD/svg10.dtd">
<svg version="1.0" xmlns="http://www.w3.org/2000/svg"
 width="1920.000000pt" height="1080.000000pt" viewBox="0 0 1920.000000 1080.000000"
 preserveAspectRatio="xMidYMid meet">

<g transform="translate(0.000000,1080.000000) scale(0.100000,-0.100000)"
fill="#000000" stroke="none">
<path d="M9205 9240 c-12 -13 -16 -28 -12 -48 3 -15 3 -33 -1 -39 -4 -5 -43
-18 -87 -28 -91 -19 -167 -49 -188 -73 -21 -23 -33 -102 -16 -102 7 0 9 -3 6
-7 -4 -3 1 -12 11 -20 10 -9 11 -12 2 -7 -8 4 -4 -5 9 -19 26 -28 40 -36 25
-14 -5 7 -2 5 7 -5 9 -9 19 -14 23 -11 3 4 6 1 6 -6 0 -7 5 -9 10 -6 6 3 10 1
10 -5 0 -6 5 -8 10 -5 6 3 10 1 10 -5 0 -7 7 -10 15 -6 8 3 15 1 15 -5 0 -6 6
-9 14 -6 8 3 16 2 18 -4 2 -5 56 -17 121 -26 l117 -17 0 -293 c0 -184 -4 -294
-10 -298 -5 -3 -10 -24 -10 -46 0 -21 -4 -39 -10 -39 -6 0 -10 -83 -10 -229 0
-143 4 -232 10 -236 6 -3 10 -24 10 -46 0 -21 5 -39 10 -39 6 0 10 -108 10
-303 0 -266 -2 -305 -17 -326 l-16 -24 48 6 c26 4 58 7 71 7 l24 0 0 196 c0
175 2 195 16 190 9 -3 20 -6 25 -6 5 0 9 -79 9 -185 l0 -185 38 0 c20 0 210
14 422 30 403 31 510 36 510 21 0 -4 -46 -11 -102 -15 -165 -11 -1412 -105
-1535 -116 -108 -9 -118 -12 -245 -71 -325 -150 -388 -178 -405 -176 -33 2
-83 -24 -83 -44 0 -10 5 -21 11 -25 6 -3 9 -24 7 -45 -2 -21 0 -40 5 -42 10
-3 -200 3 -278 9 -27 2 -91 5 -141 7 -49 2 -95 7 -101 10 -7 4 -31 7 -55 6
-24 -1 -72 1 -108 5 -36 3 -105 9 -155 12 -49 3 -112 7 -140 9 -27 2 -93 6
-145 10 -52 3 -117 8 -145 10 -27 2 -95 7 -150 11 -157 10 -186 12 -250 18
-68 7 -118 11 -260 21 -55 4 -125 9 -155 12 -30 2 -77 6 -105 7 -27 2 -99 7
-160 12 -60 5 -131 9 -157 9 -27 0 -48 3 -48 7 0 5 5 8 12 8 6 0 8 3 5 6 -4 4
-12 2 -19 -3 -7 -6 -42 -9 -78 -6 -87 6 -136 9 -188 11 -26 1 -41 6 -37 12 3
6 2 10 -4 10 -5 0 -11 -4 -13 -8 -1 -4 -25 -6 -52 -4 -33 3 -44 7 -35 13 10 6
8 9 -8 9 -13 0 -23 -3 -23 -8 0 -4 -20 -7 -45 -7 -44 0 -58 8 -32 18 7 4 6 6
-5 6 -9 1 -18 -3 -20 -8 -1 -5 -18 -6 -35 -4 -18 3 -31 9 -28 13 3 4 -23 13
-58 20 -67 13 -77 21 -77 63 0 20 5 27 20 27 10 0 24 9 30 20 6 11 17 20 25
20 14 0 19 11 16 38 -1 6 3 12 9 12 6 0 8 5 5 11 -4 5 -2 22 3 37 6 15 13 91
15 169 l5 143 -37 52 c-27 39 -46 55 -78 65 l-41 14 -1 104 c-1 57 -4 110 -7
118 -11 29 -107 66 -199 77 -49 6 -112 18 -140 25 -125 36 -148 41 -275 54
-92 10 -163 0 -273 -38 -31 -11 -83 -25 -115 -31 -31 -6 -62 -12 -67 -13 -6
-2 -20 -9 -32 -18 -26 -18 -21 -59 6 -59 12 0 17 -7 16 -22 -2 -24 22 -53 52
-62 10 -3 65 -10 123 -16 183 -18 360 -61 360 -87 0 -7 -10 -13 -22 -13 -40
-1 -76 -24 -112 -71 l-34 -46 -2 -154 c-1 -85 -1 -156 0 -159 1 -3 3 -18 4
-35 3 -26 -4 -35 -50 -70 -31 -23 -54 -48 -54 -59 0 -17 2 -18 18 -5 10 8 8 4
-5 -8 -27 -25 -29 -35 -8 -27 13 5 15 -17 15 -167 0 -167 -10 -249 -30 -249
-25 0 -7 -261 60 -920 39 -377 79 -762 88 -857 10 -95 21 -175 25 -179 3 -4
24 1 47 10 51 20 73 20 40 0 -24 -15 -23 -15 29 -10 l54 5 -6 -265 c-4 -216
-8 -268 -20 -277 -9 -8 -17 -38 -20 -82 -4 -59 -9 -72 -30 -90 -25 -19 -26
-24 -23 -115 2 -52 -1 -100 -6 -107 -5 -7 -5 -14 2 -18 8 -5 8 -10 0 -20 -8
-10 -8 -15 0 -20 8 -5 8 -10 0 -20 -7 -8 -10 -52 -8 -116 l3 -103 45 -14 c59
-19 250 -21 317 -4 51 13 52 15 58 55 3 23 4 124 2 225 -2 100 0 185 4 188 18
11 8 43 -18 62 -25 18 -26 23 -24 95 2 67 0 77 -15 77 -16 0 -16 20 -10 277 4
153 11 280 16 283 12 7 16 100 4 108 -14 10 21 1301 36 1316 5 5 10 51 11 101
1 120 7 139 45 145 43 7 142 70 148 94 3 12 6 41 6 65 l0 44 128 -7 c131 -7
393 -25 732 -51 107 -8 233 -17 280 -20 47 -3 135 -10 195 -15 61 -5 155 -12
210 -15 55 -3 123 -7 150 -10 28 -3 88 -7 135 -10 107 -6 338 -22 500 -35 69
-6 159 -12 200 -15 244 -16 721 -55 743 -61 13 -4 17 -16 17 -48 0 -38 -5 -47
-35 -70 -21 -16 -32 -32 -28 -39 3 -6 5 -53 4 -104 l-2 -93 25 0 c50 0 56 8
56 72 0 58 1 60 23 54 12 -3 36 -6 53 -6 l32 0 -5 -52 c-3 -29 -6 -54 -7 -55
-1 -2 -37 -8 -80 -14 -120 -16 -126 -20 -120 -71 6 -49 17 -66 47 -70 32 -4
34 -35 3 -49 -22 -10 -25 -19 -29 -78 -2 -36 -10 -87 -17 -113 -11 -39 -11
-53 4 -96 12 -38 16 -89 16 -204 0 -84 11 -409 25 -723 14 -313 25 -573 25
-577 0 -4 30 -5 68 -2 46 3 61 1 47 -5 -17 -8 -18 -10 -2 -10 16 -1 17 -17 17
-195 0 -127 -4 -196 -11 -198 -5 -2 -13 -28 -16 -58 -3 -30 -11 -62 -19 -70
-9 -11 -15 -67 -19 -197 -5 -182 -5 -182 17 -195 34 -18 204 -23 253 -6 l40
13 0 183 c0 162 -2 185 -17 199 -13 12 -18 31 -18 69 0 29 -4 56 -10 59 -6 4
-10 83 -10 205 l0 199 43 3 c41 3 42 4 45 40 3 34 1 37 -25 40 l-28 3 -12 290
c-16 371 -19 652 -8 785 7 95 10 106 33 125 14 11 42 25 62 30 l35 11 8 79 c6
54 5 85 -2 97 -8 14 -5 21 17 36 36 25 136 65 302 119 74 24 141 46 149 48 11
4 11 8 1 20 -16 19 -6 19 23 1 29 -18 120 -14 169 8 50 22 78 21 78 -3 0 -10
6 -24 14 -30 10 -9 14 -41 15 -123 0 -61 5 -116 11 -122 7 -10 26 -9 82 0 40
7 135 13 211 14 l137 0 0 -24 c0 -43 -10 -56 -44 -56 -47 0 -86 -21 -86 -46 0
-13 14 -33 36 -49 19 -15 33 -32 31 -39 -8 -21 18 -44 54 -48 31 -3 35 -7 49
-51 15 -46 19 -51 85 -81 83 -39 168 -102 250 -185 39 -40 67 -61 83 -61 22 0
23 2 16 63 -4 34 -30 139 -58 233 l-52 171 35 30 35 29 -3 172 -2 172 42 0
c27 0 46 6 53 16 11 14 23 15 104 5 63 -8 133 -9 220 -2 124 8 206 7 287 -4
22 -3 59 -8 83 -11 l42 -5 0 -107 c0 -123 15 -160 71 -181 19 -7 51 -20 73
-29 21 -9 61 -16 89 -17 l52 -1 -39 17 c-32 14 -35 18 -20 23 24 7 68 -1 72
-14 2 -5 9 -10 16 -10 17 0 49 -36 42 -48 -3 -5 1 -17 8 -28 11 -14 27 -18 69
-18 60 0 91 17 84 46 -5 19 35 58 60 58 22 0 12 53 -13 64 -20 9 -20 10 -2 45
20 39 17 79 -8 118 -12 19 -12 22 6 28 14 4 20 15 20 33 0 21 -8 32 -35 46
-19 11 -35 23 -35 28 0 4 27 8 60 8 l60 0 0 45 c0 43 1 45 30 45 22 0 28 4 24
15 -5 12 -25 15 -89 15 -53 0 -86 4 -91 12 -4 6 -3 9 2 5 5 -3 34 3 64 14 60
21 90 24 90 9 0 -5 -11 -10 -25 -10 -14 0 -25 -4 -25 -10 0 -6 28 -10 63 -10
50 0 69 -5 87 -20 l23 -20 -24 -1 c-13 -1 -31 -1 -39 0 -12 2 -13 0 -1 -8 8
-5 26 -5 45 0 34 10 654 3 721 -9 73 -12 129 -6 257 28 l127 33 -6 60 -6 60
119 -7 c65 -3 144 -9 174 -11 30 -3 156 -12 280 -21 124 -8 262 -18 307 -21
l81 -6 6 -81 c9 -134 14 -569 7 -596 -6 -21 -16 -26 -61 -35 l-55 -10 0 -60
c0 -67 -2 -66 81 -51 l41 7 7 -138 c3 -76 7 -219 8 -318 3 -164 1 -180 -15
-183 -15 -3 -17 -16 -17 -92 0 -87 -1 -89 -30 -110 -29 -21 -41 -62 -22 -74 5
-3 8 -37 7 -76 -1 -39 3 -74 8 -77 5 -3 3 -9 -4 -14 -11 -7 -12 -12 -1 -29 7
-12 8 -20 2 -20 -14 0 -12 -27 3 -34 10 -5 10 -7 0 -12 -14 -6 -17 -171 -4
-229 9 -44 64 -58 236 -58 112 0 151 4 195 19 l55 19 -3 119 c-1 66 -7 124
-12 131 -6 7 -6 15 2 23 8 8 8 15 0 25 -9 10 -9 16 0 25 8 8 8 15 0 25 -9 10
-9 16 0 25 8 8 8 15 -1 26 -9 10 -9 16 -1 21 8 5 8 11 -1 21 -8 10 -8 18 0 27
8 10 7 17 -1 25 -8 8 -8 15 1 26 17 21 5 52 -30 76 -28 21 -29 24 -29 105 0
72 -2 84 -18 90 -17 5 -20 22 -25 178 -4 94 -7 233 -7 308 l0 136 79 7 c43 4
89 5 102 1 51 -12 51 -13 72 392 10 208 21 380 22 381 3 4 693 -43 796 -54
l56 -6 7 -81 c4 -45 8 -82 9 -84 2 -1 34 -5 71 -9 94 -10 102 -19 111 -135 4
-52 11 -96 15 -99 4 -3 15 -252 25 -554 18 -591 20 -565 -33 -566 -21 0 -23
-4 -20 -42 3 -42 4 -43 36 -42 41 2 39 9 46 -239 5 -168 3 -199 -9 -203 -11
-5 -15 -23 -15 -67 0 -48 -4 -65 -21 -83 -15 -16 -19 -29 -14 -41 5 -10 7 -95
7 -190 -2 -198 -2 -198 84 -209 69 -8 210 0 247 14 26 11 27 13 27 96 0 47 -4
87 -8 90 -4 2 -7 57 -6 120 1 111 1 116 -22 131 -21 13 -24 23 -24 75 0 41 -4
61 -14 67 -12 6 -16 52 -22 219 l-7 211 34 7 c19 4 60 10 92 13 31 3 57 6 57
8 0 2 25 329 56 727 40 514 54 749 50 812 -4 52 -1 115 6 152 9 49 9 79 -1
131 -17 99 -19 115 -20 150 -1 35 -1 35 -84 48 -31 5 -36 9 -27 20 12 15 31
115 21 115 -3 0 -5 52 -3 116 3 111 2 118 -23 155 -19 30 -36 42 -70 51 -41
11 -45 15 -45 43 -1 16 -3 57 -6 90 -10 102 -55 122 -253 113 -70 -4 -119 -11
-146 -23 -22 -10 -53 -20 -70 -22 -16 -2 -37 -12 -46 -23 -9 -10 -42 -25 -74
-34 -33 -8 -73 -25 -89 -38 -17 -12 -46 -29 -65 -39 l-34 -16 99 -8 c54 -4
117 -13 139 -20 l40 -12 -29 -12 c-16 -6 -37 -13 -46 -14 -22 -3 -50 -26 -50
-39 0 -6 7 -8 15 -4 8 3 22 3 30 0 12 -5 13 -10 1 -32 -11 -22 -11 -48 -2
-140 6 -63 13 -111 16 -109 3 3 5 -18 6 -45 0 -42 5 -55 27 -74 42 -36 35 -47
-25 -40 -29 3 -213 17 -408 31 -195 15 -361 28 -368 31 -9 2 -11 17 -7 51 15
137 47 901 41 1009 -5 95 -3 130 9 164 20 57 19 166 -2 221 -9 24 -19 87 -22
139 -5 85 -8 96 -28 105 -25 11 -33 46 -19 89 6 20 5 35 -3 47 -14 23 -15 59
-1 59 6 0 10 12 10 28 0 15 4 32 8 37 4 6 80 11 187 11 156 2 195 5 293 28 62
15 137 37 166 50 30 13 57 22 60 19 3 -3 8 2 12 11 3 9 12 16 20 16 8 0 14 5
14 10 0 6 6 10 14 10 24 0 7 37 -29 65 -19 14 -40 25 -47 25 -8 0 -18 4 -23 9
-12 11 -251 91 -274 91 -9 0 -63 16 -120 35 -57 19 -110 35 -117 35 -8 0 -14
5 -14 10 0 6 -15 10 -34 10 -19 0 -38 5 -41 11 -12 19 -112 57 -184 69 -61 10
-74 16 -93 42 -11 17 -46 42 -77 57 -52 24 -65 26 -201 26 -160 0 -226 -14
-299 -62 -46 -30 -47 -34 -41 -205 1 -58 -1 -78 -11 -78 -38 0 -99 -44 -133
-96 l-37 -56 4 -186 c4 -183 19 -282 42 -282 22 0 65 -62 65 -94 0 -18 5 -37
12 -44 9 -9 9 -15 0 -24 -7 -7 -12 -30 -12 -53 0 -23 -6 -48 -12 -57 -14 -17
-95 -53 -163 -72 -5 -2 -17 -6 -25 -9 -39 -16 -166 -61 -274 -98 -66 -22 -125
-44 -131 -49 -7 -6 -15 -7 -18 -4 -4 4 -18 -1 -32 -10 -14 -9 -30 -14 -35 -11
-5 3 -11 1 -14 -4 -3 -5 -45 -21 -93 -36 -49 -16 -92 -32 -98 -37 -5 -4 -18
-8 -30 -8 -12 0 -25 -4 -30 -8 -6 -5 -49 -21 -98 -37 -48 -15 -90 -31 -93 -36
-3 -5 -9 -7 -14 -4 -5 3 -21 -2 -35 -11 -14 -9 -25 -13 -25 -9 0 4 -12 0 -26
-10 -14 -9 -28 -14 -31 -11 -3 3 -15 0 -27 -6 -11 -7 -28 -13 -36 -14 -8 -1
-28 -7 -45 -12 -52 -18 -269 -83 -302 -92 -67 -16 -30 9 67 45 55 21 100 44
100 50 0 20 -22 32 -72 39 l-48 7 0 52 c0 47 -3 54 -35 80 -25 20 -35 36 -35
56 0 16 -6 31 -14 34 -22 9 -7 57 20 67 19 8 24 17 24 44 0 19 -4 37 -9 40 -5
3 -42 8 -82 12 -73 6 -75 7 -217 102 -79 53 -139 98 -133 100 14 5 14 79 0 88
-6 3 -48 10 -93 15 -44 5 -99 11 -121 14 -22 4 -421 -26 -888 -64 -466 -39
-850 -71 -852 -71 -3 0 -5 -9 -5 -20 0 -11 -4 -20 -9 -20 -5 0 -16 -3 -25 -6
-15 -6 -16 59 -16 689 l0 694 38 7 c20 3 60 6 87 6 53 0 170 16 195 27 8 3 23
5 33 4 9 -1 17 2 17 8 0 6 7 8 15 5 8 -4 15 -1 15 5 0 6 7 8 15 5 8 -4 15 -1
15 6 0 6 5 8 10 5 6 -3 10 -1 10 4 0 6 3 10 8 10 19 -3 33 3 61 27 17 14 29
30 25 35 -3 5 0 9 6 9 6 0 8 5 5 10 -3 6 -2 10 3 10 15 0 2 82 -15 102 -44 51
-233 95 -443 104 -162 7 -207 16 -221 48 -10 22 -61 56 -83 56 -7 0 -21 -9
-31 -20z m382 -312 c29 -6 60 -19 68 -28 14 -15 14 -19 -2 -38 -21 -24 -109
-52 -164 -52 -27 0 -38 -5 -41 -17 -2 -9 -2 21 -1 68 1 46 2 86 2 87 1 5 68
-5 138 -20z m-289 -30 c18 -23 32 -53 32 -66 0 -24 -1 -25 -61 -18 -33 3 -81
15 -106 26 -36 16 -44 24 -41 42 2 18 15 27 53 40 74 25 87 23 123 -24z m104
-58 c3 -16 1 -30 -4 -30 -4 0 -8 14 -8 30 0 17 2 30 4 30 2 0 6 -13 8 -30z
m4957 -1304 c21 -11 30 -25 35 -53 9 -57 7 -235 -3 -229 -9 6 -30 -59 -28 -90
1 -16 6 -20 22 -16 19 5 19 5 2 -12 -9 -10 -21 -25 -26 -34 -7 -14 -21 -16
-74 -14 l-66 4 -5 36 c-10 67 -18 368 -11 400 l6 31 60 -4 c33 -3 72 -11 88
-19z m-4089 -326 c0 -5 -5 -10 -11 -10 -5 0 -7 5 -4 10 3 6 8 10 11 10 2 0 4
-4 4 -10z m74 -2 c-3 -4 -12 -8 -20 -8 -8 0 -14 4 -14 8 0 4 9 8 19 8 11 0 17
-4 15 -8z m-111 -5 c-7 -2 -21 -2 -30 0 -10 3 -4 5 12 5 17 0 24 -2 18 -5z
m-5363 -303 c-8 -5 -22 -10 -30 -10 -13 0 -13 1 0 10 8 5 22 10 30 10 13 0 13
-1 0 -10z m5085 -20 c3 -5 -1 -10 -10 -10 -9 0 -13 5 -10 10 3 6 8 10 10 10 2
0 7 -4 10 -10z m-520 -40 c3 -5 -1 -10 -9 -10 -9 0 -16 5 -16 10 0 6 4 10 9
10 6 0 13 -4 16 -10z m4145 -49 c0 -21 6 -43 13 -48 6 -6 46 -13 87 -16 85 -6
126 -23 134 -52 3 -11 6 -68 6 -126 0 -82 3 -109 15 -119 12 -10 15 -49 15
-231 0 -207 -1 -218 -20 -224 -10 -3 -29 -1 -40 5 -16 9 -25 8 -35 0 -15 -13
-39 -4 -30 11 4 5 1 9 -4 9 -6 0 -11 -4 -11 -9 0 -5 -21 -7 -47 -4 -27 2 -64
4 -83 4 -26 -1 -31 2 -20 9 11 7 5 8 -20 4 -37 -7 -37 -7 -60 -5 -13 1 -13 2
0 12 12 8 11 9 -5 5 -59 -15 -73 -16 -97 -7 -17 6 -29 6 -36 -1 -6 -6 -16 -7
-22 -3 -9 6 -9 10 1 17 9 5 3 6 -16 1 -29 -7 -39 -7 -95 -4 -14 1 -32 1 -40 1
-8 0 -40 3 -70 6 -30 3 -85 6 -123 7 -46 1 -66 6 -63 14 3 6 -2 14 -11 17 -13
5 -15 22 -11 111 l5 105 -33 0 c-18 0 -35 4 -38 8 -3 5 -51 9 -108 10 -57 0
-169 7 -250 15 -123 13 -155 19 -191 40 -42 25 -44 25 -97 10 -30 -8 -67 -16
-82 -19 -57 -8 4 44 72 61 3 1 12 4 20 8 52 20 108 37 130 40 14 2 35 8 46 15
12 6 24 8 28 5 3 -3 6 -2 6 4 0 5 12 10 28 9 15 -1 33 5 41 12 7 7 22 10 32 7
12 -4 21 -1 25 8 3 9 14 12 28 10 13 -3 27 0 30 6 4 6 16 11 27 11 19 0 28 4
76 28 13 7 32 12 42 12 11 0 23 5 27 11 3 6 16 8 29 5 15 -4 25 -1 29 9 4 11
14 13 37 8 23 -4 30 -3 25 5 -5 8 3 12 23 12 17 0 31 5 31 10 0 6 19 10 43 10
31 0 38 3 27 10 -17 11 -10 13 40 11 27 -1 31 1 20 8 -11 8 -4 11 28 11 26 0
41 4 37 10 -4 6 8 10 30 10 22 0 34 4 30 10 -4 6 11 10 37 10 33 0 39 3 28 11
-12 8 -10 10 10 8 14 -1 34 -1 45 0 17 1 18 3 5 11 -11 7 -1 10 35 10 36 0 46
3 35 10 -11 7 -3 10 28 10 24 0 41 4 38 9 -3 5 11 9 31 9 21 0 39 4 40 9 2 4
17 9 33 10 28 2 30 0 30 -36z m-4942 -311 c85 -7 127 -16 165 -34 46 -22 49
-24 24 -25 -16 -1 -37 -6 -47 -11 -13 -7 -68 -6 -169 2 -147 11 -151 12 -151
34 0 12 -3 29 -6 37 -4 12 2 14 33 11 21 -2 89 -9 151 -14z m2912 -370 c-20
-13 -40 -13 -40 0 0 6 12 10 28 10 21 0 24 -2 12 -10z m-7245 -36 c24 -16 25
-20 25 -126 0 -60 3 -117 8 -126 4 -9 3 -177 -3 -372 -6 -195 -14 -348 -17
-340 -6 15 -99 916 -98 958 0 18 6 22 30 22 17 0 42 -7 55 -16z m11048 -71
c-7 -2 -19 -2 -25 0 -7 3 -2 5 12 5 14 0 19 -2 13 -5z m-6628 -28 c19 -5 15
-50 -6 -63 -15 -10 -37 -10 -103 0 -72 10 -83 14 -78 30 2 10 -2 20 -12 24 -9
3 -16 10 -16 15 0 8 186 3 215 -6z m-232 -42 c-7 -2 -21 -2 -30 0 -10 3 -4 5
12 5 17 0 24 -2 18 -5z m1074 -100 c-2 -21 -4 -4 -4 37 0 41 2 58 4 38 2 -21
2 -55 0 -75z m-1257 77 c0 -5 -11 -10 -25 -10 -14 0 -25 5 -25 10 0 6 11 10
25 10 14 0 25 -4 25 -10z m1370 -35 c0 -28 -5 -30 -39 -11 -23 13 -23 14 -5
24 30 18 44 14 44 -13z m110 -5 c0 -13 -7 -20 -20 -20 -13 0 -20 7 -20 20 0
13 7 20 20 20 13 0 20 -7 20 -20z m2366 -31 c19 -11 34 -24 34 -29 0 -6 -139
-7 -243 0 -5 0 -6 4 -2 9 3 5 1 12 -5 16 -5 3 -10 -3 -10 -14 0 -20 -1 -20
-18 -3 -23 22 -21 24 31 33 92 15 178 10 213 -12z m-1351 -23 c65 -32 36 -32
-35 -1 -30 13 -46 24 -35 24 11 1 43 -10 70 -23z m1095 -6 c0 -5 -2 -10 -4
-10 -3 0 -8 5 -11 10 -3 6 -1 10 4 10 6 0 11 -4 11 -10z m-942 -27 c-10 -2
-26 -2 -35 0 -10 3 -2 5 17 5 19 0 27 -2 18 -5z m-2418 -64 c30 -11 55 -19 55
-18 0 0 17 -2 37 -6 28 -5 42 -16 57 -40 19 -33 19 -33 0 -38 -22 -6 -27 -55
-7 -75 9 -9 9 -12 1 -12 -7 0 -14 4 -17 9 -5 7 -41 8 -41 1 0 -1 -20 -4 -45
-6 -41 -5 -43 -4 -25 9 11 8 36 20 57 27 25 9 38 21 41 38 4 20 -1 26 -31 39
-19 8 -65 17 -102 20 l-67 6 -1 39 c-2 35 1 39 16 33 9 -4 42 -16 72 -26z
m728 -16 c18 -4 20 -8 10 -14 -22 -14 -58 -10 -58 6 0 16 12 18 48 8z m82 -33
c12 -8 9 -10 -12 -10 -16 0 -28 5 -28 10 0 13 20 13 40 0z m1326 -38 c6 -4 10
-20 10 -37 -1 -29 -2 -30 -46 -27 -25 2 -47 6 -50 8 -8 8 16 39 41 51 28 15
31 15 45 5z m779 -65 c33 -3 71 -10 85 -15 18 -7 -16 -11 -125 -14 -85 -2
-156 0 -163 6 -35 25 29 47 103 35 22 -4 67 -9 100 -12z m-2362 -85 c-32 -2
-87 0 -123 3 l-65 7 34 28 33 28 90 -31 90 -32 -59 -3z m1947 8 c0 -5 -22 -7
-52 -3 -72 8 -73 13 -5 13 32 0 57 -4 57 -10z m187 -12 c-3 -8 -6 -5 -6 6 -1
11 2 17 5 13 3 -3 4 -12 1 -19z m-679 -55 c-10 -2 -26 -2 -35 0 -10 3 -2 5 17
5 19 0 27 -2 18 -5z m405 0 c-7 -2 -21 -2 -30 0 -10 3 -4 5 12 5 17 0 24 -2
18 -5z m295 -121 l3 -52 37 0 c36 0 39 -2 50 -42 7 -24 15 -48 18 -54 3 -7
-19 -12 -66 -13 l-70 -2 0 111 c0 85 3 111 13 108 7 -3 13 -26 15 -56z m-1766
-43 c-6 -27 -28 -40 -55 -33 -28 6 -32 12 -19 30 16 25 80 27 74 3z m138 7 c0
-7 3 -7 8 0 10 17 62 15 62 -2 0 -10 -15 -14 -54 -14 -29 0 -74 -3 -99 -6 -42
-6 -46 -5 -44 14 1 19 7 21 64 20 38 -1 63 -6 63 -12z m110 -1 c0 -8 -4 -15
-10 -15 -5 0 -10 7 -10 15 0 8 5 15 10 15 6 0 10 -7 10 -15z m40 -6 c0 -5 -7
-9 -15 -9 -9 0 -12 6 -9 15 6 15 24 11 24 -6z m295 -128 c-3 -6 -11 -11 -17
-11 -6 0 -6 6 2 15 14 17 26 13 15 -4z m-5772 -738 c-7 -2 -19 -2 -25 0 -7 3
-2 5 12 5 14 0 19 -2 13 -5z m11517 -483 c0 -5 -7 -10 -15 -10 -8 0 -15 5 -15
10 0 6 7 10 15 10 8 0 15 -4 15 -10z"/>
<path d="M12980 6050 c0 -5 7 -7 15 -4 8 4 15 8 15 10 0 2 -7 4 -15 4 -8 0
-15 -4 -15 -10z"/>
<path d="M13068 6043 c7 -3 16 -2 19 1 4 3 -2 6 -13 5 -11 0 -14 -3 -6 -6z"/>
<path d="M13228 6033 c7 -3 16 -2 19 1 4 3 -2 6 -13 5 -11 0 -14 -3 -6 -6z"/>
<path d="M13390 6019 c0 -5 5 -7 10 -4 6 3 10 8 10 11 0 2 -4 4 -10 4 -5 0
-10 -5 -10 -11z"/>
<path d="M5350 6640 c-13 -8 -12 -10 3 -10 9 0 17 5 17 10 0 12 -1 12 -20 0z"/>
<path d="M11890 5505 c0 -8 6 -15 14 -15 7 0 19 7 26 15 11 13 8 15 -14 15
-16 0 -26 -5 -26 -15z"/>
<path d="M9655 5110 c3 -5 24 -10 45 -10 21 0 42 5 45 10 4 6 -13 10 -45 10
-32 0 -49 -4 -45 -10z"/>
<path d="M9549 4778 c-23 -4 -44 -9 -46 -11 -2 -2 36 -7 84 -9 63 -4 120 -16
199 -42 61 -20 121 -36 132 -36 47 0 13 37 -63 71 -55 25 -229 40 -306 27z"/>
<path d="M9359 4716 c-113 -32 -229 -128 -284 -237 -108 -211 -52 -469 128
-593 170 -117 388 -95 537 54 90 90 139 210 140 340 0 128 -40 230 -126 320
-104 110 -256 154 -395 116z m111 -735 c0 -3 -9 -12 -19 -18 -15 -9 -23 -9
-37 2 -18 13 -18 14 6 23 25 9 50 6 50 -7z"/>
<path d="M10283 4505 c-37 -26 -56 -91 -61 -212 -5 -134 15 -246 55 -293 24
-29 24 -30 4 -30 -13 0 -27 -12 -37 -32 -21 -41 -51 -84 -84 -122 -14 -16 -19
-25 -11 -21 8 4 29 8 47 7 40 -2 102 42 151 107 40 52 41 58 6 65 -16 2 -5 3
23 2 51 -3 90 9 95 29 6 22 63 75 78 73 14 -3 16 11 12 108 -2 69 1 119 8 132
9 17 8 22 -9 27 -11 4 -24 22 -31 44 -6 20 -31 58 -55 84 -43 46 -44 47 -107
47 -39 0 -70 -6 -84 -15z"/>
<path d="M8894 4491 c-59 -7 -72 -16 -99 -68 -11 -21 -24 -41 -30 -45 -7 -5
-7 -8 0 -8 6 0 4 -4 -2 -8 -20 -13 -36 -120 -29 -199 6 -76 29 -156 46 -161 5
-2 10 -9 10 -17 0 -7 17 -30 38 -50 35 -36 41 -38 103 -40 l67 -2 -34 33
c-108 108 -109 483 -2 558 26 18 25 18 -68 7z"/>
<path d="M9028 3967 c-4 -18 0 -23 19 -25 28 -2 29 9 4 32 -18 16 -19 16 -23
-7z"/>
</g>
</svg>
