<?xml version="1.0" standalone="no"?>
<!DOCTYPE svg PUBLIC "-//W3C//DTD SVG 20010904//EN"
 "http://www.w3.org/TR/2001/REC-SVG-20010904/DTD/svg10.dtd">
<svg version="1.0" xmlns="http://www.w3.org/2000/svg"
 width="1000.000000pt" height="1000.000000pt" viewBox="0 0 1000.000000 1000.000000"
 preserveAspectRatio="xMidYMid meet">

<g transform="translate(0.000000,1000.000000) scale(0.100000,-0.100000)"
fill="#000000" stroke="none">
<path d="M6445 8674 c-111 -27 -192 -93 -224 -182 l-19 -52 30 30 c16 17 33
30 38 30 4 0 2 -24 -6 -52 -7 -29 -14 -70 -14 -90 0 -41 -10 -47 -33 -23 -14
13 -16 10 -22 -23 -4 -24 -1 -50 10 -74 19 -47 19 -47 -5 -41 -17 5 -20 0 -20
-28 1 -19 7 -45 15 -59 19 -33 18 -41 -2 -38 -24 4 -29 -48 -9 -87 15 -29 12
-51 -3 -26 -6 9 -10 4 -14 -16 -6 -32 1 -81 14 -89 5 -3 9 -10 9 -16 0 -6 -7
-5 -17 3 -15 13 -16 9 -11 -53 4 -44 2 -73 -6 -83 -9 -13 -12 -3 -11 49 1 50
-2 66 -12 66 -14 0 -21 13 -67 137 -26 69 -29 72 -66 78 -72 12 -333 -79 -505
-177 -86 -50 -95 -60 -95 -117 0 -25 -3 -76 -7 -114 -6 -67 -6 -68 -57 -105
-251 -184 -444 -446 -541 -734 -18 -56 -38 -104 -43 -107 -36 -24 -36 -27 -38
-1126 -1 -619 2 -1106 8 -1155 44 -399 216 -754 504 -1044 80 -81 267 -226
290 -226 7 0 22 26 34 57 12 31 23 60 26 65 3 4 26 -3 52 -17 114 -59 321
-133 421 -150 l43 -7 -7 -83 c-4 -53 -3 -85 4 -89 5 -4 68 -12 140 -18 318
-29 654 59 931 244 85 56 250 208 323 295 l26 32 118 -59 c178 -88 711 -261
765 -247 56 15 380 -260 581 -493 126 -146 120 -141 108 -107 -11 28 -11 29
26 25 37 -3 38 -2 47 39 7 32 5 53 -8 90 -29 80 -30 93 -12 93 10 0 26 -5 36
-10 13 -7 21 -7 25 0 3 5 28 10 55 10 39 0 52 4 64 22 l16 22 41 -39 42 -40
-23 41 c-12 22 -42 67 -66 100 -66 88 -62 94 22 28 68 -52 114 -79 114 -65 0
5 -5 13 -10 16 -19 12 0 26 20 15 29 -16 54 -12 68 11 12 18 9 26 -27 72 -22
29 -55 68 -73 88 -59 63 -107 126 -102 132 3 3 33 -10 66 -29 33 -19 67 -34
75 -34 8 0 23 -5 34 -10 16 -9 19 -7 19 8 0 25 31 53 37 35 11 -32 65 13 56
47 -5 21 -5 20 40 -4 94 -53 65 -17 -78 97 -55 43 -104 84 -110 89 -17 18 38
1 116 -36 81 -38 156 -66 178 -66 11 0 11 3 1 15 -15 18 -14 19 25 32 23 8 30
16 32 40 2 25 -5 38 -31 61 -27 24 -33 35 -30 63 7 86 16 110 50 136 19 14 34
31 34 39 0 7 7 17 15 21 23 13 -40 47 -345 186 -180 82 -510 216 -720 293
l-145 53 2 39 c1 36 -2 40 -35 57 -60 29 -447 193 -582 247 -69 27 -129 54
-134 59 -6 5 -5 32 2 71 7 35 26 140 43 233 17 94 68 362 115 597 l84 427 -5
133 c-13 364 -100 636 -297 928 l-77 116 14 89 c24 149 28 139 -84 257 -162
170 -350 311 -431 322 l-46 7 -54 -72 c-30 -39 -58 -76 -62 -82 -7 -11 -105
28 -121 48 -4 5 -5 28 -2 50 3 22 12 99 20 170 8 72 20 171 26 220 14 118 8
176 -31 269 -59 141 -161 220 -325 251 -93 18 -151 18 -230 -1z m-356 -1042
c-7 -38 -20 -72 -35 -89 l-24 -28 0 35 c0 46 21 105 46 129 10 10 20 18 21 17
2 -1 -2 -30 -8 -64z m61 34 c0 -7 3 -29 7 -47 6 -31 5 -33 -10 -20 -18 15 -24
81 -7 81 6 0 10 -6 10 -14z m-12 -308 l21 -42 -22 -15 c-12 -8 -23 -15 -25
-17 -2 -1 2 -12 8 -24 10 -18 9 -21 -1 -18 -7 2 -24 24 -37 49 l-23 44 20 14
c12 7 21 22 21 32 0 31 15 22 38 -23z m-371 -234 c3 -8 1 -20 -6 -27 -6 -6
-11 -17 -11 -25 0 -12 3 -12 15 -2 19 16 37 3 33 -23 -2 -18 1 -21 20 -19 19
3 22 -1 22 -32 0 -25 -6 -39 -22 -51 -23 -15 -23 -15 -30 24 -7 40 -34 91 -48
91 -13 0 -18 53 -6 66 15 18 25 17 33 -2z m107 -181 c8 -19 -17 -48 -33 -39
-12 8 -15 39 -4 49 12 12 31 7 37 -10z m1649 -178 c23 -32 17 -32 -13 0 -13
14 -19 25 -14 25 5 0 17 -12 27 -25z m-103 -50 c0 -8 -4 -15 -10 -15 -5 0 -10
7 -10 15 0 8 5 15 10 15 6 0 10 -7 10 -15z m-90 -41 c0 -14 -4 -23 -10 -19 -5
3 -10 15 -10 26 0 10 5 19 10 19 6 0 10 -12 10 -26z m55 -4 c-5 -8 -11 -8 -17
-2 -6 6 -7 16 -3 22 5 8 11 8 17 2 6 -6 7 -16 3 -22z m-91 2 c6 -10 -28 -64
-39 -63 -16 1 -14 51 3 61 21 12 29 12 36 2z m-78 -67 c-1 -19 -3 -35 -6 -35
-15 0 -27 24 -22 46 7 37 29 29 28 -11z m299 -15 c29 -57 34 -100 10 -80 -12
10 -15 10 -15 -4 0 -29 -119 -16 -165 18 -20 14 -20 15 0 21 11 3 33 13 48 21
16 8 33 12 38 9 5 -4 6 0 3 8 -3 8 -1 18 5 22 6 3 11 1 11 -5 0 -6 5 -8 11 -4
6 3 15 0 20 -7 6 -9 7 -2 3 19 -9 46 2 40 31 -18z m-1899 -525 c-11 -8 -22
-12 -25 -9 -6 6 19 24 34 24 6 -1 1 -7 -9 -15z m364 -41 c0 -8 -4 -14 -9 -14
-11 0 -22 26 -14 34 9 9 23 -3 23 -20z m-286 -112 c2 -4 -2 -16 -10 -26 -11
-16 -22 -18 -69 -13 -53 5 -55 5 -55 -19 0 -13 -4 -24 -10 -24 -5 0 -10 17
-10 37 0 20 3 33 7 30 3 -4 12 -2 20 4 10 9 17 8 29 -2 13 -10 17 -10 24 0 4
8 16 11 29 6 12 -4 21 -2 21 4 0 13 17 15 24 3z m1126 -28 c0 -8 -5 -12 -10
-9 -6 4 -8 11 -5 16 9 14 15 11 15 -7z m-1314 -42 c-5 -15 -17 -21 -46 -24
-42 -4 -45 -2 -30 22 7 12 12 12 22 2 17 -17 28 -15 28 6 0 10 3 22 7 25 12
12 25 -10 19 -31z m238 -63 c27 -32 28 -38 17 -79 l-7 -24 -22 32 c-26 35 -41
102 -24 102 6 0 22 -14 36 -31z m-59 -16 c15 -23 25 -52 25 -72 0 -46 -17 -30
-41 41 -28 82 -24 89 16 31z m1440 7 c-3 -5 1 -10 10 -10 32 0 12 -35 -23 -38
-36 -4 -40 4 -14 36 17 22 39 31 27 12z m-1855 -20 c0 -5 -2 -10 -4 -10 -3 0
-8 5 -11 10 -3 6 -1 10 4 10 6 0 11 -4 11 -10z m1920 -9 c0 -12 -20 -25 -27
-18 -7 7 6 27 18 27 5 0 9 -4 9 -9z m-1530 -47 c15 -43 7 -53 -20 -29 -20 18
-21 18 -26 -2 -4 -12 -16 -23 -28 -25 -14 -2 -25 -15 -33 -38 -7 -20 -17 -34
-25 -32 -24 6 -48 35 -48 59 0 12 -4 23 -10 23 -5 0 -10 6 -10 14 0 15 43 16
57 3 14 -15 23 -6 23 23 0 33 14 39 29 13 9 -16 10 -16 11 4 0 16 7 23 28 25
36 5 39 3 52 -38z m1580 22 c0 -3 -4 -8 -10 -11 -5 -3 -10 -1 -10 4 0 6 5 11
10 11 6 0 10 -2 10 -4z m30 -30 c0 -3 -4 -8 -10 -11 -5 -3 -10 -1 -10 4 0 6 5
11 10 11 6 0 10 -2 10 -4z m-1807 -44 c3 -4 8 -24 12 -44 6 -31 4 -39 -10 -45
-12 -4 -23 0 -31 12 -13 17 -14 16 -15 -16 0 -30 -2 -32 -12 -15 -7 10 -20 28
-29 40 -17 21 -18 21 -12 -11 4 -18 2 -33 -3 -33 -10 0 -46 110 -39 118 3 2
21 -5 41 -16 l35 -21 0 35 0 35 29 -16 c17 -8 32 -18 34 -23z m1867 -3 c0 -6
-4 -7 -10 -4 -5 3 -10 11 -10 16 0 6 5 7 10 4 6 -3 10 -11 10 -16z m-252 -10
c12 0 22 -4 22 -9 0 -6 9 -10 21 -10 16 0 20 -5 17 -27 -2 -18 2 -27 10 -25
15 3 15 -1 1 -32 -17 -36 -43 -44 -37 -11 6 30 1 31 -25 8 -19 -18 -20 -17
-15 13 4 28 2 30 -13 21 -23 -15 -45 -3 -53 28 -8 32 10 59 33 49 9 -4 26 -6
39 -5z m-1076 -110 c-1 -12 -9 -36 -17 -52 -8 -17 -15 -38 -15 -48 0 -10 -4
-20 -10 -24 -5 -3 -7 -12 -3 -20 3 -9 0 -22 -7 -30 -6 -8 -9 -23 -5 -35 7 -22
-4 -27 -23 -8 -21 21 -25 0 -6 -31 22 -38 13 -49 -21 -27 l-26 17 15 -30 c21
-40 20 -45 -6 -27 -14 10 -26 12 -33 6 -7 -6 -24 -1 -48 16 -46 31 -47 21 -4
-24 22 -24 28 -36 19 -39 -10 -4 -9 -10 3 -30 26 -39 10 -39 -32 1 -21 20 -55
44 -75 53 -40 18 -47 30 -23 39 8 4 15 12 15 19 0 8 9 10 25 7 15 -2 25 0 25
7 0 6 -7 11 -15 11 -19 0 -19 0 1 38 16 32 28 40 38 23 3 -5 20 -14 37 -20 45
-15 22 10 -26 29 -28 11 -35 19 -35 42 0 25 2 27 19 17 10 -7 26 -9 35 -6 14
5 15 11 6 27 -6 11 -18 20 -26 20 -8 0 -13 4 -10 9 3 5 17 9 31 9 31 0 42 9
28 23 -13 13 -4 59 12 59 7 0 15 -6 18 -12 2 -8 8 -9 13 -4 5 5 4 11 -3 13
-18 6 -16 23 1 23 8 0 17 9 21 20 6 18 8 18 58 -9 42 -23 51 -33 49 -52z
m1208 9 c0 -14 -40 -58 -52 -58 -5 0 1 18 12 40 19 37 40 46 40 18z m53 -22
c18 -18 12 -53 -14 -86 l-19 -25 0 28 c0 17 -5 27 -15 27 -21 0 -19 20 7 47
25 27 23 27 41 9z m67 -49 c8 -7 15 -19 15 -27 0 -9 7 -14 18 -12 22 4 32 -21
18 -47 -11 -19 -12 -19 -42 9 -18 15 -38 26 -45 23 -10 -4 -14 5 -14 31 0 39
20 48 50 23z m-597 -27 c-3 -11 -9 -17 -14 -14 -5 3 -12 -2 -15 -10 -6 -17
-34 -22 -34 -7 0 7 56 50 67 51 0 0 -1 -9 -4 -20z m67 -27 c0 -10 6 -13 16 -9
11 4 14 1 12 -12 -1 -9 1 -23 6 -30 6 -10 1 -11 -18 -6 -29 7 -33 0 -12 -22
17 -17 43 -18 48 -3 2 6 13 10 23 7 17 -3 15 -6 -12 -23 -35 -21 -42 -35 -18
-35 8 0 15 -4 15 -10 0 -5 7 -10 16 -10 11 0 14 5 10 17 -8 20 10 33 47 33 20
0 27 -5 27 -20 0 -15 7 -20 28 -20 l27 -1 -25 -14 c-14 -8 -33 -14 -43 -15
-23 0 -67 -30 -122 -82 -42 -40 -63 -33 -24 8 24 26 20 45 -6 24 -24 -20 -27
-6 -4 19 26 28 18 38 -17 22 -41 -18 -43 -3 -4 29 19 16 32 32 28 36 -4 4 -14
1 -22 -5 -8 -7 -30 -14 -49 -17 -34 -4 -35 -3 -33 32 1 22 -4 38 -11 41 -25
10 -13 30 35 60 48 30 82 32 82 6z m70 -23 c0 -5 -5 -10 -11 -10 -5 0 -7 5 -4
10 3 6 8 10 11 10 2 0 4 -4 4 -10z m550 -45 c-29 -34 -34 -2 -6 34 9 12 12 11
14 -3 2 -9 -2 -23 -8 -31z m-1771 -109 c10 -12 8 -13 -8 -9 -12 3 -21 9 -21
14 0 14 16 11 29 -5z m1325 -24 c2 -4 -10 -14 -27 -22 -18 -7 -51 -29 -75 -48
-23 -19 -46 -32 -49 -28 -10 10 38 54 88 81 51 26 56 28 63 17z m36 -40 c0 -5
-19 -17 -42 -27 -24 -10 -55 -29 -69 -43 -17 -15 -29 -20 -34 -13 -8 14 18 41
39 41 9 0 16 4 16 9 0 5 17 16 38 24 43 19 52 20 52 9z m27 -48 c-3 -3 -12 -4
-19 -1 -8 3 -5 6 6 6 11 1 17 -2 13 -5z m-53 -12 c6 -11 -74 -65 -83 -57 -6 7
56 65 70 65 4 0 10 -4 13 -8z m-112 -54 c6 -15 -1 -38 -10 -38 -4 0 -7 11 -7
25 0 26 10 33 17 13z m98 -12 c0 -3 -4 -8 -10 -11 -5 -3 -10 -1 -10 4 0 6 5
11 10 11 6 0 10 -2 10 -4z m-31 -23 c0 -13 -59 -55 -59 -44 0 21 25 51 42 51
10 0 18 -3 17 -7z m931 -193 c-17 -32 -20 -20 -7 23 9 28 13 33 15 18 2 -11
-2 -30 -8 -41z m-41 -181 c-15 -47 -85 -190 -104 -214 -15 -18 -16 -18 -11 -2
3 11 9 30 12 43 3 13 10 24 15 24 5 0 9 15 10 33 1 30 1 31 9 7 7 -23 8 -22 9
10 1 28 4 32 12 20 9 -12 10 -11 6 8 -3 12 -2 22 1 22 4 0 15 21 26 46 21 52
31 54 15 3z m-2378 -21 c1 -7 1 -21 0 -30 -2 -12 3 -16 13 -12 11 4 16 0 16
-14 0 -26 16 -37 24 -16 8 22 26 7 26 -22 0 -13 5 -24 10 -24 6 0 10 11 10 24
l0 24 30 -29 c16 -16 27 -36 24 -44 -4 -10 0 -12 18 -8 13 4 26 11 30 17 4 6
8 -1 8 -16 0 -18 5 -28 15 -28 18 0 18 5 4 32 -9 16 -7 24 12 44 12 13 26 21
31 18 5 -3 2 -11 -7 -18 -11 -8 -16 -23 -13 -46 3 -38 11 -41 77 -25 33 7 34
6 18 -9 -24 -24 -22 -45 3 -39 11 3 20 12 20 19 0 8 5 14 10 14 14 0 13 -23
-2 -38 -9 -9 -9 -12 3 -12 8 0 20 5 26 11 8 8 13 8 17 0 4 -6 2 -11 -3 -11 -6
0 -11 -5 -11 -11 0 -6 10 -9 23 -7 15 2 22 10 22 25 1 33 19 33 23 1 3 -25 32
-42 32 -19 0 5 11 4 25 -2 25 -12 34 -37 14 -37 -7 0 0 -9 14 -20 32 -25 57
-26 57 -1 0 12 9 20 25 23 23 5 25 2 25 -33 0 -37 14 -53 23 -26 3 9 7 9 20
-1 9 -8 21 -11 27 -7 6 4 18 1 26 -6 12 -10 18 -8 35 9 11 12 26 22 34 22 8 0
15 7 15 15 0 8 -8 15 -17 15 -17 1 -17 1 -1 11 10 5 15 16 12 24 -4 8 -1 15 5
15 7 0 14 -7 17 -15 4 -8 12 -15 20 -15 8 0 14 -9 14 -20 0 -11 4 -20 9 -20 5
0 12 -14 16 -31 7 -32 26 -34 35 -3 7 25 33 64 42 64 5 0 8 -13 8 -30 0 -23 4
-30 20 -30 13 0 20 7 20 20 0 14 7 20 21 20 17 0 20 4 15 24 -3 14 -2 28 4 31
6 4 10 -5 10 -20 0 -30 24 -43 45 -25 12 10 16 9 21 -4 4 -9 19 -23 34 -31 25
-13 29 -12 50 10 28 30 36 31 43 5 3 -11 13 -20 22 -20 10 0 24 -8 31 -17 12
-17 14 -17 31 2 21 22 37 55 34 68 -1 5 3 6 9 2 5 -3 28 13 50 37 37 39 48 28
13 -14 -10 -11 -11 -18 -3 -23 7 -4 14 2 17 14 7 29 19 26 35 -9 12 -28 38
-42 38 -20 0 6 -4 10 -10 10 -17 0 -11 25 10 38 21 13 28 52 9 52 -5 0 -7 5
-4 10 10 16 25 12 25 -6 0 -11 5 -14 18 -9 46 19 52 18 52 -9 0 -16 6 -26 14
-26 17 0 28 72 12 82 -20 13 0 17 38 7 30 -8 36 -14 31 -30 -9 -29 8 -23 23 8
8 18 9 30 2 37 -7 7 -10 6 -10 -2 0 -7 -7 -12 -15 -12 -34 0 -8 33 27 35 22 2
21 10 3 -111 -9 -54 -22 -144 -31 -199 -8 -55 -22 -140 -31 -190 -8 -49 -17
-105 -20 -123 -4 -25 -8 -30 -18 -22 -9 8 -17 6 -28 -5 -9 -8 -22 -15 -29 -15
-8 0 -18 -4 -24 -9 -5 -5 -27 -14 -48 -21 l-39 -13 27 -14 c38 -20 25 -31 -32
-25 -41 4 -52 0 -80 -23 -18 -15 -32 -33 -32 -41 0 -10 -7 -13 -24 -8 -13 3
-39 -1 -59 -10 -27 -11 -37 -11 -41 -3 -3 9 -7 9 -13 1 -4 -6 -21 -14 -37 -18
-24 -6 -28 -4 -22 10 6 15 4 15 -10 3 -14 -11 -19 -10 -34 9 -10 12 -20 26
-22 30 -2 4 -28 24 -58 45 -94 64 -97 67 -80 77 52 30 170 125 170 137 0 12
-13 14 -77 8 -72 -7 -85 -12 -158 -60 -44 -28 -88 -54 -97 -58 -33 -12 -18
-42 47 -97 36 -30 76 -63 88 -73 18 -16 33 -18 90 -13 56 5 67 3 67 -10 0 -12
-7 -14 -35 -8 -28 5 -35 3 -33 -7 2 -9 -4 -13 -17 -11 -11 2 -28 3 -37 3 -10
0 -18 5 -18 11 0 6 -10 8 -24 4 -34 -8 -58 3 -51 23 4 12 -8 28 -37 51 -57 44
-118 103 -118 113 0 4 4 7 9 7 20 0 166 97 169 112 2 12 -11 16 -74 20 l-76 5
-104 -54 c-75 -39 -102 -58 -97 -68 11 -18 102 -114 147 -152 30 -27 45 -33
84 -33 52 -1 82 -17 82 -46 0 -17 -1 -17 -16 2 -10 13 -17 15 -20 7 -4 -9 -12
-8 -31 4 -21 14 -26 14 -34 2 -6 -10 -9 -10 -9 -1 0 6 -11 12 -24 12 -13 0
-26 -6 -29 -12 -3 -10 -7 -10 -20 1 -9 7 -25 11 -35 9 -11 -3 -36 3 -58 14
-21 11 -64 21 -94 24 -32 3 -58 10 -62 18 -5 8 -17 12 -28 9 -11 -3 -28 1 -37
8 -13 11 -17 11 -20 2 -6 -16 -33 -17 -33 -2 0 6 -9 9 -20 6 -15 -4 -22 1 -26
19 -7 26 -34 33 -34 9 0 -8 -4 -15 -10 -15 -5 0 -10 7 -10 15 0 9 -9 15 -22
15 -14 0 -31 11 -43 29 -14 22 -23 27 -32 19 -10 -8 -13 -6 -13 6 0 19 -40 22
-41 4 0 -10 -2 -10 -5 -1 -3 7 -13 9 -22 6 -14 -6 -15 -4 -5 9 16 19 7 28 -28
28 -20 0 -34 8 -45 26 -13 19 -23 24 -41 19 -21 -5 -23 -3 -18 22 3 16 2 22
-1 16 -8 -18 -34 -16 -34 2 0 8 5 15 10 15 6 0 10 7 10 15 0 18 -17 20 -22 3
-2 -6 -10 -8 -17 -4 -7 5 -10 14 -7 22 3 8 -1 14 -10 14 -8 0 -18 -10 -23 -22
-7 -19 -8 -20 -15 -3 -3 10 -4 26 -1 36 4 11 2 19 -4 19 -6 0 -11 -4 -11 -10
0 -5 -7 -10 -16 -10 -12 0 -15 6 -10 25 4 17 1 31 -9 41 -11 11 -13 26 -9 53
4 24 2 41 -5 45 -6 4 -11 15 -11 25 0 10 -9 26 -20 36 -11 10 -20 23 -20 28 0
6 8 0 19 -11 10 -12 28 -22 41 -22 18 0 21 -4 18 -24 -6 -32 23 -29 39 4 12
26 17 16 13 -28 -2 -25 17 -55 31 -47 4 3 13 -4 19 -15 6 -11 22 -27 36 -37
23 -15 26 -15 41 0 14 14 15 21 4 43 -8 19 -9 30 -1 39 8 10 8 20 -1 37 -19
38 -50 67 -65 61 -8 -3 -18 5 -24 21 -11 31 -30 34 -30 6 0 -11 -4 -20 -10
-20 -5 0 -10 18 -10 40 0 29 -5 42 -20 50 -24 13 -28 55 -5 46 9 -3 15 0 15
10 0 8 -4 13 -9 9 -22 -13 -18 13 5 38 13 14 24 37 24 49 0 31 32 57 89 73 62
17 61 17 62 3z m-324 -53 c8 -9 13 -18 11 -21 -3 -2 -13 5 -23 16 -21 23 -11
27 12 5z m512 -51 c-9 -11 -14 -12 -20 -3 -4 8 -1 18 9 25 21 15 29 -1 11 -22z
m111 -24 c0 -5 -5 -10 -11 -10 -5 0 -7 5 -4 10 3 6 8 10 11 10 2 0 4 -4 4 -10z
m-673 -22 c-3 -8 -6 -5 -6 6 -1 11 2 17 5 13 3 -3 4 -12 1 -19z m117 -13 c3
-13 17 -35 31 -49 14 -14 25 -33 25 -43 0 -12 -6 -8 -20 15 -11 17 -26 32 -34
32 -8 0 -15 14 -18 35 -5 40 7 47 16 10z m-117 -37 c-3 -8 -6 -5 -6 6 -1 11 2
17 5 13 3 -3 4 -12 1 -19z m940 0 c-3 -8 -6 -5 -6 6 -1 11 2 17 5 13 3 -3 4
-12 1 -19z m973 12 c0 -5 -4 -10 -10 -10 -5 0 -10 5 -10 10 0 6 5 10 10 10 6
0 10 -4 10 -10z m-1885 -50 c3 -5 1 -10 -4 -10 -6 0 -11 5 -11 10 0 6 2 10 4
10 3 0 8 -4 11 -10z m1112 -22 c-3 -8 -6 -5 -6 6 -1 11 2 17 5 13 3 -3 4 -12
1 -19z m213 0 c0 -16 -3 -19 -11 -11 -6 6 -8 16 -5 22 11 17 16 13 16 -11z
m360 -17 c-1 -13 -3 -13 -15 3 -19 26 -19 42 0 26 8 -7 15 -20 15 -29z m959
10 c-9 -27 -49 -73 -49 -57 0 7 51 86 56 86 2 0 -2 -13 -7 -29z m-1689 5 c0
-17 -14 -29 -23 -20 -8 8 3 34 14 34 5 0 9 -6 9 -14z m575 4 c-3 -5 -10 -10
-16 -10 -5 0 -9 5 -9 10 0 6 7 10 16 10 8 0 12 -4 9 -10z m92 -12 c-3 -8 -6
-5 -6 6 -1 11 2 17 5 13 3 -3 4 -12 1 -19z m-527 -33 c0 -11 -28 -4 -40 10
-19 23 -2 37 20 15 11 -11 20 -22 20 -25z m295 36 c3 -5 1 -12 -4 -15 -5 -3
-7 -15 -4 -26 3 -11 0 -20 -6 -20 -6 0 -10 14 -8 35 2 34 10 44 22 26z m342
-29 c-10 -2 -17 -12 -17 -23 0 -10 -7 -19 -15 -19 -8 0 -15 9 -15 20 0 11 7
20 15 20 8 0 15 7 15 16 0 14 2 15 17 3 15 -13 15 -14 0 -17z m709 -64 c-14
-41 -26 -84 -26 -95 0 -12 -5 -23 -11 -25 -6 -2 -13 -19 -15 -38 -5 -59 -32
-172 -43 -183 -6 -6 -11 -20 -11 -31 -1 -25 -36 -70 -49 -62 -5 4 -7 -3 -3
-16 4 -17 2 -20 -11 -15 -23 9 -70 -38 -62 -63 7 -23 -10 -27 -19 -5 -9 25
-46 0 -46 -30 0 -18 -6 -25 -20 -26 -11 -1 -25 -2 -32 -3 -6 0 -17 -17 -24
-36 -12 -33 -13 -30 -8 40 3 41 18 154 34 250 36 218 41 240 49 238 23 -6 74
18 92 43 14 20 27 28 37 24 8 -3 19 0 23 6 11 19 48 21 65 5 8 -8 14 -25 14
-38 0 -13 5 -30 10 -38 10 -16 10 -17 14 30 2 13 23 64 47 112 5 10 9 26 10
35 0 10 3 13 5 6 3 -6 -6 -45 -20 -85z m-2326 72 c0 -5 -2 -10 -4 -10 -3 0 -8
5 -11 10 -3 6 -1 10 4 10 6 0 11 -4 11 -10z m2438 -114 c-21 -32 -38 -46 -38
-30 0 10 53 75 57 70 2 -2 -6 -20 -19 -40z m-2298 2 c0 -5 -4 -8 -10 -8 -5 0
-10 10 -10 23 0 18 2 19 10 7 5 -8 10 -18 10 -22z m2137 10 c-3 -8 -6 -5 -6 6
-1 11 2 17 5 13 3 -3 4 -12 1 -19z m-2097 -70 c0 -6 -7 -5 -15 2 -8 7 -15 17
-15 22 0 6 7 5 15 -2 8 -7 15 -17 15 -22z m2199 -11 c-14 -31 -52 -52 -76 -42
-16 7 -14 9 9 14 14 3 36 19 48 34 26 33 36 30 19 -6z m-1569 -487 c0 -5 -4
-10 -10 -10 -5 0 -10 5 -10 10 0 6 5 10 10 10 6 0 10 -4 10 -10z m2618 -397
c95 -64 332 -290 332 -318 0 -20 -21 -4 -140 108 -41 39 -113 102 -160 141
-120 101 -147 126 -132 126 8 0 53 -26 100 -57z m367 -353 c3 -5 1 -10 -4 -10
-6 0 -11 5 -11 10 0 6 2 10 4 10 3 0 8 -4 11 -10z m94 -109 c-2 -6 -10 2 -17
17 -11 25 -11 25 4 10 9 -9 15 -21 13 -27z"/>
<path d="M5900 5545 c-7 -9 -10 -18 -7 -21 6 -7 47 18 47 28 0 14 -27 9 -40
-7z"/>
<path d="M6737 5373 c-13 -13 -7 -32 8 -27 8 4 15 12 15 20 0 15 -12 19 -23 7z"/>
<path d="M6908 5283 c7 -3 16 -2 19 1 4 3 -2 6 -13 5 -11 0 -14 -3 -6 -6z"/>
<path d="M5416 4585 c4 -8 8 -15 10 -15 2 0 4 7 4 15 0 8 -4 15 -10 15 -5 0
-7 -7 -4 -15z"/>
<path d="M7180 4398 c0 -19 2 -20 10 -8 13 19 13 30 0 30 -5 0 -10 -10 -10
-22z"/>
<path d="M7066 4384 c-9 -22 -8 -24 9 -24 8 0 15 6 15 14 0 22 -17 28 -24 10z"/>
<path d="M5960 4345 c0 -8 5 -15 10 -15 6 0 10 7 10 15 0 8 -4 15 -10 15 -5 0
-10 -7 -10 -15z"/>
<path d="M5930 4320 c0 -5 5 -10 10 -10 6 0 10 5 10 10 0 6 -4 10 -10 10 -5 0
-10 -4 -10 -10z"/>
<path d="M6894 4314 c3 -9 6 -18 6 -20 0 -3 5 -2 10 1 16 10 12 35 -6 35 -11
0 -14 -5 -10 -16z"/>
<path d="M6590 4298 c0 -8 7 -23 15 -34 14 -19 14 -19 15 2 0 12 -7 27 -15 34
-12 10 -15 10 -15 -2z"/>
<path d="M6550 4270 c0 -5 5 -10 10 -10 6 0 10 5 10 10 0 6 -4 10 -10 10 -5 0
-10 -4 -10 -10z"/>
<path d="M6305 4250 c-3 -5 -2 -10 4 -10 5 0 13 5 16 10 3 6 2 10 -4 10 -5 0
-13 -4 -16 -10z"/>
<path d="M5555 4189 c-4 -6 2 -20 13 -32 29 -31 38 -85 15 -94 -37 -14 -45
-48 -9 -39 16 4 26 1 30 -9 3 -8 12 -15 19 -15 8 0 20 -7 27 -15 7 -8 20 -15
30 -15 10 0 20 -7 24 -15 3 -8 10 -15 16 -15 15 0 12 26 -6 40 -23 20 -15 82
14 95 28 12 29 35 1 35 -11 0 -40 14 -64 30 -24 17 -51 30 -60 30 -8 0 -18 7
-21 15 -7 18 -20 19 -29 4z m96 -162 c-13 -13 -26 -3 -16 12 3 6 11 8 17 5 6
-4 6 -10 -1 -17z"/>
<path d="M6773 4003 c-50 -13 -80 -30 -155 -89 -51 -41 -96 -74 -100 -74 -5 0
-8 -7 -8 -15 0 -8 31 -36 69 -63 47 -33 67 -52 60 -59 -11 -11 36 -11 144 2
65 7 67 8 55 27 -13 20 -96 73 -130 85 -34 11 -30 16 72 102 123 103 122 116
-7 84z"/>
<path d="M5550 3973 c0 -30 15 -42 118 -95 37 -19 45 -20 52 -8 18 28 10 38
-65 79 -81 45 -105 50 -105 24z"/>
<path d="M5551 3874 c0 -11 3 -14 6 -6 3 7 2 16 -1 19 -3 4 -6 -2 -5 -13z"/>
<path d="M6135 3700 c-3 -5 -1 -10 4 -10 6 0 11 5 11 10 0 6 -2 10 -4 10 -3 0
-8 -4 -11 -10z"/>
<path d="M6390 3670 c0 -5 4 -10 9 -10 6 0 13 5 16 10 3 6 -1 10 -9 10 -9 0
-16 -4 -16 -10z"/>
<path d="M6201 8394 c0 -11 3 -14 6 -6 3 7 2 16 -1 19 -3 4 -6 -2 -5 -13z"/>
<path d="M2720 8299 c-71 -19 -147 -65 -205 -124 -94 -93 -97 -103 -94 -323 2
-103 6 -209 10 -237 16 -112 18 -166 6 -162 -6 2 -25 29 -41 60 -43 82 -69 85
-195 23 -143 -71 -316 -186 -413 -275 -32 -29 -35 -62 -17 -186 l11 -75 -74
-78 c-237 -248 -392 -543 -456 -865 -12 -59 -27 -106 -38 -119 -37 -40 -23
-180 71 -713 20 -110 42 -231 50 -269 8 -38 15 -91 15 -119 0 -93 47 -370 61
-361 5 3 9 -22 9 -55 0 -108 44 -268 78 -279 9 -3 12 26 12 123 0 115 -2 131
-26 183 -14 31 -30 67 -35 80 -5 13 -13 21 -18 18 -12 -8 -21 29 -21 90 0 28
-7 72 -14 99 -8 26 -11 44 -7 39 5 -5 16 -36 26 -69 9 -33 24 -73 32 -88 8
-16 12 -31 9 -34 -3 -4 0 -13 8 -22 24 -28 56 -91 56 -112 0 -11 4 -18 9 -15
5 3 16 -5 25 -19 19 -29 21 -49 4 -39 -6 4 3 -11 21 -33 20 -25 30 -46 26 -54
-6 -8 -4 -10 5 -4 10 6 12 4 7 -8 -4 -11 0 -21 12 -29 11 -6 17 -18 14 -25 -3
-7 -1 -13 5 -13 5 0 13 -12 17 -27 6 -25 37 -64 50 -63 17 0 18 -1 7 -12 -20
-20 -14 -31 13 -24 18 5 25 2 25 -9 0 -8 5 -15 10 -15 6 0 10 -6 9 -12 -6 -47
1 -58 34 -58 40 0 84 -41 93 -87 7 -35 0 -39 -71 -45 -36 -4 -45 -32 -18 -57
58 -53 155 -131 163 -131 23 0 7 27 -45 75 -49 46 -72 77 -45 60 5 -3 24 2 41
11 31 16 31 17 26 71 l-6 55 25 -29 c16 -18 23 -35 19 -50 -6 -27 22 -60 38
-44 19 19 45 12 81 -23 37 -34 46 -66 24 -83 -7 -5 -39 -17 -70 -27 -32 -9
-58 -23 -58 -30 0 -17 173 -126 200 -126 5 0 10 8 10 19 0 12 -20 28 -66 51
l-66 34 51 22 c37 17 52 30 57 48 8 33 -10 76 -47 116 -16 16 -29 32 -29 35 0
13 23 3 47 -21 19 -19 32 -24 49 -20 28 7 31 -2 7 -19 -16 -12 -16 -14 0 -38
9 -14 25 -28 35 -31 15 -5 20 -25 29 -117 12 -110 22 -139 49 -139 17 0 17 -5
3 152 l-12 126 -38 19 c-41 19 -50 33 -21 33 10 0 32 -13 49 -29 39 -35 57
-43 72 -28 8 8 11 8 11 -1 0 -7 -4 -12 -10 -12 -5 0 -10 -4 -10 -10 0 -14 20
-12 53 5 25 13 31 13 53 -1 13 -9 31 -14 39 -10 9 3 18 -1 21 -9 7 -18 40 -20
48 -2 3 6 4 3 1 -8 -3 -13 2 -25 16 -33 19 -12 20 -11 14 8 -6 20 -5 21 14 11
12 -7 21 -18 21 -26 0 -20 10 -19 26 3 12 16 14 15 38 -7 25 -24 26 -24 46 -6
17 15 20 16 20 3 0 -13 -49 -139 -104 -270 -13 -31 -14 -38 -1 -48 8 -6 19 -9
25 -5 12 7 58 106 95 200 38 99 76 157 89 136 4 -5 0 -11 -6 -14 -10 -4 -11
-7 0 -18 8 -8 12 -9 12 -2 0 6 13 14 30 18 16 4 32 11 35 16 9 14 142 11 151
-3 5 -8 10 -6 15 8 6 16 8 15 8 -8 1 -29 24 -39 35 -15 5 10 7 10 12 0 9 -19
22 -16 29 7 11 35 81 62 168 64 43 1 81 -2 83 -6 9 -14 24 -8 18 7 -4 9 -1 15
7 15 8 0 30 15 50 33 34 31 52 42 112 66 36 14 74 14 79 -1 2 -6 20 4 40 25
l36 36 7 -127 c8 -154 8 -156 35 -142 16 8 20 21 20 58 0 31 7 56 20 72 l19
25 46 -23 c35 -17 50 -20 65 -12 36 19 24 44 -30 65 -27 11 -50 23 -50 27 0 9
78 157 94 176 8 11 11 10 17 -5 7 -16 8 -16 8 4 1 12 -3 25 -9 28 -5 3 -10 13
-10 21 0 8 5 14 10 14 6 0 10 -5 10 -10 0 -6 18 -35 40 -65 22 -30 45 -66 52
-80 18 -39 35 -30 52 28 25 85 57 200 63 226 3 14 12 36 20 50 13 24 14 23 7
-23 -5 -39 -4 -48 7 -44 9 3 21 -10 34 -36 14 -29 27 -41 43 -42 26 -1 44 -14
20 -14 -19 0 -32 -41 -29 -92 2 -22 -2 -38 -8 -38 -6 0 -17 -12 -23 -27 -7
-16 -20 -36 -30 -46 -11 -10 -22 -33 -26 -50 l-7 -32 -5 40 c-7 55 -33 59 -48
7 -9 -28 -17 -39 -29 -38 -10 0 -22 -9 -28 -22 -5 -12 -15 -20 -21 -18 -14 6
-47 -24 -70 -63 -10 -17 -29 -31 -45 -35 -31 -6 -79 -68 -79 -101 0 -12 9 -31
21 -44 12 -12 18 -25 15 -28 -11 -12 -59 52 -59 78 0 23 -3 25 -14 14 -7 -8
-13 -19 -13 -25 0 -6 -8 -10 -17 -8 -15 2 -19 -6 -21 -44 -3 -52 -23 -64 -42
-28 -25 47 -100 6 -100 -56 0 -22 -6 -37 -15 -40 -8 -4 -15 -14 -15 -25 0 -30
-23 -70 -37 -65 -7 3 -19 -4 -27 -16 -11 -15 -21 -19 -40 -14 -19 5 -29 1 -40
-16 -20 -28 -32 -17 -16 14 l12 23 -22 -23 c-17 -18 -19 -26 -10 -37 18 -22
-3 -18 -28 5 -11 11 -23 16 -27 11 -3 -5 0 -11 7 -13 20 -7 -2 -28 -28 -28
-14 0 -35 -5 -46 -11 -15 -8 -22 -8 -28 1 -6 9 -17 3 -40 -20 l-33 -33 -12 23
c-10 19 -13 20 -18 6 -4 -9 -16 -16 -27 -16 -14 0 -20 -7 -21 -22 l0 -23 -9
23 c-10 23 -21 28 -34 15 -8 -8 -27 -11 -106 -17 -63 -5 -90 -15 -90 -33 0 -8
-6 -13 -12 -10 -7 2 -12 12 -12 21 2 18 -21 22 -31 6 -5 -8 -11 -8 -20 0 -14
12 -65 3 -65 -11 0 -5 -7 -9 -15 -9 -8 0 -15 7 -15 16 0 13 -13 15 -72 15
-129 -1 -168 1 -168 9 0 9 -76 33 -115 36 -16 1 -37 -2 -47 -7 -12 -7 -15 -5
-11 9 3 12 -4 22 -21 30 -21 9 -26 9 -26 -2 0 -8 6 -17 13 -19 6 -3 0 -6 -15
-6 -14 -1 -28 3 -30 7 -1 4 -17 17 -33 29 -21 15 -35 19 -47 12 -11 -6 -20 -4
-28 6 -7 9 -21 13 -30 10 -13 -4 -19 1 -24 19 -4 17 -15 26 -37 31 -41 9 -69
39 -76 80 -3 19 -11 33 -17 32 -6 -1 -12 10 -14 26 -2 15 -9 27 -18 27 -8 0
-14 6 -14 13 0 7 -9 23 -21 35 -11 12 -17 27 -14 32 10 16 21 12 35 -15 9 -18
19 -23 32 -19 13 4 18 0 18 -15 0 -12 6 -21 15 -21 13 0 15 7 9 38 l-7 37 22
-19 c33 -29 33 -15 0 22 -33 37 -49 41 -49 12 0 -33 -17 -23 -24 14 -6 29 -32
67 -39 55 -22 -38 -27 -53 -27 -74 0 -16 -6 -25 -15 -25 -8 0 -15 4 -15 9 0 5
-10 11 -22 15 -19 5 -21 8 -8 16 21 14 30 12 30 -5 0 -8 5 -15 11 -15 6 0 9 6
6 14 -3 7 -1 18 5 24 6 6 7 27 3 51 -6 35 -10 41 -31 41 -18 0 -27 9 -39 36
-20 48 -36 35 -28 -24 5 -42 33 -104 33 -74 0 6 9 12 21 12 36 0 15 -25 -24
-28 -31 -3 -38 1 -52 27 -10 20 -20 28 -30 25 -11 -5 -15 2 -15 26 0 27 -3 30
-20 25 -16 -5 -20 -2 -20 14 0 23 -15 28 -23 9 -3 -8 -6 -6 -6 5 -1 9 -7 17
-15 17 -9 0 -12 7 -9 19 3 10 0 22 -6 25 -6 4 -11 2 -11 -3 0 -6 -5 -11 -11
-11 -7 0 -8 11 -4 31 5 23 4 30 -6 27 -14 -5 -59 71 -59 100 0 9 -7 26 -15 36
-15 20 -15 20 -16 0 0 -10 -7 4 -16 31 -8 28 -19 59 -23 70 -5 11 -11 27 -13
35 -2 8 -8 -10 -12 -40 -8 -63 10 -50 -235 -177 -69 -36 -149 -78 -178 -94
-29 -16 -60 -29 -68 -29 -8 0 -14 -4 -14 -10 0 -5 -5 -10 -11 -10 -15 0 -185
-86 -221 -112 -29 -20 -53 -16 -44 8 3 8 1 14 -4 14 -6 0 -7 -18 -4 -43 4 -30
2 -46 -7 -54 -24 -18 -187 -33 -365 -33 -93 0 -179 -3 -192 -6 -32 -9 -24 -35
15 -54 23 -11 33 -24 37 -50 5 -31 2 -38 -26 -63 -18 -15 -33 -32 -33 -37 0
-5 -10 -18 -23 -30 -12 -11 -22 -25 -22 -30 0 -5 -16 -14 -35 -21 l-36 -13 3
-93 2 -93 51 6 c161 18 391 74 654 160 52 16 69 18 55 5 -15 -15 -346 -113
-474 -141 -55 -11 -222 -58 -250 -69 l-25 -9 33 -8 c25 -5 31 -10 26 -23 -4
-9 -6 -24 -6 -35 1 -10 -10 -36 -24 -57 -14 -22 -22 -44 -19 -48 2 -5 -2 -14
-10 -21 -22 -18 -18 -38 8 -43 l22 -4 -22 -8 c-21 -7 -23 -13 -23 -86 l0 -79
35 0 c30 0 78 8 165 26 24 5 24 5 6 -15 -11 -12 -23 -21 -29 -21 -19 0 -177
-79 -177 -89 0 -14 359 117 384 140 6 5 16 9 23 9 8 0 33 9 55 20 23 11 49 20
57 19 11 -1 10 -3 -4 -8 -11 -3 -54 -23 -95 -43 -41 -19 -101 -47 -132 -62
-127 -57 -165 -76 -203 -101 -39 -25 -39 -26 -10 -20 27 5 32 2 41 -23 12 -31
7 -89 -7 -98 -5 -3 -9 -21 -9 -39 0 -32 5 -37 51 -60 43 -22 49 -29 43 -48 -3
-12 -7 -22 -8 -23 -55 -32 -86 -74 -55 -74 8 0 7 -6 -2 -17 -13 -14 -11 -16
11 -11 34 8 257 95 365 143 596 266 1246 600 1276 656 8 16 141 119 153 119 3
0 48 -35 99 -78 125 -106 200 -155 321 -213 325 -155 670 -192 1011 -108 131
32 125 26 125 118 l0 79 58 23 c90 35 231 107 304 155 37 24 71 44 76 44 5 0
22 -18 37 -40 15 -22 35 -40 44 -40 18 0 148 129 223 220 134 163 246 374 312
587 62 198 80 348 91 768 4 127 17 502 31 835 21 548 22 617 9 730 -24 217
-63 362 -144 534 -74 158 -155 277 -273 403 l-58 61 0 114 c0 76 -4 119 -12
130 -55 67 -281 224 -423 293 -82 41 -95 44 -141 39 l-51 -6 -43 -77 c-24 -42
-44 -78 -46 -79 -6 -9 -170 32 -180 45 -8 9 -12 68 -13 161 -3 247 -15 362
-45 427 -36 79 -77 127 -147 174 -82 55 -171 81 -268 80 -42 0 -92 -5 -111
-10z m-250 -1381 c11 -21 20 -45 19 -55 0 -13 -2 -14 -6 -4 -4 10 -9 8 -18
-10 -9 -17 -10 -29 -3 -42 8 -15 7 -18 -3 -15 -8 3 -25 30 -38 62 -24 55 -24
57 -7 93 19 40 20 40 56 -29z m1401 -191 c-1 -12 -15 -9 -19 4 -3 6 1 10 8 8
6 -3 11 -8 11 -12z m-31 -139 c0 -4 -8 -8 -18 -8 -13 0 -18 -7 -18 -22 1 -14
-5 -23 -14 -23 -9 0 -14 8 -13 20 1 10 -3 27 -8 37 -11 20 5 26 17 6 5 -7 10
-3 16 13 9 23 10 23 24 5 8 -11 14 -23 14 -28z m284 -148 c69 -96 123 -176
120 -179 -2 -3 -11 2 -18 10 -21 21 -246 337 -246 344 0 21 32 -18 144 -175z
m-1988 79 c-8 -20 -23 -42 -32 -50 -15 -13 -16 -12 -9 10 5 15 3 26 -6 31 -9
6 -3 17 21 42 40 38 50 25 26 -33z m1630 5 l11 -35 -28 27 c-33 32 -36 44 -11
44 11 0 21 -13 28 -36z m192 -33 c12 -17 22 -37 22 -46 0 -15 -1 -15 -16 -1
-21 22 -25 20 -18 -9 4 -16 2 -25 -5 -25 -15 0 -101 91 -101 107 0 24 17 22
40 -4 26 -30 39 -18 20 17 -11 21 -11 21 12 6 13 -9 34 -29 46 -45z m-242 17
c-11 -56 -46 -80 -46 -31 0 27 25 63 43 63 5 0 7 -13 3 -32z m-1523 1 c3 -12
1 -26 -4 -33 -5 -6 -16 -20 -24 -31 -13 -17 -16 -18 -25 -5 -15 22 -12 34 13
63 27 32 33 33 40 6z m-346 -49 c19 -25 6 -24 -26 1 -16 13 -30 30 -30 38 -1
15 30 -7 56 -39z m385 3 c24 -21 23 -28 -9 -69 l-27 -36 -14 36 c-12 31 -12
37 2 51 9 9 16 21 16 26 0 14 11 11 32 -8z m1422 -21 c-8 -32 -32 -62 -49 -62
-7 0 -15 8 -19 18 -3 9 -9 24 -12 32 -3 9 1 8 10 -4 18 -22 49 -14 44 11 -1
10 1 24 5 31 14 21 28 3 21 -26z m193 6 c7 19 26 14 46 -14 15 -20 16 -28 6
-40 -7 -8 -18 -13 -26 -10 -7 3 -13 -1 -13 -8 0 -8 -7 -16 -15 -20 -11 -4 -14
-13 -9 -31 9 -35 -8 -31 -45 10 -39 45 -40 64 -5 57 24 -4 26 -3 21 19 -4 13
-10 35 -13 49 l-7 25 28 -25 c19 -17 29 -21 32 -12z m-1562 -47 c7 -23 -14
-61 -33 -61 -21 0 -25 29 -8 55 20 30 33 32 41 6z m1445 -30 c0 -5 9 -12 19
-16 17 -5 26 -19 35 -54 3 -10 -55 -8 -61 2 -11 18 -13 77 -2 77 5 0 9 -4 9
-9z m-2196 -670 c14 -36 26 -67 26 -71 0 -3 -41 -62 -91 -131 -50 -68 -96
-134 -102 -146 -11 -25 -27 -31 -27 -9 0 7 -13 45 -29 85 -33 80 -71 241 -71
298 l1 38 16 -35 c15 -32 17 -33 20 -12 5 26 19 29 27 5 3 -10 4 -6 2 10 -2
17 2 27 9 27 7 0 22 10 34 23 82 87 91 100 92 136 0 30 5 21 33 -59 18 -52 45
-124 60 -159z m1049 -204 c-6 -9 -43 21 -43 35 0 5 11 1 24 -9 13 -10 22 -22
19 -26z m1137 18 c0 -8 -7 -15 -15 -15 -9 0 -12 6 -9 15 4 8 10 15 15 15 5 0
9 -7 9 -15z m-1502 -71 c-4 -22 -35 -31 -51 -15 -8 8 -8 14 1 23 10 10 15 10
22 -2 8 -12 10 -10 10 10 0 17 3 21 11 13 6 -6 9 -19 7 -29z m-74 -6 c7 -34 3
-44 -13 -33 -13 7 -15 65 -2 65 5 0 11 -14 15 -32z m-48 -22 l7 -28 -27 17
c-28 18 -34 40 -13 48 16 6 24 -3 33 -37z m-66 -6 c0 -11 -4 -20 -10 -20 -5 0
-10 9 -10 20 0 11 5 20 10 20 6 0 10 -9 10 -20z m1725 10 c4 -6 14 -9 23 -8
12 2 18 -5 20 -22 2 -14 9 -31 14 -37 7 -9 7 -18 -2 -28 -15 -18 -31 -10 -23
10 3 8 0 15 -6 15 -6 0 -11 -4 -11 -10 0 -5 -7 -10 -15 -10 -8 0 -15 5 -15 10
0 6 -10 8 -24 4 -27 -6 -46 17 -46 57 0 19 4 21 30 16 17 -4 30 -2 30 3 0 13
17 13 25 0z m-1765 -19 c0 -5 -7 -16 -15 -25 -8 -8 -15 -19 -15 -25 0 -6 -4
-11 -10 -11 -5 0 -10 5 -10 11 0 6 -7 9 -15 5 -29 -11 -14 19 18 35 39 20 47
22 47 10z m1880 -55 c0 -13 -7 -29 -15 -36 -12 -10 -15 -9 -15 8 0 27 10 52
21 52 5 0 9 -11 9 -24z m50 4 c0 -5 7 -10 15 -10 10 0 15 -10 15 -29 0 -16 -7
-34 -15 -41 -12 -10 -15 -10 -15 4 0 9 -7 16 -15 16 -15 0 -20 26 -9 54 7 18
24 22 24 6z m76 -24 c3 -8 12 -12 20 -9 8 3 14 -1 14 -11 0 -19 11 -21 27 -5
8 8 13 5 18 -11 5 -15 2 -27 -10 -39 -10 -9 -15 -11 -11 -5 10 19 -41 46 -63
35 -16 -9 -20 -6 -24 17 -3 15 -3 30 0 34 7 13 23 9 29 -6z m-1673 -64 c-3
-15 -13 -22 -29 -22 -12 0 -26 -5 -30 -11 -4 -7 -20 -8 -41 -4 -33 6 -34 5
-23 -15 6 -12 9 -24 6 -27 -9 -9 -24 6 -28 30 -4 18 2 26 23 36 16 7 33 10 39
6 6 -3 13 1 16 9 3 9 14 16 24 16 10 0 21 8 25 18 6 15 7 15 15 1 5 -8 6 -25
3 -37z m1788 -35 c-8 -8 -11 -5 -11 9 0 27 14 41 18 19 2 -9 -1 -22 -7 -28z
m-1681 -97 c3 -53 2 -54 -26 -20 -31 37 -38 35 -23 -8 21 -61 3 -53 -54 23
-32 42 -56 79 -53 83 3 3 6 0 6 -6 0 -7 5 -12 12 -12 6 0 22 -9 34 -21 l22
-21 -8 35 c-12 53 5 59 50 18 29 -27 39 -44 40 -71z m-275 52 c0 -18 -20 -15
-23 4 -3 10 1 15 10 12 7 -3 13 -10 13 -16z m-47 -34 c-6 -18 -28 -21 -28 -4
0 9 7 16 16 16 9 0 14 -5 12 -12z m178 -6 c19 -13 64 -86 64 -105 0 -16 -2
-16 -24 -2 -25 16 -44 6 -31 -16 4 -6 0 -9 -11 -7 -13 2 -20 -6 -27 -32 -5
-19 -15 -38 -22 -43 -8 -4 -12 -14 -9 -22 10 -24 -5 -17 -37 17 -18 21 -29 27
-29 17 0 -8 5 -20 11 -26 7 -7 8 -24 4 -43 -7 -30 -8 -31 -26 -14 -14 13 -16
20 -8 31 9 10 8 13 0 13 -18 0 -24 -27 -13 -60 14 -39 0 -38 -32 2 -30 39 -44
32 -21 -11 27 -53 -1 -34 -45 30 -41 60 -47 85 -14 58 14 -11 18 -11 22 -1 3
10 9 10 28 -3 24 -16 25 -16 18 12 -4 15 -12 35 -19 43 -27 34 -26 41 3 20 36
-26 49 -22 32 9 -11 22 3 31 16 10 4 -6 19 -9 35 -5 22 4 34 0 46 -14 19 -21
42 -28 26 -7 -15 18 -26 87 -14 87 5 0 17 -7 25 -16 9 -8 16 -11 16 -5 0 5 -5
13 -10 16 -6 3 -17 20 -26 38 l-17 31 32 -27 c36 -30 56 -35 47 -12 -3 8 -9
22 -12 30 -7 16 4 19 22 7z m1149 -40 c-15 -24 -14 -24 12 5 23 24 35 30 56
26 33 -7 39 -15 43 -64 3 -29 -3 -45 -22 -69 -15 -17 -35 -35 -45 -41 -17 -9
-22 -5 -37 29 -9 21 -22 37 -28 35 -6 -2 -14 13 -17 34 -6 32 -2 42 21 66 31
32 42 19 17 -21z m-1395 -12 c0 -5 -5 -10 -11 -10 -5 0 -7 5 -4 10 3 6 8 10
11 10 2 0 4 -4 4 -10z m1590 -15 c0 -2 -11 -15 -25 -29 -28 -28 -36 -57 -10
-36 21 17 31 5 14 -16 -13 -16 -12 -16 9 -3 25 16 28 25 10 33 -9 3 -7 9 7 18
29 19 56 18 53 -1 -2 -12 4 -16 27 -14 27 1 28 0 10 -10 -33 -20 -89 -80 -125
-134 -38 -56 -63 -62 -31 -7 20 34 14 47 -9 19 -17 -20 -31 -19 -23 3 4 9 9
19 12 22 3 3 15 16 26 29 l20 24 -25 -14 c-14 -8 -33 -20 -43 -28 -29 -24 -31
-3 -2 34 15 20 28 43 29 52 4 23 76 79 76 58z m-1014 -62 c-7 -37 -24 -156
-31 -214 -6 -50 -20 -61 -67 -52 -19 4 -25 11 -25 34 0 18 6 29 14 29 11 0 13
8 8 30 -5 22 -3 32 9 36 19 7 21 31 4 36 -7 3 -3 13 13 29 13 13 28 23 32 21
5 -1 6 6 2 17 -3 12 0 21 10 25 8 3 15 12 15 21 0 8 5 15 11 15 6 0 8 -11 5
-27z m-672 -18 c3 -9 0 -15 -9 -15 -8 0 -15 7 -15 15 0 8 4 15 9 15 5 0 11 -7
15 -15z m1294 -12 c2 -7 -3 -13 -12 -13 -11 0 -16 -9 -17 -27 0 -25 -1 -26 -9
-8 -5 11 -9 30 -9 43 -1 18 4 23 21 20 12 -2 23 -9 26 -15z m453 -61 c-25 -26
-54 -59 -63 -72 -24 -32 -33 -19 -14 18 17 34 105 114 116 107 4 -3 -13 -26
-39 -53z m29 -32 c-30 -28 -56 -46 -58 -40 -5 14 78 90 98 90 8 0 -10 -23 -40
-50z m-460 30 c0 -5 -7 -10 -15 -10 -8 0 -15 5 -15 10 0 6 7 10 15 10 8 0 15
-4 15 -10z m477 -83 c-40 -43 -75 -77 -78 -77 -2 0 -4 11 -4 25 0 15 5 23 11
21 12 -5 54 37 54 54 0 5 15 16 34 24 18 8 37 19 41 26 4 6 9 10 11 7 2 -2
-29 -38 -69 -80z m-477 53 c0 -5 -9 -10 -20 -10 -11 0 -23 0 -27 -1 -4 0 -9 4
-11 10 -2 6 10 11 27 11 17 0 31 -4 31 -10z m-35 -39 c3 -5 1 -12 -5 -16 -5
-3 -10 1 -10 9 0 18 6 21 15 7z m555 -23 c-12 -13 -35 -44 -52 -70 -27 -43
-48 -61 -48 -40 0 19 96 130 113 131 4 1 -2 -9 -13 -21z m-539 -34 c10 -13 10
-17 -2 -26 -11 -8 -10 -9 5 -4 20 7 66 -17 66 -34 0 -11 -59 -14 -84 -4 -11 4
-16 19 -16 45 0 42 9 49 31 23z m-669 -73 c11 -9 -3 -81 -15 -81 -6 0 -6 -5 1
-12 6 -7 8 -26 5 -41 -4 -22 -9 -26 -25 -21 -11 3 -44 6 -74 5 -62 0 -76 22
-21 33 l32 7 -30 13 -30 13 28 14 c23 10 28 18 24 38 -8 42 0 49 51 43 26 -2
50 -7 54 -11z m733 -42 c11 -1 3 -6 -17 -11 -21 -6 -38 -16 -38 -24 0 -25 -17
-15 -23 13 -8 43 0 53 31 37 15 -8 36 -14 47 -15z m-15 -78 c0 -10 -24 -21
-46 -21 -20 0 -17 18 4 23 29 8 42 7 42 -2z m-10 -41 c0 -5 -7 -10 -15 -10 -8
0 -15 5 -15 10 0 6 7 10 15 10 8 0 15 -4 15 -10z m945 -402 c-10 -40 -21 -82
-26 -93 -4 -11 -11 -35 -15 -54 l-6 -34 -32 56 c-40 71 -42 73 -60 58 -9 -8
-16 -8 -20 -2 -11 16 33 35 49 21 11 -10 22 -4 50 27 20 21 43 53 52 71 24 50
27 31 8 -50z m145 -38 c0 -13 -5 -18 -15 -14 -11 5 -12 9 -2 20 16 18 17 17
17 -6z m-350 -76 c0 -3 -9 -13 -19 -22 -11 -10 -43 -63 -71 -119 -28 -57 -54
-103 -57 -103 -3 0 -3 27 -1 60 3 46 1 61 -10 65 -8 3 -12 8 -9 12 4 3 14 0
23 -8 13 -11 18 -11 21 -1 3 6 11 12 19 12 8 0 18 9 22 19 14 39 82 109 82 85z
m-1980 -129 c0 -9 9 -15 25 -15 14 0 25 -6 25 -12 0 -10 3 -9 9 1 6 10 10 10
16 1 14 -22 -10 -31 -41 -15 -16 8 -39 15 -51 15 -16 0 -20 5 -16 20 6 23 33
27 33 5z m1795 -7 c-19 -11 -30 -5 -21 11 4 6 14 7 22 4 15 -5 14 -7 -1 -15z
m-368 -170 c-3 -8 -6 -5 -6 6 -1 11 2 17 5 13 3 -3 4 -12 1 -19z m750 -4 c-3
-3 -12 -4 -19 -1 -8 3 -5 6 6 6 11 1 17 -2 13 -5z m-103 -73 c-18 -30 -34 -40
-34 -22 0 12 41 63 47 57 3 -2 -3 -18 -13 -35z m-1284 20 c0 -6 -4 -13 -10
-16 -5 -3 -10 1 -10 9 0 9 5 16 10 16 6 0 10 -4 10 -9z m-60 -10 c0 -6 -4 -13
-10 -16 -5 -3 -10 1 -10 9 0 9 5 16 10 16 6 0 10 -4 10 -9z m1288 -71 c7 -11
19 -20 28 -20 14 0 14 -3 4 -15 -16 -19 -30 -19 -30 -1 0 29 -23 29 -45 2 -13
-16 -25 -24 -29 -18 -6 10 39 72 52 72 4 0 13 -9 20 -20z m-8 -70 c0 -5 -4
-10 -10 -10 -5 0 -10 5 -10 10 0 6 5 10 10 10 6 0 10 -4 10 -10z m-144 -80 c3
0 14 5 24 10 16 8 18 8 14 -5 -4 -8 -10 -15 -15 -15 -5 0 -27 -16 -49 -36 -43
-39 -57 -33 -15 6 17 16 25 35 26 59 2 30 3 32 6 9 2 -16 7 -28 9 -28z m-127
-47 c-14 -26 -14 -26 -17 -4 -5 34 6 57 20 43 9 -9 8 -18 -3 -39z m42 -26
c-17 -17 -24 -1 -9 22 11 18 14 19 16 5 2 -9 -1 -21 -7 -27z m-26 -17 c3 -5 1
-10 -4 -10 -6 0 -11 5 -11 10 0 6 2 10 4 10 3 0 8 -4 11 -10z m-25 -16 c0 -10
-33 -33 -47 -34 -21 0 -14 20 10 30 27 11 37 12 37 4z m-1270 -240 c0 -17 -22
-14 -28 4 -2 7 3 12 12 12 9 0 16 -7 16 -16z m530 -28 c0 -3 -4 -8 -10 -11 -5
-3 -10 -1 -10 4 0 6 5 11 10 11 6 0 10 -2 10 -4z m-2320 -356 c0 -5 -8 -10
-17 -10 -15 0 -16 2 -3 10 19 12 20 12 20 0z m-53 -26 c-3 -3 -12 -4 -19 -1
-8 3 -5 6 6 6 11 1 17 -2 13 -5z m-37 -14 c0 -5 -8 -10 -17 -10 -15 0 -16 2
-3 10 19 12 20 12 20 0z m-40 -20 c0 -5 -10 -10 -22 -9 -22 0 -22 1 -3 9 11 5
21 9 23 9 1 1 2 -3 2 -9z"/>
<path d="M3470 5070 c0 -5 5 -10 10 -10 6 0 10 5 10 10 0 6 -4 10 -10 10 -5 0
-10 -4 -10 -10z"/>
<path d="M3455 4990 c-3 -5 -1 -10 4 -10 6 0 11 5 11 10 0 6 -2 10 -4 10 -3 0
-8 -4 -11 -10z"/>
<path d="M3645 5030 c4 -6 11 -8 16 -5 14 9 11 15 -7 15 -8 0 -12 -5 -9 -10z"/>
<path d="M4150 4076 c0 -8 4 -17 9 -20 5 -4 7 3 4 14 -6 23 -13 26 -13 6z"/>
<path d="M1527 4343 c-4 -3 -7 -53 -7 -111 l0 -104 46 -85 c26 -46 50 -81 54
-76 4 4 12 55 17 112 9 107 5 131 -32 167 -8 8 -27 35 -41 60 -28 48 -28 47
-37 37z"/>
<path d="M4346 4051 c-4 -7 -5 -15 -2 -18 9 -9 19 4 14 18 -4 11 -6 11 -12 0z"/>
<path d="M1378 3983 c7 -3 16 -2 19 1 4 3 -2 6 -13 5 -11 0 -14 -3 -6 -6z"/>
<path d="M4035 3970 c-3 -5 -1 -10 4 -10 6 0 11 5 11 10 0 6 -2 10 -4 10 -3 0
-8 -4 -11 -10z"/>
<path d="M1348 3963 c7 -3 16 -2 19 1 4 3 -2 6 -13 5 -11 0 -14 -3 -6 -6z"/>
<path d="M1160 3880 c0 -5 4 -10 9 -10 6 0 13 5 16 10 3 6 -1 10 -9 10 -9 0
-16 -4 -16 -10z"/>
<path d="M1115 3860 c-3 -5 1 -10 9 -10 9 0 16 5 16 10 0 6 -4 10 -9 10 -6 0
-13 -4 -16 -10z"/>
<path d="M1080 3840 c0 -5 5 -10 10 -10 6 0 10 5 10 10 0 6 -4 10 -10 10 -5 0
-10 -4 -10 -10z"/>
<path d="M1038 3813 c7 -3 16 -2 19 1 4 3 -2 6 -13 5 -11 0 -14 -3 -6 -6z"/>
<path d="M3656 3811 c-4 -6 -16 -11 -27 -11 -11 0 -34 -13 -52 -30 -18 -16
-35 -30 -39 -30 -3 0 -19 -26 -33 -57 -31 -64 -30 -118 3 -162 15 -21 29 -27
68 -29 42 -2 56 2 92 27 23 17 54 50 69 73 23 36 27 54 28 110 0 54 -4 71 -20
87 -24 24 -80 38 -89 22z m42 -63 c18 -18 15 -115 -5 -148 -15 -27 -78 -70
-102 -70 -23 0 -51 40 -51 74 0 67 31 113 95 142 38 17 48 17 63 2z"/>
<path d="M998 3793 c7 -3 16 -2 19 1 4 3 -2 6 -13 5 -11 0 -14 -3 -6 -6z"/>
<path d="M958 3773 c7 -3 16 -2 19 1 4 3 -2 6 -13 5 -11 0 -14 -3 -6 -6z"/>
<path d="M918 3753 c7 -3 16 -2 19 1 4 3 -2 6 -13 5 -11 0 -14 -3 -6 -6z"/>
<path d="M2460 3710 c0 -5 -8 -10 -19 -10 -25 0 -43 -24 -39 -52 4 -28 37 -37
50 -13 8 13 18 15 51 10 52 -9 67 -21 67 -51 0 -30 -27 -55 -100 -90 -68 -33
-78 -63 -25 -75 17 -4 48 -13 70 -19 78 -22 120 -28 129 -20 17 17 -16 40 -75
52 -32 7 -59 15 -59 18 0 3 20 17 44 32 58 35 80 68 71 107 -8 36 -66 90 -106
98 -16 3 -32 10 -35 14 -7 12 -24 11 -24 -1z"/>
<path d="M3294 3685 c-12 -8 -23 -13 -25 -11 -8 8 -70 -84 -64 -94 12 -20 43
-9 68 24 21 27 35 35 68 38 79 7 62 -45 -53 -161 -47 -48 -78 -87 -75 -95 6
-14 14 -13 127 15 19 4 46 10 60 13 14 3 34 12 45 20 16 12 17 17 8 27 -12 12
-71 4 -128 -17 -11 -4 7 21 41 58 78 84 93 117 71 164 -16 32 -19 34 -70 34
-30 0 -61 -6 -73 -15z"/>
<path d="M2998 3650 c-101 -29 -134 -103 -75 -167 23 -26 81 -48 102 -39 23 8
18 -12 -10 -40 -29 -29 -31 -42 -8 -51 30 -12 163 157 163 207 0 57 -102 110
-172 90z m90 -66 c25 -17 29 -56 7 -74 -46 -38 -145 -15 -145 34 0 48 90 74
138 40z"/>
<path d="M2702 3620 c0 -14 2 -19 5 -12 2 6 2 18 0 25 -3 6 -5 1 -5 -13z"/>
<path d="M3175 3610 c3 -5 8 -10 11 -10 2 0 4 5 4 10 0 6 -5 10 -11 10 -5 0
-7 -4 -4 -10z"/>
<path d="M2850 3580 c0 -5 5 -10 11 -10 5 0 7 5 4 10 -3 6 -8 10 -11 10 -2 0
-4 -4 -4 -10z"/>
<path d="M2085 3466 c-33 -26 -30 -58 4 -49 15 4 21 1 21 -10 0 -24 59 -62 73
-48 8 8 7 11 -5 11 -23 0 -34 20 -17 31 11 7 10 9 -3 9 -11 0 -18 8 -18 19 0
15 5 18 23 14 22 -4 22 -4 2 12 -40 33 -50 35 -80 11z"/>
<path d="M3655 3388 c-11 -27 -15 -30 -20 -15 -11 26 -31 20 -45 -13 -12 -29
-13 -29 -29 -11 -20 24 -61 12 -61 -18 0 -25 -18 -37 -26 -17 -10 26 -33 18
-48 -16 -8 -18 -15 -26 -15 -17 -2 27 -21 39 -47 27 -13 -6 -24 -17 -24 -24 0
-22 -19 -26 -37 -9 -16 16 -17 16 -29 0 -8 -10 -16 -23 -19 -29 -3 -7 -7 -7
-10 -1 -18 34 -24 40 -35 29 -9 -9 -6 -22 9 -53 24 -46 48 -53 57 -16 7 27 24
35 24 11 0 -11 30 -33 34 -24 1 2 7 13 14 25 6 13 12 30 12 38 0 24 19 18 32
-10 6 -14 17 -25 25 -25 7 0 18 11 23 25 10 27 30 34 30 10 0 -26 30 -16 40
13 25 68 27 70 40 34 8 -21 18 -32 29 -30 9 1 22 -1 29 -5 7 -5 12 -3 12 7 0
8 -5 16 -11 18 -7 2 -7 11 0 28 l10 25 7 -22 c11 -38 30 -26 53 33 25 67 25
64 6 64 -9 0 -22 -15 -30 -32z"/>
<path d="M2230 3381 c0 -37 9 -61 23 -61 6 0 19 -7 29 -17 17 -15 18 -15 18 5
0 12 5 22 10 22 6 0 10 -5 10 -11 0 -6 6 -17 14 -25 8 -7 16 -19 19 -26 3 -10
7 -10 17 -1 14 13 5 93 -11 93 -5 0 -9 -7 -9 -15 0 -25 -20 -17 -38 15 -17 30
-41 40 -43 18 0 -7 -4 -3 -9 10 -13 31 -30 27 -30 -7z"/>
<path d="M2426 3309 c-16 -24 -11 -42 21 -71 23 -21 72 -40 83 -33 15 9 -1 35
-20 35 -25 0 -65 34 -56 48 5 8 15 8 32 2 34 -13 44 -12 44 4 0 15 -20 25 -62
32 -19 4 -30 -1 -42 -17z"/>
<path d="M2546 3292 c-5 -9 1 -82 8 -89 11 -11 36 7 36 26 0 45 -29 87 -44 63z"/>
<path d="M2616 3262 c-14 -18 -16 -27 -8 -30 7 -2 12 -12 12 -22 0 -11 8 -24
18 -29 15 -8 17 -4 14 42 -5 65 -12 72 -36 39z"/>
<path d="M2666 3273 c-12 -12 -6 -81 8 -92 21 -17 29 2 21 49 -7 40 -17 55
-29 43z"/>
<path d="M2712 3223 c2 -29 8 -48 17 -51 10 -3 13 2 9 22 -7 33 -2 33 29 -5
25 -29 30 -31 82 -26 31 2 64 -1 73 -7 31 -19 31 3 -1 53 -36 56 -51 57 -71 6
-18 -45 -28 -44 -32 2 -4 44 -28 58 -28 16 l-1 -28 -28 33 c-39 46 -53 42 -49
-15z m175 -35 c-3 -8 -6 -5 -6 6 -1 11 2 17 5 13 3 -3 4 -12 1 -19z"/>
<path d="M2290 3211 c0 -6 4 -13 10 -16 6 -3 7 1 4 9 -7 18 -14 21 -14 7z"/>
</g>
</svg>
