<?xml version="1.0" standalone="no"?>
<!DOCTYPE svg PUBLIC "-//W3C//DTD SVG 20010904//EN"
 "http://www.w3.org/TR/2001/REC-SVG-20010904/DTD/svg10.dtd">
<svg version="1.0" xmlns="http://www.w3.org/2000/svg"
 width="1308.000000pt" height="1294.000000pt" viewBox="0 0 1308.000000 1294.000000"
 preserveAspectRatio="xMidYMid meet">

<g transform="translate(0.000000,1294.000000) scale(0.100000,-0.100000)"
fill="#000000" stroke="none">
<path d="M8685 12798 c-138 -23 -490 -107 -640 -153 -44 -13 -109 -29 -145
-34 -36 -5 -159 -33 -275 -61 -115 -27 -318 -75 -450 -106 -231 -53 -715 -168
-1090 -258 -99 -24 -223 -54 -275 -66 -52 -12 -98 -25 -102 -28 -4 -4 50 -8
120 -9 117 -1 266 -17 402 -43 30 -6 79 -15 107 -20 147 -24 351 -121 420
-199 24 -28 38 -74 28 -91 -7 -11 -65 54 -65 72 0 6 -8 7 -17 4 -15 -5 -15 -4
1 9 11 8 15 15 9 15 -5 0 -20 9 -33 20 -12 11 -27 17 -33 13 -5 -3 -7 -1 -3 5
7 12 -29 26 -44 17 -6 -4 -9 -1 -8 5 2 7 -12 21 -31 32 -25 14 -47 18 -90 15
-31 -3 -41 -2 -24 2 45 8 29 25 -37 39 -129 26 -124 26 -116 7 4 -11 2 -15 -6
-13 -7 3 -13 11 -13 19 0 11 -17 14 -70 15 -39 0 -101 7 -140 15 -50 10 -144
14 -335 14 -238 0 -278 -2 -390 -24 -71 -14 -142 -34 -165 -46 -28 -16 -46
-20 -60 -15 -11 5 -14 9 -7 11 6 1 18 2 25 3 6 1 11 7 10 13 -1 6 6 9 16 6 11
-3 31 3 46 13 14 9 39 19 53 20 15 2 41 5 57 8 30 5 205 23 323 32 34 3 60 9
57 14 -6 10 -160 4 -295 -11 l-95 -11 -135 42 c-74 22 -209 64 -300 92 -243
74 -326 89 -515 91 -222 2 -390 -27 -462 -80 -47 -34 -56 -56 -40 -95 8 -18
12 -51 11 -73 -2 -22 -5 -110 -8 -195 -2 -85 -7 -173 -9 -195 -7 -52 12 -96
57 -130 43 -33 45 -43 9 -51 -16 -4 -32 -9 -38 -13 -5 -3 -37 -15 -70 -27
-122 -44 -192 -71 -275 -106 -132 -56 -264 -103 -1154 -414 -102 -36 -180 -80
-200 -115 -16 -27 -16 -36 -6 -77 13 -51 13 -112 4 -382 l-6 -175 34 -34 c77
-79 259 -129 508 -138 202 -7 323 7 514 62 199 57 383 105 402 105 13 0 15
-26 13 -190 -1 -104 -4 -190 -8 -190 -17 1 -31 18 -26 32 11 28 -12 34 -145
44 -90 6 -179 -12 -390 -80 -80 -26 -183 -58 -230 -71 -47 -13 -103 -33 -125
-44 -22 -10 -69 -26 -104 -35 -36 -9 -69 -20 -75 -25 -6 -5 -28 -12 -50 -15
-21 -4 -46 -11 -55 -16 -38 -18 -129 -50 -161 -56 -19 -3 -51 -11 -70 -19 -50
-19 -169 -55 -181 -55 -9 0 -140 -48 -194 -71 -11 -4 -45 -16 -75 -25 -30 -9
-115 -36 -188 -60 -74 -24 -142 -44 -152 -44 -10 0 -21 -4 -24 -9 -3 -4 -52
-25 -109 -45 -100 -36 -104 -38 -136 -89 -27 -42 -32 -46 -26 -23 10 46 41 82
90 106 53 26 56 37 15 51 -16 6 -30 15 -30 21 0 5 4 7 9 3 11 -6 92 -18 135
-19 43 -1 42 18 -1 33 -61 21 -103 51 -103 72 0 10 -7 19 -15 19 -9 0 -15 -10
-15 -26 0 -14 4 -23 9 -20 4 3 6 -6 3 -19 -3 -18 -11 -25 -28 -25 -13 0 -24 4
-24 10 0 5 -7 7 -16 3 -8 -3 -30 2 -48 12 l-32 17 -240 -77 c-565 -182 -623
-205 -652 -260 -12 -24 -17 -85 -25 -299 -5 -148 -6 -288 -2 -312 7 -48 14
-52 180 -104 223 -71 766 -258 780 -270 14 -11 15 -56 12 -359 -1 -190 -8
-398 -15 -461 -7 -69 -20 -588 -32 -1290 -11 -646 -22 -1191 -25 -1211 -4 -30
0 -42 25 -68 30 -31 30 -32 30 -147 0 -99 14 -470 35 -959 6 -146 15 -190 47
-230 22 -29 104 -85 122 -85 7 0 10 19 8 50 -4 51 -25 69 -35 30 -9 -33 -42
-24 -39 11 1 3 2 36 3 72 2 57 5 67 20 67 10 0 33 -13 51 -28 24 -22 32 -38
32 -65 1 -21 4 -37 7 -37 4 0 10 -11 13 -24 4 -15 18 -28 38 -35 43 -15 108
-79 108 -107 0 -16 12 -26 53 -42 28 -11 120 -48 202 -82 197 -81 1043 -422
1165 -470 330 -129 421 -165 472 -186 31 -14 81 -33 110 -43 29 -10 193 -73
363 -140 347 -136 411 -161 575 -224 263 -103 312 -122 470 -184 585 -231 711
-265 848 -232 83 20 73 31 -23 23 -84 -7 -89 -6 -76 10 8 9 11 19 8 22 -3 3
-13 -3 -23 -14 -14 -17 -25 -19 -73 -15 -31 3 -60 9 -66 14 -5 5 -16 9 -25 9
-18 0 -60 35 -60 50 0 5 6 7 14 4 21 -8 36 21 38 74 0 22 2 22 17 8 13 -13 13
-20 3 -36 -17 -28 -16 -30 16 -30 23 -1 25 -3 12 -13 -18 -14 -21 -54 -5 -61
6 -2 11 7 11 22 -1 19 6 28 28 35 16 5 31 6 35 1 6 -9 15 -12 60 -22 18 -4 22
-2 16 8 -6 10 -3 12 13 8 12 -4 20 -3 17 2 -7 11 22 21 40 14 8 -4 15 -1 15 7
0 7 3 10 6 6 3 -3 14 3 23 12 10 10 39 21 65 25 41 6 45 9 36 26 -14 26 -13
33 5 26 9 -3 15 0 15 9 0 7 5 17 12 21 8 5 9 -2 5 -24 -6 -28 -3 -33 18 -38
24 -6 35 -24 15 -24 -5 0 -10 -7 -10 -15 0 -8 5 -15 12 -15 7 0 -4 -16 -23
-36 l-34 -35 45 20 c25 11 52 21 61 21 9 0 108 38 220 83 414 170 605 249 644
267 22 10 69 30 105 46 36 15 99 42 141 61 42 18 80 33 84 33 4 0 26 9 49 19
23 11 79 35 126 55 47 19 104 44 127 56 23 11 46 20 52 20 5 0 13 5 17 11 5 9
-1 10 -22 5 -16 -4 -33 -8 -39 -9 -12 -2 -7 53 6 69 5 6 5 14 1 19 -4 4 3 4
15 1 12 -4 32 -1 45 6 13 7 26 12 29 11 3 -1 11 16 18 37 7 23 18 40 26 40 8
0 15 5 15 10 0 6 9 10 20 10 11 0 20 5 20 11 0 6 5 9 12 7 14 -5 39 -97 32
-120 -3 -10 -1 -18 4 -18 27 0 104 44 130 75 l31 34 66 -24 c297 -112 558
-223 811 -346 302 -146 494 -236 679 -319 282 -126 514 -227 750 -326 198 -82
901 -384 1135 -486 280 -123 602 -274 1065 -503 408 -202 540 -265 550 -265 3
0 4 91 3 202 l-3 201 -32 18 c-17 10 -48 21 -67 25 -20 3 -36 10 -36 15 0 5
-6 9 -13 9 -7 0 -22 8 -33 18 -10 10 -45 26 -76 36 -32 10 -58 21 -58 25 0 4
-23 15 -51 26 -28 11 -55 26 -61 33 -6 6 -21 12 -33 12 -13 0 -25 4 -27 9 -2
5 -19 12 -38 15 -19 3 -36 10 -38 15 -2 6 -12 11 -22 11 -24 0 -70 21 -70 32
0 4 -6 8 -13 8 -12 0 -133 54 -382 169 -91 42 -131 60 -235 106 -52 23 -117
52 -145 65 -27 13 -59 27 -70 31 -23 9 -156 65 -200 84 -16 7 -59 26 -95 41
-36 15 -99 42 -141 61 -42 18 -79 33 -82 33 -3 0 -164 68 -359 151 -194 84
-400 171 -458 194 -58 24 -184 77 -280 120 -96 42 -209 92 -250 110 -111 49
-302 136 -410 188 -52 25 -171 82 -265 127 -211 101 -474 215 -710 305 -66 25
-158 62 -205 81 -47 19 -90 34 -96 34 -7 0 -17 7 -24 15 -11 13 -7 13 31 1 76
-25 429 -156 484 -181 17 -7 50 -22 75 -33 25 -12 93 -41 151 -66 59 -24 207
-93 330 -152 272 -130 507 -237 779 -356 113 -49 219 -95 235 -103 49 -22 104
-45 215 -90 58 -23 227 -94 375 -158 149 -63 423 -180 610 -260 284 -121 659
-284 842 -368 24 -10 47 -19 53 -19 5 0 10 -4 10 -9 0 -5 14 -11 32 -15 17 -3
39 -13 47 -20 9 -8 36 -18 61 -23 25 -5 44 -15 43 -21 -2 -6 9 -14 25 -18 42
-9 105 -37 126 -56 11 -10 36 -20 55 -23 20 -3 54 -14 76 -25 22 -10 57 -24
79 -30 21 -7 41 -20 43 -30 3 -11 26 -24 61 -34 71 -22 115 -39 122 -47 8 -9
70 -40 70 -35 0 3 11 1 25 -4 l25 -10 0 79 0 79 -50 21 c-27 12 -88 39 -134
61 -47 22 -87 40 -90 40 -3 0 -49 20 -102 45 -53 25 -98 45 -100 45 -2 0 -83
35 -181 79 -98 43 -216 93 -263 111 -47 18 -121 48 -165 66 -121 51 -384 152
-640 247 -624 233 -1056 403 -1360 537 -258 115 -628 302 -820 415 -133 78
-572 289 -705 337 -30 12 -59 24 -65 28 -5 4 -28 13 -50 20 -22 7 -56 21 -75
31 -19 11 -41 19 -48 19 -12 0 -161 58 -171 67 -26 21 121 -22 224 -66 69 -29
171 -66 179 -63 5 2 12 -1 15 -5 12 -15 51 -33 75 -33 13 0 35 -9 50 -21 15
-11 33 -18 41 -15 8 3 15 1 15 -4 0 -6 9 -10 19 -10 11 0 22 -4 26 -9 3 -5 19
-12 35 -16 16 -4 33 -12 37 -18 13 -20 69 -47 97 -47 14 0 26 -4 26 -10 0 -5
9 -10 20 -10 11 0 20 -7 20 -15 0 -9 9 -15 24 -15 13 0 26 -6 29 -14 3 -7 16
-16 30 -20 14 -3 48 -22 77 -41 29 -19 57 -35 62 -35 5 0 35 -15 66 -34 122
-74 638 -336 661 -336 6 0 25 -8 43 -18 60 -34 655 -281 713 -296 6 -2 24 -9
40 -15 17 -7 66 -26 110 -42 44 -16 89 -34 100 -39 11 -5 49 -20 85 -34 36
-13 112 -42 170 -65 58 -22 186 -69 285 -106 99 -36 194 -72 210 -80 17 -8 84
-35 150 -60 251 -97 503 -199 583 -236 46 -22 88 -39 92 -39 4 0 25 -9 47 -19
68 -34 106 -51 116 -51 5 0 43 -16 83 -35 40 -19 80 -35 88 -35 9 0 16 -4 16
-10 0 -5 19 -14 41 -20 23 -6 50 -16 60 -21 11 -5 28 -13 39 -19 11 -5 29 -10
40 -10 11 0 25 -9 32 -20 7 -11 21 -20 31 -20 16 0 18 8 15 62 l-3 63 -95 41
c-74 33 -98 39 -109 30 -12 -9 -13 -8 -8 7 3 9 2 18 -3 18 -17 2 -23 5 -85 33
-33 16 -105 46 -160 67 -55 22 -108 44 -117 49 -10 6 -26 10 -36 10 -10 0 -22
4 -27 9 -8 7 -124 51 -175 66 -8 2 -67 23 -130 45 -63 22 -137 47 -165 56 -27
9 -59 20 -70 24 -11 5 -65 23 -120 40 -55 17 -138 44 -185 60 -47 15 -116 38
-155 50 -65 20 -205 68 -320 110 -58 21 -84 30 -88 29 -1 0 -27 9 -57 21 -30
12 -62 24 -70 25 -20 5 -159 53 -185 65 -53 22 -254 100 -259 100 -14 0 -320
139 -445 202 -74 37 -138 65 -143 62 -5 -3 -7 0 -6 7 2 6 -33 30 -77 53 -43
22 -93 53 -110 68 -16 16 -34 28 -39 28 -5 0 -24 11 -42 25 -18 14 -37 25 -42
25 -5 0 -17 9 -27 20 -10 11 -33 25 -51 32 -19 7 -34 16 -34 20 0 5 -11 13
-25 18 -14 5 -50 28 -81 51 -57 42 -124 75 -125 62 0 -5 -4 1 -9 12 -4 12 -36
36 -71 54 -35 18 -67 38 -71 45 -5 8 -13 8 -28 -1 -11 -7 -23 -13 -27 -13 -5
0 0 5 10 11 17 10 16 13 -13 30 -17 11 -37 16 -43 13 -7 -4 -9 -3 -4 1 10 12
-70 58 -86 49 -6 -4 -8 -3 -4 1 9 10 -17 24 -195 105 -95 43 -130 55 -139 46
-8 -8 -10 -8 -6 0 7 12 -11 22 -93 52 -30 11 -93 35 -140 52 -138 52 -181 67
-250 89 l-65 20 57 -5 56 -5 6 73 c3 40 11 186 17 323 8 197 14 254 26 267 13
14 15 129 13 925 -3 1311 -7 1766 -15 1786 -10 24 25 23 75 -3 22 -11 46 -20
55 -20 9 0 85 27 168 59 381 150 500 196 617 241 206 79 203 77 213 135 4 28
6 177 3 333 -5 224 -9 289 -21 312 -21 41 -95 73 -420 180 -415 137 -557 187
-585 208 -33 25 -39 62 -39 250 -1 173 -2 176 -89 214 -99 42 -539 198 -561
198 -5 0 -11 -9 -14 -20 -3 -14 -14 -20 -31 -20 -14 0 -27 3 -27 8 -8 50 -7
72 2 72 6 0 8 9 4 20 -4 11 -8 50 -10 86 -1 36 -6 68 -9 71 -10 11 -7 53 5 53
6 0 10 24 8 63 -1 35 0 68 3 73 7 10 11 74 9 122 -1 21 -5 31 -12 26 -6 -4 -6
3 2 17 l13 24 6 -33 c3 -18 10 -32 15 -32 16 1 7 59 -14 84 -11 14 -11 16 4
16 15 0 15 2 4 16 -7 9 -13 41 -13 72 -1 32 -7 63 -14 71 -8 8 -9 17 -3 25 13
15 17 58 7 74 -4 7 -5 24 -2 37 3 13 2 27 -4 30 -6 4 -4 15 6 31 13 19 14 27
4 38 -8 11 -9 20 0 35 9 17 8 20 -5 15 -20 -8 -19 -3 10 52 14 25 22 50 19 55
-3 5 -1 9 5 9 12 0 5 160 -8 173 -5 5 -7 15 -4 23 7 20 -67 121 -80 108 -2 -3
-7 6 -11 19 -8 32 -140 120 -276 185 -97 46 -277 110 -284 101 -1 -2 -13 -19
-25 -37 -13 -18 -25 -31 -27 -29 -2 2 -7 57 -10 123 -3 65 -7 125 -10 132 -3
9 5 11 29 8 17 -3 54 -8 80 -11 26 -4 63 -13 81 -20 119 -50 515 -59 665 -15
162 46 159 42 177 353 7 139 18 269 24 289 8 30 7 44 -4 66 -21 40 -34 49
-109 72 -37 12 -67 24 -67 28 0 4 -24 13 -54 20 -30 7 -94 26 -143 41 -48 16
-154 50 -235 75 -82 26 -148 50 -148 53 0 7 37 -2 150 -37 85 -26 135 -41 360
-109 36 -11 91 -29 124 -40 l58 -21 62 24 c33 14 115 45 181 71 66 26 176 70
245 97 132 53 263 105 470 183 69 26 142 56 162 66 21 10 45 19 55 19 10 0 68
21 128 46 61 25 175 71 255 101 138 53 181 77 201 114 4 9 15 115 24 235 8
121 18 230 20 244 3 14 8 38 11 54 3 16 7 33 10 37 8 14 -48 69 -97 94 -28 13
-76 32 -108 40 -136 35 -499 61 -606 43z m375 -28 c8 -5 12 -11 9 -15 -8 -8
-69 6 -69 16 0 12 41 11 60 -1z m94 -20 c7 -7 1 -7 -19 -1 -54 17 -61 21 -25
16 19 -3 39 -10 44 -15z m-75 -16 c33 -4 61 -11 61 -16 0 -10 -86 -3 -150 12
l-35 8 31 1 c17 1 59 -2 93 -5z m149 -1 c-10 -2 -28 -2 -40 0 -13 2 -5 4 17 4
22 1 32 -1 23 -4z m225 -87 c9 -10 17 -27 17 -37 0 -25 -45 -54 -67 -43 -15 6
-13 8 10 12 19 2 27 9 27 23 0 10 -4 19 -10 19 -5 0 -10 9 -10 20 0 16 -5 19
-30 14 -22 -5 -30 -3 -30 8 0 8 3 17 6 20 9 9 67 -15 87 -36z m-748 27 c-11
-3 -24 -10 -30 -15 -7 -7 -3 -8 13 -3 13 3 22 2 22 -4 0 -7 10 -7 30 0 47 17
57 5 14 -16 -24 -11 -66 -20 -109 -21 -38 -2 -64 -1 -57 2 19 9 14 24 -8 24
-12 0 -20 7 -20 16 0 13 7 15 38 9 21 -3 49 -2 62 4 14 5 34 9 45 9 l20 0 -20
-5z m175 -18 c0 -8 -4 -15 -10 -15 -5 0 -10 7 -10 15 0 8 5 15 10 15 6 0 10
-7 10 -15z m269 -40 c-12 -12 -128 -19 -174 -11 -65 13 -35 21 75 21 69 0 106
-3 99 -10z m241 -64 c0 -5 -13 -11 -30 -14 -16 -4 -51 -16 -77 -28 -74 -34
-123 -49 -123 -39 0 6 9 10 20 10 11 0 20 5 20 10 0 6 6 10 14 10 19 0 67 26
61 32 -3 3 6 3 20 1 14 -3 25 -1 25 5 0 9 20 17 58 21 6 0 12 -3 12 -8z m-277
-8 c-7 -2 -19 -2 -25 0 -7 3 -2 5 12 5 14 0 19 -2 13 -5z m-816 -19 c70 -6 86
-18 49 -36 -14 -6 -26 -15 -26 -20 0 -12 34 -10 47 3 7 7 22 9 40 4 15 -5 38
-7 50 -6 29 3 38 -15 11 -22 -12 -4 -19 -9 -15 -13 3 -4 19 -1 35 5 21 9 36 9
57 1 16 -6 80 -14 142 -17 99 -5 113 -8 113 -24 0 -9 6 -20 13 -22 9 -4 8 -8
-3 -16 -8 -5 -11 -13 -8 -17 4 -3 14 1 23 10 9 9 22 17 28 17 89 9 96 11 77
34 -10 13 -9 15 9 15 11 0 21 -4 21 -9 0 -5 9 -7 20 -4 11 3 17 10 13 16 -3 5
-2 7 4 4 5 -3 27 0 49 7 21 7 53 16 69 20 27 6 28 5 10 -6 -27 -16 -217 -88
-233 -88 -7 0 -20 -4 -30 -10 -32 -19 -275 -110 -292 -110 -10 0 -23 -6 -29
-14 -6 -8 -22 -16 -34 -19 -12 -3 -107 -37 -212 -77 -104 -39 -217 -80 -250
-92 -33 -11 -71 -26 -85 -33 -28 -15 -117 -49 -410 -160 -113 -42 -230 -88
-260 -100 -78 -34 -350 -135 -361 -135 -4 0 -6 6 -4 13 4 8 -8 12 -36 14 -22
0 -38 -1 -35 -4 6 -7 -19 -33 -32 -33 -6 0 -10 10 -10 23 0 12 -2 46 -3 75 -2
55 6 76 21 52 6 -8 10 -10 10 -4 0 12 29 20 115 29 28 4 60 13 72 21 12 8 38
14 57 14 19 0 41 6 49 14 22 22 89 56 112 56 17 0 18 2 5 11 -11 7 -3 8 30 4
30 -4 40 -3 31 3 -14 10 -6 36 8 28 4 -3 32 1 62 9 35 10 55 11 57 4 3 -6 9
-6 18 2 10 8 22 8 44 1 18 -7 32 -7 35 -1 6 8 -9 13 -28 10 -5 -1 -7 4 -5 11
3 7 15 15 29 17 13 1 27 7 30 13 3 5 31 12 62 15 38 4 57 10 57 19 0 8 19 16
51 20 33 4 46 10 37 15 -9 6 -2 9 20 9 21 0 32 5 32 15 0 11 8 13 30 9 25 -6
30 -3 30 13 0 21 34 63 53 64 7 0 33 4 60 8 26 4 47 5 47 2 0 -3 27 -6 60 -6
40 0 60 4 60 12 0 8 15 11 43 10 23 0 50 2 60 7 13 6 17 4 17 -13 0 -17 6 -21
33 -21 32 0 100 20 113 33 4 4 18 7 31 7 13 0 23 4 23 9 0 5 26 17 58 26 31 9
71 23 87 30 17 7 51 21 78 31 26 9 47 20 47 24 0 9 -98 5 -107 -4 -4 -3 3 -6
15 -6 12 0 22 -4 22 -10 0 -6 -26 -10 -59 -10 l-59 0 -7 40 c-7 41 -25 56 -25
20 0 -11 -4 -20 -9 -20 -12 0 -41 45 -41 64 0 8 -15 17 -37 21 -21 4 -42 12
-46 18 -6 8 -7 7 -5 -2 3 -8 -11 -29 -31 -45 -33 -30 -37 -31 -130 -30 -53 1
-109 6 -125 13 -41 16 -25 25 20 11 45 -15 209 -9 226 8 18 18 -1 44 -43 59
-41 14 -188 17 -223 3 -16 -6 -26 -17 -26 -29 0 -14 -5 -18 -20 -14 -11 3 -26
1 -33 -5 -14 -12 -248 -18 -266 -8 -6 4 -7 15 -2 27 10 28 91 39 206 27 33 -3
50 -4 38 -1 -13 2 -23 9 -23 14 0 5 -9 9 -20 9 -11 0 -20 5 -20 10 0 6 18 10
40 10 22 0 40 4 40 8 0 25 135 32 297 16z m494 -4 c-18 -16 -37 -20 -90 -19
l-66 2 67 7 c37 5 75 13 85 19 28 16 30 12 4 -9z m329 -10 c0 -21 -10 -24 -47
-14 -37 10 -28 34 12 34 28 0 35 -4 35 -20z m-1379 -153 c-10 -9 -11 -8 -5 6
3 10 9 15 12 12 3 -3 0 -11 -7 -18z m-281 -28 c47 -5 91 -10 98 -11 6 -1 12
-5 12 -10 0 -4 16 -15 37 -23 34 -15 35 -16 17 -30 -11 -8 -23 -10 -28 -5 -6
6 -14 6 -21 0 -8 -6 -41 -5 -93 2 -63 9 -95 9 -139 0 -31 -6 -59 -14 -62 -17
-3 -4 2 -20 11 -36 17 -29 17 -29 -3 -19 -11 6 -22 24 -25 40 -5 21 -11 27
-22 23 -10 -4 -13 -2 -8 5 9 15 -36 20 -49 5 -15 -18 -70 -19 -91 -3 -17 13
-17 12 1 -8 16 -19 28 -23 65 -21 61 2 70 1 70 -12 0 -8 -4 -8 -12 -2 -9 7
-29 6 -58 -3 l-45 -12 35 -1 c20 -1 54 -10 75 -22 28 -15 32 -19 15 -15 -70
15 -140 17 -202 4 -38 -8 -68 -11 -68 -7 0 4 8 10 18 13 9 2 4 3 -13 1 -16 -2
-42 -8 -56 -13 -16 -6 -41 -7 -63 -2 -29 6 -36 5 -36 -7 0 -8 -4 -11 -10 -8
-5 3 -9 17 -8 30 2 22 7 25 40 25 27 0 38 4 38 15 0 10 11 16 33 17 39 1 47 3
70 13 9 4 26 5 36 2 10 -2 29 4 42 14 13 10 32 19 42 19 9 0 17 4 17 9 0 13
24 21 120 41 100 21 109 22 220 9z m315 -17 c-3 -3 -11 0 -18 7 -9 10 -8 11 6
5 10 -3 15 -9 12 -12z m932 12 c-3 -3 -12 -4 -19 -1 -8 3 -5 6 6 6 11 1 17 -2
13 -5z m-788 -30 c8 -7 -84 -2 -109 6 -15 5 1 6 40 3 36 -3 67 -7 69 -9z m74
-1 c-7 -2 -19 -2 -25 0 -7 3 -2 5 12 5 14 0 19 -2 13 -5z m-3701 -51 c-12 -8
-72 -4 -72 4 0 2 19 4 43 4 25 0 37 -4 29 -8z m-135 -8 c-3 -3 -12 -4 -19 -1
-8 3 -5 6 6 6 11 1 17 -2 13 -5z m190 0 c-3 -3 -12 -4 -19 -1 -8 3 -5 6 6 6
11 1 17 -2 13 -5z m-257 -14 c0 -5 -8 -10 -17 -10 -15 0 -16 2 -3 10 19 12 20
12 20 0z m3502 -32 c-8 -8 -9 -4 -5 13 4 13 8 18 11 10 2 -7 -1 -18 -6 -23z
m828 28 c0 -3 -4 -8 -10 -11 -5 -3 -10 -1 -10 4 0 6 5 11 10 11 6 0 10 -2 10
-4z m-4352 -55 c20 -23 100 -41 183 -41 42 0 58 -3 53 -11 -9 -14 -166 -2
-211 16 -17 7 -36 23 -43 34 -14 26 -4 27 18 2z m3494 -6 c-20 -11 -187 -10
-219 2 -13 5 29 8 107 8 87 0 123 -3 112 -10z m-762 -26 c0 -5 18 -12 40 -15
22 -4 40 -10 40 -15 0 -5 -7 -6 -16 -2 -24 9 -2 -29 33 -57 l28 -21 -50 6
c-131 15 -178 17 -239 11 l-66 -8 16 -36 c13 -33 13 -35 0 -22 -9 9 -17 28
-18 43 -2 26 -5 28 -43 27 -75 -3 -96 0 -101 15 -7 16 9 35 44 54 12 6 74 15
137 18 63 3 113 9 111 12 -2 3 16 4 40 2 24 -1 44 -7 44 -12z m-2415 1 c-3 -5
-12 -10 -18 -10 -7 0 -6 4 3 10 19 12 23 12 15 0z m2595 -15 c0 -21 39 -36
135 -51 l80 -13 -82 3 c-58 3 -93 10 -115 23 -32 19 -50 53 -29 53 6 0 11 -7
11 -15z m-2221 -26 c36 -6 69 -14 73 -18 4 -3 -53 -6 -125 -6 -112 0 -137 -3
-161 -18 -15 -10 -30 -16 -34 -13 -8 8 29 35 49 36 8 0 19 4 25 9 5 5 27 11
49 14 22 2 44 4 49 5 5 1 39 -3 75 -9z m2506 -19 c-3 -5 -16 -10 -28 -9 -20 1
-20 2 3 9 14 4 26 8 28 9 2 1 0 -3 -3 -9z m-2015 -30 c0 -5 -9 -10 -20 -10
-10 0 -29 -4 -42 -9 -13 -5 -36 -12 -51 -16 -15 -3 -26 -9 -23 -14 3 -4 -5 -6
-18 -4 -39 8 -155 -47 -208 -99 -36 -35 -49 -56 -54 -88 -4 -25 -10 -38 -16
-32 -17 17 4 84 39 123 46 51 101 82 203 114 47 15 96 31 110 35 36 12 80 12
80 0z m-1060 -47 c14 -7 34 -13 45 -14 13 0 15 -3 6 -6 -14 -6 -129 25 -145
38 -14 13 65 -3 94 -18z m346 13 c10 -27 102 -49 199 -49 56 0 81 -3 65 -7
-38 -12 -146 -11 -194 1 -50 12 -120 69 -86 69 6 0 13 -7 16 -14z m351 -18
c-3 -8 -6 -5 -6 6 -1 11 2 17 5 13 3 -3 4 -12 1 -19z m2010 -10 c-3 -8 -6 -5
-6 6 -1 11 2 17 5 13 3 -3 4 -12 1 -19z m-537 -24 c0 -2 -11 2 -25 8 -14 6
-25 15 -25 20 0 5 11 1 25 -8 14 -9 25 -18 25 -20z m-2030 -3 c23 -10 22 -10
-10 -5 -19 4 -42 10 -50 15 -21 13 27 4 60 -10z m1680 -26 c187 -44 330 -139
330 -217 0 -31 -5 -39 -31 -52 -17 -9 -35 -13 -40 -11 -4 3 -10 1 -14 -5 -16
-25 -72 -41 -181 -50 -65 -5 -121 -7 -125 -5 -12 8 2 45 18 45 7 0 24 6 36 14
12 7 47 17 76 20 30 4 79 15 107 26 29 10 55 16 58 14 4 -2 2 1 -3 7 -12 15
-45 14 -114 -4 -48 -12 -69 -13 -115 -3 -65 13 -233 11 -276 -4 -16 -6 -44
-10 -63 -10 -42 0 -185 29 -196 39 -10 10 61 53 74 45 6 -3 8 -13 4 -22 -3 -8
0 -19 7 -24 20 -12 32 -9 19 5 -6 8 -8 17 -4 21 4 3 8 14 9 22 1 9 0 13 -3 10
-4 -3 -12 -1 -20 5 -7 7 -23 13 -36 15 -12 2 -32 6 -44 10 -31 9 -29 -10 3
-24 33 -15 22 -33 -14 -23 -24 7 -54 8 -111 3 -11 -1 -40 -18 -65 -37 -40 -30
-47 -33 -53 -19 -4 10 4 36 16 60 40 74 167 141 310 164 81 13 363 3 441 -15z
m860 21 c0 -9 -30 -14 -35 -6 -4 6 3 10 14 10 12 0 21 -2 21 -4z m-2456 -17
c22 -6 48 -14 56 -17 8 -3 20 -6 25 -7 6 -2 35 -10 65 -19 30 -9 88 -24 129
-34 41 -9 76 -22 78 -28 5 -14 -43 -5 -152 29 -44 14 -111 35 -150 47 -110 34
-148 55 -51 29z m2531 -9 c3 -5 2 -10 -4 -10 -5 0 -13 5 -16 10 -3 6 -2 10 4
10 5 0 13 -4 16 -10z m-417 -36 c12 -8 22 -22 22 -30 0 -18 -16 -18 -27 -1 -4
7 -19 21 -33 30 -22 15 -23 17 -4 17 11 0 30 -7 42 -16z m-1405 -150 c38 -33
39 -35 10 -20 -32 16 -69 60 -73 86 -6 40 3 50 12 13 6 -31 21 -52 51 -79z
m1421 32 c-3 -14 -11 -26 -16 -26 -6 0 -7 7 -4 16 3 9 6 25 6 37 0 15 3 18 11
10 5 -5 7 -22 3 -37z m130 28 c3 -8 2 -12 -4 -9 -6 3 -10 10 -10 16 0 14 7 11
14 -7z m-1988 -53 c-6 -9 -46 -22 -46 -15 0 3 10 9 23 14 29 11 29 11 23 1z
m1834 -15 c0 -2 -8 -10 -17 -17 -16 -13 -17 -12 -4 4 13 16 21 21 21 13z
m-1913 -22 c-3 -3 -12 -4 -19 -1 -8 3 -5 6 6 6 11 1 17 -2 13 -5z m1868 -22
c-13 -11 -65 -33 -65 -27 0 2 12 11 28 19 30 17 52 21 37 8z m-904 -49 c72
-32 74 -47 3 -39 -32 3 -81 9 -107 11 -65 6 -157 34 -157 47 0 20 209 4 261
-19z m-813 0 c-10 -2 -28 -2 -40 0 -13 2 -5 4 17 4 22 1 32 -1 23 -4z m1577
-43 c-3 -5 0 -10 7 -11 10 0 10 -2 1 -6 -7 -2 -20 3 -29 11 -14 15 -14 16 6
16 12 0 18 -4 15 -10z m95 0 c-8 -5 -24 -9 -35 -9 l-20 0 20 9 c11 5 27 9 35
9 13 1 13 0 0 -9z m-235 -20 c3 -5 -1 -10 -9 -10 -9 0 -16 5 -16 10 0 6 4 10
9 10 6 0 13 -4 16 -10z m100 0 c4 -6 -10 -10 -35 -10 -25 0 -39 4 -35 10 3 6
19 10 35 10 16 0 32 -4 35 -10z m655 -15 c14 -8 19 -14 10 -14 -8 0 -26 6 -40
14 -14 8 -19 14 -10 14 8 0 26 -6 40 -14z m-1030 -5 c0 -5 -17 -10 -37 -9 -31
0 -34 2 -18 9 28 12 55 12 55 0z m-147 -7 c-7 -2 -21 -2 -30 0 -10 3 -4 5 12
5 17 0 24 -2 18 -5z m54 1 c-3 -3 -12 -4 -19 -1 -8 3 -5 6 6 6 11 1 17 -2 13
-5z m216 -1 c-7 -2 -21 -2 -30 0 -10 3 -4 5 12 5 17 0 24 -2 18 -5z m-778 -13
c4 -6 -6 -7 -27 -3 -44 8 -48 13 -10 13 17 0 34 -4 37 -10z m110 -15 l60 -14
-60 6 c-33 3 -64 9 -69 14 -13 12 -4 11 69 -6z m1052 9 c-3 -3 -12 -4 -19 -1
-8 3 -5 6 6 6 11 1 17 -2 13 -5z m-1637 -51 c0 -19 -28 -16 -39 5 -8 14 -12
15 -22 5 -11 -11 -10 -13 4 -13 9 0 17 -4 17 -9 0 -5 12 -12 28 -14 21 -3 19
-4 -11 -6 -21 0 -54 6 -74 14 -19 8 -44 15 -55 15 -11 0 -18 5 -16 12 2 6 29
14 59 16 30 2 55 5 57 7 7 7 52 -21 52 -32z m2125 -38 c22 -1 49 -6 59 -12 14
-8 -8 -11 -92 -15 -71 -3 -116 -9 -127 -18 -8 -7 -18 -10 -21 -8 -7 8 51 48
84 58 15 5 34 6 42 2 8 -3 33 -6 55 -7z m-1925 -64 c0 -5 -7 -11 -14 -14 -10
-4 -13 -1 -9 9 6 15 23 19 23 5z m1824 -60 c33 -11 75 -22 91 -25 17 -2 3 -3
-30 -1 -83 5 -145 37 -144 75 0 9 4 7 11 -7 7 -15 31 -29 72 -42z m-2460 19
c7 -7 -5 -10 -32 -10 -32 0 -42 4 -42 16 0 13 7 15 32 10 18 -3 37 -11 42 -16z
m-114 -4 c0 -2 -7 -9 -15 -16 -12 -10 -15 -10 -15 4 0 9 7 16 15 16 8 0 15 -2
15 -4z m265 -17 c7 -7 -6 -8 -45 -3 -84 11 -107 26 -30 19 35 -3 69 -10 75
-16z m388 4 c-7 -2 -19 -2 -25 0 -7 3 -2 5 12 5 14 0 19 -2 13 -5z m1603 -22
c0 -12 -6 -17 -18 -13 -23 6 -23 19 0 25 9 3 17 5 17 6 1 0 1 -7 1 -18z m884
-11 c0 -5 -7 -10 -16 -10 -8 0 -12 5 -9 10 3 6 10 10 16 10 5 0 9 -4 9 -10z
m-87 -7 c-7 -2 -19 -2 -25 0 -7 3 -2 5 12 5 14 0 19 -2 13 -5z m177 -3 c13 -9
13 -10 0 -9 -8 1 -26 5 -40 9 l-25 8 25 1 c14 0 32 -4 40 -9z m-883 -13 c7 0
10 -4 7 -9 -3 -4 -15 -3 -27 3 -30 16 -37 24 -12 14 11 -4 25 -8 32 -8z
m-2396 -19 c11 -21 11 -22 -4 -9 -10 7 -17 17 -17 22 0 15 9 10 21 -13z m3332
8 c18 -14 23 -46 7 -46 -5 0 -10 7 -10 16 0 9 -8 23 -17 30 -10 7 -13 13 -8
13 6 0 18 -6 28 -13z m-2963 -6 c0 -5 -5 -10 -11 -10 -5 0 -7 5 -4 10 3 6 8
10 11 10 2 0 4 -4 4 -10z m3159 -24 c0 -14 -2 -16 -6 -6 -3 8 -10 21 -16 28
-7 9 -6 11 7 6 9 -3 16 -16 15 -28z m-509 -5 c0 -29 -15 -33 -18 -5 -1 13 3
24 8 24 6 0 10 -9 10 -19z m-460 -7 c0 -2 -7 -4 -15 -4 -8 0 -15 4 -15 10 0 5
7 7 15 4 8 -4 15 -8 15 -10z m-2765 -14 c4 -6 -10 -10 -38 -10 -24 0 -73 -3
-108 -7 -57 -6 -63 -5 -51 9 15 19 186 26 197 8z m468 -7 c-13 -2 -35 -2 -50
0 -16 2 -5 4 22 4 28 0 40 -2 28 -4z m2843 -14 c24 -6 74 -10 112 -7 47 2 66
0 59 -7 -6 -6 -35 -9 -65 -7 -31 1 -68 -2 -84 -7 -18 -6 -26 -7 -23 -1 4 6 -2
11 -12 12 -33 2 -38 3 -50 11 -19 12 -16 30 3 23 9 -4 36 -11 60 -17z m-3191
-10 c7 -8 3 -9 -15 -3 -14 4 -41 11 -60 15 -28 7 -26 7 15 4 27 -3 54 -10 60
-16z m2898 -26 c-7 -2 -19 -2 -25 0 -7 3 -2 5 12 5 14 0 19 -2 13 -5z m472
-13 c-11 -5 -49 -8 -85 -8 -49 0 -56 2 -30 7 60 10 138 12 115 1z m-3721 -15
c3 -8 1 -15 -4 -15 -6 0 -10 7 -10 15 0 8 2 15 4 15 2 0 6 -7 10 -15z m3424 8
c-10 -2 -26 -2 -35 0 -10 3 -2 5 17 5 19 0 27 -2 18 -5z m-3068 -34 c-7 -11
-14 -18 -17 -15 -3 3 0 12 7 21 18 21 23 19 10 -6z m-35 -18 c-6 -12 -88 -25
-107 -18 -10 3 45 17 105 26 5 0 6 -3 2 -8z m-459 -13 c4 -5 -24 -8 -62 -8
-38 0 -64 4 -57 8 15 9 109 9 119 0z m247 5 c-7 -2 -19 -2 -25 0 -7 3 -2 5 12
5 14 0 19 -2 13 -5z m-403 -13 c-8 -5 -26 -9 -40 -9 -21 0 -22 2 -7 8 10 4 28
8 40 8 17 2 19 0 7 -7z m1167 -26 c-3 -3 -12 -4 -19 -1 -8 3 -5 6 6 6 11 1 17
-2 13 -5z m-1203 -72 c-6 -9 -44 21 -44 35 0 13 5 11 23 -8 13 -13 22 -25 21
-27z m-91 24 c15 0 25 -5 24 -11 -4 -11 -11 -11 -167 1 -125 9 -106 22 24 16
50 -3 103 -5 119 -6z m134 -32 c-3 -3 -12 -4 -19 -1 -8 3 -5 6 6 6 11 1 17 -2
13 -5z m217 -9 c-21 -16 -169 -21 -193 -6 -8 5 22 9 79 9 50 0 94 3 98 6 3 3
12 6 21 6 11 0 10 -3 -5 -15z m-1157 -41 c-3 -3 -12 -4 -19 -1 -8 3 -5 6 6 6
11 1 17 -2 13 -5z m478 -4 c3 -5 1 -10 -4 -10 -6 0 -11 5 -11 10 0 6 2 10 4
10 3 0 8 -4 11 -10z m-268 -76 c64 -19 65 -29 2 -15 -24 6 -82 11 -129 12 -64
1 -76 3 -50 9 60 13 120 11 177 -6z m541 9 c-10 -2 -26 -2 -35 0 -10 3 -2 5
17 5 19 0 27 -2 18 -5z m-903 -122 c-6 -11 -94 -35 -101 -28 -7 7 28 26 55 30
11 2 23 6 27 10 9 9 26 -2 19 -12z m220 -21 c27 -7 25 -8 -17 -9 -27 0 -48 4
-48 9 0 11 21 11 65 0z m198 -1 c-6 -6 -44 -13 -83 -15 -87 -4 -84 8 3 17 34
3 69 7 77 7 10 2 11 -1 3 -9z m1812 -259 c3 -5 1 -11 -4 -11 -6 -1 -17 -2 -23
-3 -21 -4 -31 6 -17 15 19 12 36 11 44 -1z m136 -158 c-19 -6 -101 30 -101 44
0 10 16 6 56 -13 30 -15 50 -29 45 -31z m380 -123 c3 -35 9 -70 13 -77 5 -8 3
-11 -5 -10 -12 3 -15 -2 -18 -37 -2 -23 -39 -18 -46 6 -4 11 -13 18 -20 15
-20 -7 -45 27 -45 60 1 38 20 71 56 95 47 31 58 22 65 -52z m1469 61 c23 -14
-13 -24 -39 -10 -16 8 -28 7 -51 -5 -16 -9 -30 -12 -30 -7 0 22 93 39 120 22z
m-142 -28 c2 -7 -2 -10 -12 -6 -9 3 -16 11 -16 16 0 13 23 5 28 -10z m-11 -42
c25 0 31 -66 8 -109 -12 -24 -20 -28 -55 -28 -45 0 -44 -1 -40 122 2 61 17 72
50 40 15 -14 31 -25 37 -25z m-968 4 c97 -16 122 -29 43 -22 -29 3 -55 1 -59
-4 -11 -20 -20 -133 -11 -151 6 -12 4 -22 -6 -33 -8 -8 -13 -21 -10 -28 3 -8
1 -17 -5 -21 -6 -3 -11 1 -11 9 0 18 -16 21 -25 5 -4 -6 -19 -7 -36 -4 -18 4
-29 3 -29 -4 0 -6 12 -11 27 -11 19 0 24 -3 16 -11 -12 -12 -86 -1 -78 11 3 5
-4 10 -15 12 -19 3 -30 19 -13 17 15 -1 19 36 6 61 -17 33 -16 50 2 50 8 0 15
4 15 9 0 5 7 11 14 14 10 4 13 1 9 -9 -4 -12 0 -15 18 -12 13 1 24 10 24 18 0
8 -6 14 -12 13 -15 -3 -16 6 -3 27 11 17 -14 50 -39 51 -12 0 -11 3 4 9 17 7
17 9 3 9 -10 1 -18 6 -18 12 0 12 41 8 189 -17z m831 11 c0 -2 -21 -13 -46
-25 -39 -17 -44 -22 -34 -35 6 -8 9 -19 5 -24 -3 -6 7 -13 22 -17 15 -3 34 -7
41 -10 17 -5 11 -56 -8 -71 -26 -20 -2 -27 39 -11 56 22 70 6 19 -20 -30 -15
-37 -22 -23 -22 13 -1 2 -10 -30 -26 -54 -27 -174 -46 -161 -26 4 7 14 12 22
12 8 0 14 5 14 10 0 6 9 10 20 10 11 0 20 5 20 11 0 7 -7 8 -17 4 -10 -4 -27
-7 -37 -7 -11 1 -27 -3 -37 -9 -10 -5 -37 -6 -59 -3 -36 6 -38 8 -23 20 17 13
17 13 -2 15 -11 1 -23 1 -27 0 -17 -2 -7 18 11 24 11 3 32 21 47 40 15 19 33
35 40 35 9 0 10 7 2 28 -9 22 -16 28 -33 24 -13 -2 -26 1 -29 7 -5 7 2 11 17
11 14 0 31 9 38 21 12 17 29 22 104 28 50 5 93 9 98 10 4 0 7 -1 7 -4z m337
-1 c-3 -3 -12 -4 -19 -1 -8 3 -5 6 6 6 11 1 17 -2 13 -5z m-2957 -8 c0 -3 -4
-8 -10 -11 -5 -3 -10 -1 -10 4 0 6 5 11 10 11 6 0 10 -2 10 -4z m384 -21 c3
-9 0 -15 -9 -15 -9 0 -12 6 -9 15 4 8 7 15 9 15 2 0 5 -7 9 -15z m1993 -1 c-3
-3 -12 -4 -19 -1 -8 3 -5 6 6 6 11 1 17 -2 13 -5z m637 -3 c3 -5 -1 -11 -9
-15 -8 -3 -15 -1 -15 5 0 6 -4 7 -10 4 -5 -3 -10 -1 -10 4 0 13 37 15 44 2z
m-764 -5 c0 -11 -19 -15 -25 -6 -3 5 1 10 9 10 9 0 16 -2 16 -4z m63 -3 c-7
-2 -21 -2 -30 0 -10 3 -4 5 12 5 17 0 24 -2 18 -5z m647 -3 c0 -5 -6 -10 -14
-10 -8 0 -18 5 -21 10 -3 6 3 10 14 10 12 0 21 -4 21 -10z m-2597 -57 c4 -3
-1 -12 -10 -18 -20 -15 -26 -96 -10 -133 8 -18 7 -25 -9 -36 -19 -14 -14 -31
9 -31 7 0 13 -9 14 -20 2 -11 0 -14 -3 -7 -10 23 -26 13 -20 -13 7 -26 0 -31
-23 -16 -21 13 -9 195 16 244 18 37 24 42 36 30z m2568 -2 c-8 -5 -20 -7 -28
-4 -21 8 -15 13 15 13 20 0 23 -3 13 -9z m-1661 -27 c0 -8 -4 -12 -10 -9 -5 3
-10 13 -10 21 0 8 5 12 10 9 6 -3 10 -13 10 -21z m271 -70 c37 -6 49 -17 31
-28 -11 -7 -80 18 -95 34 -10 10 -8 12 6 6 10 -3 36 -9 58 -12z m1529 -3 c0
-6 -9 -9 -20 -8 -11 1 -20 5 -20 9 0 4 9 8 20 8 11 0 20 -4 20 -9z m-3116
-200 c3 -5 -1 -11 -9 -15 -15 -6 -29 7 -18 18 9 9 21 8 27 -3z m366 -15 c0 -8
-4 -18 -10 -21 -5 -3 -10 3 -10 14 0 12 5 21 10 21 6 0 10 -6 10 -14z m-473
-22 c-3 -3 -12 -4 -19 -1 -8 3 -5 6 6 6 11 1 17 -2 13 -5z m-777 -126 c-25 -5
-58 -17 -74 -25 -44 -24 -129 -44 -140 -33 -7 7 0 10 18 10 39 0 127 30 133
46 3 10 22 14 57 13 l51 -1 -45 -10z m836 2 c8 0 14 -7 14 -16 0 -13 -3 -14
-15 -4 -8 7 -26 10 -40 8 -14 -3 -25 -2 -25 3 0 10 22 18 38 13 8 -2 20 -4 28
-4z m3786 -52 c-7 -7 -12 -8 -12 -2 0 14 12 26 19 19 2 -3 -1 -11 -7 -17z
m-4847 -28 c-4 -6 -23 -10 -43 -10 -43 0 -29 14 17 17 18 1 29 -2 26 -7z m970
-180 c3 -5 1 -10 -4 -10 -6 0 -11 5 -11 10 0 6 2 10 4 10 3 0 8 -4 11 -10z
m-268 -16 c-3 -3 -12 -4 -19 -1 -8 3 -5 6 6 6 11 1 17 -2 13 -5z m373 -44 c0
-22 -4 -40 -10 -40 -11 0 -14 63 -3 73 11 12 13 8 13 -33z m-187 10 c3 -13 0
-20 -9 -20 -8 0 -14 6 -14 14 0 8 -8 17 -17 19 -12 3 -9 5 8 6 19 1 28 -5 32
-19z m3977 4 c0 -8 -5 -12 -10 -9 -6 4 -8 11 -5 16 9 14 15 11 15 -7z m-3790
-104 c0 -11 -4 -20 -9 -20 -11 0 -22 26 -14 34 12 12 23 5 23 -14z m-429 -55
c-1 -5 -10 -11 -21 -11 -20 -1 -26 7 -13 20 10 9 34 3 34 -9z m424 6 c3 -5 1
-12 -5 -16 -5 -3 -10 1 -10 9 0 18 6 21 15 7z m5 -65 c0 -3 -4 -8 -10 -11 -5
-3 -10 -1 -10 4 0 6 5 11 10 11 6 0 10 -2 10 -4z m-535 -23 c-11 -3 -23 -10
-27 -17 -5 -7 -8 -7 -8 0 0 16 11 24 34 23 20 -1 20 -1 1 -6z m-235 -18 c7 -8
9 -15 6 -15 -4 0 -14 7 -22 15 -9 8 -11 15 -6 15 5 0 15 -7 22 -15z m-2172
-16 c-7 -5 -19 -9 -27 -9 -11 0 -11 3 -1 14 6 8 18 12 27 9 12 -5 12 -7 1 -14z
m-65 -6 c-7 -2 -21 -2 -30 0 -10 3 -4 5 12 5 17 0 24 -2 18 -5z m142 -3 c-3
-5 -17 -10 -31 -10 -13 0 -24 5 -24 10 0 6 14 10 31 10 17 0 28 -4 24 -10z
m2083 -7 c12 -3 22 -12 22 -19 0 -8 5 -14 10 -14 6 0 10 9 10 20 0 23 8 25 34
5 13 -10 24 -11 37 -5 24 13 29 13 29 -4 0 -10 -14 -16 -42 -20 -64 -7 -158
-4 -158 5 0 4 -12 9 -27 11 l-28 3 30 17 c17 10 37 15 45 11 8 -3 25 -8 38
-10z m-2028 -8 c0 -8 -4 -15 -10 -15 -5 0 -10 7 -10 15 0 8 5 15 10 15 6 0 10
-7 10 -15z m30 11 c0 -3 -4 -8 -10 -11 -5 -3 -10 -1 -10 4 0 6 5 11 10 11 6 0
10 -2 10 -4z m195 -6 c3 -5 -1 -10 -9 -10 -8 0 -18 -5 -22 -11 -5 -9 9 -10 48
-7 l56 4 5 -40 c8 -61 1 -176 -12 -189 -7 -7 -11 -7 -11 -1 0 12 -61 40 -105
48 -90 16 -109 22 -97 29 17 11 15 30 -2 24 -8 -3 -27 -2 -43 3 -21 6 -23 9
-8 9 11 1 28 8 38 15 15 12 15 15 2 26 -8 7 -15 19 -15 27 0 11 -7 14 -25 11
-19 -4 -25 -1 -25 13 0 16 29 27 43 17 2 -2 11 3 20 11 14 11 21 11 42 -3 22
-14 25 -15 25 -1 0 9 9 15 24 15 14 0 28 5 31 10 3 6 12 10 20 10 8 0 17 -4
20 -10z m-305 -30 c-19 -13 -30 -13 -30 0 0 6 10 10 23 10 18 0 19 -2 7 -10z
m2020 -20 c0 -11 -7 -20 -15 -20 -13 0 -13 3 -3 20 7 11 14 20 15 20 2 0 3 -9
3 -20z m-90 -10 c0 -5 -9 -10 -20 -10 -11 0 -20 5 -20 10 0 6 9 10 20 10 11 0
20 -4 20 -10z m-200 -30 c0 -4 -11 -5 -25 -2 -14 2 -25 8 -25 12 0 4 11 5 25
2 14 -2 25 -8 25 -12z m411 -20 c5 0 9 -9 9 -20 0 -11 -4 -20 -10 -20 -5 0
-10 4 -10 9 0 5 -2 21 -4 37 -2 16 -1 21 1 12 2 -10 9 -18 14 -18z m135 15
c-22 -17 -52 -20 -61 -6 -5 9 20 17 60 19 20 1 20 1 1 -13z m-499 -11 c-3 -3
-12 -4 -19 -1 -8 3 -5 6 6 6 11 1 17 -2 13 -5z m157 -3 c3 -4 -6 -6 -19 -3
-14 2 -25 6 -25 8 0 8 39 4 44 -5z m297 -32 c10 -6 7 -8 -9 -6 -15 1 -22 8
-22 22 0 15 2 17 9 6 5 -7 15 -17 22 -22z m-279 -6 c10 -9 25 -12 37 -8 11 3
28 2 38 -4 10 -5 26 -12 36 -15 32 -10 19 -28 -15 -20 -18 4 -43 8 -56 8 -12
1 -26 6 -30 12 -4 5 -33 16 -64 23 -32 7 -61 17 -64 23 -11 17 98 0 118 -19z
m88 17 c0 -5 -7 -10 -15 -10 -8 0 -15 5 -15 10 0 6 7 10 15 10 8 0 15 -4 15
-10z m280 -11 c0 -5 -7 -9 -15 -9 -8 0 -15 7 -15 15 0 9 6 12 15 9 8 -4 15
-10 15 -15z m40 9 c0 -4 -7 -8 -15 -8 -8 0 -15 4 -15 8 0 5 7 9 15 9 8 0 15
-4 15 -9z m-130 -43 c-14 -17 -40 -20 -40 -5 0 12 -53 1 -58 -12 -2 -4 -13 -8
-25 -7 -12 0 -16 3 -9 6 6 2 12 11 12 19 0 11 16 14 66 14 58 0 65 -2 54 -15z
m40 11 c0 -3 -4 -8 -10 -11 -5 -3 -10 -1 -10 4 0 6 5 11 10 11 6 0 10 -2 10
-4z m-380 -46 c0 -5 -4 -10 -10 -10 -5 0 -10 5 -10 10 0 6 5 10 10 10 6 0 10
-4 10 -10z m120 -19 c0 -6 -5 -13 -10 -16 -15 -9 -43 3 -35 15 8 13 45 13 45
1z m4637 -11 c1 -11 -2 -22 -8 -25 -10 -7 -13 28 -2 38 9 9 9 10 10 -13z
m-4757 -10 c0 -5 -6 -10 -14 -10 -8 0 -18 5 -21 10 -3 6 3 10 14 10 12 0 21
-4 21 -10z m37 -16 c-3 -3 -12 -4 -19 -1 -8 3 -5 6 6 6 11 1 17 -2 13 -5z
m2771 -309 c0 -16 -2 -15 -8 5 -4 14 -8 34 -8 45 0 16 2 15 8 -5 4 -14 8 -34
8 -45z m-242 28 c-10 -10 -19 5 -10 18 6 11 8 11 12 0 2 -7 1 -15 -2 -18z
m2283 -15 c0 -28 -2 -30 -9 -13 -12 28 -12 45 0 45 6 0 10 -15 9 -32z m-6814
-7 c7 -22 32 -35 40 -21 8 12 55 13 55 1 0 -5 21 -12 46 -16 60 -9 92 -24 99
-45 3 -10 19 -20 35 -24 22 -4 30 -11 30 -27 0 -18 5 -20 26 -16 14 2 49 -1
77 -9 28 -7 53 -11 57 -9 14 9 29 -42 28 -95 -1 -30 2 -67 5 -82 7 -25 5 -28
-20 -30 -54 -3 -135 18 -146 38 -4 8 -20 14 -35 14 -15 0 -41 9 -59 19 -17 11
-49 23 -70 27 -21 4 -48 15 -61 25 -13 10 -37 20 -55 24 -48 9 -127 38 -127
46 0 3 -22 9 -50 13 -27 4 -52 11 -55 16 -4 6 -10 8 -15 5 -5 -3 -19 -1 -30 5
l-21 11 21 30 c12 16 30 29 41 29 11 0 22 7 25 15 3 8 16 17 27 21 12 4 27 14
34 23 8 10 12 12 13 4 0 -20 18 -15 25 7 8 26 51 27 60 1z m4532 -33 c-3 -8
-6 -5 -6 6 -1 11 2 17 5 13 3 -3 4 -12 1 -19z m2463 -12 c0 -3 -4 -8 -10 -11
-5 -3 -10 -1 -10 4 0 6 5 11 10 11 6 0 10 -2 10 -4z m-93 -12 c-3 -3 -12 -4
-19 -1 -8 3 -5 6 6 6 11 1 17 -2 13 -5z m168 -14 c4 -6 -9 -10 -32 -9 -34 1
-35 2 -13 9 35 11 38 11 45 0z m175 -70 c0 -5 -4 -10 -10 -10 -5 0 -10 5 -10
10 0 6 5 10 10 10 6 0 10 -4 10 -10z m-57 -17 c-7 -2 -19 -2 -25 0 -7 3 -2 5
12 5 14 0 19 -2 13 -5z m-2653 -110 c0 -5 -5 -15 -10 -23 -8 -12 -10 -11 -10
8 0 12 5 22 10 22 6 0 10 -3 10 -7z m227 -15 c-3 -8 -6 -5 -6 6 -1 11 2 17 5
13 3 -3 4 -12 1 -19z m1463 -178 c0 -5 -5 -10 -11 -10 -5 0 -7 5 -4 10 3 6 8
10 11 10 2 0 4 -4 4 -10z m-80 -20 c0 -5 -21 -10 -47 -9 -36 0 -43 3 -28 9 28
12 75 12 75 0z m-1920 -14 c0 -11 -19 -15 -25 -6 -3 5 1 10 9 10 9 0 16 -2 16
-4z m1810 0 c0 -2 -7 -6 -15 -10 -8 -3 -15 -1 -15 4 0 6 7 10 15 10 8 0 15 -2
15 -4z m-1540 -46 c0 -5 -4 -10 -10 -10 -5 0 -10 5 -10 10 0 6 5 10 10 10 6 0
10 -4 10 -10z m-170 -80 c0 -5 -2 -10 -4 -10 -3 0 -8 5 -11 10 -3 6 -1 10 4
10 6 0 11 -4 11 -10z m2600 3 c-26 -5 -60 -35 -60 -53 0 -5 -4 -10 -9 -10 -5
0 -8 -11 -5 -25 3 -15 0 -25 -7 -25 -7 0 -10 2 -7 5 8 9 -44 65 -60 65 -24 0
-6 25 19 26 13 1 26 2 29 3 3 2 15 4 27 5 13 2 26 6 30 9 3 4 20 6 37 6 27 -2
28 -2 6 -6z m95 -3 c3 -6 -1 -7 -9 -4 -18 7 -21 14 -7 14 6 0 13 -4 16 -10z
m150 -32 c22 -5 60 -13 85 -19 69 -14 165 -65 193 -103 33 -42 227 -146 203
-108 -2 4 22 6 54 4 34 -2 61 1 65 7 4 7 -6 11 -27 12 -18 1 -25 3 -15 6 27 7
67 -5 67 -21 0 -7 -15 -18 -32 -23 -29 -9 -30 -11 -14 -18 11 -5 26 -3 38 4
10 6 24 9 30 5 5 -4 14 0 19 7 7 11 9 9 9 -7 0 -16 -8 -23 -30 -27 -18 -4 -30
-13 -30 -22 0 -9 -10 -15 -27 -16 -25 -1 -24 -2 7 -8 39 -8 63 -3 54 10 -3 5
-1 9 4 9 6 0 13 -8 16 -17 7 -17 -9 -33 -31 -33 -7 0 -10 -7 -7 -15 6 -14 -16
-24 -65 -28 -14 -1 -26 -9 -29 -19 -8 -34 -21 -18 -15 20 5 34 4 36 -10 17 -8
-11 -25 -44 -37 -73 -17 -39 -34 -61 -62 -78 -92 -59 -271 -102 -423 -103
-110 -1 -345 28 -345 42 0 5 11 6 25 3 41 -10 358 -9 385 2 20 8 12 9 -39 8
-44 0 -66 3 -69 12 -2 6 -12 12 -22 12 -33 0 -31 17 3 26 l32 8 -42 3 c-81 7
-55 23 107 63 121 31 125 38 22 36 -89 -1 -120 7 -93 24 11 6 6 17 -22 51 -34
39 -42 74 -12 49 10 -9 14 -6 17 11 2 17 12 25 38 31 57 13 113 31 140 45 14
7 30 13 36 13 6 0 17 6 23 14 18 22 -97 50 -176 42 -34 -4 -64 -2 -67 3 -8 13
50 31 101 31 30 0 45 5 49 15 9 22 30 18 48 -7 15 -21 16 -21 16 -3 0 37 -17
50 -62 49 -23 -1 -47 4 -53 11 -5 7 -23 16 -39 19 -26 6 -28 5 -17 -8 11 -13
9 -20 -11 -45 -12 -17 -28 -30 -34 -30 -16 -1 -30 -94 -15 -99 31 -10 4 -21
-50 -20 l-61 1 6 45 c3 25 6 76 6 113 0 72 12 88 40 54 11 -13 11 -32 0 -101
-7 -47 -9 -88 -6 -91 14 -14 24 15 27 77 4 84 12 100 51 100 39 0 26 17 -16
22 -16 2 -31 9 -34 16 -4 13 41 10 123 -10z m-375 -68 c4 -32 10 -45 27 -51
16 -6 22 -3 26 13 3 11 10 17 16 13 7 -4 8 -12 2 -23 -6 -10 -4 -23 4 -36 19
-31 28 -66 16 -66 -6 0 -18 14 -26 30 -10 19 -31 36 -55 46 -27 11 -42 24 -46
40 -4 14 -15 31 -26 38 -19 14 -19 15 -1 33 29 31 57 15 63 -37z m-170 -19 c6
-17 9 -34 6 -39 -10 -16 -47 -1 -56 22 -18 50 29 66 50 17z m-270 -75 c0 -3
-4 -8 -10 -11 -5 -3 -10 -1 -10 4 0 6 5 11 10 11 6 0 10 -2 10 -4z m1670 -26
c0 -5 -2 -10 -4 -10 -3 0 -8 5 -11 10 -3 6 -1 10 4 10 6 0 11 -4 11 -10z m45
0 c3 -5 1 -10 -4 -10 -6 0 -11 5 -11 10 0 6 2 10 4 10 3 0 8 -4 11 -10z m-145
-30 c0 -5 -7 -7 -15 -4 -8 4 -15 8 -15 10 0 2 7 4 15 4 8 0 15 -4 15 -10z
m-2835 -10 c3 -5 -1 -10 -9 -10 -9 0 -16 5 -16 10 0 6 4 10 9 10 6 0 13 -4 16
-10z m2795 0 c0 -5 8 -10 18 -10 14 0 15 -2 2 -10 -10 -6 -16 -6 -18 0 -2 6
-10 10 -18 10 -8 0 -14 5 -14 10 0 6 7 10 15 10 8 0 15 -4 15 -10z m-7182 -17
c27 -4 32 -9 26 -25 -3 -12 -17 -33 -30 -48 -14 -15 -31 -35 -40 -46 -15 -18
-15 -18 -10 6 3 14 -1 38 -9 54 -8 16 -15 40 -15 53 0 22 3 24 23 18 12 -4 37
-9 55 -12z m7322 9 c0 -5 -7 -9 -15 -9 -8 0 -12 4 -9 9 3 4 9 8 15 8 5 0 9 -4
9 -8z m-1458 -60 c14 -11 31 -13 74 -8 45 5 64 2 102 -15 26 -12 53 -21 60
-20 19 3 13 -22 -13 -51 -18 -21 -33 -28 -60 -28 -48 0 -47 -25 3 -36 20 -4
43 -6 50 -5 6 1 12 -3 12 -8 0 -5 12 -12 28 -14 15 -2 -13 -4 -63 -5 -58 -1
-104 4 -130 14 -22 8 -68 24 -102 35 -67 21 -86 44 -30 35 64 -11 80 -11 84 0
2 6 -8 16 -22 22 -14 7 -25 18 -24 24 3 26 -1 38 -15 38 -21 0 -38 24 -25 37
13 13 48 6 71 -15z m453 -32 c-12 -14 -16 -28 -12 -50 6 -25 4 -28 -7 -18 -14
13 -14 31 -1 63 13 33 29 49 33 36 2 -7 -4 -21 -13 -31z m948 33 c-7 -2 -21
-2 -30 0 -10 3 -4 5 12 5 17 0 24 -2 18 -5z m-995 -48 c-11 -24 -28 -34 -28
-16 0 21 13 41 26 41 11 0 11 -5 2 -25z m-448 -15 c0 -5 -7 -7 -15 -4 -8 4
-12 10 -9 15 6 11 24 2 24 -11z m520 -5 c0 -8 -4 -15 -10 -15 -5 0 -10 7 -10
15 0 8 5 15 10 15 6 0 10 -7 10 -15z m-610 -135 c79 -26 170 -36 180 -20 6 10
22 10 77 1 83 -15 116 -31 61 -31 -26 0 -38 -5 -38 -14 0 -11 -15 -13 -67 -10
l-68 4 44 -20 c24 -11 42 -22 40 -25 -8 -7 -84 14 -87 24 -2 6 -13 11 -25 11
-12 0 -35 8 -52 18 -16 10 -48 23 -71 30 -22 6 -51 24 -65 38 -21 24 -22 26
-4 19 11 -4 45 -15 75 -25z m-820 -10 c-8 -5 -19 -10 -25 -10 -5 0 -3 5 5 10
8 5 20 10 25 10 6 0 3 -5 -5 -10z m-97 -37 c-7 -2 -19 -2 -25 0 -7 3 -2 5 12
5 14 0 19 -2 13 -5z m-210 -74 c-6 -6 -27 -14 -48 -19 -46 -10 -34 5 15 18 47
14 45 13 33 1z m2760 -174 c9 -4 16 -15 15 -24 -2 -11 6 -17 25 -19 17 -2 25
-8 21 -14 -5 -7 -2 -8 5 -3 19 11 62 -15 73 -45 9 -22 11 -23 21 -9 9 15 12
15 28 1 17 -15 17 -16 1 -28 -9 -8 -24 -14 -33 -14 -8 0 -26 -11 -39 -25 -14
-15 -35 -25 -51 -25 -32 0 -86 -26 -67 -32 7 -3 -11 -8 -40 -12 -29 -4 -69
-16 -89 -27 -20 -11 -47 -19 -60 -16 -14 2 -32 -3 -45 -14 -19 -17 -39 -24
-60 -20 -5 0 -8 -3 -8 -9 0 -5 -15 -9 -34 -7 -26 1 -36 7 -39 23 -3 17 0 20
17 16 19 -5 19 -3 -4 16 l-25 21 25 1 c18 0 21 3 11 9 -7 5 -17 27 -21 50 -9
49 19 121 47 121 8 0 31 9 50 21 23 15 42 19 60 14 22 -5 25 -4 14 8 -10 12
-4 16 34 21 25 4 45 12 45 19 0 8 3 8 12 -1 16 -16 31 -15 25 1 -4 10 5 13 32
11 20 -1 44 -5 54 -9z m-7119 -122 c67 -25 164 -60 216 -78 145 -50 293 -104
315 -114 11 -5 38 -15 60 -22 22 -6 45 -15 50 -19 6 -4 26 -13 45 -18 19 -6
67 -22 105 -37 39 -14 108 -39 155 -56 47 -16 94 -34 105 -39 11 -5 38 -16 60
-23 70 -24 239 -88 272 -103 17 -8 36 -14 42 -14 6 0 30 -9 54 -19 23 -11 76
-31 117 -45 41 -14 111 -39 155 -56 44 -17 91 -35 105 -39 14 -5 86 -31 160
-59 74 -27 182 -67 240 -87 133 -46 259 -93 285 -105 11 -5 40 -17 65 -25 25
-9 68 -25 95 -35 161 -60 479 -174 605 -216 41 -14 84 -30 95 -35 11 -5 65
-25 120 -45 143 -52 159 -58 172 -67 13 -8 11 -170 -7 -582 -24 -525 -29 -648
-35 -990 -7 -387 -14 -625 -21 -723 -5 -72 -8 -83 -22 -79 -16 5 -108 38 -322
117 -19 7 -48 19 -65 26 -28 12 -61 24 -145 55 -19 7 -48 18 -65 25 -30 12
-80 31 -145 54 -38 14 -97 37 -175 68 -27 11 -77 30 -110 42 -33 12 -87 32
-120 45 -33 13 -109 42 -170 65 -60 23 -128 51 -151 61 -23 11 -47 19 -54 19
-7 0 -31 9 -54 19 -23 11 -72 32 -111 46 -38 14 -79 30 -90 35 -11 6 -38 16
-60 24 -50 18 -120 46 -205 81 -36 15 -87 35 -115 44 -52 19 -215 85 -250 101
-22 10 -307 122 -425 166 -41 15 -84 34 -95 41 -11 7 -26 13 -35 13 -8 1 -33
9 -55 20 -22 11 -44 19 -49 20 -5 0 -27 9 -50 19 -23 10 -135 56 -251 100
-115 45 -230 90 -255 100 -25 10 -72 29 -105 41 -33 12 -70 29 -83 37 l-23 14
6 332 c3 183 7 420 10 527 3 107 6 422 7 700 1 278 4 556 6 618 l3 114 36 -7
c20 -3 90 -27 157 -52z m406 -9 c14 -8 17 -13 7 -10 -10 3 -28 6 -38 6 -11 0
-17 5 -14 10 8 13 15 12 45 -6z m6080 -5 c0 -6 -4 -7 -10 -4 -5 3 -10 11 -10
16 0 6 5 7 10 4 6 -3 10 -11 10 -16z m-5806 -88 c4 -5 -3 -7 -14 -4 -23 6 -26
13 -6 13 8 0 17 -4 20 -9z m5806 -75 c0 -3 -4 -8 -10 -11 -5 -3 -10 -1 -10 4
0 6 5 11 10 11 6 0 10 -2 10 -4z m-5620 -16 c0 -5 -2 -10 -4 -10 -3 0 -8 5
-11 10 -3 6 -1 10 4 10 6 0 11 -4 11 -10z m5508 -130 c-2 -81 -7 -123 -16
-132 -11 -11 -12 0 -7 62 3 41 6 103 7 137 1 34 5 60 10 57 5 -3 7 -59 6 -124z
m-5208 40 c0 -5 -7 -7 -15 -4 -8 4 -15 8 -15 10 0 2 7 4 15 4 8 0 15 -4 15
-10z m30 -36 c0 -8 -4 -12 -10 -9 -5 3 -10 10 -10 16 0 5 5 9 10 9 6 0 10 -7
10 -16z m35 -34 c3 -5 1 -10 -4 -10 -6 0 -11 5 -11 10 0 6 2 10 4 10 3 0 8 -4
11 -10z m115 1 c-20 -4 -41 -11 -48 -15 -7 -4 -12 -3 -12 3 0 12 24 19 65 19
28 0 28 -1 -5 -7z m10 -41 c0 -5 -7 -10 -15 -10 -8 0 -15 5 -15 10 0 6 7 10
15 10 8 0 15 -4 15 -10z m107 4 c-3 -3 -12 -4 -19 -1 -8 3 -5 6 6 6 11 1 17
-2 13 -5z m103 -74 c0 -5 -7 -10 -15 -10 -8 0 -15 5 -15 10 0 6 7 10 15 10 8
0 15 -4 15 -10z m150 -36 c0 -2 -7 -4 -15 -4 -8 0 -15 4 -15 10 0 5 7 7 15 4
8 -4 15 -8 15 -10z m-127 -11 c-7 -2 -19 -2 -25 0 -7 3 -2 5 12 5 14 0 19 -2
13 -5z m4699 -24 c-5 -32 -43 -88 -65 -95 -16 -5 -14 -10 17 -42 29 -29 36
-43 36 -75 0 -43 -39 -107 -66 -107 -7 0 -14 -4 -14 -9 0 -15 41 -40 55 -35
19 8 19 -94 -1 -138 -10 -22 -25 -39 -40 -42 -19 -5 -22 -10 -15 -28 11 -30
36 -38 28 -9 -3 11 -1 21 4 21 5 0 9 -9 9 -19 0 -11 5 -23 10 -26 12 -8 13
-76 1 -107 -10 -26 -75 -74 -115 -84 l-25 -6 19 -36 c11 -20 20 -49 20 -64 0
-32 -39 -81 -78 -97 -18 -8 -33 -24 -40 -45 -17 -47 -50 -86 -72 -86 -18 0
-70 46 -70 61 0 4 16 10 36 14 44 8 41 13 -11 18 -32 3 -41 8 -43 26 -5 33 6
55 21 43 6 -6 26 -12 42 -14 21 -2 29 -8 27 -20 -1 -9 2 -19 8 -23 5 -3 10 1
10 10 0 12 6 15 19 10 14 -4 23 0 30 14 15 26 5 31 -67 30 -83 -1 -97 8 -97
68 0 44 -2 48 -25 49 -50 1 -55 3 -43 15 15 15 92 22 107 11 6 -5 25 -8 41 -6
17 1 47 3 68 3 26 1 45 8 60 24 12 12 35 31 50 41 16 10 26 20 23 23 -3 3 -12
1 -19 -6 -8 -6 -22 -9 -31 -5 -10 4 -18 0 -22 -11 -4 -9 -13 -14 -20 -11 -7 3
-16 1 -19 -4 -3 -5 -12 -7 -20 -3 -9 3 -15 -1 -15 -11 0 -9 -4 -16 -10 -16
-23 0 -7 29 23 41 40 16 57 37 56 69 0 14 -3 19 -6 13 -7 -19 -73 -17 -73 2 0
9 -6 12 -15 9 -13 -5 -13 -8 1 -21 11 -12 12 -18 3 -29 -13 -16 -64 -20 -54
-4 3 5 12 7 20 3 9 -3 15 1 15 10 0 24 -18 30 -36 12 -9 -9 -24 -13 -32 -10
-8 3 -19 0 -23 -6 -12 -20 -29 1 -29 37 0 21 6 37 15 40 23 9 7 24 -26 24 -32
0 -69 15 -69 29 0 10 69 4 103 -10 17 -7 43 -9 70 -4 23 4 58 7 77 6 45 -1 90
17 84 34 -3 8 19 20 67 36 77 25 97 47 85 92 -5 22 -29 37 -61 41 -5 1 -13 5
-17 10 -3 5 -14 2 -23 -7 -15 -16 -15 -17 4 -17 29 0 37 -21 15 -37 -52 -38
-56 -43 -20 -23 21 11 41 18 44 15 11 -10 -40 -52 -79 -65 -36 -12 -42 -12
-50 2 -7 13 -19 15 -47 12 l-37 -5 33 15 c17 8 32 19 32 25 0 5 8 11 18 13 14
3 13 5 -6 10 -12 3 -20 2 -16 -3 3 -5 -11 -9 -30 -9 -19 0 -37 -4 -40 -9 -3
-5 -14 -7 -24 -4 -13 3 -22 -4 -30 -22 -12 -26 -50 -32 -44 -7 1 7 -2 12 -7
12 -6 0 -9 19 -8 43 2 40 0 42 -28 45 -16 2 -34 7 -38 11 -13 12 71 23 92 12
26 -14 180 11 222 36 19 11 55 28 81 38 53 19 72 38 81 76 7 27 -15 70 -29 56
-4 -4 -14 -1 -23 6 -13 12 -20 12 -41 1 -17 -9 -20 -14 -8 -14 23 0 12 -37
-16 -53 -57 -32 -116 -41 -101 -16 4 5 1 9 -4 9 -6 0 -12 10 -12 23 -1 16 -3
17 -6 5 -2 -10 -21 -22 -41 -28 -32 -9 -39 -7 -52 11 -14 17 -20 19 -44 9 -35
-13 -42 -8 -21 13 21 22 20 24 -20 31 -19 4 -35 12 -35 17 0 7 27 8 79 3 91
-7 211 10 211 31 0 14 22 25 51 25 25 0 91 33 108 54 8 9 14 27 14 41 0 15 4
24 11 22 6 -2 10 -15 8 -28z m-4349 -60 c-7 -24 -7 -23 -22 20 -11 33 -11 34
8 17 11 -10 17 -25 14 -37z m4211 31 c-11 -11 -38 -23 -60 -26 -37 -6 -38 -5
-18 9 16 12 63 30 94 36 2 1 -5 -8 -16 -19z m-4169 -10 c3 -5 1 -10 -4 -10 -6
0 -11 5 -11 10 0 6 2 10 4 10 3 0 8 -4 11 -10z m-131 -16 c9 -23 4 -24 -16 -2
-14 14 -15 18 -4 18 8 0 17 -7 20 -16z m361 -64 c3 -5 0 -10 -7 -10 -7 0 -23
-3 -35 -6 -13 -4 -23 -2 -23 4 0 6 10 13 23 15 12 2 25 5 29 6 4 0 10 -3 13
-9z m55 -46 c0 -2 -9 -4 -21 -4 -11 0 -18 4 -14 10 5 8 35 3 35 -6z m-75 -34
c3 -5 1 -10 -4 -10 -6 0 -11 5 -11 10 0 6 2 10 4 10 3 0 8 -4 11 -10z m195 0
c0 -5 -5 -10 -11 -10 -5 0 -7 5 -4 10 3 6 8 10 11 10 2 0 4 -4 4 -10z m3450
-16 c0 -8 -4 -14 -10 -14 -5 0 -10 9 -10 21 0 11 5 17 10 14 6 -3 10 -13 10
-21z m-3413 10 c-3 -3 -12 -4 -19 -1 -8 3 -5 6 6 6 11 1 17 -2 13 -5z m3771
-16 c-22 -34 -128 -84 -128 -60 0 5 114 72 139 81 2 0 -3 -9 -11 -21z m-287
-8 c1 -5 2 -15 3 -20 0 -6 8 -15 16 -20 11 -7 4 -10 -25 -10 -49 0 -77 14 -46
23 12 3 21 9 20 14 -3 17 1 23 16 23 8 0 16 -4 16 -10z m-3376 -10 c4 -6 -11
-10 -37 -10 -31 0 -39 3 -28 10 20 13 57 13 65 0z m35 -41 c0 -5 -4 -9 -10 -9
-5 0 -10 7 -10 16 0 8 5 12 10 9 6 -3 10 -10 10 -16z m3405 11 c-3 -5 -10 -10
-16 -10 -5 0 -9 5 -9 10 0 6 7 10 16 10 8 0 12 -4 9 -10z m-3580 -10 c3 -5 1
-10 -4 -10 -6 0 -11 5 -11 10 0 6 2 10 4 10 3 0 8 -4 11 -10z m243 5 c-11 -11
-58 -15 -58 -5 0 5 14 10 32 10 17 0 29 -2 26 -5z m3267 -35 c4 -6 -17 -10
-55 -10 -38 0 -59 4 -55 10 3 6 28 10 55 10 27 0 52 -4 55 -10z m-3177 -24 c3
-11 0 -16 -7 -12 -6 4 -23 14 -39 22 l-27 15 35 -4 c24 -2 36 -9 38 -21z m42
-26 c-8 -5 -19 -10 -25 -10 -5 0 -3 5 5 10 8 5 20 10 25 10 6 0 3 -5 -5 -10z
m82 -2 c-9 -9 -15 -9 -24 0 -9 9 -7 12 12 12 19 0 21 -3 12 -12z m85 -34 c-3
-3 -12 -4 -19 -1 -8 3 -5 6 6 6 11 1 17 -2 13 -5z m2893 -24 c0 -5 -4 -10 -10
-10 -5 0 -10 5 -10 10 0 6 5 10 10 10 6 0 10 -4 10 -10z m-2920 -10 c0 -5 -4
-10 -10 -10 -5 0 -10 5 -10 10 0 6 5 10 10 10 6 0 10 -4 10 -10z m-103 -6 c-3
-3 -12 -4 -19 -1 -8 3 -5 6 6 6 11 1 17 -2 13 -5z m258 -4 c-3 -5 -11 -10 -16
-10 -6 0 -7 5 -4 10 3 6 11 10 16 10 6 0 7 -4 4 -10z m-95 -30 c0 -5 -4 -10
-10 -10 -5 0 -10 5 -10 10 0 6 5 10 10 10 6 0 10 -4 10 -10z m205 -10 c4 -6
-5 -10 -20 -10 -15 0 -24 4 -20 10 3 6 12 10 20 10 8 0 17 -4 20 -10z m226
-37 c-8 -15 -10 -15 -11 -2 0 17 10 32 18 25 2 -3 -1 -13 -7 -23z m2566 11
c-3 -3 -12 -4 -19 -1 -8 3 -5 6 6 6 11 1 17 -2 13 -5z m-2729 -11 c-10 -2 -28
-2 -40 0 -13 2 -5 4 17 4 22 1 32 -1 23 -4z m2647 -23 c-3 -5 -18 -10 -33 -10
-21 0 -24 2 -12 10 20 13 53 13 45 0z m-2632 -17 c-13 -2 -35 -2 -50 0 -16 2
-5 4 22 4 28 0 40 -2 28 -4z m120 0 c-13 -2 -35 -2 -50 0 -16 2 -5 4 22 4 28
0 40 -2 28 -4z m-76 -40 c-20 -2 -52 -2 -70 0 -17 2 0 4 38 4 39 0 53 -2 32
-4z m181 0 c-10 -2 -28 -2 -40 0 -13 2 -5 4 17 4 22 1 32 -1 23 -4z m-23 -38
c6 -2 -14 -4 -43 -4 -29 -1 -51 3 -48 7 4 7 67 5 91 -3z m153 -2 c-10 -2 -28
-2 -40 0 -13 2 -5 4 17 4 22 1 32 -1 23 -4z m2222 -8 c0 -8 -4 -15 -10 -15 -5
0 -10 7 -10 15 0 8 5 15 10 15 6 0 10 -7 10 -15z m-2166 -20 c3 -9 0 -15 -9
-15 -16 0 -27 14 -18 24 10 10 21 7 27 -9z m121 -45 c-3 -5 -11 -10 -16 -10
-6 0 -7 5 -4 10 3 6 11 10 16 10 6 0 7 -4 4 -10z m85 -21 c0 -5 -7 -9 -15 -9
-15 0 -20 12 -9 23 8 8 24 -1 24 -14z m2027 -35 c2 -5 -15 -10 -37 -11 -37 -2
-55 10 -29 19 20 7 63 1 66 -8z m-2027 -4 c0 -5 -4 -10 -10 -10 -5 0 -10 5
-10 10 0 6 5 10 10 10 6 0 10 -4 10 -10z m2365 -157 c-2 -87 -6 -199 -8 -250
-1 -50 -6 -95 -10 -99 -4 -4 -5 98 -2 227 3 129 5 244 5 257 0 12 5 22 10 22
7 0 9 -53 5 -157z m-41 112 c-4 -8 -8 -15 -10 -15 -2 0 -4 7 -4 15 0 8 4 15
10 15 5 0 7 -7 4 -15z m-5 -48 c-16 -31 -16 -31 -21 -4 -3 17 0 23 14 24 15 2
16 -1 7 -20z m-2309 -8 c0 -5 -4 -9 -10 -9 -5 0 -10 7 -10 16 0 8 5 12 10 9 6
-3 10 -10 10 -16z m1980 -144 c0 -8 -4 -15 -10 -15 -5 0 -10 7 -10 15 0 8 5
15 10 15 6 0 10 -7 10 -15z m325 -95 c3 -5 1 -10 -4 -10 -6 0 -11 5 -11 10 0
6 2 10 4 10 3 0 8 -4 11 -10z m-2355 -94 c0 -3 -4 -8 -10 -11 -5 -3 -10 -1
-10 4 0 6 5 11 10 11 6 0 10 -2 10 -4z m-23 -82 c-3 -3 -12 -4 -19 -1 -8 3 -5
6 6 6 11 1 17 -2 13 -5z m2418 -109 c-5 -44 -7 -102 -7 -128 1 -27 -2 -55 -6
-63 -8 -14 -8 66 -1 206 2 46 0 64 -8 63 -7 -2 -10 4 -6 12 4 13 8 13 20 3 12
-10 14 -27 8 -93z m-2480 75 c3 -5 1 -10 -4 -10 -6 0 -11 5 -11 10 0 6 2 10 4
10 3 0 8 -4 11 -10z m105 -120 c0 -5 -7 -10 -16 -10 -8 0 -12 5 -9 10 3 6 10
10 16 10 5 0 9 -4 9 -10z m20 -40 c0 -5 -2 -10 -4 -10 -3 0 -8 5 -11 10 -3 6
-1 10 4 10 6 0 11 -4 11 -10z m2337 -207 c-2 -16 -4 -5 -4 22 0 28 2 40 4 28
2 -13 2 -35 0 -50z m-2417 -47 c0 -3 -4 -8 -10 -11 -5 -3 -10 -1 -10 4 0 6 5
11 10 11 6 0 10 -2 10 -4z m2417 -68 c-3 -8 -6 -5 -6 6 -1 11 2 17 5 13 3 -3
4 -12 1 -19z m4 -81 c-10 -9 -11 -8 -5 6 3 10 9 15 12 12 3 -3 0 -11 -7 -18z
m-6491 -61 c0 -8 7 -17 16 -20 8 -3 12 -2 9 4 -8 13 -3 13 30 0 19 -7 24 -14
18 -23 -5 -6 -8 -42 -8 -78 0 -37 -3 -65 -6 -63 -4 2 -9 -5 -12 -16 -7 -26
-27 -26 -27 0 0 11 -5 20 -11 20 -8 0 -10 -19 -5 -64 4 -43 3 -67 -4 -71 -6
-4 -14 -4 -17 -1 -7 7 -11 294 -5 314 6 16 22 15 22 -2z m50 -246 c-21 -14
-30 -12 -30 4 0 18 22 27 35 14 6 -6 5 -12 -5 -18z m3990 0 c0 -5 -7 -10 -16
-10 -8 0 -12 5 -9 10 3 6 10 10 16 10 5 0 9 -4 9 -10z m2479 -507 c-1 -10 -5
-29 -9 -43 -7 -21 -8 -19 -9 18 -1 23 4 42 9 42 6 0 10 -8 9 -17z m-76 -65 c2
-18 3 -35 0 -38 -7 -8 -23 24 -23 48 0 34 17 26 23 -10z m73 -93 c-12 -33 -26
-13 -22 33 2 26 5 49 6 52 5 13 21 -72 16 -85z m-452 -101 c34 -13 13 -22 -51
-23 -68 0 -77 14 -13 22 19 2 38 5 42 5 3 1 13 -1 22 -4z m-2720 -244 c-7 -7
-19 -7 -35 -1 -23 9 -22 10 11 10 23 1 31 -2 24 -9z m76 -9 c0 -13 -26 -32
-33 -24 -8 7 11 33 24 33 5 0 9 -4 9 -9z m365 -191 c3 -6 -1 -7 -9 -4 -18 7
-21 14 -7 14 6 0 13 -4 16 -10z m205 3 c0 -11 -51 -33 -62 -27 -12 8 2 26 16
21 7 -3 19 -1 27 4 17 11 19 11 19 2z m3267 -145 c-3 -8 -6 -5 -6 6 -1 11 2
17 5 13 3 -3 4 -12 1 -19z m-834 -253 c167 -56 220 -81 143 -68 -33 5 -35 4
-38 -28 -4 -44 -22 -40 -28 7 -5 39 -12 45 -75 63 -22 7 -53 19 -70 26 -60 27
-131 53 -162 60 -18 3 -33 11 -33 15 0 10 24 4 263 -75z m1352 75 c8 -13 -5
-13 -25 0 -13 8 -13 10 2 10 9 0 20 -4 23 -10z m-1405 -120 c0 -5 -7 -10 -16
-10 -8 0 -12 5 -9 10 3 6 10 10 16 10 5 0 9 -4 9 -10z m1716 -85 c24 -18 7
-19 -26 0 -16 9 -19 14 -9 15 8 0 24 -7 35 -15z m-116 -365 c0 -5 -4 -10 -10
-10 -5 0 -10 5 -10 10 0 6 5 10 10 10 6 0 10 -4 10 -10z m174 -65 c19 -14 19
-15 -6 -15 -27 0 -43 12 -31 24 9 9 16 7 37 -9z m176 -85 c0 -5 -2 -10 -4 -10
-3 0 -8 5 -11 10 -3 6 -1 10 4 10 6 0 11 -4 11 -10z m-4143 -126 c-9 -9 -28 6
-21 18 4 6 10 6 17 -1 6 -6 8 -13 4 -17z m4611 -83 c3 -8 -1 -12 -9 -9 -7 2
-15 10 -17 17 -3 8 1 12 9 9 7 -2 15 -10 17 -17z m62 -21 c0 -5 -4 -10 -9 -10
-6 0 -13 5 -16 10 -3 6 1 10 9 10 9 0 16 -4 16 -10z m698 -299 c3 -8 -1 -12
-9 -9 -7 2 -15 10 -17 17 -3 8 1 12 9 9 7 -2 15 -10 17 -17z m1142 -41 c0 -5
-4 -10 -10 -10 -5 0 -10 5 -10 10 0 6 5 10 10 10 6 0 10 -4 10 -10z m-995 -20
c3 -5 2 -10 -4 -10 -5 0 -13 5 -16 10 -3 6 -2 10 4 10 5 0 13 -4 16 -10z m42
-6 c-3 -3 -12 -4 -19 -1 -8 3 -5 6 6 6 11 1 17 -2 13 -5z m93 -38 c0 -11 -19
-15 -25 -6 -3 5 1 10 9 10 9 0 16 -2 16 -4z m300 -136 c0 -5 -2 -10 -4 -10 -3
0 -8 5 -11 10 -3 6 -1 10 4 10 6 0 11 -4 11 -10z m1285 -70 c8 -13 -5 -13 -25
0 -13 8 -13 10 2 10 9 0 20 -4 23 -10z m-470 -290 c3 -5 2 -10 -4 -10 -5 0
-13 5 -16 10 -3 6 -2 10 4 10 5 0 13 -4 16 -10z m96 -57 c13 -15 12 -15 -8 -4
-24 12 -29 21 -14 21 5 0 15 -7 22 -17z m49 -24 c0 -4 -7 -6 -15 -3 -8 4 -15
10 -15 15 0 4 7 6 15 3 8 -4 15 -10 15 -15z m350 -164 c7 -8 21 -15 31 -15 11
0 19 -4 19 -9 0 -5 14 -11 30 -14 20 -5 30 -12 29 -24 0 -11 -3 -13 -6 -5 -2
6 -9 12 -15 12 -14 0 -138 58 -138 65 0 12 39 4 50 -10z m168 -82 c11 -11 10
-13 -5 -13 -19 0 -43 18 -43 32 0 10 31 -2 48 -19z"/>
<path d="M8520 12424 c0 -8 5 -12 10 -9 6 4 8 11 5 16 -9 14 -15 11 -15 -7z"/>
<path d="M8198 12133 c6 -2 18 -2 25 0 6 3 1 5 -13 5 -14 0 -19 -2 -12 -5z"/>
<path d="M7898 12003 c7 -3 16 -2 19 1 4 3 -2 6 -13 5 -11 0 -14 -3 -6 -6z"/>
<path d="M7680 11941 c0 -10 26 -9 36 2 4 4 -2 7 -14 7 -12 0 -22 -4 -22 -9z"/>
<path d="M5912 11918 c3 -7 26 -16 53 -20 26 -4 61 -12 76 -19 16 -6 37 -8 46
-4 13 5 -9 15 -72 31 -106 28 -108 28 -103 12z"/>
<path d="M5544 11901 c10 -11 15 -25 11 -31 -9 -15 3 -60 17 -60 7 0 9 15 5
45 l-7 45 36 0 c34 0 36 -2 30 -25 -4 -14 -2 -25 4 -25 5 0 10 9 10 20 0 25
16 26 24 3 3 -10 11 -25 17 -34 20 -26 3 -69 -26 -69 -31 0 -31 -9 -1 -44 l23
-28 46 25 c25 14 66 29 91 32 38 6 44 10 37 23 -6 10 -4 20 5 30 19 18 19 82
0 82 -8 0 -17 6 -19 13 -4 9 -8 8 -16 -3 -8 -11 -5 -17 10 -22 15 -6 20 -15
17 -35 -2 -16 -8 -27 -14 -26 -6 1 -17 -9 -24 -22 -7 -14 -19 -25 -26 -25 -15
0 -28 70 -19 108 l6 29 -92 6 c-51 4 -108 7 -127 7 -34 0 -35 -1 -18 -19z"/>
<path d="M5448 11873 c7 -3 16 -2 19 1 4 3 -2 6 -13 5 -11 0 -14 -3 -6 -6z"/>
<path d="M5915 11821 c3 -11 1 -22 -5 -26 -5 -3 -10 -11 -10 -17 0 -6 11 -1
25 12 19 18 22 26 14 37 -17 19 -31 16 -24 -6z"/>
<path d="M6025 11811 c-3 -12 -11 -19 -16 -16 -5 4 -9 2 -9 -4 0 -15 18 -23
25 -11 3 5 13 10 21 10 8 0 13 -4 10 -9 -3 -5 0 -11 8 -14 10 -4 12 0 9 14 -6
22 18 26 62 9 20 -7 26 -16 22 -29 -4 -16 -1 -17 24 -8 15 6 25 15 23 19 -6
10 -68 36 -98 42 -11 2 -33 7 -48 11 -21 5 -27 3 -33 -14z"/>
<path d="M6003 11742 c-3 -7 -3 -15 0 -18 7 -8 47 14 47 26 0 14 -42 7 -47 -8z"/>
<path d="M855 8911 c-7 -12 12 -24 25 -16 11 7 4 25 -10 25 -5 0 -11 -4 -15
-9z"/>
<path d="M783 8300 c7 -32 35 -80 47 -80 4 0 13 7 20 15 10 12 8 22 -14 55
-32 49 -61 55 -53 10z"/>
<path d="M8127 7444 c-7 -41 -4 -50 12 -39 13 7 14 45 2 63 -5 9 -10 2 -14
-24z"/>
<path d="M8310 7451 c0 -6 5 -13 10 -16 6 -3 10 1 10 9 0 9 -4 16 -10 16 -5 0
-10 -4 -10 -9z"/>
<path d="M8320 7406 c0 -9 5 -16 10 -16 6 0 10 4 10 9 0 6 -4 13 -10 16 -5 3
-10 -1 -10 -9z"/>
<path d="M8078 7297 c-16 -6 -28 -15 -28 -20 0 -4 5 -5 11 -1 7 4 9 0 4 -14
-6 -20 -4 -21 23 -11 22 7 30 16 30 35 0 26 -1 27 -40 11z"/>
<path d="M8760 6859 c0 -5 5 -7 10 -4 6 3 10 8 10 11 0 2 -4 4 -10 4 -5 0 -10
-5 -10 -11z"/>
<path d="M8345 6811 c-6 -11 9 -23 19 -14 9 9 7 23 -3 23 -6 0 -12 -4 -16 -9z"/>
<path d="M8380 6790 c0 -5 5 -10 10 -10 6 0 10 5 10 10 0 6 -4 10 -10 10 -5 0
-10 -4 -10 -10z"/>
<path d="M1437 6823 c-4 -3 -7 -88 -7 -187 0 -100 -2 -250 -4 -335 l-3 -153
36 -15 c20 -8 50 -20 66 -28 17 -8 62 -26 100 -40 39 -15 84 -33 102 -41 17
-8 36 -14 42 -14 6 0 82 -27 168 -61 87 -34 181 -69 208 -79 58 -22 294 -113
441 -171 55 -21 104 -39 108 -39 4 0 22 -6 39 -14 18 -8 75 -31 127 -51 52
-20 145 -60 205 -89 66 -32 142 -61 190 -71 44 -9 100 -25 125 -35 70 -27 112
-41 155 -54 22 -7 57 -20 79 -29 21 -9 43 -17 48 -17 6 0 24 -6 41 -14 30 -13
378 -143 462 -173 22 -8 54 -20 70 -28 17 -7 42 -17 58 -20 15 -4 44 -16 64
-26 21 -10 46 -19 56 -19 10 0 31 -7 45 -15 27 -14 128 -52 167 -62 11 -2 29
-9 40 -14 11 -5 83 -29 160 -54 77 -26 158 -55 181 -66 22 -10 48 -19 58 -19
9 0 27 -6 39 -14 12 -8 43 -18 70 -21 l47 -7 1 68 c1 38 3 103 5 144 2 41 7
166 10 277 6 200 5 202 -16 213 -32 17 -147 60 -204 76 -26 7 -53 18 -60 23
-6 5 -27 12 -46 16 -19 4 -54 16 -79 27 -24 10 -51 20 -60 22 -17 3 -30 8 -96
33 -22 8 -49 19 -60 23 -11 4 -45 17 -75 29 -31 11 -61 21 -68 21 -7 0 -20 5
-30 10 -18 11 -180 70 -267 97 -27 8 -52 19 -55 23 -3 4 -23 10 -45 14 -22 4
-47 13 -55 20 -8 7 -35 19 -60 26 -25 7 -49 17 -54 22 -6 4 -18 8 -28 8 -10 0
-18 5 -18 10 0 6 -3 9 -7 9 -5 -1 -10 -1 -13 1 -3 1 -16 4 -29 6 -14 2 -38 11
-54 19 -17 8 -36 15 -44 15 -7 0 -30 7 -51 17 -20 9 -39 17 -42 18 -8 3 -32
12 -95 35 -52 19 -161 59 -345 124 -25 9 -54 20 -65 25 -55 23 -131 51 -140
51 -5 0 -27 9 -49 20 -23 10 -79 32 -126 49 -172 59 -265 93 -275 101 -5 4
-26 11 -45 15 -19 4 -46 13 -60 20 -14 8 -38 18 -55 24 -16 5 -68 23 -115 40
-47 17 -125 45 -175 62 -49 17 -94 34 -100 38 -5 4 -46 20 -90 35 -114 40
-217 76 -240 86 -11 4 -38 15 -60 24 -46 18 -127 46 -136 46 -3 0 -9 -3 -12
-7z m553 -267 c0 -11 -19 -15 -25 -6 -3 5 1 10 9 10 9 0 16 -2 16 -4z m75 -45
c0 -23 -23 -24 -35 -1 -10 19 -9 21 12 18 13 -2 23 -9 23 -17z m125 -41 c14
-10 22 -21 19 -24 -9 -9 -70 24 -64 35 9 13 17 11 45 -11z m-100 -110 c0 -5
-4 -10 -9 -10 -6 0 -13 5 -16 10 -3 6 1 10 9 10 9 0 16 -4 16 -10z m147 -12
c-3 -8 -6 -5 -6 6 -1 11 2 17 5 13 3 -3 4 -12 1 -19z m113 -23 c0 -9 -6 -12
-15 -9 -8 4 -12 10 -9 15 8 14 24 10 24 -6z m360 -25 c0 -5 -4 -10 -10 -10 -5
0 -10 5 -10 10 0 6 5 10 10 10 6 0 10 -4 10 -10z m-755 -10 c3 -5 1 -10 -4
-10 -6 0 -11 5 -11 10 0 6 2 10 4 10 3 0 8 -4 11 -10z m445 -60 c0 -5 -4 -10
-10 -10 -5 0 -10 5 -10 10 0 6 5 10 10 10 6 0 10 -4 10 -10z m155 -40 c3 -5 1
-10 -4 -10 -6 0 -11 5 -11 10 0 6 2 10 4 10 3 0 8 -4 11 -10z m-385 -10 c0 -5
-4 -10 -10 -10 -5 0 -10 5 -10 10 0 6 5 10 10 10 6 0 10 -4 10 -10z m840 -20
c0 -5 -5 -10 -11 -10 -5 0 -7 5 -4 10 3 6 8 10 11 10 2 0 4 -4 4 -10z m-233
-6 c-3 -3 -12 -4 -19 -1 -8 3 -5 6 6 6 11 1 17 -2 13 -5z m-242 -54 c3 -5 1
-10 -4 -10 -6 0 -11 5 -11 10 0 6 2 10 4 10 3 0 8 -4 11 -10z m162 -22 c-3 -8
-6 -5 -6 6 -1 11 2 17 5 13 3 -3 4 -12 1 -19z m193 12 c0 -5 -5 -10 -11 -10
-5 0 -7 5 -4 10 3 6 8 10 11 10 2 0 4 -4 4 -10z m-110 -30 c0 -5 -4 -10 -10
-10 -5 0 -10 5 -10 10 0 6 5 10 10 10 6 0 10 -4 10 -10z m40 -21 c0 -6 -4 -7
-10 -4 -5 3 -10 11 -10 16 0 6 5 7 10 4 6 -3 10 -11 10 -16z m268 -21 c-6 -18
-28 -21 -28 -4 0 9 7 16 16 16 9 0 14 -5 12 -12z m62 2 c0 -5 -5 -10 -11 -10
-5 0 -7 5 -4 10 3 6 8 10 11 10 2 0 4 -4 4 -10z m-395 -20 c3 -5 1 -10 -4 -10
-6 0 -11 5 -11 10 0 6 2 10 4 10 3 0 8 -4 11 -10z m98 -40 c8 0 8 -3 -1 -9 -7
-4 -25 -6 -39 -3 -18 3 -21 7 -11 13 7 5 19 7 26 4 8 -3 19 -5 25 -5z m347 0
c0 -5 -7 -10 -15 -10 -8 0 -15 5 -15 10 0 6 7 10 15 10 8 0 15 -4 15 -10z m40
-19 c0 -12 -20 -25 -27 -18 -7 7 6 27 18 27 5 0 9 -4 9 -9z m-263 -13 c18 -7
33 -18 33 -24 0 -10 -7 -9 -27 2 -16 7 -38 14 -51 14 -13 0 -20 4 -17 10 8 13
21 13 62 -2z m-117 -8 c0 -5 -4 -10 -10 -10 -5 0 -10 5 -10 10 0 6 5 10 10 10
6 0 10 -4 10 -10z m850 0 c0 -5 -5 -10 -11 -10 -5 0 -7 5 -4 10 3 6 8 10 11
10 2 0 4 -4 4 -10z m-731 -44 c0 -7 -2 -6 -6 2 -2 6 -11 12 -19 12 -9 0 -12 5
-9 10 8 13 35 -6 34 -24z m910 8 c2 -2 1 -11 -3 -20 -4 -12 -10 -13 -19 -6 -6
6 -16 11 -22 11 -5 1 -18 4 -29 7 -30 10 2 24 39 17 16 -3 32 -7 34 -9z m-159
-4 c0 -5 -4 -10 -10 -10 -5 0 -10 5 -10 10 0 6 5 10 10 10 6 0 10 -4 10 -10z
m-550 -10 c0 -5 -4 -10 -10 -10 -5 0 -10 5 -10 10 0 6 5 10 10 10 6 0 10 -4
10 -10z m70 0 c0 -5 -5 -10 -11 -10 -5 0 -7 5 -4 10 3 6 8 10 11 10 2 0 4 -4
4 -10z m715 -22 c8 -19 10 -37 5 -42 -13 -13 -40 12 -40 35 0 11 -5 19 -11 19
-5 0 -7 5 -4 10 12 20 36 9 50 -22z m-485 -8 c0 -5 -4 -10 -10 -10 -5 0 -10 5
-10 10 0 6 5 10 10 10 6 0 10 -4 10 -10z m40 6 c0 -11 -19 -15 -25 -6 -3 5 1
10 9 10 9 0 16 -2 16 -4z m-225 -16 c3 -5 -1 -10 -10 -10 -9 0 -13 5 -10 10 3
6 8 10 10 10 2 0 7 -4 10 -10z m86 -13 c-13 -13 -26 -3 -16 12 3 6 11 8 17 5
6 -4 6 -10 -1 -17z m323 8 c-4 -8 -8 -15 -10 -15 -2 0 -4 7 -4 15 0 8 4 15 10
15 5 0 7 -7 4 -15z m-170 -46 c-15 -25 -29 7 -17 41 4 11 7 9 14 -8 5 -13 7
-28 3 -33z m536 43 c0 -13 -12 -22 -22 -16 -10 6 -1 24 13 24 5 0 9 -4 9 -8z
m-314 -39 c-11 -11 -19 6 -11 24 8 17 8 17 12 0 3 -10 2 -21 -1 -24z m108 28
c3 -4 -6 -6 -19 -3 -14 2 -25 6 -25 8 0 8 39 4 44 -5z m246 -5 c0 -3 -4 -8
-10 -11 -5 -3 -10 -1 -10 4 0 6 5 11 10 11 6 0 10 -2 10 -4z m-770 -27 c0 -5
-7 -9 -15 -9 -15 0 -20 12 -9 23 8 8 24 -1 24 -14z m280 9 c0 -9 4 -8 10 2 6
10 10 11 10 3 0 -7 9 -13 21 -13 14 0 19 -5 17 -17 -4 -22 -38 -30 -38 -9 0 8
-9 18 -20 21 -21 7 -28 25 -10 25 6 0 10 -6 10 -12z m238 -27 c3 -8 -1 -12 -9
-9 -7 2 -15 10 -17 17 -3 8 1 12 9 9 7 -2 15 -10 17 -17z m65 2 c18 7 63 -18
48 -27 -6 -4 -11 -3 -11 3 0 6 -17 8 -39 5 -39 -5 -58 6 -46 26 5 8 11 7 21
-1 7 -6 20 -9 27 -6z m202 -2 c7 -12 -12 -24 -25 -16 -11 7 -4 25 10 25 5 0
11 -4 15 -9z m45 -1 c0 -5 -4 -10 -10 -10 -5 0 -10 5 -10 10 0 6 5 10 10 10 6
0 10 -4 10 -10z m-430 -15 c0 -8 -4 -15 -9 -15 -13 0 -22 16 -14 24 11 11 23
6 23 -9z m-300 -11 c0 -8 -5 -12 -10 -9 -6 4 -8 11 -5 16 9 14 15 11 15 -7z
m760 12 c0 -3 -4 -8 -10 -11 -5 -3 -10 -1 -10 4 0 6 5 11 10 11 6 0 10 -2 10
-4z m75 -16 c3 -5 -3 -10 -15 -10 -12 0 -18 5 -15 10 3 6 10 10 15 10 5 0 12
-4 15 -10z m-705 -4 c0 -3 -4 -8 -10 -11 -5 -3 -10 -1 -10 4 0 6 5 11 10 11 6
0 10 -2 10 -4z m490 -6 c0 -5 -7 -10 -16 -10 -8 0 -12 5 -9 10 3 6 10 10 16
10 5 0 9 -4 9 -10z m280 0 c0 -5 -4 -10 -9 -10 -6 0 -13 5 -16 10 -3 6 1 10 9
10 9 0 16 -4 16 -10z m-1125 -10 c3 -5 1 -10 -4 -10 -6 0 -11 5 -11 10 0 6 2
10 4 10 3 0 8 -4 11 -10z m172 -7 c2 -6 -1 -14 -6 -18 -6 -3 -11 -1 -11 4 0 6
-7 11 -15 11 -8 0 -15 4 -15 8 0 13 43 7 47 -5z m243 7 c0 -5 -4 -10 -10 -10
-5 0 -10 5 -10 10 0 6 5 10 10 10 6 0 10 -4 10 -10z m135 0 c3 -5 -1 -10 -10
-10 -9 0 -13 5 -10 10 3 6 8 10 10 10 2 0 7 -4 10 -10z m115 -9 c0 -5 -7 -12
-16 -15 -14 -5 -15 -4 -4 9 14 17 20 19 20 6z m253 -11 c-6 -22 -33 -24 -40
-3 -4 10 9 17 39 22 3 0 4 -8 1 -19z m-53 0 c0 -5 -4 -10 -10 -10 -5 0 -10 5
-10 10 0 6 5 10 10 10 6 0 10 -4 10 -10z m100 6 c0 -3 -4 -8 -10 -11 -5 -3
-10 -1 -10 4 0 6 5 11 10 11 6 0 10 -2 10 -4z m-705 -15 c3 -5 1 -12 -5 -16
-5 -3 -10 1 -10 9 0 18 6 21 15 7z m-165 -5 c0 -3 -4 -8 -10 -11 -5 -3 -10 -1
-10 4 0 6 5 11 10 11 6 0 10 -2 10 -4z m102 -50 c-3 -5 -9 -1 -13 10 -12 31
-10 39 5 19 8 -11 12 -24 8 -29z m318 34 c0 -5 -12 -10 -27 -9 l-28 1 25 8
c14 4 26 8 28 9 1 1 2 -3 2 -9z m538 -8 c2 -7 -3 -12 -12 -12 -9 0 -16 7 -16
16 0 17 22 14 28 -4z m-428 -17 c0 -8 -4 -15 -9 -15 -13 0 -22 16 -14 24 11
11 23 6 23 -9z m480 -6 c11 -20 11 -20 -14 -4 -30 20 -32 25 -11 25 8 0 19 -9
25 -21z m-870 -9 c0 -5 -5 -10 -11 -10 -5 0 -7 5 -4 10 3 6 8 10 11 10 2 0 4
-4 4 -10z m480 0 c0 -5 -7 -10 -16 -10 -8 0 -12 5 -9 10 3 6 10 10 16 10 5 0
9 -4 9 -10z m110 0 c0 -5 -4 -10 -10 -10 -5 0 -10 5 -10 10 0 6 5 10 10 10 6
0 10 -4 10 -10z m547 -12 c-3 -8 -6 -5 -6 6 -1 11 2 17 5 13 3 -3 4 -12 1 -19z
m-797 -4 c0 -8 -5 -12 -10 -9 -6 4 -8 11 -5 16 9 14 15 11 15 -7z m210 7 c0
-6 -4 -13 -10 -16 -5 -3 -10 1 -10 9 0 9 5 16 10 16 6 0 10 -4 10 -9z m380 -1
c0 -5 -7 -10 -16 -10 -8 0 -12 5 -9 10 3 6 10 10 16 10 5 0 9 -4 9 -10z
m-1160 -4 c0 -11 -19 -15 -25 -6 -3 5 1 10 9 10 9 0 16 -2 16 -4z m120 -6 c0
-5 -4 -10 -10 -10 -5 0 -10 5 -10 10 0 6 5 10 10 10 6 0 10 -4 10 -10z m834
-5 c3 -9 0 -15 -9 -15 -8 0 -15 7 -15 15 0 8 4 15 9 15 5 0 11 -7 15 -15z
m-86 -14 c3 -8 -1 -12 -9 -9 -7 2 -15 10 -17 17 -3 8 1 12 9 9 7 -2 15 -10 17
-17z m565 12 c-7 -2 -19 -2 -25 0 -7 3 -2 5 12 5 14 0 19 -2 13 -5z m-603 -13
c0 -5 -7 -7 -15 -4 -8 4 -15 8 -15 10 0 2 7 4 15 4 8 0 15 -4 15 -10z m454
-21 c-3 -5 -10 -7 -15 -3 -5 3 -7 10 -3 15 3 5 10 7 15 3 5 -3 7 -10 3 -15z
m-274 -5 c0 -8 -5 -12 -10 -9 -6 4 -8 11 -5 16 9 14 15 11 15 -7z m-620 -4 c0
-5 -4 -10 -10 -10 -5 0 -10 5 -10 10 0 6 5 10 10 10 6 0 10 -4 10 -10z m160 0
c0 -5 -5 -10 -11 -10 -5 0 -7 5 -4 10 3 6 8 10 11 10 2 0 4 -4 4 -10z m428
-17 c6 -15 8 -31 4 -35 -13 -13 -43 27 -36 46 9 23 17 20 32 -11z m126 6 c-3
-5 -10 -7 -15 -3 -5 3 -7 10 -3 15 3 5 10 7 15 3 5 -3 7 -10 3 -15z m56 11 c0
-5 -7 -10 -15 -10 -8 0 -15 5 -15 10 0 6 7 10 15 10 8 0 15 -4 15 -10z m-232
-11 c-2 -6 -8 -10 -13 -10 -5 0 -11 4 -13 10 -2 6 4 11 13 11 9 0 15 -5 13
-11z m-308 -29 c0 -5 -4 -10 -9 -10 -6 0 -13 5 -16 10 -3 6 1 10 9 10 9 0 16
-4 16 -10z m200 0 c0 -5 -5 -10 -11 -10 -5 0 -7 5 -4 10 3 6 8 10 11 10 2 0 4
-4 4 -10z m325 0 c-3 -5 -11 -10 -16 -10 -6 0 -7 5 -4 10 3 6 11 10 16 10 6 0
7 -4 4 -10z m55 6 c0 -2 -9 -6 -20 -9 -11 -3 -18 -1 -14 4 5 9 34 13 34 5z
m170 -32 c0 -8 -5 -12 -10 -9 -6 4 -8 11 -5 16 9 14 15 11 15 -7z m-330 -4 c0
-5 -5 -10 -11 -10 -5 0 -7 5 -4 10 3 6 8 10 11 10 2 0 4 -4 4 -10z m57 -6 c-3
-3 -12 -4 -19 -1 -8 3 -5 6 6 6 11 1 17 -2 13 -5z m-330 -10 c-3 -3 -12 -4
-19 -1 -8 3 -5 6 6 6 11 1 17 -2 13 -5z m433 -4 c0 -5 -2 -10 -4 -10 -3 0 -8
5 -11 10 -3 6 -1 10 4 10 6 0 11 -4 11 -10z m-580 -10 c0 -5 -5 -10 -11 -10
-5 0 -7 5 -4 10 3 6 8 10 11 10 2 0 4 -4 4 -10z m360 1 c0 -6 -4 -13 -10 -16
-5 -3 -10 1 -10 9 0 9 5 16 10 16 6 0 10 -4 10 -9z m180 -1 c0 -5 -4 -10 -10
-10 -5 0 -10 5 -10 10 0 6 5 10 10 10 6 0 10 -4 10 -10z m-450 -16 c0 -17 -22
-14 -28 4 -2 7 3 12 12 12 9 0 16 -7 16 -16z m340 -4 c0 -5 -5 -10 -11 -10 -5
0 -7 5 -4 10 3 6 8 10 11 10 2 0 4 -4 4 -10z m-530 -20 c0 -5 -4 -10 -10 -10
-5 0 -10 5 -10 10 0 6 5 10 10 10 6 0 10 -4 10 -10z m623 -21 c4 -15 1 -19
-11 -17 -21 4 -29 38 -9 38 8 0 17 -9 20 -21z m47 5 c0 -8 -5 -12 -10 -9 -6 4
-8 11 -5 16 9 14 15 11 15 -7z m200 -9 c0 -8 -4 -15 -10 -15 -5 0 -10 7 -10
15 0 8 5 15 10 15 6 0 10 -7 10 -15z m487 9 c-3 -3 -12 -4 -19 -1 -8 3 -5 6 6
6 11 1 17 -2 13 -5z m-1522 -24 c3 -5 1 -10 -4 -10 -6 0 -11 5 -11 10 0 6 2
10 4 10 3 0 8 -4 11 -10z m1545 -10 c0 -5 -4 -10 -10 -10 -5 0 -10 5 -10 10 0
6 5 10 10 10 6 0 10 -4 10 -10z m-710 -20 c0 -5 -2 -10 -4 -10 -3 0 -8 5 -11
10 -3 6 -1 10 4 10 6 0 11 -4 11 -10z m244 -6 c8 -21 -1 -34 -25 -34 -20 0
-23 8 -13 34 8 21 30 21 38 0z m-714 -9 c-7 -9 -15 -13 -17 -11 -7 7 7 26 19
26 6 0 6 -6 -2 -15z m642 3 c-9 -9 -15 -9 -24 0 -9 9 -7 12 12 12 19 0 21 -3
12 -12z m-42 -7 c0 -6 -4 -13 -10 -16 -5 -3 -10 1 -10 9 0 9 5 16 10 16 6 0
10 -4 10 -9z m250 -1 c0 -5 -4 -10 -10 -10 -5 0 -10 5 -10 10 0 6 5 10 10 10
6 0 10 -4 10 -10z m-573 -26 c-3 -3 -12 -4 -19 -1 -8 3 -5 6 6 6 11 1 17 -2
13 -5z m600 -10 c-3 -3 -12 -4 -19 -1 -8 3 -5 6 6 6 11 1 17 -2 13 -5z m-417
-25 c0 -5 -4 -9 -10 -9 -5 0 -10 7 -10 16 0 8 5 12 10 9 6 -3 10 -10 10 -16z
m140 11 c0 -5 -4 -10 -10 -10 -5 0 -10 5 -10 10 0 6 5 10 10 10 6 0 10 -4 10
-10z m-67 -15 c-3 -9 -8 -14 -10 -11 -3 3 -2 9 2 15 9 16 15 13 8 -4z m280
-18 c-3 -5 -10 -4 -15 1 -6 6 -7 16 -3 22 6 9 9 9 16 -1 4 -7 5 -17 2 -22z
m200 18 c-3 -9 -8 -14 -10 -11 -3 3 -2 9 2 15 9 16 15 13 8 -4z m-698 -25 c-3
-5 -10 -10 -16 -10 -5 0 -9 5 -9 10 0 6 7 10 16 10 8 0 12 -4 9 -10z m260 0
c3 -5 -1 -10 -10 -10 -9 0 -13 5 -10 10 3 6 8 10 10 10 2 0 7 -4 10 -10z m105
-4 c0 -3 -4 -8 -10 -11 -5 -3 -10 -1 -10 4 0 6 5 11 10 11 6 0 10 -2 10 -4z
m435 -16 c3 -5 1 -10 -4 -10 -6 0 -11 5 -11 10 0 6 2 10 4 10 3 0 8 -4 11 -10z
m55 0 c0 -5 -4 -10 -10 -10 -5 0 -10 5 -10 10 0 6 5 10 10 10 6 0 10 -4 10
-10z m-400 -20 c0 -5 -4 -10 -10 -10 -5 0 -10 5 -10 10 0 6 5 10 10 10 6 0 10
-4 10 -10z m-80 -20 c0 -5 -4 -10 -10 -10 -5 0 -10 5 -10 10 0 6 5 10 10 10 6
0 10 -4 10 -10z m100 -24 c0 -2 -7 -7 -16 -10 -8 -3 -12 -2 -9 4 6 10 25 14
25 6z m-220 -10 c0 -3 -4 -8 -10 -11 -5 -3 -10 -1 -10 4 0 6 5 11 10 11 6 0
10 -2 10 -4z m450 -16 c0 -5 -4 -10 -10 -10 -5 0 -10 5 -10 10 0 6 5 10 10 10
6 0 10 -4 10 -10z m240 -26 c0 -2 -7 -4 -15 -4 -8 0 -15 4 -15 10 0 5 7 7 15
4 8 -4 15 -8 15 -10z m-755 -44 c3 -5 2 -10 -4 -10 -5 0 -13 5 -16 10 -3 6 -2
10 4 10 5 0 13 -4 16 -10z m125 -34 c0 -11 -19 -15 -25 -6 -3 5 1 10 9 10 9 0
16 -2 16 -4z m621 -44 c-7 -2 -18 1 -23 6 -8 8 -4 9 13 5 13 -4 18 -8 10 -11z"/>
<path d="M1420 6066 c-8 -11 -11 -89 -9 -298 2 -156 -1 -326 -5 -378 -8 -92
-7 -96 16 -116 12 -11 91 -47 173 -79 83 -32 220 -85 305 -118 85 -33 164 -63
175 -68 11 -4 70 -27 130 -50 61 -23 173 -66 250 -96 242 -95 257 -100 395
-153 210 -80 341 -131 387 -151 24 -11 46 -19 49 -19 6 0 158 -59 454 -176 74
-29 173 -67 220 -84 47 -17 94 -35 105 -40 11 -5 58 -23 105 -40 110 -40 184
-68 237 -92 24 -10 46 -18 50 -18 8 0 92 -32 148 -56 17 -7 68 -26 115 -44 47
-17 94 -35 105 -40 11 -5 38 -16 60 -24 22 -8 72 -26 110 -40 131 -50 180 -65
187 -58 3 4 9 86 12 182 4 96 8 222 11 280 10 218 9 358 -4 373 -6 8 -24 18
-39 21 -15 4 -51 16 -79 27 -29 11 -79 29 -110 41 -32 11 -74 26 -93 34 -72
27 -404 149 -485 178 -33 12 -70 27 -82 34 -12 7 -27 12 -33 12 -7 0 -26 7
-43 15 -18 8 -77 31 -132 51 -55 20 -127 46 -160 59 -33 12 -125 45 -205 74
-80 29 -157 59 -172 67 -14 8 -32 14 -39 14 -7 0 -31 8 -53 19 -23 10 -77 31
-121 46 -44 14 -89 31 -100 36 -11 5 -63 24 -115 43 -52 20 -149 56 -215 81
-66 26 -138 53 -160 60 -42 14 -99 37 -152 61 -17 8 -37 14 -45 14 -7 1 -31 9
-53 20 -22 11 -47 19 -55 20 -9 0 -24 6 -35 14 -11 7 -38 19 -60 26 -22 7 -44
16 -50 20 -5 4 -21 11 -35 15 -28 7 -119 41 -165 61 -16 7 -50 20 -75 29 -25
9 -67 26 -95 37 -27 11 -63 23 -80 27 -16 4 -44 15 -62 24 -18 10 -39 17 -48
17 -8 0 -32 9 -52 20 -21 11 -46 20 -56 20 -11 0 -31 6 -45 14 -46 25 -144 66
-157 66 -7 0 -18 -7 -25 -14z m835 -429 c70 -26 62 -9 104 -236 29 -156 35
-180 45 -170 3 3 24 72 48 154 49 170 46 167 138 122 l45 -22 -4 -185 c-2
-102 -4 -223 -6 -270 l-2 -85 -27 2 c-55 4 -56 9 -57 222 l-1 196 -20 -60
c-29 -91 -68 -241 -68 -263 0 -32 -16 -35 -63 -14 l-43 19 -13 84 c-15 100
-50 286 -59 314 -10 30 -20 -78 -21 -228 l-1 -129 -32 7 c-18 4 -37 11 -42 15
-15 15 -3 551 13 549 3 0 33 -10 66 -22z m693 -259 c54 -13 118 -54 156 -99
48 -57 75 -148 40 -135 -9 3 -26 6 -39 6 -18 0 -30 12 -52 52 -58 108 -178
125 -218 31 -26 -60 -17 -184 18 -248 42 -77 121 -119 191 -101 23 6 26 12 26
46 0 41 -13 52 -82 74 -17 5 -36 71 -24 83 8 8 96 -20 156 -50 l45 -22 -2
-105 c-2 -130 -5 -134 -113 -127 -124 6 -225 75 -283 192 -75 150 -53 349 43
397 41 21 74 22 138 6z m487 -191 c48 -27 100 -94 117 -150 8 -24 13 -94 13
-167 0 -111 -3 -130 -24 -173 -40 -81 -112 -98 -192 -44 -58 39 -122 157 -85
157 24 0 66 -22 66 -35 0 -19 55 -65 77 -65 32 0 63 46 63 92 0 36 -2 38 -24
32 -89 -22 -185 85 -191 210 -3 69 16 129 48 151 31 21 86 18 132 -8z m401
-151 c46 -22 55 -31 85 -92 34 -68 34 -69 34 -214 0 -128 -3 -151 -22 -192
-16 -34 -32 -53 -58 -65 -35 -17 -37 -16 -89 9 -60 30 -98 73 -122 139 -18 52
-22 264 -4 327 9 37 41 88 65 104 19 14 60 8 111 -16z m442 -157 c75 -36 130
-101 146 -176 9 -40 -3 -47 -51 -28 -29 11 -42 25 -51 48 -19 54 -65 90 -113
91 -109 2 -57 -97 94 -181 71 -39 127 -134 127 -215 0 -50 -4 -62 -32 -94 -32
-36 -33 -36 -93 -31 -118 11 -223 91 -255 195 -11 35 -18 68 -15 72 5 8 64 -2
83 -14 6 -4 14 -22 17 -40 7 -36 47 -87 82 -105 29 -15 75 -14 95 2 48 38 18
97 -86 168 -90 62 -122 94 -146 144 -33 69 -20 155 27 185 26 16 117 5 171
-21z m-1068 -99 c0 -5 -2 -10 -4 -10 -3 0 -8 5 -11 10 -3 6 -1 10 4 10 6 0 11
-4 11 -10z"/>
<path d="M3360 5110 c-28 -28 -28 -122 0 -167 24 -40 63 -52 90 -28 42 38 11
178 -45 203 -21 10 -28 9 -45 -8z"/>
<path d="M3754 4933 c-20 -46 -22 -259 -4 -320 11 -34 18 -43 43 -49 20 -4 34
-1 44 9 38 37 39 305 2 366 -27 45 -65 43 -85 -6z"/>
<path d="M1423 5213 c-9 -3 -12 -65 -13 -236 -1 -128 -3 -248 -5 -267 -8 -73
0 -84 80 -118 41 -18 81 -32 89 -32 8 0 17 -4 20 -9 3 -5 18 -12 32 -15 28 -7
229 -83 255 -96 8 -4 76 -31 150 -60 74 -29 148 -58 164 -65 17 -7 84 -34 150
-60 66 -26 154 -60 195 -77 95 -38 142 -57 260 -103 52 -20 109 -43 125 -50
17 -7 107 -43 200 -80 94 -36 184 -73 200 -81 17 -7 91 -37 165 -64 74 -28
173 -66 220 -85 88 -35 212 -82 315 -120 33 -13 84 -32 113 -44 151 -61 282
-111 322 -123 19 -5 40 -14 45 -18 6 -4 33 -14 60 -23 60 -18 242 -83 270 -96
11 -6 38 -16 60 -23 22 -7 54 -21 70 -30 17 -10 37 -18 46 -18 8 0 33 -9 55
-19 52 -26 90 -35 97 -24 9 14 22 291 22 452 l0 144 -50 17 c-27 10 -93 32
-145 50 -52 18 -108 38 -125 45 -57 26 -110 47 -155 61 -25 8 -53 19 -64 25
-10 6 -42 18 -70 26 -28 8 -55 19 -61 23 -5 4 -55 23 -110 41 -55 19 -102 36
-105 39 -5 5 -56 24 -235 86 -38 14 -83 31 -100 39 -89 42 -136 57 -196 62
-60 5 -67 4 -94 -21 -31 -29 -40 -32 -51 -15 -3 6 8 26 26 44 18 19 30 40 27
48 -3 8 -26 17 -51 20 -25 4 -64 16 -86 27 -21 11 -47 20 -56 20 -9 0 -28 6
-42 14 -15 8 -61 26 -102 41 -41 15 -94 36 -117 46 -24 11 -49 19 -57 19 -8 0
-17 4 -21 9 -3 5 -22 15 -43 21 -50 15 -140 49 -177 66 -16 7 -61 25 -100 40
-155 58 -201 76 -230 89 -16 7 -55 22 -85 33 -30 11 -96 36 -145 56 -50 20
-94 36 -98 36 -5 0 -33 11 -63 25 -30 14 -61 25 -69 25 -7 0 -16 4 -19 9 -3 4
-26 14 -52 21 -25 7 -62 21 -82 32 -20 10 -41 18 -47 18 -6 0 -28 9 -50 20
-22 11 -46 20 -55 20 -9 0 -24 6 -35 14 -11 7 -36 17 -55 21 -19 4 -49 16 -66
26 -17 10 -39 19 -47 19 -9 0 -31 8 -49 18 -18 10 -46 22 -62 26 -17 4 -41 15
-55 25 -14 10 -31 16 -38 14z m701 -395 c8 -13 27 -78 42 -145 16 -68 32 -123
36 -123 9 0 24 32 61 130 18 48 30 66 45 68 28 4 49 -33 47 -83 -1 -22 -2 -97
-3 -167 -2 -131 -6 -141 -41 -119 -12 8 -15 32 -13 112 1 116 -6 119 -43 13
-22 -62 -27 -69 -51 -69 -26 0 -28 4 -56 109 -15 60 -30 112 -33 114 -3 3 -5
-38 -5 -91 0 -53 -3 -98 -7 -100 -5 -3 -18 -1 -31 4 l-24 9 6 152 c3 84 5 165
6 181 0 22 5 27 25 27 15 0 30 -9 39 -22z m341 -128 c4 -6 8 -22 11 -35 3 -19
0 -25 -14 -25 -25 0 -42 19 -42 47 0 16 6 23 19 23 11 0 23 -5 26 -10z m3
-227 c2 -127 2 -133 -17 -133 -32 0 -36 21 -33 150 3 118 4 121 25 118 21 -3
22 -8 25 -135z m156 70 c29 -5 45 -15 67 -46 35 -49 39 -88 8 -80 -11 3 -24
15 -29 27 -4 11 -17 30 -29 40 -20 18 -22 18 -41 1 -28 -26 -28 -112 0 -143
24 -26 52 -28 70 -7 16 19 34 19 50 0 9 -11 8 -20 -6 -45 -10 -16 -25 -31 -34
-31 -54 -4 -102 21 -132 69 -28 45 -31 156 -5 195 19 29 22 30 81 20z m217
-84 c43 -14 69 -43 62 -69 -5 -17 -8 -18 -32 -6 -45 23 -51 13 -51 -90 0 -85
-2 -94 -19 -94 -33 0 -37 22 -33 148 5 135 4 134 73 111z m342 -66 c-7 -2 -19
-2 -25 0 -7 3 -2 5 12 5 14 0 19 -2 13 -5z m-105 -36 c41 -38 56 -77 56 -150
1 -65 -1 -70 -29 -93 -37 -30 -42 -30 -98 1 -58 33 -87 88 -87 167 0 42 5 62
22 83 19 25 25 27 67 21 26 -4 55 -16 69 -29z m292 -37 c0 -5 -4 -10 -10 -10
-5 0 -10 5 -10 10 0 6 5 10 10 10 6 0 10 -4 10 -10z m138 -125 c39 -33 58 -83
35 -92 -10 -4 -27 7 -50 35 -19 23 -41 42 -49 42 -25 0 -15 -40 14 -57 45 -27
102 -101 102 -134 0 -40 -34 -73 -68 -65 -70 17 -111 55 -126 119 -5 22 -3 27
11 27 25 0 38 -11 54 -45 15 -31 38 -41 67 -30 16 6 -1 25 -96 105 -29 24 -33
33 -29 63 7 51 13 57 62 57 32 0 51 -7 73 -25z m226 -84 c40 -25 69 -65 85
-119 9 -34 10 -47 0 -58 -8 -10 -15 -11 -24 -4 -10 8 -113 40 -130 40 -14 0
-2 -27 22 -52 30 -31 49 -35 73 -13 9 8 25 12 38 8 19 -4 22 -12 20 -36 -6
-61 -98 -62 -160 -2 -63 62 -73 177 -21 230 31 30 55 32 97 6z m214 -84 c57
-17 77 -38 63 -66 -10 -17 -15 -19 -30 -9 -15 9 -23 9 -35 -1 -12 -10 -16 -33
-16 -102 0 -70 -3 -89 -14 -89 -35 0 -41 23 -38 153 3 139 1 135 70 114z m116
-50 c10 -7 27 -48 39 -92 12 -43 27 -80 32 -82 10 -3 33 41 54 99 8 20 15 25
30 21 32 -8 44 -28 26 -43 -8 -7 -15 -20 -15 -29 0 -9 -4 -21 -8 -26 -5 -6
-17 -32 -27 -60 -26 -73 -41 -94 -64 -88 -12 3 -24 22 -34 56 -16 53 -67 245
-67 253 0 8 17 4 34 -9z m352 -126 c18 -11 44 -36 60 -56 23 -31 28 -46 28
-98 0 -34 -2 -69 -5 -77 -6 -22 -44 -50 -68 -50 -26 0 -87 25 -105 42 -38 39
-58 119 -44 183 15 72 70 95 134 56z m474 -25 c0 -3 -4 -8 -10 -11 -5 -3 -10
-1 -10 4 0 6 5 11 10 11 6 0 10 -2 10 -4z"/>
<path d="M2986 4308 c-33 -47 -9 -142 39 -154 36 -9 55 11 55 60 0 87 -58 145
-94 94z"/>
<path d="M3677 4053 c-15 -15 -5 -30 31 -46 49 -21 52 -21 52 2 0 32 -62 65
-83 44z"/>
<path d="M4352 3797 c-46 -55 -10 -177 52 -177 38 0 49 23 41 86 -9 78 -62
129 -93 91z"/>
<path d="M7647 6123 c-10 -9 -9 -23 2 -23 5 0 11 7 15 15 5 15 -5 20 -17 8z"/>
<path d="M7631 5909 c-11 -31 -5 -37 16 -16 13 13 14 20 5 29 -9 9 -14 6 -21
-13z"/>
<path d="M7455 5870 c3 -5 13 -10 21 -10 8 0 14 5 14 10 0 6 -9 10 -21 10 -11
0 -17 -4 -14 -10z"/>
<path d="M7740 5693 c0 -10 -11 -35 -25 -56 -14 -20 -23 -37 -20 -37 15 0 76
73 73 87 -4 23 -28 28 -28 6z"/>
<path d="M7690 5690 c0 -5 5 -10 10 -10 6 0 10 5 10 10 0 6 -4 10 -10 10 -5 0
-10 -4 -10 -10z"/>
<path d="M7793 5661 c3 -13 0 -24 -10 -29 -12 -7 -12 -10 2 -22 11 -9 19 -10
26 -3 14 14 7 65 -10 71 -10 3 -12 -1 -8 -17z"/>
<path d="M7756 5601 c-4 -5 -2 -12 3 -15 5 -4 12 -2 15 3 4 5 2 12 -3 15 -5 4
-12 2 -15 -3z"/>
<path d="M7560 5445 c0 -9 5 -15 11 -13 6 2 11 8 11 13 0 5 -5 11 -11 13 -6 2
-11 -4 -11 -13z"/>
<path d="M7663 5423 l-11 -38 19 24 c19 23 25 51 11 51 -4 0 -12 -17 -19 -37z"/>
<path d="M7558 5395 c-6 -27 10 -33 30 -13 8 8 9 15 1 25 -17 19 -26 16 -31
-12z"/>
<path d="M7689 5388 c-7 -13 -19 -28 -28 -35 -9 -6 -13 -14 -10 -17 3 -3 20 9
38 28 19 20 28 36 22 40 -5 4 -15 -4 -22 -16z"/>
<path d="M7610 5350 c0 -5 7 -10 16 -10 8 0 12 5 9 10 -3 6 -10 10 -16 10 -5
0 -9 -4 -9 -10z"/>
<path d="M7515 5200 c-3 -5 -1 -10 4 -10 6 0 11 5 11 10 0 6 -2 10 -4 10 -3 0
-8 -4 -11 -10z"/>
<path d="M1300 4235 c0 -14 5 -25 10 -25 6 0 10 11 10 25 0 14 -4 25 -10 25
-5 0 -10 -11 -10 -25z"/>
<path d="M6722 10440 c0 -14 2 -19 5 -12 2 6 2 18 0 25 -3 6 -5 1 -5 -13z"/>
<path d="M2430 9717 c-3 -3 -21 -7 -40 -10 -51 -7 -193 -48 -205 -58 -13 -13
61 -86 100 -99 26 -8 45 -5 115 21 47 17 92 32 100 34 8 2 42 13 75 25 33 11
75 26 93 31 19 6 32 12 29 15 -17 17 -254 54 -267 41z"/>
<path d="M1673 9632 c3 -38 3 -87 0 -109 -5 -39 -7 -41 -35 -39 -22 2 -35 10
-45 29 -16 32 -48 41 -116 34 -101 -11 -158 -28 -193 -59 -33 -30 -44 -61 -24
-73 6 -3 10 5 10 19 0 30 15 42 24 19 6 -14 9 -15 16 -4 6 11 14 12 37 3 15
-6 55 -16 88 -22 89 -17 127 -30 153 -53 25 -23 29 -47 8 -47 -8 0 -17 -4 -20
-8 -8 -13 41 -7 58 7 9 8 16 22 16 32 0 25 17 24 25 -1 5 -15 12 -18 38 -14
65 10 140 40 164 64 15 15 67 39 131 60 58 20 107 41 109 47 3 7 -8 16 -24 20
-45 11 -206 8 -230 -6 -25 -13 -30 -40 -11 -59 10 -10 5 -11 -22 -6 -19 4 -38
10 -42 13 -4 4 -3 33 2 66 5 33 9 81 8 108 l-1 47 -65 0 -65 0 6 -68z"/>
<path d="M1443 9643 c-26 -5 -28 -12 -10 -36 10 -13 19 -15 52 -7 25 6 44 5
49 0 13 -13 46 -13 46 -1 0 5 -9 12 -19 16 -11 3 -22 12 -25 20 -5 15 -43 18
-93 8z"/>
<path d="M1930 9631 c0 -12 -7 -24 -15 -27 -8 -4 -15 -10 -15 -15 0 -13 84
-11 97 2 7 7 29 15 50 19 l38 7 -30 12 c-16 7 -51 15 -77 18 -44 5 -48 4 -48
-16z"/>
<path d="M7421 9454 c0 -11 3 -14 6 -6 3 7 2 16 -1 19 -3 4 -6 -2 -5 -13z"/>
</g>
</svg>
