<svg width="70" height="70" xmlns="http://www.w3.org/2000/svg">

 <g>
  <title>Layer 1</title>

  <g stroke="null">
   <g stroke="null">
    <title stroke="null">Layer 1</title>
    <g stroke="null">
     <g stroke="null">
      <title stroke="null" fill="#cecccc">Layer 1</title>
      <path stroke="null" d="m40.27308,15.5082c-0.40745,0 -0.6515,-0.34418 -0.83765,-0.86042c-0.27923,-0.86042 -0.09308,-1.89294 0.37228,-2.40915c0.83765,-0.86042 1.303,-1.37665 1.95453,-1.89294c-17.40455,-2.06502 -30.71392,3.44167 -35.83291,14.6271c-2.23373,4.99041 -2.88525,11.01333 -1.95453,18.06877c1.58223,11.70166 14.70545,18.75709 23.08199,19.78961c5.11898,0.68832 10.79642,0.34418 17.77686,-1.03252c10.61025,-2.06502 17.40455,-9.4646 20.19674,-21.68253c0,0 1.20995,-5.67874 0.37228,-10.6692c-1.6753,-9.98083 -8.19039,-15.14334 -13.77474,-16.69214c-0.46537,-0.17208 -0.83765,-1.0325 -0.74458,-1.89292s0.55845,-1.54875 1.0238,-1.37665c6.23585,1.72084 13.40244,7.57166 15.35697,19.10129c1.11687,6.19501 -0.46537,12.73417 -0.46537,12.73417c-3.81599,16.86417 -13.96087,22.37086 -21.77896,23.74751c-6.22036,1.56317 -14.48055,1.56317 -18.05607,1.03245c-5.7705,-0.68832 -22.61662,-6.36711 -24.75729,-22.54295c-1.11687,-8.08796 -0.27922,-15.31544 2.32682,-21.16626c5.58435,-12.39003 19.26601,-18.06877 37.69436,-15.8317c-0.6515,-1.20462 -1.0238,-2.06504 -1.58223,-3.26959c-0.27922,-0.68832 -0.27922,-1.89292 0.09308,-2.40915c0.37228,-0.51623 1.0238,-0.51623 1.303,0.1721c0.93072,2.06502 1.58223,3.26957 3.53677,6.71124c0.18613,0.34418 0.32308,0.71046 0.33736,1.39828c0.01457,0.69909 -0.33736,1.18297 -0.6166,1.5271c0,0 -4.21153,4.81848 -5.0259,4.81848l-0.00002,0zm7.91117,-4.30209c0.27922,1.03252 0.74458,1.03252 1.303,1.03252c0.60771,0 0.74458,-1.03252 0.74458,-1.3767s0,-0.86042 -0.09308,-1.2046c-0.1606,-0.6883 -1.11687,-1.20462 -1.48917,-1.20462c-0.27922,0 -0.61317,0.25988 -0.6515,0.86042c-0.04708,0.9246 0.03833,1.27552 0.18615,1.89299l0.00002,0z" fill="#cecccc"/>
     </g>
    </g>
   </g>
  </g>
 </g>
</svg>