<?xml version="1.0" standalone="no"?>
<!DOCTYPE svg PUBLIC "-//W3C//DTD SVG 20010904//EN"
 "http://www.w3.org/TR/2001/REC-SVG-20010904/DTD/svg10.dtd">
<svg version="1.0" xmlns="http://www.w3.org/2000/svg"
 width="1000.000000pt" height="1000.000000pt" viewBox="0 0 1000.000000 1000.000000"
 preserveAspectRatio="xMidYMid meet">

<g transform="translate(0.000000,1000.000000) scale(0.100000,-0.100000)"
fill="#000000" stroke="none">
<path d="M8010 8243 c0 -43 -3 -162 -7 -264 l-6 -187 62 -31 c35 -17 66 -31
70 -31 3 0 7 24 8 53 1 48 -1 54 -30 74 -28 21 -31 21 -43 5 -12 -16 -13 -15
-14 3 0 11 7 45 15 75 9 32 14 93 13 145 0 50 -3 77 -5 60 -10 -82 -14 -98
-26 -86 -13 13 -13 12 -15 154 -1 63 -6 107 -12 107 -6 0 -10 -33 -10 -77z"/>
<path d="M7365 8247 c-11 -55 -2 -101 18 -105 16 -3 18 3 15 64 -3 74 -23 98
-33 41z"/>
<path d="M8378 7958 c-2 -95 -2 -219 0 -275 l3 -103 50 -25 c28 -14 53 -25 55
-25 2 0 4 26 4 57 0 31 -3 53 -6 50 -4 -4 -20 1 -35 10 -33 20 -38 60 -14 103
11 19 14 65 15 181 l0 157 -25 6 c-14 4 -25 13 -25 21 0 8 -4 15 -10 15 -5 0
-10 -72 -12 -172z"/>
<path d="M6931 8077 c-10 -13 -8 -18 13 -32 37 -24 49 -14 23 19 -20 25 -24
26 -36 13z"/>
<path d="M7723 7990 c0 -25 2 -35 4 -22 2 12 2 32 0 45 -2 12 -4 2 -4 -23z"/>
<path d="M7761 7974 c0 -11 3 -14 6 -6 3 7 2 16 -1 19 -3 4 -6 -2 -5 -13z"/>
<path d="M8769 7859 c0 -19 0 -166 1 -327 1 -278 0 -293 -17 -290 -14 2 -19
14 -21 50 -3 47 -4 48 -66 83 -35 19 -66 35 -69 35 -4 0 -7 -92 -7 -204 0
-185 -2 -205 -19 -228 -18 -22 -21 -55 -33 -344 -18 -438 -18 -438 7 -442 20
-3 461 301 578 399 l58 49 -25 11 c-32 15 -41 40 -37 102 l3 48 -27 -27 c-26
-26 -28 -27 -41 -10 -8 11 -11 30 -7 49 5 24 3 28 -7 22 -37 -23 -98 -6 -100
27 0 4 28 26 63 49 34 24 75 55 91 71 17 15 34 28 38 28 5 0 4 9 -2 19 -5 11
-10 37 -10 58 0 38 -1 39 -89 86 -85 45 -90 47 -96 27 -4 -12 -15 -20 -29 -20
-13 0 -30 -10 -39 -22 -14 -22 -15 -20 -21 42 -3 36 -8 188 -11 337 -3 150 -8
281 -12 290 -4 10 -17 29 -30 42 l-23 24 -1 -34z"/>
<path d="M7328 7859 c-26 -15 -22 -23 19 -43 35 -17 37 -17 57 5 12 12 16 19
9 15 -7 -4 -21 2 -33 14 -23 23 -28 24 -52 9z"/>
<path d="M6587 7833 c-4 -3 -7 -10 -7 -13 0 -11 60 -34 67 -26 3 3 -1 6 -10 6
-9 0 -22 9 -30 20 -8 11 -17 17 -20 13z"/>
<path d="M7732 7641 c-11 -6 -8 -14 14 -36 20 -20 32 -25 43 -18 25 16 23 28
-8 46 -34 20 -32 19 -49 8z"/>
<path d="M6982 7621 l-22 -19 34 -21 c40 -25 44 -26 68 -4 17 15 17 17 -16 40
-41 27 -36 27 -64 4z"/>
<path d="M8123 7413 c-21 -8 -15 -22 17 -38 38 -20 47 -19 52 3 8 29 -34 50
-69 35z"/>
<path d="M7377 7392 c-16 -17 -15 -20 21 -40 l38 -21 22 21 21 22 -30 18 c-37
23 -52 23 -72 0z"/>
<path d="M7778 7170 c-16 -18 -15 -20 18 -41 34 -20 36 -20 54 -4 23 21 26 35
6 35 -7 0 -19 7 -26 15 -16 19 -31 18 -52 -5z"/>
<path d="M9121 6944 c0 -11 3 -14 6 -6 3 7 2 16 -1 19 -3 4 -6 -2 -5 -13z"/>
<path d="M9111 6834 c0 -11 3 -14 6 -6 3 7 2 16 -1 19 -3 4 -6 -2 -5 -13z"/>
<path d="M6134 6807 c-227 -155 -345 -240 -353 -255 -6 -9 -11 -13 -11 -8 0 4
-12 0 -27 -9 -56 -36 -299 -209 -321 -229 -22 -19 -22 -21 -6 -33 17 -12 17
-14 -2 -28 -16 -12 -17 -14 -2 -15 9 0 18 5 20 11 3 8 10 8 25 -2 25 -15 43
-5 25 13 -34 34 3 37 58 6 43 -25 47 -41 12 -46 -12 -2 -40 -22 -62 -44 l-40
-41 -62 31 c-52 26 -64 29 -70 17 -5 -8 -14 -12 -21 -10 -10 4 -23 -14 -43
-61 -5 -12 87 -74 110 -74 7 0 20 -8 29 -18 15 -17 14 -19 -24 -42 -22 -14
-45 -33 -50 -42 -13 -24 -32 -23 -55 3 -18 21 -18 21 23 59 l41 39 -31 10
c-18 6 -47 9 -64 7 -37 -5 -52 8 -26 23 10 5 15 12 12 16 -7 6 -72 -33 -101
-62 -10 -9 -18 -27 -18 -39 0 -17 -4 -22 -15 -18 -8 4 -22 1 -30 -6 -14 -12
-39 -10 -95 5 -15 4 -8 -4 20 -21 74 -44 79 -51 66 -79 -13 -28 -28 -32 -46
-10 -7 8 -19 15 -26 15 -8 0 -14 -7 -14 -15 0 -9 -9 -15 -25 -15 -35 0 -31
-19 5 -26 37 -8 39 -21 4 -30 l-25 -6 23 -22 c19 -18 20 -21 6 -24 -9 -2 -26
2 -37 8 -15 7 -27 8 -40 0 -11 -5 -29 -10 -40 -10 -17 0 -21 6 -21 35 0 40 17
52 49 35 23 -12 28 -1 10 17 -7 7 -9 19 -5 28 7 20 92 58 109 50 6 -4 1 3 -12
14 -48 43 -61 39 -198 -57 -70 -49 -146 -101 -167 -116 l-39 -26 32 0 c18 0
41 -5 51 -10 14 -7 21 -6 27 3 12 20 48 37 78 37 35 0 28 -24 -9 -28 -34 -4
-29 -20 13 -43 37 -20 57 -16 66 12 8 23 33 25 41 4 8 -21 -13 -44 -49 -53
l-31 -8 37 -22 c20 -12 37 -26 37 -31 0 -13 -125 -101 -144 -101 -28 0 -17 17
34 55 28 20 50 41 50 45 0 5 -30 27 -66 49 -65 38 -67 39 -83 21 -18 -22 -110
-60 -143 -60 -17 0 -19 -3 -10 -12 34 -34 -7 -74 -58 -57 -17 6 -33 9 -35 7
-3 -2 1 -24 8 -49 10 -34 18 -44 35 -45 33 -2 37 -10 18 -39 -20 -31 -35 -31
-64 -1 -17 18 -21 31 -16 50 8 34 -13 35 -28 1 -12 -28 -30 -32 -47 -12 -8 11
-6 18 9 32 11 10 20 23 20 28 0 6 -13 -2 -30 -18 -24 -23 -33 -27 -52 -18 -22
9 -21 11 18 37 24 16 48 24 57 20 12 -4 17 -1 17 13 0 11 -3 22 -6 26 -3 3
-47 -23 -98 -59 -50 -35 -120 -84 -156 -109 -36 -25 -139 -97 -230 -160 -91
-63 -202 -141 -248 -172 -45 -31 -81 -57 -80 -58 20 -17 203 -115 214 -115 8
0 31 12 51 27 l35 27 -4 -54 -3 -54 85 -48 c70 -39 91 -47 119 -42 29 5 33 3
27 -12 -6 -17 9 -44 25 -44 5 0 9 9 9 20 0 13 7 20 19 20 11 0 21 4 23 9 2 5
12 11 23 13 28 4 32 -33 6 -56 -17 -16 -23 -17 -36 -6 -9 7 -18 10 -22 6 -8
-7 -14 -2 71 -55 55 -33 76 -41 99 -37 24 5 27 3 22 -13 -4 -14 8 -25 57 -51
35 -18 93 -50 130 -72 56 -33 69 -37 85 -27 17 10 27 7 65 -15 24 -14 54 -26
66 -26 30 0 36 -16 12 -33 -20 -14 -17 -16 52 -58 40 -24 89 -52 108 -62 19
-10 42 -27 50 -36 8 -10 36 -29 61 -44 25 -14 52 -33 59 -42 12 -14 11 -16
-11 -10 -21 5 -31 -1 -58 -36 -19 -22 -80 -76 -136 -118 -56 -42 -146 -110
-199 -151 -54 -41 -113 -86 -131 -100 -19 -14 -59 -45 -90 -70 -32 -25 -81
-63 -110 -85 -29 -22 -77 -59 -107 -82 -50 -39 -166 -129 -323 -248 -38 -30
-97 -75 -130 -100 -33 -26 -94 -72 -135 -103 -41 -31 -109 -83 -150 -117 -41
-34 -100 -80 -130 -102 -30 -23 -113 -87 -185 -142 -71 -56 -179 -139 -240
-185 -60 -47 -138 -106 -171 -133 -34 -26 -97 -76 -140 -109 -44 -34 -87 -71
-98 -82 -25 -29 -60 -21 -166 38 -233 130 -416 233 -425 240 -5 4 -71 41 -145
82 -74 41 -225 128 -335 193 -110 65 -225 132 -255 148 -30 17 -82 47 -115 67
-33 20 -103 61 -155 90 -52 29 -104 61 -115 71 -11 9 -44 24 -74 33 -63 19
-61 18 -61 8 0 -11 99 -54 110 -47 6 3 10 0 10 -7 0 -16 48 -48 275 -181 169
-99 656 -379 755 -435 126 -71 320 -181 341 -195 13 -8 49 -28 79 -44 30 -17
84 -47 118 -67 35 -20 74 -36 86 -36 11 0 42 -11 67 -24 l45 -24 170 126 c226
170 294 224 294 234 0 4 5 8 11 8 6 0 24 10 39 22 16 13 50 39 77 58 42 31
131 101 166 131 7 5 62 47 122 92 61 45 166 125 233 177 350 269 426 328 617
475 114 88 235 182 269 208 81 64 127 100 222 172 44 32 111 84 149 115 123
99 196 144 207 129 5 -8 7 -75 5 -150 -2 -106 -7 -143 -20 -162 -20 -31 -106
-117 -117 -117 -4 0 -15 -9 -25 -20 -10 -11 -22 -20 -27 -20 -15 0 -58 -37
-51 -44 3 -3 1 -6 -6 -6 -15 0 -103 -60 -114 -77 -4 -7 -18 -13 -31 -13 -13 0
-30 -7 -37 -17 -8 -9 -26 -23 -40 -32 -14 -9 -40 -29 -59 -44 -46 -40 -33 -61
75 -116 l86 -45 33 18 c17 9 54 35 81 56 28 22 66 47 85 56 44 20 259 173 323
230 26 23 71 56 100 72 30 17 91 62 138 102 46 39 104 83 129 97 25 14 60 40
79 56 19 16 48 36 65 43 17 7 49 30 71 50 34 30 35 33 10 19 -16 -10 -39 -24
-49 -31 -17 -12 -26 -10 -62 11 -24 14 -49 25 -56 25 -7 0 -42 -20 -77 -45
-36 -25 -73 -45 -84 -45 -19 0 -200 102 -227 128 -29 28 41 3 122 -44 43 -24
89 -44 103 -44 27 0 90 28 137 61 34 25 54 24 106 -6 l43 -25 29 21 c15 12 33
18 39 15 6 -4 38 12 71 34 53 36 59 44 48 57 -12 14 -9 15 25 9 70 -13 139 34
211 144 20 30 36 48 36 39 0 -8 -5 -20 -12 -27 -7 -7 -9 -12 -5 -12 10 0 101
71 105 81 2 5 18 17 35 26 18 9 64 39 102 68 39 28 132 96 209 151 76 54 161
116 190 136 28 21 101 72 161 113 61 42 157 110 215 152 199 144 265 190 290
203 24 13 24 14 5 19 -34 10 -120 58 -135 75 -25 31 -1 28 65 -9 l66 -37 59
42 c33 22 68 40 77 38 30 -4 151 85 145 108 -1 6 23 29 54 50 64 44 66 38 -48
105 -70 41 -96 47 -116 27 -19 -19 -14 -26 21 -33 48 -9 128 -47 124 -59 -2
-6 -15 -12 -29 -14 -15 -2 -28 -11 -31 -21 -5 -19 -172 -141 -193 -141 -6 0
-19 -11 -27 -24 -19 -29 -67 -43 -82 -24 -5 7 -23 20 -40 28 -16 8 -32 16 -34
17 -2 2 8 12 23 24 15 12 30 38 37 64 6 24 17 46 25 49 7 3 39 -8 71 -24 32
-17 63 -30 68 -30 6 0 36 21 68 46 48 37 56 48 46 60 -6 8 -17 14 -23 14 -6 0
-22 9 -36 20 -27 21 -65 26 -75 10 -3 -5 -11 -10 -16 -10 -12 0 29 36 85 73
27 18 47 24 65 21 19 -4 32 1 50 20 l24 26 -28 0 c-24 0 -65 20 -219 107 -13
8 -22 23 -23 41 -1 35 -24 80 -50 104 -11 10 -55 33 -98 52 -73 32 -81 33
-106 20 -15 -7 -31 -19 -34 -24 -4 -7 -24 -1 -53 17 -26 15 -76 43 -112 64
-36 20 -105 60 -155 89 -49 29 -139 81 -200 115 -341 194 -544 313 -571 335
l-30 25 6 130 c3 72 5 131 4 133 0 1 -23 -13 -50 -31z m96 -333 c61 -36 112
-70 115 -74 3 -4 -2 -13 -10 -20 -13 -11 -20 -9 -38 8 -12 11 -53 39 -92 61
-67 39 -115 52 -115 31 0 -5 8 -10 18 -10 10 0 39 -15 65 -33 35 -25 44 -36
35 -45 -8 -8 -15 -7 -24 6 -12 16 -13 15 -14 -3 0 -21 -17 -45 -32 -45 -5 0
-8 6 -7 13 6 49 -23 51 -72 5 -22 -21 -45 -38 -52 -38 -13 1 -57 34 -57 44 0
12 28 6 40 -9 7 -8 19 -15 28 -15 12 0 10 6 -8 25 -13 14 -18 25 -12 25 6 0
14 -4 17 -10 3 -5 14 -10 23 -10 16 1 16 2 0 14 -22 16 -24 30 -3 23 23 -9 28
11 5 23 -14 7 -26 8 -39 0 -25 -13 -44 -13 -36 0 8 13 137 100 148 100 4 0 57
-30 117 -66z m-398 -22 c61 -29 70 -45 36 -63 -17 -9 -24 -9 -32 2 -17 23 -64
49 -85 49 -26 0 -36 17 -20 36 13 16 17 15 101 -24z m-89 -24 c12 -6 28 -19
35 -30 7 -10 20 -18 28 -18 30 0 7 -25 -25 -28 -24 -3 -31 -7 -27 -18 11 -28
-22 -25 -78 6 -31 18 -59 37 -63 43 -10 16 48 57 80 57 16 0 38 -5 50 -12z
m195 -97 c20 -10 45 -28 55 -39 17 -19 17 -21 -8 -58 -25 -38 -63 -73 -77 -74
-5 0 -8 9 -8 19 0 10 -7 22 -16 25 -8 3 -12 10 -9 16 3 5 -3 10 -15 10 -17 0
-20 -4 -15 -20 7 -23 -1 -25 -38 -7 -34 15 -34 23 2 53 16 13 36 40 45 59 19
40 32 43 84 16z m-110 -13 c-3 -7 -24 -28 -49 -47 -24 -18 -45 -37 -47 -41 -4
-11 155 -100 177 -100 9 0 38 14 64 30 47 30 84 40 72 20 -13 -21 -115 -90
-133 -90 -25 0 -237 122 -237 137 0 16 116 102 138 103 11 0 17 -5 15 -12z
m-179 -123 c45 -23 48 -46 10 -77 -18 -16 -37 -28 -41 -28 -14 0 -9 27 7 40
22 19 18 30 -15 41 -32 12 -38 24 -17 32 20 9 27 8 56 -8z m-61 -27 c18 -18
16 -23 -32 -62 -38 -31 -48 -35 -70 -26 -32 12 -26 34 18 72 33 29 65 35 84
16z m532 2 c0 -5 -7 -7 -15 -4 -8 4 -15 8 -15 10 0 2 7 4 15 4 8 0 15 -4 15
-10z m31 -27 c-5 -10 -7 -39 -5 -65 4 -50 -7 -68 -32 -47 -9 8 -13 21 -10 35
9 34 -8 37 -50 9 -39 -26 -69 -32 -79 -15 -3 6 -2 10 4 10 6 0 26 14 45 30 32
28 93 58 124 59 9 1 10 -4 3 -16z m574 -49 c14 -9 25 -21 25 -28 -1 -12 -120
-96 -138 -96 -23 0 -11 16 43 54 30 22 55 42 55 44 0 3 -7 14 -17 24 -20 23
-2 24 32 2z m232 -38 c32 -18 73 -37 90 -41 18 -3 35 -11 38 -16 4 -5 14 -9
24 -9 30 0 43 -24 23 -41 -34 -28 -142 -99 -152 -99 -19 0 -10 19 19 39 16 12
34 34 39 50 10 28 8 31 -31 54 -98 57 -126 68 -147 57 -29 -15 -25 -28 14 -44
66 -27 86 -105 33 -125 -12 -5 -50 -30 -85 -55 -34 -25 -68 -46 -75 -46 -7 0
-18 -9 -25 -20 -16 -27 -36 -25 -60 5 -23 29 -32 32 -32 10 0 -17 -45 -21 -55
-4 -4 5 5 21 19 34 14 13 26 29 26 35 0 6 5 8 11 5 6 -4 8 -13 5 -21 -8 -20
13 -28 32 -11 9 7 26 17 36 21 18 6 17 9 -12 26 -18 11 -37 20 -42 20 -12 0
-13 17 -1 24 5 3 35 -8 67 -24 33 -16 65 -30 72 -30 19 0 122 80 122 95 0 6
-17 20 -37 31 -21 10 -43 26 -49 34 -10 12 -16 12 -40 0 -48 -24 -50 -24 -34
-5 22 27 112 85 132 85 9 0 43 -15 75 -34z m-1361 -22 c5 -20 11 -25 30 -21
13 2 35 -4 49 -13 l26 -17 -27 -18 c-26 -17 -30 -17 -73 -1 -25 9 -56 16 -69
16 -22 0 -22 1 -7 30 14 27 39 49 57 50 4 0 11 -12 14 -26z m161 -19 c23 -14
43 -30 43 -35 0 -5 -20 -23 -44 -40 -67 -46 -108 -38 -45 9 l31 23 -26 27
c-15 15 -23 30 -19 34 10 10 12 9 60 -18z m493 -25 c38 -19 53 -40 29 -40 -16
0 -89 42 -89 52 0 13 18 9 60 -12z m193 -35 c-5 -31 -3 -36 22 -45 l28 -11
-34 -29 c-45 -39 -53 -37 -46 9 6 49 -12 60 -53 31 -16 -11 -43 -23 -62 -26
l-33 -5 23 18 c13 10 40 32 60 49 21 18 48 34 62 37 14 2 28 5 32 6 4 0 4 -15
1 -34z m406 9 c17 -13 20 -19 11 -28 -9 -8 -14 -8 -17 2 -3 6 -11 12 -19 12
-8 0 -14 4 -14 10 0 5 -7 6 -17 3 -11 -4 -14 -3 -9 5 10 17 37 15 65 -4z m151
-19 c-7 -8 -19 -15 -26 -15 -8 0 -14 7 -14 15 0 10 10 15 26 15 22 0 25 -2 14
-15z m-192 -11 c19 -13 21 -19 11 -30 -7 -8 -18 -13 -25 -10 -7 3 -14 1 -16
-4 -2 -6 -16 0 -33 11 -16 12 -22 18 -12 15 11 -3 16 -2 12 4 -18 29 27 39 63
14z m-218 -64 c0 -5 -20 -24 -45 -42 -24 -18 -44 -39 -42 -46 1 -7 43 -35 93
-63 l91 -49 56 40 c51 37 88 51 87 33 -1 -7 -58 -52 -124 -97 -19 -13 -17 -15
23 -40 29 -19 41 -32 37 -43 -5 -12 1 -11 26 5 31 20 32 20 67 1 20 -10 45
-26 56 -34 20 -16 20 -17 -11 -43 -17 -15 -39 -32 -50 -39 -18 -12 -18 -13 6
-34 14 -12 55 -37 93 -55 37 -19 67 -41 67 -49 0 -23 -18 -18 -82 25 -33 22
-66 40 -72 40 -18 0 -54 42 -58 68 l-3 22 -28 -26 c-26 -24 -31 -25 -53 -14
-13 8 -22 16 -19 19 9 8 78 33 100 35 31 4 76 28 72 40 -2 6 -16 15 -30 20
-24 9 -36 3 -99 -41 -40 -27 -74 -55 -76 -61 -1 -5 25 -27 58 -47 43 -26 58
-41 51 -48 -7 -7 -32 3 -82 34 -40 24 -74 49 -76 55 -2 6 22 29 53 50 l57 39
-32 3 c-40 4 -39 14 2 32 l32 14 -38 3 c-29 3 -37 8 -33 19 10 25 -26 30 -42
6 -18 -27 -42 -29 -42 -2 0 12 13 26 37 38 l37 19 -33 17 c-32 17 -33 17 -66
-8 -57 -44 -85 -32 -85 35 0 36 -30 40 -53 7 -14 -21 -17 -22 -32 -7 -15 15
-15 18 11 38 14 11 33 21 40 21 8 0 14 8 14 18 0 10 26 35 62 60 64 43 78 49
78 32z m-780 -10 c8 -5 12 -11 9 -14 -3 -3 -14 1 -25 9 -21 16 -8 20 16 5z
m-679 -40 c11 -6 19 -21 19 -35 0 -31 -51 -65 -96 -65 -39 0 -80 30 -71 53 7
19 37 12 37 -8 0 -22 31 -26 63 -8 42 25 45 42 8 49 -17 4 -34 11 -37 15 -7
12 53 11 77 -1z m1529 -70 c0 -5 -5 -10 -11 -10 -5 0 -7 5 -4 10 3 6 8 10 11
10 2 0 4 -4 4 -10z m927 -52 c28 -15 55 -33 59 -39 7 -13 -47 -64 -79 -75 -34
-11 -32 7 2 35 l34 28 -29 19 c-46 28 -64 46 -58 56 3 5 9 8 12 6 4 -2 30 -15
59 -30z m-1180 -41 c15 -13 37 -27 48 -31 16 -6 17 -9 5 -16 -8 -5 -18 -6 -22
-4 -15 10 -50 -7 -44 -22 10 -25 -13 -25 -63 1 -71 37 -78 48 -45 74 36 28 85
27 121 -2z m511 -3 c31 -9 28 -28 -8 -41 -28 -11 -52 -2 -31 12 6 3 8 12 4 20
-6 16 0 18 35 9z m482 -19 c0 -8 -7 -15 -16 -15 -9 0 -14 -6 -11 -12 2 -7 12
-12 22 -11 10 1 43 -11 74 -27 31 -15 69 -33 85 -39 l29 -12 -51 -35 c-62 -41
-74 -43 -66 -6 4 20 3 23 -5 12 -8 -12 -12 -9 -22 18 -12 35 -20 38 -68 21
-39 -14 -50 -6 -28 19 21 23 21 31 0 54 -15 17 -15 19 3 33 25 19 54 19 54 0z
m-2672 -77 c-11 -10 -25 -18 -32 -18 -17 1 -48 49 -42 65 4 12 13 11 50 -8 44
-22 44 -22 24 -39z m2222 33 c0 10 3 10 12 1 6 -6 9 -14 6 -18 -9 -9 -48 6
-48 18 0 6 6 6 15 -2 12 -10 15 -10 15 1z m-338 -51 c17 -16 38 -30 46 -30 27
0 -1 -18 -33 -22 -21 -2 -30 -8 -29 -20 3 -29 -16 -23 -100 30 l-40 25 30 23
c41 34 86 31 126 -6z m-1553 -95 c-16 -17 -29 -38 -29 -47 0 -26 -19 -32 -41
-12 -30 27 -25 77 12 108 l31 26 28 -22 28 -23 -29 -30z m-429 45 c0 -5 -2
-10 -4 -10 -3 0 -8 5 -11 10 -3 6 -1 10 4 10 6 0 11 -4 11 -10z m2295 -30
c-10 -11 -23 -20 -28 -20 -6 0 -2 9 8 20 10 11 23 20 28 20 6 0 2 -9 -8 -20z
m500 10 c3 -5 -1 -10 -9 -10 -9 0 -16 5 -16 10 0 6 4 10 9 10 6 0 13 -4 16
-10z m296 -9 c13 -11 21 -23 17 -27 -4 -4 -14 -2 -21 4 -8 7 -17 9 -20 5 -4
-3 -7 -1 -7 5 0 7 -7 12 -16 12 -8 0 -12 5 -9 10 9 15 30 12 56 -9z m-736 -2
c8 -12 -23 -49 -41 -49 -22 0 -27 21 -8 41 19 21 39 25 49 8z m221 -21 c56
-31 57 -31 89 -14 45 24 66 17 34 -12 -41 -39 -63 -38 -139 7 -39 23 -70 44
-70 46 0 13 36 2 86 -27z m474 -8 c21 -17 23 -21 10 -30 -8 -5 -21 -8 -27 -5
-7 2 -13 0 -13 -6 0 -8 -33 3 -49 17 -7 6 31 44 43 44 6 0 22 -9 36 -20z
m-644 -2 c9 -15 -32 -49 -51 -41 -8 3 -15 9 -15 15 0 5 5 6 10 3 6 -3 10 -1
10 4 0 6 7 11 16 11 8 0 12 5 9 10 -3 6 -2 10 4 10 5 0 13 -5 17 -12z m52 -54
c-47 -37 -54 -39 -63 -23 -10 15 24 48 59 58 49 13 50 2 4 -35z m-1831 12 c4
-7 14 -15 22 -18 11 -3 5 -15 -21 -44 -19 -21 -38 -48 -42 -58 -7 -19 -7 -19
-26 0 -36 37 -23 105 23 124 31 12 35 12 44 -4z m1988 -37 c41 -22 75 -43 75
-47 0 -9 -32 -42 -41 -42 -5 0 -35 -20 -66 -44 -99 -74 -93 -73 -183 -25 -44
24 -80 46 -80 51 0 16 30 8 78 -21 79 -47 80 -47 165 15 42 30 77 57 77 59 0
3 -24 20 -54 39 -103 66 -82 76 29 15z m229 22 c3 -5 -19 -27 -49 -50 -30 -23
-55 -46 -55 -51 0 -6 -9 -10 -21 -10 -36 0 -17 32 46 77 64 45 71 48 79 34z
m-2924 -10 c0 -16 -59 -53 -72 -45 -7 5 -2 15 18 31 30 24 54 30 54 14z m2638
-75 c-7 -7 -25 -18 -38 -25 l-25 -12 25 19 c20 17 22 22 11 36 -21 25 -28 20
-42 -29 -7 -25 -18 -45 -24 -45 -34 0 -65 69 -41 89 6 5 27 11 46 13 28 2 34
7 32 22 -2 13 7 8 33 -18 30 -30 34 -39 23 -50z m-2204 48 c24 -9 19 -40 -10
-59 -15 -9 -23 -22 -20 -30 8 -21 -50 -58 -78 -51 -32 8 -42 37 -20 53 28 20
42 16 36 -12 -3 -19 0 -25 13 -25 12 0 15 5 11 16 -4 9 -1 23 5 30 9 11 7 15
-5 20 -22 8 -20 27 3 41 15 10 21 10 24 0 3 -7 6 -4 6 6 1 18 9 21 35 11z
m476 -68 l32 -13 -34 -39 c-19 -22 -38 -47 -41 -56 -13 -35 -40 -14 -50 37 -4
23 0 36 21 58 30 31 30 31 72 13z m1943 -23 c3 -5 -6 -9 -19 -9 -13 -1 -21 2
-18 7 6 11 31 12 37 2z m-2220 -28 c13 -9 17 -20 12 -34 -6 -20 -34 -30 -36
-13 0 4 -2 19 -4 35 -4 30 2 33 28 12z m-35 -40 c13 -29 12 -29 -23 -13 -27
12 -32 24 -12 31 21 9 23 8 35 -18z m483 -32 c-12 -8 -21 -21 -21 -30 0 -15
-27 -42 -43 -43 -11 0 0 49 15 67 15 18 50 33 61 26 5 -3 -1 -12 -12 -20z
m-545 -25 c-8 -41 -13 -45 -33 -25 -16 15 -15 18 2 37 26 29 38 25 31 -12z
m794 22 c0 -5 -7 -10 -15 -10 -7 0 -18 -6 -22 -12 -17 -27 -42 -40 -59 -30
-14 8 -11 13 22 36 39 26 74 34 74 16z m-730 -10 c13 -9 12 -12 -4 -25 -23
-17 -42 -5 -33 19 7 18 16 20 37 6z m231 -30 c26 -14 24 -36 -5 -56 -14 -8
-26 -25 -28 -36 -4 -29 -24 -34 -31 -8 -3 12 1 23 11 29 13 7 12 10 -6 15 -12
4 -22 11 -22 15 0 15 29 33 41 25 9 -5 10 -2 6 9 -7 19 5 22 34 7z m1709 -10
c4 0 10 -8 14 -17 3 -10 9 -24 12 -30 3 -7 1 -13 -5 -13 -6 0 -11 7 -11 15 0
8 -6 12 -13 9 -8 -3 -19 6 -26 22 -10 23 -10 26 4 20 9 -3 20 -6 25 -6z
m-2093 -77 c34 -20 63 -42 63 -49 0 -13 -142 -106 -150 -97 -3 3 19 27 49 53
l55 48 -47 29 c-26 15 -47 34 -47 40 0 19 7 17 77 -24z m2216 23 c7 -17 -79
-87 -98 -80 -7 3 -15 -2 -18 -10 -7 -19 -37 -22 -37 -4 0 18 31 48 51 48 10 0
21 9 24 20 5 14 12 19 25 15 11 -3 20 0 24 10 7 19 22 19 29 1z m-1926 -31
c-1 -26 -7 -35 -20 -35 -29 0 -33 30 -6 51 13 10 25 19 26 19 2 0 2 -16 0 -35z
m-1362 -91 c-36 -29 -46 -30 -76 -6 l-22 19 44 26 44 27 20 -21 20 -20 -30
-25z m2288 38 c23 -21 22 -52 -3 -52 -10 0 -23 7 -27 15 -8 13 -16 11 -53 -13
-65 -41 -80 -59 -80 -97 0 -25 7 -38 34 -59 19 -14 40 -26 46 -26 25 0 88 40
93 60 3 14 13 20 31 20 35 0 33 -21 -4 -52 -27 -23 -30 -30 -40 -139 -7 -62
-13 -116 -15 -118 -4 -4 -60 34 -92 62 -12 11 -25 32 -28 47 -9 43 -39 64 -95
66 -30 1 -63 10 -86 23 -33 19 -41 21 -68 10 -52 -21 -116 -69 -116 -87 0 -14
-2 -14 -9 -3 -7 11 -14 10 -37 -6 -28 -20 -84 -28 -84 -13 0 5 35 30 78 58 42
27 175 113 296 190 120 78 223 139 230 135 6 -3 19 -13 29 -21z m-783 -107
c-22 -27 -69 -47 -86 -37 -12 7 -6 15 33 40 48 32 80 30 53 -3z m1607 9 c6
-17 -437 -334 -466 -334 -10 0 -26 7 -37 16 -18 15 -17 15 13 10 28 -5 46 5
145 76 62 45 157 113 211 151 53 38 97 76 97 84 0 16 31 14 37 -3z m-3104 0
c11 -11 -13 -44 -31 -44 -9 1 -28 7 -42 15 -19 10 -21 15 -10 18 8 3 22 8 30
10 22 8 46 8 53 1z m2907 -34 c0 -5 -5 -10 -11 -10 -5 0 -7 5 -4 10 3 6 8 10
11 10 2 0 4 -4 4 -10z m-2707 -26 c21 -8 22 -18 2 -34 -11 -9 -20 -8 -45 7
-28 16 -29 19 -13 31 9 7 22 10 28 7 5 -3 18 -8 28 -11z m872 2 c17 -1 40 -8
53 -14 48 -27 112 -74 112 -83 0 -14 -9 -11 -44 16 -18 14 -38 25 -44 25 -6 0
-12 6 -15 13 -3 8 -11 4 -23 -11 l-19 -23 -47 20 c-25 10 -49 24 -53 31 -10
16 15 42 34 34 9 -3 30 -7 46 -8z m1775 -17 c-56 -45 -130 -99 -135 -99 -16 0
5 22 65 69 36 28 72 51 80 51 10 0 7 -7 -10 -21z m-2500 -39 c0 -5 -4 -10 -10
-10 -5 0 -10 5 -10 10 0 6 5 10 10 10 6 0 10 -4 10 -10z m2175 -52 c31 -14 34
-52 5 -70 -11 -7 -20 -18 -20 -24 0 -25 -52 -124 -66 -124 -18 0 -18 14 -1 32
7 7 20 35 29 61 15 47 15 48 -9 67 -21 16 -22 21 -11 39 7 11 19 22 28 25 8 2
16 4 17 5 1 0 14 -4 28 -11z m-1584 -34 c10 -9 19 -22 19 -28 0 -6 -4 -6 -12
2 -7 7 -17 8 -29 1 -14 -7 -28 -5 -51 7 -42 21 -41 20 -33 34 10 17 82 6 106
-16z m260 1 c0 -5 -9 -11 -21 -13 -20 -3 -27 8 -13 22 10 9 34 3 34 -9z m-756
-4 c3 -5 -2 -16 -10 -25 -13 -12 -21 -13 -40 -4 -26 11 -30 20 -18 31 10 10
61 8 68 -2z m793 -47 c-4 -19 -54 -51 -65 -41 -7 8 44 56 60 57 5 0 7 -7 5
-16z m-752 -4 c20 0 17 -20 -8 -47 -24 -26 -54 -29 -82 -8 -21 16 -15 48 7 39
8 -3 20 2 27 11 7 9 20 13 27 10 8 -3 21 -5 29 -5z m1204 -38 c0 -3 -6 -13
-14 -21 -8 -10 -16 -53 -20 -109 l-6 -93 48 -48 c26 -27 57 -63 70 -80 17 -22
35 -33 63 -37 61 -10 66 -27 14 -52 -45 -22 -83 -19 -100 7 -3 6 -19 11 -34
11 -34 0 -70 -36 -82 -82 -5 -21 -7 20 -5 112 3 80 2 135 -1 123 -5 -24 -23
-32 -23 -10 0 31 13 87 20 87 5 0 6 -9 3 -20 -3 -11 -1 -20 5 -20 13 0 22 203
9 211 -20 14 1 37 27 32 14 -3 26 -8 26 -11z m-920 -1 c0 -5 -18 -22 -40 -38
-22 -15 -40 -33 -40 -40 0 -18 172 -114 193 -107 11 3 39 19 63 36 24 16 49
28 56 26 12 -4 -107 -98 -125 -98 -16 0 -237 130 -237 140 0 9 109 89 123 89
4 1 7 -3 7 -8z m50 -10 c0 -15 -57 -71 -72 -71 -7 0 5 17 27 39 47 45 45 44
45 32z m40 -17 c0 -8 -5 -12 -10 -9 -6 4 -8 11 -5 16 9 14 15 11 15 -7z m49
-38 c23 -28 -8 -60 -48 -49 -15 4 -21 13 -21 34 0 25 4 29 29 29 16 0 34 -6
40 -14z m1508 -32 c-3 -3 -15 0 -27 6 -17 9 -19 14 -9 26 10 12 14 11 26 -6 8
-12 13 -24 10 -26z m-62 -13 c3 -5 1 -12 -5 -16 -5 -3 -10 1 -10 9 0 18 6 21
15 7z m64 -20 c12 -8 8 -13 -17 -28 -18 -10 -32 -24 -32 -30 0 -18 -17 -16
-24 3 -8 22 -8 24 8 24 8 0 18 9 21 20 7 22 22 25 44 11z m-49 -103 c0 -13 -5
-30 -10 -38 -7 -11 -10 -5 -10 23 0 20 5 37 10 37 6 0 10 -10 10 -22z m-150
-83 c0 -9 -9 -15 -22 -15 -21 0 -21 0 -2 15 24 18 24 18 24 0z m-1013 -115
c-3 -11 5 -32 19 -51 13 -18 22 -34 20 -37 -3 -2 -27 8 -55 24 -55 30 -65 54
-28 72 35 17 50 14 44 -8z m703 -81 c0 -5 5 -7 10 -4 6 4 22 -1 36 -10 l26
-17 -32 -23 c-35 -26 -81 -25 -109 1 -12 11 -12 16 3 38 16 26 66 37 66 15z
m-634 -424 c42 -32 55 -72 29 -92 -11 -7 -13 -13 -7 -13 43 0 -22 -66 -165
-166 -112 -79 -150 -97 -180 -86 -19 7 -22 11 -10 11 33 2 78 34 73 53 -2 10
1 18 8 18 6 0 42 26 80 57 67 57 68 58 63 100 -2 24 -1 43 4 43 5 0 9 -6 9
-14 0 -8 8 -13 18 -12 12 1 16 -5 14 -21 -4 -27 10 -30 32 -7 35 35 11 90 -45
101 -30 6 -33 12 -23 50 5 18 10 20 36 12 17 -4 45 -20 64 -34z m-391 -225
c-3 -5 -11 -10 -16 -10 -6 0 -7 5 -4 10 3 6 11 10 16 10 6 0 7 -4 4 -10z m35
0 c0 -5 -2 -10 -4 -10 -3 0 -8 5 -11 10 -3 6 -1 10 4 10 6 0 11 -4 11 -10z
m40 -30 c0 -6 -7 -13 -15 -16 -9 -4 -15 -19 -15 -35 0 -16 -4 -29 -9 -29 -22
0 -29 75 -8 83 22 9 47 7 47 -3z m-116 -64 c-7 -28 -19 -34 -27 -13 -4 12 22
51 30 43 2 -2 1 -15 -3 -30z"/>
<path d="M5679 6399 c-12 -8 -12 -10 1 -19 19 -12 37 -13 45 -1 9 15 -28 31
-46 20z"/>
<path d="M6730 5816 c0 -14 5 -26 10 -26 6 0 10 9 10 19 0 11 -4 23 -10 26 -6
4 -10 -5 -10 -19z"/>
<path d="M6510 5705 c0 -27 1 -28 24 -19 28 11 13 44 -20 44 -2 0 -4 -11 -4
-25z"/>
<path d="M6321 5646 c-15 -18 11 -40 39 -31 24 8 27 30 4 39 -23 9 -30 8 -43
-8z"/>
<path d="M6524 5536 c-21 -16 -13 -32 20 -38 25 -4 46 29 26 42 -20 13 -23 12
-46 -4z"/>
<path d="M6945 5440 c-3 -5 -1 -10 4 -10 6 0 11 5 11 10 0 6 -2 10 -4 10 -3 0
-8 -4 -11 -10z"/>
<path d="M5040 3394 c-34 -25 -59 -48 -56 -51 5 -5 146 86 146 94 0 14 -38 -4
-90 -43z"/>
<path d="M9109 6523 c-63 -42 -147 -99 -188 -126 -41 -28 -135 -94 -209 -148
-75 -55 -144 -99 -154 -99 -10 0 -18 -6 -18 -12 0 -14 -78 -88 -92 -88 -6 0
-73 -44 -149 -97 -76 -54 -185 -131 -243 -172 -59 -41 -106 -77 -106 -80 0 -4
-13 -21 -30 -39 l-29 -33 24 -9 c13 -5 30 -18 37 -30 7 -11 23 -20 36 -20 38
0 20 -25 -21 -28 -24 -2 -37 -8 -37 -18 0 -16 35 -54 49 -54 5 0 11 -7 13 -16
2 -13 17 -6 68 30 36 25 90 63 120 84 30 21 95 67 143 103 49 35 101 73 116
84 16 11 57 40 91 65 34 25 70 50 78 55 9 6 48 33 87 60 38 28 115 82 170 119
55 38 126 91 157 118 31 26 60 48 65 48 4 0 31 18 58 41 28 22 68 52 90 66 65
41 175 126 175 135 0 4 -9 17 -20 28 -12 12 -15 20 -8 20 7 0 3 7 -9 15 -12 8
-30 12 -40 9 -13 -4 -14 -3 -5 3 9 7 -1 17 -37 36 -27 15 -53 27 -58 27 -5 0
-61 -35 -124 -77z m-1099 -846 c42 -14 96 -54 86 -64 -3 -4 -23 -1 -42 6 -26
9 -39 10 -47 2 -21 -21 -44 -12 -51 20 -10 51 -2 56 54 36z"/>
<path d="M5359 6203 c-13 -15 -12 -15 9 -4 23 12 28 21 13 21 -5 0 -15 -7 -22
-17z"/>
<path d="M5427 6196 c-4 -10 -1 -13 9 -9 7 3 14 9 14 14 0 14 -17 10 -23 -5z"/>
<path d="M5470 6200 c20 -13 33 -13 25 0 -3 6 -14 10 -23 10 -15 0 -15 -2 -2
-10z"/>
<path d="M8314 6042 c-39 -26 -88 -62 -110 -79 -21 -18 -85 -67 -142 -109 -56
-41 -100 -79 -97 -84 3 -5 83 46 178 114 95 67 191 135 214 152 38 26 56 54
36 54 -5 0 -40 -21 -79 -48z"/>
<path d="M4455 5638 c-32 -24 -35 -29 -15 -23 14 4 25 8 25 9 0 0 9 11 19 24
25 29 20 27 -29 -10z"/>
<path d="M7864 5585 c-17 -13 -17 -16 -4 -25 19 -13 52 -9 57 7 7 21 -32 34
-53 18z"/>
<path d="M7520 5355 c0 -8 9 -15 20 -15 24 0 27 15 4 24 -22 9 -24 8 -24 -9z"/>
<path d="M7484 5279 c-9 -15 -2 -18 20 -9 17 6 18 7 3 13 -9 3 -19 2 -23 -4z"/>
<path d="M3815 4514 c-32 -16 -54 -34 -42 -34 4 0 19 7 33 16 13 9 27 14 30
11 8 -8 -34 -61 -53 -68 -11 -4 5 -16 48 -39 35 -18 73 -39 84 -46 11 -8 31
-14 45 -14 28 1 67 26 57 37 -4 4 -13 1 -19 -5 -15 -15 -40 -15 -73 0 -26 12
-36 31 -10 22 21 -8 20 66 0 106 -18 35 -52 39 -100 14z"/>
<path d="M4586 4393 c-3 -3 8 -15 24 -25 34 -20 40 -22 40 -10 0 11 -56 43
-64 35z"/>
<path d="M1700 3652 c-54 -44 -96 -86 -98 -98 -2 -11 6 -28 17 -38 19 -18 22
-18 46 -2 36 24 89 11 137 -32 21 -19 41 -32 45 -28 9 8 43 -24 43 -41 0 -8
-5 -11 -12 -8 -7 4 -5 0 4 -8 12 -9 14 -17 7 -24 -15 -15 27 -43 64 -43 36 0
55 10 147 80 158 121 154 130 -94 265 -73 40 -100 49 -150 52 l-61 3 -95 -78z"/>
<path d="M1856 3437 c3 -10 9 -15 12 -12 3 3 0 11 -7 18 -10 9 -11 8 -5 -6z"/>
<path d="M4406 3218 c3 -13 8 -25 11 -28 7 -8 38 17 41 34 3 12 -4 16 -28 16
-28 0 -31 -2 -24 -22z"/>
<path d="M2773 3180 c-51 -11 -223 -150 -223 -181 0 -21 8 -23 43 -10 30 12
41 4 22 -16 -8 -8 -15 -18 -15 -23 0 -10 148 -95 234 -133 68 -31 89 -33 133
-9 53 29 202 156 203 173 0 25 -36 52 -183 134 -107 60 -141 75 -147 65 -6
-10 -12 -11 -22 -3 -7 5 -27 7 -45 3z"/>
<path d="M668 3024 c12 -8 20 -19 17 -24 -7 -11 19 -58 41 -75 17 -12 22 -11
42 7 12 12 22 18 22 14 0 -4 -14 -20 -32 -36 -21 -20 -38 -51 -53 -99 -23 -70
-20 -97 4 -43 25 55 57 93 103 123 27 17 45 35 42 40 -3 5 -33 23 -67 40 -34
18 -74 40 -89 50 -14 11 -32 19 -39 19 -8 0 -3 -7 9 -16z"/>
<path d="M3900 2825 c0 -27 18 -33 38 -13 20 20 14 38 -13 38 -20 0 -25 -5
-25 -25z"/>
<path d="M1120 2760 c0 -5 32 -26 71 -46 83 -41 89 -25 9 24 -55 33 -80 40
-80 22z"/>
<path d="M657 2713 c-4 -3 -6 -38 -6 -77 l1 -71 8 52 c4 29 11 64 14 78 6 24
-3 33 -17 18z"/>
<path d="M660 2545 c0 -5 5 -17 10 -25 5 -8 10 -10 10 -5 0 6 -5 17 -10 25 -5
8 -10 11 -10 5z"/>
<path d="M693 2461 c-7 -11 -8 -23 -2 -32 7 -11 9 -9 9 9 0 27 4 27 38 4 15
-10 68 -40 117 -67 190 -102 221 -119 257 -142 43 -27 56 -29 38 -8 -7 8 -17
15 -22 15 -5 0 -78 40 -161 88 -272 159 -261 154 -274 133z"/>
<path d="M2206 2142 c-3 -5 34 -31 82 -60 103 -60 127 -71 120 -52 -4 13 -173
120 -189 120 -4 0 -10 -4 -13 -8z"/>
<path d="M2010 1719 c13 -11 45 -33 70 -47 25 -14 51 -32 58 -39 7 -7 21 -13
30 -13 13 0 11 5 -8 20 -37 28 -179 103 -150 79z"/>
<path d="M2210 1601 c0 -5 11 -16 24 -23 66 -36 135 -80 160 -103 30 -27 46
-25 46 6 0 11 -7 19 -17 19 -15 0 -96 42 -180 92 -18 11 -33 15 -33 9z"/>
<path d="M2190 1570 c0 -5 5 -10 11 -10 5 0 7 5 4 10 -3 6 -8 10 -11 10 -2 0
-4 -4 -4 -10z"/>
</g>
</svg>
