<svg width="70" height="70" xmlns="http://www.w3.org/2000/svg">

 <g>
  <title>Layer 1</title>

  <g>
   <g>
    <title>Layer 1</title>
    <g stroke="null">
     <path class="fil0" d="m31.77943,33.2307c2.14914,0 2.14914,3.38338 0,3.38338c-2.14914,0 -4.29827,1.5379 -3.68423,3.69096c0.92106,4.6137 8.59655,4.6137 11.66674,1.23032c3.68423,-3.69096 2.14914,-9.53499 -1.5351,-12.61079c-5.21933,-4.6137 -13.81588,-3.69096 -18.42117,0.92274c-6.14039,6.15161 -3.68423,15.37902 2.45616,20.3003c7.36847,6.45919 19.64925,6.15161 26.7107,-0.92274c8.28953,-8.30467 4.91231,-20.91546 -3.37721,-27.68223c-9.82462,-8.61225 -25.78964,-8.61225 -35.00022,0.61516c-10.43866,10.76531 -6.44741,26.75949 3.99125,35.67931c12.28078,10.15015 31.93003,10.76531 43.59677,-0.92274c12.5878,-12.91837 7.67549,-31.98835 -4.91231,-43.06124c-6.75443,-5.53645 -15.65799,-9.22741 -24.86858,-9.53499c-2.45616,0 -2.45616,-3.38338 0,-3.38338c10.13164,0.30758 19.64925,4.30612 27.01772,10.45773c14.1229,11.99563 19.34223,33.52625 5.21933,47.98253c-12.89482,12.91837 -34.6932,12.61079 -48.20206,0.92274c-11.97376,-10.15015 -16.27203,-28.29739 -4.29827,-40.29302c10.43866,-10.76531 28.55281,-10.76531 39.60551,-1.23032c9.82462,8.30467 13.20184,23.06852 3.68423,32.91109c-8.28953,8.30467 -22.41242,8.91983 -31.31599,1.23032c-7.67549,-6.45919 -10.13164,-17.83966 -2.76318,-25.22158c5.83337,-6.15161 16.57905,-7.07435 23.02646,-1.5379c5.21933,4.6137 7.06145,12.61079 1.84212,17.83966c-5.21933,5.22887 -15.96501,4.6137 -17.50011,-3.0758c-0.92106,-4.30612 3.07019,-7.68951 7.06145,-7.68951l-0.00001,0z" fill="#cecccc" fill-rule="nonzero" stroke="null"/>
    </g>
   </g>
  </g>
 </g>
</svg>