<?xml version="1.0" encoding="utf-8"?>
<!-- Generator: Adobe Illustrator 27.2.0, SVG Export Plug-In . SVG Version: 6.00 Build 0)  -->
<svg version="1.1" xmlns="http://www.w3.org/2000/svg" xmlns:xlink="http://www.w3.org/1999/xlink" x="0px" y="0px"
	 viewBox="0 0 127.9 138" enable-background="new 0 0 127.9 138" xml:space="preserve">
<g id="Слой_1">
	<ellipse fill="#FFFFFF" stroke="#000000" stroke-miterlimit="10" cx="64.6" cy="58.8" rx="58" ry="54.1"/>
	<polyline fill="#FFFFFF" stroke="#000000" stroke-miterlimit="10" points="55.9,111.3 64.5,127.1 73.1,111.3 	"/>
	
		<radialGradient id="SVGID_1_" cx="83.3072" cy="178.297" r="37.014" gradientTransform="matrix(1.0829 0 0 2.1429 -25.683 -250.2139)" gradientUnits="userSpaceOnUse">
		<stop  offset="0" style="stop-color:#575756;stop-opacity:0.48"/>
		<stop  offset="1" style="stop-color:#DADADA;stop-opacity:0.5"/>
	</radialGradient>
	<ellipse opacity="0.57" fill="url(#SVGID_1_)" cx="64.5" cy="131.9" rx="56.7" ry="1.6"/>
	<path fill="none" stroke="#F39200" stroke-width="1.1" stroke-miterlimit="10" d="M113.4,66.8c0-25.4-20.6-46.1-46.1-46.1
		c-21.6,0-39.2,17.5-39.2,39.2c0,18.4,14.9,33.3,33.3,33.3c15.6,0,28.3-12.7,28.3-28.3c0-13.3-10.8-24-24-24
		c-11.3,0-20.4,9.2-20.4,20.4c0,9.6,7.8,17.4,17.4,17.4c8.2,0,14.8-6.6,14.8-14.8c0-6.9-5.6-12.6-12.6-12.6
		c-5.9,0-10.7,4.8-10.7,10.7c0,5,4.1,9.1,9.1,9.1c4.3,0,7.7-3.5,7.7-7.7c0-3.6-2.9-6.6-6.6-6.6c-3.1,0-5.6,2.5-5.6,5.6
		c0,2.6,2.1,4.7,4.7,4.7"/>
</g>
<g id="Слой_2">
	
		<ellipse transform="matrix(5.216079e-02 -0.9986 0.9986 5.216079e-02 -4.6028 124.9701)" stroke="#000000" stroke-width="1.1" stroke-miterlimit="10" cx="63.5" cy="64.9" rx="1.7" ry="1.8"/>
	<path stroke="#000000" stroke-width="1.1" stroke-miterlimit="10" d="M61.8,65.1c0,0,0.1,0.7,0.5,1.6c0.2,0.5,0.4,0.8,0.6,1
		c0.3,0.4,0.5,0.7,0.7,0.9c0.2-0.2,0.4-0.5,0.6-0.8c0.3-0.5,0.5-0.7,0.7-1.1c0.4-0.8,0.4-1.6,0.4-1.6c0,0,0,0.5-0.3,0.9
		c-0.1,0.1-0.6,1-1.5,1c-0.8,0-1.3-0.7-1.4-0.8C61.8,65.6,61.8,65.1,61.8,65.1z"/>
	<path stroke="#000000" stroke-width="1.1" stroke-miterlimit="10" d="M64,59.5"/>
	<ellipse fill="#FFFFFF" stroke="#000000" stroke-width="1.1" stroke-miterlimit="10" cx="63.5" cy="65.1" rx="1.5" ry="1.4"/>
</g>
</svg>
