<?xml version="1.0" encoding="utf-8"?>
<!-- Generator: Adobe Illustrator 27.2.0, SVG Export Plug-In . SVG Version: 6.00 Build 0)  -->
<svg version="1.1" xmlns="http://www.w3.org/2000/svg" xmlns:xlink="http://www.w3.org/1999/xlink" x="0px" y="0px"
	 viewBox="0 0 127.9 138" enable-background="new 0 0 127.9 138" xml:space="preserve">
<g id="Слой_2">
</g>
<g id="Слой_1">
	<ellipse fill="#FFFFFF" stroke="#000000" stroke-miterlimit="10" cx="64.5" cy="58.3" rx="58" ry="54.1"/>
	<polyline fill="#FFFFFF" stroke="#000000" stroke-miterlimit="10" points="55.9,111.3 64.5,127.1 73.1,111.3 	"/>
	<path fill="#F39200" stroke="#000000" stroke-miterlimit="10" d="M85.5,91.1H42.6c-3.4,0-6.1-2.7-6.1-6.1V36h55.1v49
		C91.6,88.4,88.9,91.1,85.5,91.1z"/>
	<path fill="#F39200" stroke="#000000" stroke-miterlimit="10" d="M96.5,39.7H31.6V34c0-3,2.5-5.5,5.5-5.5H91c3,0,5.5,2.5,5.5,5.5
		V39.7z"/>
	<path fill="#FFFFFF" stroke="#000000" stroke-miterlimit="10" d="M71.3,28.6H56.8v-4.3c0-1.7,1.4-3.1,3.1-3.1h8.2
		c1.7,0,3.1,1.4,3.1,3.1V28.6z"/>
	<path stroke="#000000" stroke-miterlimit="10" d="M63.6,77.8L63.6,77.8c-0.4,0-0.7-0.3-0.7-0.7V50c0-0.4,0.3-0.7,0.7-0.7l0,0
		c0.4,0,0.7,0.3,0.7,0.7v27.1C64.3,77.5,64,77.8,63.6,77.8z"/>
	<path stroke="#000000" stroke-miterlimit="10" d="M51.7,77.8L51.7,77.8c-0.4,0-0.7-0.3-0.7-0.7V50c0-0.4,0.3-0.7,0.7-0.7h0
		c0.4,0,0.7,0.3,0.7,0.7v27.1C52.4,77.5,52.1,77.8,51.7,77.8z"/>
	<path stroke="#000000" stroke-miterlimit="10" d="M75.2,77.8L75.2,77.8c-0.4,0-0.7-0.3-0.7-0.7V50c0-0.4,0.3-0.7,0.7-0.7l0,0
		c0.4,0,0.7,0.3,0.7,0.7v27.1C75.9,77.5,75.6,77.8,75.2,77.8z"/>
	
		<radialGradient id="SVGID_1_" cx="83.3072" cy="178.297" r="37.014" gradientTransform="matrix(1.0829 0 0 2.1429 -25.683 -250.2139)" gradientUnits="userSpaceOnUse">
		<stop  offset="0" style="stop-color:#575756;stop-opacity:0.48"/>
		<stop  offset="1" style="stop-color:#DADADA;stop-opacity:0.5"/>
	</radialGradient>
	<ellipse opacity="0.57" fill="url(#SVGID_1_)" cx="64.5" cy="131.9" rx="56.7" ry="1.6"/>
</g>
</svg>
